<svg width="94" height="76" viewBox="0 0 94 76" fill="none" xmlns="http://www.w3.org/2000/svg">
<path d="M82.1942 22.4199V9.23479H61.0262L47.0766 0.549794L46.9963 0.5L32.9703 9.23479H13.1165V21.6031L0.0700289 29.728L0 29.7716V75.5H94L93.9992 29.7716L82.1942 22.4199ZM82.1942 25.192L90.2323 30.1987L82.1942 33.4842V25.192ZM46.9988 3.2749L56.5712 9.23618H37.4294L46.9988 3.2749ZM15.4896 11.5834H79.8214V34.4546L47.0512 47.8389L46.9678 47.8055L46.9198 47.8296L15.4891 34.9922L15.4896 11.5834ZM13.1174 24.3764V34.0208L3.76671 30.2031L13.1174 24.3764ZM2.37565 32.1745L44.2725 49.2871L2.37565 72.3316V32.1745ZM5.76366 73.1546L46.9958 50.4766L88.2279 73.1546H5.76366ZM91.622 72.3314L49.7211 49.287L91.622 32.1743V72.3314Z" fill="#FF5300"/>
</svg>
