<svg width="70" height="98" viewBox="0 0 70 98" fill="none" xmlns="http://www.w3.org/2000/svg">
<path d="M22.4566 24.2969H15.7191C15.0995 24.2969 14.5967 24.7997 14.5967 25.4193V32.1568C14.5967 32.7764 15.0995 33.28 15.7199 33.28H22.4574C23.077 33.28 23.5798 32.7764 23.5798 32.1568V25.4193C23.5798 24.7997 23.077 24.2969 22.4566 24.2969ZM21.3342 31.0336H16.8432V26.5426H21.3342V31.0336Z" fill="#FF5300"/>
<path d="M22.4566 37.7715H15.7191C15.0995 37.7715 14.5967 38.2743 14.5967 38.8947V45.6322C14.5967 46.2518 15.0995 46.7546 15.7199 46.7546H22.4574C23.077 46.7546 23.5798 46.2518 23.5798 45.6315V38.8939C23.5798 38.2743 23.077 37.7715 22.4566 37.7715ZM21.3342 44.509H16.8432V40.018H21.3342V44.509Z" fill="#FF5300"/>
<path d="M22.4566 51.2456H15.7191C15.0995 51.2456 14.5967 51.7484 14.5967 52.3688V59.1063C14.5967 59.7259 15.0995 60.2288 15.7199 60.2288H22.4574C23.077 60.2288 23.5798 59.7259 23.5798 59.1056V52.368C23.5798 51.7485 23.077 51.2456 22.4566 51.2456ZM21.3342 57.9832H16.8432V53.4921H21.3342V57.9832Z" fill="#FF5300"/>
<path d="M22.4566 64.7202H15.7191C15.0995 64.7202 14.5967 65.2238 14.5967 65.8434V72.581C14.5967 73.2005 15.0995 73.7034 15.7199 73.7034H22.4574C23.077 73.7034 23.5798 73.2005 23.5798 72.581V65.8434C23.5798 65.2239 23.077 64.7202 22.4566 64.7202ZM21.3342 71.4578H16.8432V66.9667H21.3342V71.4578Z" fill="#FF5300"/>
<path d="M28.3538 28.7887C28.3538 29.4082 28.8566 29.9119 29.4769 29.9119H53.3397C53.9593 29.9119 54.4629 29.409 54.4629 28.7887C54.4629 28.1692 53.9601 27.6655 53.3397 27.6655H29.4769C28.8519 27.6663 28.3538 28.1691 28.3538 28.7887Z" fill="#FF5300"/>
<path d="M53.3353 41.1401H29.4726C28.853 41.1401 28.3494 41.643 28.3494 42.2633C28.3494 42.8829 28.8522 43.3865 29.4726 43.3865H53.3353C53.9549 43.3865 54.4585 42.8837 54.4585 42.2633C54.4585 41.643 53.9557 41.1401 53.3353 41.1401Z" fill="#FF5300"/>
<path d="M53.3353 54.6143H29.4726C28.853 54.6143 28.3494 55.1171 28.3494 55.7374C28.3494 56.357 28.8522 56.8606 29.4726 56.8606H53.3353C53.9549 56.8606 54.4585 56.3578 54.4585 55.7374C54.4585 55.1171 53.9557 54.6143 53.3353 54.6143Z" fill="#FF5300"/>
<path d="M53.3353 68.0889H29.4726C28.853 68.0889 28.3494 68.5917 28.3494 69.212C28.3494 69.8316 28.8522 70.3352 29.4726 70.3352H53.3353C53.9549 70.3352 54.4585 69.8324 54.4585 69.212C54.4585 68.5917 53.9557 68.0889 53.3353 68.0889Z" fill="#FF5300"/>
<path d="M64.2732 9.6999H45.5888V7.72377C45.5888 7.10423 45.0859 6.60059 44.4656 6.60059H40.7828C40.7335 3.3485 38.0697 0.716797 34.809 0.716797C31.5483 0.716797 28.8845 3.3485 28.8352 6.60059H25.1524C24.5329 6.60059 24.0292 7.10343 24.0292 7.72377V9.6999H5.34482C2.39911 9.6999 0 12.2195 0 15.3142V91.6687C0 94.7634 2.39831 97.283 5.34482 97.283H64.2729C67.2195 97.283 69.6178 94.7634 69.6178 91.6687L69.6186 15.3142C69.6186 12.2195 67.2194 9.6999 64.2737 9.6999H64.2732ZM61.5781 77.7914H49.0023C48.3828 77.7914 47.8791 78.2942 47.8791 78.9146V91.4904L8.0396 91.4896V15.494H24.0287V17.5603C24.0287 18.1798 24.5316 18.6835 25.1519 18.6835H44.4651C45.0847 18.6835 45.5883 18.1806 45.5883 17.5603V15.494H61.5774L61.5781 77.7914ZM59.9881 80.0369L50.1248 89.9002V80.0369H59.9881ZM26.2762 8.84753H29.959C30.5786 8.84753 31.0822 8.34469 31.0822 7.72435L31.0814 6.69204C31.0814 4.6352 32.7568 2.96374 34.8097 2.96374C36.8627 2.96374 38.538 4.63911 38.538 6.69204V7.72513C38.538 8.34467 39.0409 8.84831 39.6612 8.84831H43.344L43.3432 10.8244V16.4388H26.2755L26.2763 14.3725L26.2762 8.84753ZM67.373 91.6705C67.373 93.53 65.9803 95.0393 64.2737 95.0393H5.34552C3.63883 95.0393 2.24622 93.53 2.24622 91.6705L2.24701 15.316C2.24701 13.4566 3.63961 11.9472 5.3463 11.9472H24.0307V13.2498H6.91751C6.29797 13.2498 5.79432 13.7526 5.79432 14.373V92.6143C5.79432 93.2338 6.29716 93.7375 6.91751 93.7375H49.0027C49.2988 93.7375 49.5863 93.6208 49.7977 93.4093L63.4966 79.7104C63.6901 79.5169 63.7708 79.2616 63.7888 79.0008C63.7888 78.9694 63.8248 78.9467 63.8248 78.9154V14.373C63.8248 13.7534 63.3219 13.2498 62.7016 13.2498H45.59V11.9472H64.2744C65.9811 11.9472 67.3737 13.4565 67.3737 15.316L67.373 91.6705Z" fill="#FF5300"/>
</svg>
