<svg width="90" height="86" viewBox="0 0 90 86" fill="none" xmlns="http://www.w3.org/2000/svg">
<path d="M83.3805 24.428H59.432V4.12694C59.432 1.78411 57.5385 0 55.3108 0H24.0106L23.8988 0.111264H23.6758V0.334571L0.729761 23.4242H0.618652V26.3242H0.729761V81.5386C0.729761 83.9926 2.73435 86 5.1849 86H55.0869C57.5374 86 59.542 83.9926 59.542 81.5386V78.9733H83.4905C86.8324 78.9733 89.6171 76.1847 89.6171 72.8382L89.6187 30.5629C89.3957 27.2171 86.7222 24.4285 83.3803 24.4285L83.3805 24.428ZM80.7075 27.328L59.4324 44.7287V27.328H80.7075ZM23.6767 4.46137V23.4237H4.85185L23.6767 4.46137ZM56.5363 81.5385C56.5363 82.3197 55.868 82.9888 55.088 82.9888H5.07458C4.29449 82.9888 3.6263 82.3197 3.6263 81.5385L3.62707 43.6134V26.3239H26.6845V2.89955H55.3113C55.9795 2.89955 56.5366 3.45744 56.5366 4.12658L56.5358 43.6133L56.5363 81.5385ZM59.4322 75.9613V48.5214L84.8287 27.7741C85.831 28.332 86.4992 29.3357 86.4992 30.5627V72.838C86.4992 73.1726 86.4992 73.3959 86.3881 73.6192L69.0117 53.7643L66.7842 55.6605L84.3835 75.7385C84.0494 75.9618 83.7153 75.9618 83.3804 75.9618L59.4322 75.9613ZM12.8718 42.3864H46.5111V45.3983L12.8718 45.3976V42.3864ZM12.8718 33.1283H46.5111V36.1402L12.8718 36.1394V33.1283ZM12.8718 51.6448H46.5111L46.5103 54.7681H12.871L12.8718 51.6448ZM12.8718 61.0143H46.5111V64.0262L12.8718 64.0255V61.0143ZM12.8718 70.2725H46.5111V73.2844L12.8718 73.2836V70.2725Z" fill="#FF5300"/>
</svg>
