<svg width="84" height="102" viewBox="0 0 84 102" fill="none" xmlns="http://www.w3.org/2000/svg">
<path d="M27.0832 10.9856H57.155V6.97605C57.155 5.19364 57.8857 3.57094 59.0567 2.40063C60.2276 1.23036 61.8513 0.5 63.6346 0.5H65.4329C67.2163 0.5 68.8399 1.23034 70.0109 2.40063C71.1818 3.57092 71.9125 5.19374 71.9125 6.97605V10.9856H74.7439C77.1796 10.9856 79.4016 11.986 81.0089 13.5939C82.6192 15.1947 83.6187 17.4154 83.6187 19.8571V92.6286C83.6187 95.0702 82.6185 97.2902 81.0129 98.8956L80.9095 98.9911C79.3086 100.54 77.1296 101.5 74.7439 101.5H9.49343C7.05769 101.5 4.83569 100.5 3.22843 98.8917C1.61813 97.2908 0.618652 95.0701 0.618652 92.6285V19.857C0.618652 17.4154 1.61883 15.1954 3.22442 13.59L3.32781 13.4945C4.92872 11.9454 7.10774 10.9856 9.49335 10.9856H12.3263V6.97605C12.3263 5.19364 13.057 3.57094 14.228 2.40063C15.3989 1.23036 17.0226 0.5 18.8059 0.5H20.6042C22.3876 0.5 24.0112 1.23034 25.1821 2.40063C26.3531 3.57092 27.0838 5.19374 27.0838 6.97605V10.9856H27.0832ZM65.0309 75.7874H73.5305C74.4602 75.7874 75.2144 76.5412 75.2144 77.4704V86.8835C75.2144 87.8127 74.4602 88.5665 73.5305 88.5665H65.0309C64.1012 88.5665 63.3469 87.8127 63.3469 86.8835V77.4704C63.3469 76.5412 64.1012 75.7874 65.0309 75.7874ZM71.8464 79.1542H66.7155V85.2013H71.8464V79.1542ZM46.9236 75.7874H55.4232C56.3529 75.7874 57.1072 76.5412 57.1072 77.4704V86.8835C57.1072 87.8127 56.3529 88.5665 55.4232 88.5665H46.9236C45.9939 88.5665 45.2397 87.8127 45.2397 86.8835V77.4704C45.2397 76.5412 45.9939 75.7874 46.9236 75.7874ZM53.7392 79.1542H48.6083V85.2013H53.7392V79.1542ZM28.8143 75.7874H37.314C38.2437 75.7874 38.9979 76.5412 38.9979 77.4704V86.8835C38.9979 87.8127 38.2437 88.5665 37.314 88.5665H28.8143C27.8847 88.5665 27.1304 87.8127 27.1304 86.8835V77.4704C27.1304 76.5412 27.8847 75.7874 28.8143 75.7874ZM35.6299 79.1542H30.499V85.2013H35.6299V79.1542ZM10.7071 75.7874H19.2067C20.1364 75.7874 20.8907 76.5412 20.8907 77.4704V86.8835C20.8907 87.8127 20.1364 88.5665 19.2067 88.5665H10.7071C9.77741 88.5665 9.02317 87.8127 9.02317 86.8835V77.4704C9.02317 76.5412 9.77741 75.7874 10.7071 75.7874ZM17.5227 79.1542H12.3917V85.2013H17.5227V79.1542ZM65.0325 56.0647H73.5321C74.4618 56.0647 75.216 56.8185 75.216 57.7477V67.1608C75.216 68.09 74.4618 68.8438 73.5321 68.8438H65.0325C64.1028 68.8438 63.3485 68.09 63.3485 67.1608V57.7477C63.3485 56.8185 64.1028 56.0647 65.0325 56.0647ZM71.8481 59.4315H66.7171V65.4786H71.8481V59.4315ZM46.9252 56.0647H55.4248C56.3545 56.0647 57.1088 56.8185 57.1088 57.7477V67.1608C57.1088 68.09 56.3545 68.8438 55.4248 68.8438H46.9252C45.9955 68.8438 45.2413 68.09 45.2413 67.1608V57.7477C45.2413 56.8185 45.9955 56.0647 46.9252 56.0647ZM53.7408 59.4315H48.6099V65.4786H53.7408V59.4315ZM28.8159 56.0647H37.3156C38.2453 56.0647 38.9995 56.8185 38.9995 57.7477V67.1608C38.9995 68.09 38.2453 68.8438 37.3156 68.8438H28.8159C27.8863 68.8438 27.132 68.09 27.132 67.1608V57.7477C27.132 56.8185 27.8863 56.0647 28.8159 56.0647ZM35.6315 59.4315H30.5006V65.4786H35.6315V59.4315ZM10.7087 56.0647H19.2083C20.138 56.0647 20.8923 56.8185 20.8923 57.7477V67.1608C20.8923 68.09 20.138 68.8438 19.2083 68.8438H10.7087C9.77901 68.8438 9.02477 68.09 9.02477 67.1608V57.7477C9.02477 56.8185 9.77901 56.0647 10.7087 56.0647ZM17.5243 59.4315H12.3933V65.4786H17.5243V59.4315ZM65.0341 36.344H73.5337C74.4634 36.344 75.2176 37.0978 75.2176 38.027V47.4401C75.2176 48.3693 74.4634 49.1231 73.5337 49.1231H65.0341C64.1044 49.1231 63.3501 48.3693 63.3501 47.4401V38.027C63.3501 37.0978 64.1044 36.344 65.0341 36.344ZM71.8497 39.7108H66.7187V45.7579H71.8497V39.7108ZM46.9268 36.344H55.4264C56.3561 36.344 57.1104 37.0978 57.1104 38.027V47.4401C57.1104 48.3693 56.3561 49.1231 55.4264 49.1231H46.9268C45.9971 49.1231 45.2429 48.3693 45.2429 47.4401V38.027C45.2429 37.0978 45.9971 36.344 46.9268 36.344ZM53.7424 39.7108H48.6115V45.7579H53.7424V39.7108ZM28.8176 36.344H37.3172C38.2469 36.344 39.0011 37.0978 39.0011 38.027V47.4401C39.0011 48.3693 38.2469 49.1231 37.3172 49.1231H28.8176C27.8879 49.1231 27.1336 48.3693 27.1336 47.4401V38.027C27.1336 37.0978 27.8879 36.344 28.8176 36.344ZM35.6331 39.7108H30.5022V45.7579H35.6331V39.7108ZM10.7103 36.344H19.2099C20.1396 36.344 20.8939 37.0978 20.8939 38.027V47.4401C20.8939 48.3693 20.1396 49.1231 19.2099 49.1231H10.7103C9.78062 49.1231 9.02637 48.3693 9.02637 47.4401V38.027C9.02637 37.0978 9.78062 36.344 10.7103 36.344ZM17.5259 39.7108H12.395V45.7579H17.5259V39.7108ZM7.85931 31.5948C6.92963 31.5948 6.17539 30.841 6.17539 29.9118C6.17539 28.9826 6.92963 28.2288 7.85931 28.2288H76.3861C77.3158 28.2288 78.07 28.9826 78.07 29.9118C78.07 30.841 77.3158 31.5948 76.3861 31.5948H7.85931ZM57.1596 14.353H27.0878V16.4391C27.0878 18.2215 26.3571 19.8442 25.1861 21.0145C24.0152 22.1848 22.3915 22.9152 20.6082 22.9152H18.8099C17.0265 22.9152 15.4029 22.1848 14.2319 21.0145C13.061 19.8443 12.3303 18.2214 12.3303 16.4391V14.353H9.49732C8.01859 14.353 6.6714 14.9417 5.68451 15.892L5.6101 15.9718C4.61149 16.9699 3.99118 18.3461 3.99118 19.8585V92.63C3.99118 94.1424 4.61151 95.5185 5.6101 96.5167C6.60323 97.5163 7.98169 98.1347 9.49731 98.1347H74.7478C76.2266 98.1347 77.5737 97.5461 78.5606 96.5957L78.635 96.5159C79.6337 95.5178 80.254 94.1416 80.254 92.6292V19.8577C80.254 18.3453 79.6336 16.9692 78.635 15.971C77.6419 14.9714 76.2635 14.353 74.7478 14.353H71.9165V16.4391C71.9165 18.2215 71.1858 19.8442 70.0148 21.0145C68.8439 22.1848 67.2202 22.9152 65.4369 22.9152H63.6386C61.8552 22.9152 60.2316 22.1848 59.0606 21.0145C57.8897 19.8443 57.159 18.2214 57.159 16.4391V14.353H57.1596ZM65.4375 3.86752H63.6392C62.7855 3.86752 62.0054 4.21978 61.4431 4.78183C60.8807 5.34387 60.5282 6.12353 60.5282 6.97675V16.4392C60.5282 17.2925 60.8807 18.0721 61.4431 18.6341C62.0054 19.1962 62.7855 19.5485 63.6392 19.5485H65.4375C66.2912 19.5485 67.0713 19.1962 67.6336 18.6341C68.196 18.0721 68.5484 17.2924 68.5484 16.4392V6.97675C68.5484 6.12351 68.196 5.34385 67.6336 4.78183C67.0713 4.21978 66.2912 3.86752 65.4375 3.86752ZM20.6085 3.86752H18.8102C17.9565 3.86752 17.1764 4.21978 16.614 4.78183C16.0517 5.34387 15.6992 6.12353 15.6992 6.97675V16.4392C15.6992 17.2925 16.0517 18.0721 16.614 18.6341C17.1764 19.1962 17.9565 19.5485 18.8102 19.5485H20.6085C21.4622 19.5485 22.2423 19.1962 22.8046 18.6341C23.367 18.0721 23.7194 17.2924 23.7194 16.4392V6.97675C23.7194 6.12351 23.367 5.34385 22.8046 4.78183C22.2422 4.21978 21.4622 3.86752 20.6085 3.86752Z" fill="#FF5300"/>
</svg>
