<svg width="98" height="102" viewBox="0 0 98 102" fill="none" xmlns="http://www.w3.org/2000/svg">
<path fill-rule="evenodd" clip-rule="evenodd" d="M57.2428 0.000683049C53.4004 0.000683049 50.2547 3.18151 50.2547 7.06189V26.0512L42.4306 35.3206C41.9839 35.8426 41.8806 36.5797 42.1665 37.2062C42.4516 37.8334 43.0739 38.233 43.756 38.2298H90.6305C94.4729 38.2298 97.6187 35.049 97.6187 31.1686V7.0612C97.6187 3.18083 94.4731 0 90.6305 0L57.2428 0.000683049ZM57.2428 3.51752H90.6311C92.6083 3.51752 94.1388 5.07184 94.1388 7.06189V31.1673C94.1388 33.1573 92.6083 34.7084 90.6311 34.7084H47.5194L53.3143 27.8436C53.5854 27.5249 53.7346 27.119 53.7353 26.6998V7.0612C53.7353 5.07122 55.2658 3.51684 57.243 3.51684L57.2428 3.51752ZM65.5159 11.7742C65.0544 11.7727 64.6108 11.9556 64.2837 12.2845C63.9559 12.6126 63.771 13.0593 63.7687 13.5256C63.7671 13.9943 63.9505 14.4449 64.2791 14.7761C64.6069 15.1074 65.0521 15.2927 65.5159 15.2911H82.8978C83.3593 15.2895 83.8013 15.1019 84.1261 14.7714C84.4516 14.4402 84.6334 13.9919 84.631 13.5256C84.6272 12.5601 83.8534 11.7782 82.8978 11.7743L65.5159 11.7742ZM19.6696 13.6182C12.0476 13.6182 5.84648 19.969 5.84648 27.7272C5.84648 32.789 8.48863 37.2502 12.4398 39.7409C5.50222 42.6187 0.618667 49.5159 0.618667 57.5692V66.5404V66.5396C0.614782 67.5107 1.39089 68.3004 2.35188 68.3043H36.9852C37.947 68.3004 38.7223 67.5107 38.7192 66.5396V57.5685C38.7192 49.5159 33.8357 42.6187 26.8981 39.7401C30.8493 37.2492 33.4914 32.788 33.4914 27.7264C33.4914 19.9689 27.2903 13.6175 19.6683 13.6175L19.6696 13.6182ZM19.6696 17.1351C25.389 17.1351 30.0091 21.8482 30.0091 27.7264C30.0091 33.4695 25.6003 38.101 20.0642 38.3115C19.9337 38.3083 19.8016 38.3044 19.6703 38.3044C19.539 38.3044 19.4069 38.3075 19.2764 38.3115C13.7403 38.1011 9.32771 33.4703 9.32771 27.7264C9.32771 21.8474 13.9509 17.1351 19.6704 17.1351H19.6696ZM65.5159 22.9354V22.9362C65.0521 22.9339 64.6069 23.1199 64.2783 23.4512C63.9505 23.7825 63.7671 24.2323 63.7687 24.7009C63.7702 25.168 63.9543 25.6155 64.2822 25.9452C64.61 26.2741 65.0536 26.4578 65.5159 26.4562H82.8978C83.8549 26.4523 84.6294 25.6681 84.631 24.7009C84.6333 24.2346 84.4515 23.7872 84.126 23.4559C83.8013 23.1246 83.3592 22.9378 82.8978 22.9362L65.5159 22.9354ZM19.244 41.8283C19.3846 41.8314 19.5268 41.8354 19.6689 41.8354C19.8111 41.8354 19.9525 41.8338 20.0939 41.8283C28.5503 42.0528 35.2392 48.9584 35.2392 57.5684V64.7874H4.09819V57.5684C4.09819 48.9584 10.7872 42.0528 19.2435 41.8283H19.244ZM65.669 47.3131C58.0471 47.3131 51.8491 53.667 51.8491 61.4253C51.8491 66.491 54.4921 70.9499 58.4496 73.4352C51.5027 76.3108 46.6076 83.2102 46.6076 91.2666V100.234L46.6083 100.234C46.6068 100.703 46.7901 101.153 47.118 101.484C47.4458 101.816 47.8918 102.002 48.3556 102H82.973C83.4376 102.002 83.8835 101.817 84.2129 101.486C84.5415 101.155 84.7256 100.704 84.7233 100.234V91.2674C84.7233 83.21 79.8328 76.3114 72.8882 73.436C76.8418 70.9499 79.4786 66.4917 79.4786 61.4261C79.4786 53.6686 73.2908 47.3139 65.6686 47.3139L65.669 47.3131ZM65.669 50.8332C71.3885 50.8332 75.9986 55.5464 75.9986 61.4253C75.9986 67.1684 71.5991 71.8 66.0638 72.0104C65.9325 72.0072 65.8012 72.0033 65.6691 72.0033C65.5378 72.0033 65.4089 72.0065 65.2784 72.0104C59.7423 71.8 55.3297 67.1692 55.3297 61.4253C55.3297 55.5464 59.9496 50.8332 65.669 50.8332ZM65.669 75.5194C74.325 75.5194 81.2393 82.5123 81.2393 91.2658V98.4823H50.0884V91.2666C50.0884 82.5129 57.0127 75.5202 65.6688 75.5202L65.669 75.5194Z" fill="#FF5300"/>
</svg>
