<svg width="91" height="90" viewBox="0 0 91 90" fill="none" xmlns="http://www.w3.org/2000/svg">
<path fillRule="evenodd" clip-rule="evenodd" d="M20.1223 0.5C12.3235 0.5 5.98179 6.77401 5.98179 14.4349C5.98179 19.4369 8.68604 23.8399 12.7354 26.294C5.6273 29.1334 0.618652 35.9462 0.618652 43.9014V52.7559L0.619449 52.7567C0.617859 53.2194 0.805454 53.6636 1.14091 53.9907C1.47635 54.3186 1.93263 54.5015 2.4072 54.5H37.8277C38.3031 54.5023 38.7593 54.3194 39.0964 53.9923C39.4326 53.6652 39.621 53.2202 39.6186 52.7567V43.9022C39.6186 35.946 34.6147 29.134 27.509 26.2947C31.5543 23.8399 34.2522 19.4377 34.2522 14.4357C34.2522 6.77558 27.9209 0.500772 20.1219 0.500772L20.1223 0.5ZM20.1223 3.97584C25.9744 3.97584 30.6915 8.62981 30.6915 14.4349C30.6915 20.1059 26.19 24.6793 20.5263 24.887C20.3919 24.8839 20.2576 24.8801 20.1224 24.8801C19.9881 24.8801 19.8561 24.8832 19.7226 24.887C14.0581 24.6793 9.54313 20.1067 9.54313 14.4349C9.54313 8.62981 14.2702 3.97584 20.1223 3.97584ZM20.1223 28.352C28.9791 28.352 36.0538 35.257 36.0538 43.9006V51.0265H4.18024V43.9014C4.18024 35.2576 11.2652 28.3528 20.1221 28.3528L20.1223 28.352Z" fill="#FF5300"/>
<path d="M88.6187 54C88.6187 72.5284 73.8174 87.5 55.6187 87.5C37.4199 87.5 22.6187 72.5284 22.6187 54C22.6187 35.4716 37.4199 20.5 55.6187 20.5C73.8174 20.5 88.6187 35.4716 88.6187 54Z" fill="white" stroke="#FF5300" strokeWidth="4"/>
<path d="M39.6187 56.0446L50.5428 66.5L75.6187 42.5" stroke="#49E613" strokeWidth="4" stroke-linecap="round"/>
</svg>
