<svg width="53" height="77" viewBox="0 0 53 77" fill="none" xmlns="http://www.w3.org/2000/svg">
<path d="M18.8303 24.8849H28.3061C28.5605 24.8849 28.7806 24.7533 28.8995 24.539C29.0693 24.2099 29.0859 22.8271 27.9843 20.605C26.4929 17.5763 23.5602 14.1362 19.2882 10.416C19.0847 10.235 18.7966 10.2022 18.5594 10.3005C18.3221 10.3993 18.1523 10.6463 18.1523 10.9095V24.2421C18.1523 24.5884 18.457 24.8849 18.8303 24.8849ZM27.5938 23.5681H19.5254V21.3788H21.0003C21.373 21.3788 21.6783 21.0823 21.6783 20.7204C21.6783 20.3585 21.373 20.062 21.0003 20.062H19.5254V18.103H22.7964C23.1691 18.103 23.4744 17.8066 23.4744 17.4447C23.4744 17.0827 23.1691 16.7863 22.7964 16.7863H19.5248V12.3914C26.1526 18.4488 27.3732 22.2019 27.5938 23.5681Z" fill="#FF5300"/>
<path d="M18.5429 42.4509H33.8636H33.9322C34.291 42.4184 34.5641 42.1074 34.5468 41.7644C34.5468 41.7318 34.5468 41.6987 34.5295 41.6497C34.4443 41.2245 32.8729 33.9481 30.5325 27.6683C30.4299 27.4069 30.1736 27.2266 29.8833 27.2266L18.5425 27.2271C18.167 27.2271 17.8594 27.5216 17.8594 27.8811V41.7792C17.8594 42.1553 18.1664 42.4498 18.5425 42.4498L18.5429 42.4509ZM29.4055 28.5528C31.2332 33.5726 32.5655 39.1323 33.0264 41.1433H19.2261V37.3659H23.5986C23.9742 37.3659 24.2818 37.0715 24.2818 36.7119C24.2818 36.3524 23.9742 36.0579 23.5986 36.0579H19.2261V32.3626H28.6545C29.03 32.3626 29.3376 32.0682 29.3376 31.7086C29.3376 31.3491 29.0301 31.0546 28.6545 31.0546H19.2261V28.5366L29.4055 28.5361V28.5528Z" fill="#FF5300"/>
<path d="M34.4414 43.918L18.517 44.3738C18.1461 44.3908 17.8594 44.6776 17.8594 45.0486V59.053C17.8594 59.424 18.1632 59.7279 18.5341 59.7279H34.4584C34.8293 59.7279 35.1331 59.424 35.1331 59.053V44.5933C35.1331 44.4078 35.0654 44.2388 34.9306 44.104C34.7952 43.9862 34.6098 43.9184 34.4414 43.9184V43.918ZM33.7832 58.3776H19.2085V55.1717H23.5269C23.8979 55.1717 24.2017 54.8679 24.2017 54.4969C24.2017 54.1258 23.8979 53.822 23.5269 53.822H19.2085V50.0089H28.5202C28.8911 50.0089 29.1949 49.705 29.1949 49.334C29.1949 48.963 28.8912 48.6591 28.5202 48.6591L19.2085 48.6586V45.7059L33.7832 45.3008V58.3776Z" fill="#FF5300"/>
<path d="M52.0434 75.6827H39.9778C40.1751 74.2833 40.3558 72.8012 40.5205 71.2696H47.5558C47.9172 71.2696 48.2133 70.9731 48.2133 70.611C48.2133 70.2489 47.9173 69.9524 47.5558 69.9524H40.6518C41.1286 64.9134 41.3753 59.2819 41.0959 53.3877H47.5559C47.9173 53.3877 48.2133 53.0911 48.2133 52.7291C48.2133 52.367 47.9173 52.0705 47.5559 52.0705H41.03C40.7012 46.6527 39.9124 41.0379 38.4655 35.5058H47.5559C47.9173 35.5058 48.2133 35.2093 48.2133 34.8472C48.2133 34.4851 47.9173 34.1886 47.5559 34.1886H38.104C36.4765 28.4582 34.1259 22.8434 30.7893 17.6239L47.556 17.6233C47.9174 17.6233 48.2135 17.3268 48.2135 16.9647C48.2135 16.6027 47.9174 16.3061 47.556 16.3061H29.9175C25.6932 10.0982 20.0056 4.51625 12.4603 0.0866231C12.2629 -0.0288744 12.0001 -0.0288744 11.8028 0.0866231C11.6054 0.202121 11.4741 0.415923 11.4741 0.663038V16.3228H5.16208C4.80064 16.3228 4.50461 16.6193 4.50461 16.9814C4.50461 17.3435 4.80062 17.64 5.16208 17.64H11.4741V34.2047H5.16208C4.80064 34.2047 4.50461 34.5012 4.50461 34.8633C4.50461 35.2254 4.80062 35.5219 5.16208 35.5219H11.4741V52.0866H5.16208C4.80064 52.0866 4.50461 52.3831 4.50461 52.7452C4.50461 53.1073 4.80062 53.4038 5.16208 53.4038H11.4741V69.9685H5.16208C4.80064 69.9685 4.50461 70.265 4.50461 70.6271C4.50461 70.9892 4.80062 71.2857 5.16208 71.2857H11.4741L11.4735 75.6828H0.657476C0.29603 75.6828 0 75.9793 0 76.3414C0 76.7035 0.296017 77 0.657476 77H52.0421C52.4036 77 52.6996 76.7035 52.6996 76.3414C52.6996 75.9793 52.4036 75.6828 52.0421 75.6828L52.0434 75.6827ZM19.4476 75.6827V72.7518H23.6557C24.0172 72.7518 24.3132 72.4553 24.3132 72.0932C24.3132 71.7311 24.0172 71.4346 23.6557 71.4346H19.4476V67.7133H28.5214C28.8828 67.7133 29.1789 67.4168 29.1789 67.0547C29.1789 66.6927 28.8829 66.3961 28.5214 66.3961L19.4476 66.3956V62.2296H33.6828C33.8308 65.8192 33.42 68.6185 32.9433 71.8133C32.7625 73.0317 32.5818 74.2995 32.4006 75.6667L19.4474 75.6662L19.4476 75.6827ZM33.7322 75.6827C33.8968 74.3816 34.0776 73.1799 34.2417 72.0271C34.7511 68.569 35.1952 65.572 34.9651 61.5382C34.9485 61.1922 34.653 60.9123 34.3076 60.9123H18.7902C18.4288 60.9123 18.1327 61.2088 18.1327 61.5709V67.038V67.0708V67.1036V72.0598V72.0925V72.1253V75.6826H12.7738V1.81476C19.727 6.07963 25.0035 11.3817 28.9653 17.26C28.998 17.3094 29.0312 17.3755 29.0639 17.4083C41.5077 36.0152 40.8334 60.3031 38.6472 75.6824L33.7322 75.6827Z" fill="#FF5300"/>
</svg>
