<svg width="63" height="63" viewBox="0 0 63 63" fill="none" xmlns="http://www.w3.org/2000/svg">
<path d="M8.86442 4.79087C9.11851 4.79087 9.36234 4.68992 9.54199 4.51027C9.72165 4.33061 9.8226 4.08679 9.8226 3.8327V0.958175C9.8226 0.429043 9.39356 0 8.86442 0C8.33529 0 7.90625 0.429043 7.90625 0.958175V3.8327C7.90625 4.08679 8.0072 4.33061 8.18686 4.51027C8.36652 4.68992 8.61034 4.79087 8.86442 4.79087Z" fill="#FF5300"/>
<path d="M0.958175 4.79087C1.21226 4.79087 1.45609 4.68992 1.63574 4.51027C1.8154 4.33061 1.91635 4.08679 1.91635 3.8327V0.958175C1.91635 0.429043 1.48731 0 0.958175 0C0.429043 0 0 0.429043 0 0.958175V3.8327C0 4.08679 0.100951 4.33061 0.280608 4.51027C0.460266 4.68992 0.704089 4.79087 0.958175 4.79087Z" fill="#FF5300"/>
<path d="M5.98792 10.7785C5.98792 11.3076 5.50525 11.7367 4.90998 11.7367C4.3147 11.7367 3.83203 11.3076 3.83203 10.7785C3.83203 10.2494 4.3147 9.82031 4.90998 9.82031C5.50525 9.82031 5.98792 10.2494 5.98792 10.7785Z" fill="#FF5300"/>
<path d="M4.90998 7.90494C5.19582 7.90494 5.47013 7.80084 5.67224 7.61557C5.87435 7.43029 5.98792 7.17885 5.98792 6.91682V0.988118C5.98792 0.442451 5.50525 0 4.90998 0C4.3147 0 3.83203 0.442451 3.83203 0.988118V6.91682C3.83203 7.17885 3.9456 7.4303 4.14772 7.61557C4.34983 7.80083 4.62413 7.90494 4.90998 7.90494Z" fill="#FF5300"/>
<path d="M62.0422 0C61.513 0 61.084 0.429043 61.084 0.958175V3.8327C61.084 4.36183 61.513 4.79087 62.0422 4.79087C62.5713 4.79087 63.0003 4.36183 63.0003 3.8327V0.958175C63.0003 0.704089 62.8994 0.460263 62.7197 0.280608C62.5401 0.100953 62.2962 0 62.0422 0Z" fill="#FF5300"/>
<path d="M54.0174 4.79087C54.3032 4.79087 54.5776 4.68992 54.7797 4.51027C54.9818 4.33061 55.0953 4.08679 55.0953 3.8327V0.958175C55.0953 0.429043 54.6127 0 54.0174 0C53.4221 0 52.9395 0.429043 52.9395 0.958175V3.8327C52.9395 4.08679 53.053 4.33061 53.2551 4.51027C53.4573 4.68992 53.7316 4.79087 54.0174 4.79087Z" fill="#FF5300"/>
<path d="M59.1669 10.7785C59.1669 11.3076 58.6306 11.7367 57.9692 11.7367C57.3078 11.7367 56.7715 11.3076 56.7715 10.7785C56.7715 10.2494 57.3078 9.82031 57.9692 9.82031C58.6306 9.82031 59.1669 10.2494 59.1669 10.7785Z" fill="#FF5300"/>
<path d="M57.9692 7.90494C58.2868 7.90494 58.5916 7.80084 58.8162 7.61557C59.0407 7.43029 59.1669 7.17885 59.1669 6.91682V0.988118C59.1669 0.442451 58.6306 0 57.9692 0C57.3078 0 56.7715 0.442451 56.7715 0.988118V6.91682C56.7715 7.17885 56.8977 7.4303 57.1222 7.61557C57.3468 7.80083 57.6516 7.90494 57.9692 7.90494Z" fill="#FF5300"/>
<path d="M61.3978 51.7888C61.5815 51.3019 61.619 50.7734 61.505 50.2666C61.3915 49.7594 61.1318 49.2957 60.7572 48.9308L60.2565 48.4372C59.7384 47.9255 59.0366 47.6364 58.3039 47.6324C57.9803 47.632 57.6593 47.6906 57.3576 47.8052C57.1385 47.3327 56.7858 46.933 56.3415 46.6536C55.8976 46.3742 55.3808 46.2274 54.8542 46.2305H54.1332C53.6066 46.2274 53.0898 46.3742 52.6459 46.6536C52.2016 46.933 51.8489 47.3327 51.6298 47.8052C51.3276 47.6911 51.0071 47.6324 50.6835 47.6324C49.9508 47.6368 49.249 47.926 48.7309 48.4372L48.2302 48.9308C47.7492 49.4019 47.4605 50.0308 47.4193 50.6976C47.3965 51.0691 47.4547 51.4411 47.5897 51.7888C47.1104 52.0048 46.7045 52.3525 46.4216 52.7901C46.1382 53.2282 45.9889 53.7372 45.9924 54.2569V54.9677V54.9673C45.9889 55.4869 46.1382 55.9959 46.4216 56.434C46.7046 56.8716 47.1104 57.2194 47.5897 57.4353C47.4542 57.783 47.3965 58.155 47.4193 58.5265C47.4609 59.196 47.7515 59.827 48.2352 60.2982L48.7358 60.7918C49.2544 61.3026 49.9558 61.5917 50.6884 61.5966C51.012 61.5966 51.333 61.5384 51.6348 61.4238C51.8538 61.8962 52.2065 62.296 52.6508 62.5754C53.0947 62.8548 53.6115 63.0016 54.1381 62.9985H54.8591C55.3858 63.0016 55.9025 62.8548 56.3464 62.5754C56.7907 62.296 57.1434 61.8962 57.3625 61.4238C57.6642 61.5384 57.9852 61.597 58.3088 61.5966C59.0415 61.5921 59.7433 61.303 60.2614 60.7918L60.7621 60.2982C61.1362 59.9333 61.3955 59.4692 61.5095 58.9624C61.623 58.4555 61.5859 57.9271 61.4027 57.4406C61.8819 57.2246 62.2878 56.8765 62.5707 56.4388C62.8542 56.0012 63.0035 55.4917 62.9999 54.9726V54.2617C63.0039 53.7408 62.8546 53.23 62.5703 52.7915C62.286 52.3526 61.8787 52.0043 61.3978 51.7888ZM60.9923 54.9678V54.9673C61.0151 55.3393 60.7285 55.6593 60.3513 55.6831H59.4299H59.4304C59.3021 56.2582 59.0714 56.8064 58.7491 57.3023L59.4 57.944C59.6508 58.2225 59.6262 58.6483 59.345 58.8968L58.8443 59.3904C58.7035 59.5332 58.5108 59.6147 58.3088 59.6174C58.1483 59.6196 57.9936 59.5592 57.8783 59.4495L57.2274 58.8078C56.725 59.1264 56.1689 59.3538 55.585 59.479V60.3873C55.5609 60.7593 55.2363 61.0418 54.859 61.0193H54.138C53.7607 61.0418 53.4361 60.7593 53.412 60.3873V59.479C52.8286 59.3538 52.2721 59.1264 51.77 58.8078L51.1191 59.4495C51.0038 59.5601 50.8487 59.6205 50.6882 59.6174C50.4866 59.6143 50.2939 59.5328 50.1527 59.3904L49.652 58.8968C49.3708 58.6483 49.3462 58.2225 49.597 57.944L50.2479 57.3023C49.9256 56.8065 49.6949 56.2582 49.5671 55.6831H48.6158C48.2385 55.6593 47.9519 55.3393 47.9747 54.9673V54.2564V54.2569C47.9519 53.8849 48.2385 53.565 48.6158 53.5412H49.5371H49.5367C49.665 52.966 49.8952 52.4178 50.2179 51.9219L49.5671 51.2802C49.3163 51.0017 49.3409 50.576 49.622 50.3274L50.1227 49.8338C50.264 49.6914 50.4562 49.6099 50.6583 49.6068C50.8196 49.6051 50.9747 49.6676 51.0887 49.7796L51.7396 50.4213C52.2425 50.1035 52.7986 49.8761 53.382 49.75V48.8272C53.3937 48.6456 53.4786 48.4764 53.6181 48.3578C53.7576 48.2388 53.9395 48.1802 54.1232 48.1952H54.8443H54.8438C55.2211 48.1727 55.5457 48.4552 55.5698 48.8272V49.7355V49.7351C56.1536 49.8607 56.7097 50.0881 57.2122 50.4067L57.8631 49.765C57.9771 49.6527 58.1327 49.5905 58.2936 49.5923C58.4957 49.5945 58.6883 49.6765 58.8296 49.8192L59.3303 50.3128C59.6114 50.5614 59.636 50.9872 59.3852 51.2652L58.7344 51.9069C59.0567 52.4027 59.2869 52.951 59.4152 53.5262H60.3365C60.7134 53.55 60.9999 53.8699 60.9771 54.2419L60.9923 54.9678Z" fill="#FF5300"/>
<path d="M54.7351 51.2617C53.814 51.2617 52.9306 51.6151 52.2789 52.2439C51.6277 52.8731 51.2617 53.726 51.2617 54.6153C51.2617 55.5046 51.6277 56.3576 52.2789 56.9868C52.9306 57.6156 53.814 57.9689 54.7351 57.9689C55.6562 57.9689 56.5396 57.6156 57.1913 56.9868C57.8425 56.3576 58.2085 55.5046 58.2085 54.6153C58.2085 53.726 57.8425 52.8731 57.1913 52.2439C56.5396 51.6151 55.6562 51.2617 54.7351 51.2617ZM54.7351 56.0526C54.133 56.0526 53.5903 55.7023 53.3599 55.1654C53.1295 54.6282 53.2567 54.01 53.6825 53.599C54.1082 53.1879 54.7484 53.0651 55.3049 53.2875C55.8609 53.51 56.2238 54.034 56.2238 54.6153C56.2238 55.4092 55.5574 56.0526 54.7351 56.0526Z" fill="#FF5300"/>
<path d="M15.1981 51.7888C15.3793 51.3019 15.4163 50.7734 15.3039 50.2666C15.192 49.7594 14.9359 49.2957 14.5666 48.9308L14.073 48.4372C13.5622 47.9255 12.8703 47.6364 12.148 47.6324C11.8289 47.632 11.5124 47.6906 11.215 47.8052C10.999 47.3327 10.6513 46.933 10.2132 46.6536C9.77557 46.3742 9.2661 46.2274 8.74694 46.2305H8.02636C7.50675 46.2274 6.99772 46.3742 6.55965 46.6536C6.12201 46.933 5.77429 47.3327 5.55833 47.8052C5.26041 47.6911 4.94397 47.6324 4.62533 47.6324C3.90256 47.6368 3.21108 47.926 2.70033 48.4372L2.20672 48.9308C1.73251 49.4019 1.4478 50.0308 1.40682 50.6976C1.38478 51.0691 1.44164 51.4411 1.57474 51.7888C1.10228 52.0048 0.702548 52.3525 0.423138 52.7901C0.143718 53.2282 -0.00303244 53.7372 4.76576e-05 54.2569V54.9677V54.9673C-0.00303741 55.4869 0.143718 55.9959 0.423138 56.434C0.702559 56.8716 1.10228 57.2194 1.57474 57.4353C1.44164 57.783 1.38434 58.155 1.40682 58.5265C1.44781 59.196 1.73427 59.827 2.21157 60.2982L2.70518 60.7918C3.21641 61.3026 3.90788 61.5917 4.63019 61.5966C4.94926 61.5966 5.26526 61.5384 5.56318 61.4238C5.77914 61.8962 6.12687 62.296 6.5645 62.5754C7.00257 62.8548 7.5116 63.0016 8.03121 62.9985H8.7421C9.26127 63.0016 9.77074 62.8548 10.2084 62.5754C10.646 62.296 10.9942 61.8962 11.2101 61.4238C11.5076 61.5384 11.824 61.597 12.1427 61.5966C12.8654 61.5921 13.5574 61.303 14.0677 60.7918L14.5613 60.2982C14.9302 59.9333 15.1862 59.4692 15.2982 58.9624C15.4101 58.4555 15.374 57.9271 15.1933 57.4406C15.6657 57.2246 16.0655 56.8765 16.3449 56.4388C16.6243 56.0012 16.771 55.4917 16.768 54.9726V54.2617C16.7724 53.7421 16.6269 53.2322 16.3484 52.7932C16.0699 52.3547 15.6705 52.0057 15.1981 51.7888ZM14.7984 54.9673C14.8209 55.3393 14.5384 55.6592 14.1664 55.683H13.2585C13.132 56.2582 12.9046 56.8064 12.5869 57.3023L13.2285 57.944C13.4758 58.2225 13.4515 58.6482 13.1743 58.8968L12.6807 59.3904C12.5419 59.5332 12.3519 59.6147 12.1527 59.6174C11.9945 59.6196 11.842 59.5592 11.7283 59.4495L11.0866 58.8078C10.5913 59.1264 10.043 59.3538 9.46739 59.479V60.3873C9.45858 60.5702 9.37572 60.7421 9.23822 60.8633C9.10027 60.984 8.91958 61.044 8.73668 61.029H8.02624C7.65427 61.0515 7.33431 60.769 7.31051 60.397V59.4887V59.4891C6.73492 59.3635 6.18668 59.1361 5.69125 58.8175L5.04957 59.4592C4.9363 59.5698 4.78337 59.6302 4.62516 59.6271C4.42595 59.624 4.236 59.5425 4.09673 59.4001L3.60313 58.9065C3.32592 58.6579 3.30167 58.2322 3.54892 57.9537L4.19061 57.312C3.87285 56.8166 3.64588 56.2684 3.51939 55.6932H2.59652C2.41582 55.6817 2.24747 55.5984 2.12892 55.4623C2.01037 55.3261 1.95088 55.1476 1.96454 54.9673V54.2565V54.2569C1.94206 53.8849 2.22456 53.565 2.59653 53.5412H3.50442C3.63091 52.966 3.85788 52.4178 4.17607 51.9219L3.53439 51.2802C3.28714 51.0017 3.31138 50.576 3.58859 50.3274L4.0822 49.8338C4.22147 49.6914 4.41098 49.6099 4.61018 49.6068C4.76929 49.6051 4.92221 49.6677 5.0346 49.7796L5.67628 50.4213C6.17209 50.1035 6.72035 49.8761 7.29554 49.7501V48.8272C7.30699 48.6456 7.39073 48.4764 7.52824 48.3578C7.66575 48.2388 7.84511 48.1802 8.02625 48.1952H8.73714H8.7367C9.10867 48.1727 9.42862 48.4552 9.45243 48.8272V49.7355V49.7351C10.028 49.8607 10.5763 50.0881 11.0717 50.4067L11.7134 49.765C11.8258 49.6527 11.9791 49.5905 12.1378 49.5923C12.337 49.5945 12.5269 49.6765 12.6662 49.8193L13.1598 50.3129C13.437 50.5614 13.4613 50.9872 13.214 51.2653L12.5723 51.9069C12.8901 52.4027 13.1171 52.951 13.2435 53.5262H14.1519C14.3356 53.5337 14.5089 53.6156 14.6309 53.7536C14.753 53.8915 14.8134 54.0731 14.7984 54.2569L14.7984 54.9673Z" fill="#FF5300"/>
<path d="M8.2644 51.2617C7.34333 51.2617 6.45993 51.6151 5.80823 52.2439C5.15697 52.8731 4.79102 53.726 4.79102 54.6153C4.79102 55.5046 5.15697 56.3576 5.80823 56.9868C6.45994 57.6156 7.34334 57.9689 8.2644 57.9689C9.18546 57.9689 10.0689 57.6156 10.7206 56.9868C11.3718 56.3576 11.7378 55.5046 11.7378 54.6153C11.7378 53.726 11.3718 52.8731 10.7206 52.2439C10.0689 51.6151 9.18546 51.2617 8.2644 51.2617ZM8.2644 56.0526C7.66231 56.0526 7.11956 55.7023 6.88921 55.1654C6.65884 54.6282 6.78599 54.01 7.21175 53.599C7.63751 53.1879 8.27769 53.0651 8.83418 53.2875C9.39019 53.51 9.75305 54.034 9.75305 54.6153C9.75305 55.4092 9.08668 56.0526 8.2644 56.0526Z" fill="#FF5300"/>
<path d="M43.0849 52.333C43.967 52.3111 44.8045 51.9415 45.4133 51.306C46.0225 50.6701 46.3532 49.8198 46.3333 48.9417V32.9161C47.441 31.8825 50.7833 28.3976 50.7833 24.1155C50.7833 19.0952 46.1802 15.1626 45.9824 14.9952C45.6138 14.6858 45.0752 14.6858 44.7065 14.9952C44.5088 15.1626 39.9056 19.0952 39.9056 24.1155C39.9056 28.3975 43.2479 31.8824 44.3556 32.9161V44.4035C43.9561 44.2251 43.523 44.1328 43.0851 44.1328H42.7487C42.6335 43.8243 42.5063 43.5193 42.3681 43.2174L42.6105 42.9761H42.6101C43.2158 42.3394 43.5438 41.4895 43.5226 40.6127C43.5009 39.7356 43.1323 38.9028 42.4966 38.2955L41.5077 37.3111C40.853 36.6559 39.9639 36.2858 39.0355 36.2823C38.1918 36.2775 37.3817 36.6093 36.7858 37.203L36.5482 37.4394C36.2485 37.3014 35.9434 37.1753 35.6335 37.0606V36.7205C35.622 35.8824 35.2909 35.0795 34.7069 34.4753C34.1228 33.8715 33.3299 33.5107 32.4889 33.4672V20.1236C33.6756 19.0113 37.4334 15.1178 37.4334 10.3338C37.4334 4.77686 32.3556 0.416248 32.1429 0.234335C31.7738 -0.0781116 31.2317 -0.0781116 30.8621 0.234335C30.6445 0.41627 25.5668 4.77698 25.5668 10.3338C25.5668 15.1176 29.3246 19.0113 30.5112 20.1236V33.4672C29.6777 33.5129 28.8919 33.8693 28.3109 34.4661C27.7299 35.0629 27.3962 35.8552 27.3763 36.6862V37.0258C27.0664 37.1375 26.7614 37.2636 26.4616 37.4047L26.2192 37.1634C25.6224 36.5715 24.8123 36.2419 23.9695 36.248C23.0411 36.2515 22.152 36.6216 21.4973 37.2768L20.5084 38.2612C19.8722 38.8676 19.5023 39.7004 19.4802 40.5771C19.4577 41.4538 19.7848 42.3042 20.3901 42.9418L20.6373 43.1879C20.4987 43.4863 20.372 43.79 20.2567 44.0985H19.915C19.4771 44.0985 19.044 44.1908 18.6445 44.3692V32.9167C19.7522 31.8831 23.0945 28.3982 23.0945 24.1161C23.0945 19.0958 18.4914 15.1631 18.2936 14.9957C17.925 14.6864 17.3864 14.6864 17.0177 14.9957C16.82 15.1632 12.2168 19.0958 12.2168 24.1161C12.2168 28.3981 15.5592 31.883 16.6668 32.9167V48.9423C16.647 49.8203 16.9776 50.6707 17.5869 51.3066C18.1956 51.9421 19.0331 52.3116 19.9152 52.3336H20.2565C20.3686 52.6421 20.4953 52.9458 20.637 53.2442L20.3947 53.4854L20.3951 53.485C19.7881 54.1226 19.4592 54.9734 19.4804 55.8514C19.5016 56.7295 19.8715 57.5636 20.5086 58.1708L21.4975 59.1552C22.153 59.8096 23.0417 60.1791 23.9697 60.184C24.8098 60.1892 25.6177 59.8618 26.2145 59.2734L26.4618 59.0273C26.7615 59.1653 27.0666 59.2914 27.3765 59.4061V59.7458C27.3933 60.6283 27.7628 61.4676 28.4034 62.0779C29.0435 62.6888 29.9017 63.0201 30.7882 62.999H32.2173C33.0994 63.0188 33.9536 62.6897 34.5925 62.0832C35.2309 61.4772 35.6021 60.6436 35.6242 59.7655V59.4258C35.9341 59.3111 36.2392 59.1845 36.5389 59.047L36.7765 59.2882L36.776 59.2878C37.3742 59.8784 38.1834 60.208 39.0257 60.2032C39.9541 60.1997 40.8433 59.8301 41.498 59.1749L42.4869 58.1905C43.123 57.5832 43.4916 56.7499 43.5128 55.8732C43.5345 54.9965 43.2065 54.1466 42.6008 53.5094L42.3584 53.2681C42.497 52.9697 42.6237 52.6643 42.7389 52.3527L43.0849 52.333ZM41.8832 24.1158C41.8832 21.0246 44.1921 18.2833 45.3443 17.1069C46.4965 18.2785 48.8055 21.0101 48.8055 24.1158C48.8055 26.4585 47.4753 28.5994 46.3332 30.022V23.6236C46.3332 23.08 45.8904 22.6392 45.3443 22.6392C44.7982 22.6392 44.3554 23.08 44.3554 23.6236V30.022C43.2134 28.6096 41.8832 26.4734 41.8832 24.1158ZM27.5437 10.3345C27.5437 6.7661 30.2336 3.62094 31.4992 2.34125C32.7649 3.62094 35.4548 6.77094 35.4548 10.3345C35.4548 13.1251 33.8082 15.6501 32.4881 17.2251V9.8423C32.4881 9.2987 32.0453 8.85793 31.4992 8.85793C30.9531 8.85793 30.5103 9.2987 30.5103 9.8423V17.2251C29.1903 15.6501 27.5437 13.1251 27.5437 10.3345ZM14.1941 24.1158C14.1941 21.0246 16.5031 18.2833 17.6553 17.1069C18.8075 18.2785 21.1164 21.0101 21.1164 24.1158C21.1164 26.4585 19.7862 28.5994 18.6442 30.022V23.6236C18.6442 23.08 18.2014 22.6392 17.6553 22.6392C17.1092 22.6392 16.6664 23.08 16.6664 23.6236V30.022C15.5243 28.6096 14.1941 26.4734 14.1941 24.1158ZM41.2062 54.8778C41.6972 55.435 41.6468 56.2822 41.0923 56.7776L40.1034 57.7619C39.8249 58.0463 39.4443 58.2093 39.0452 58.215C38.7278 58.2185 38.4219 58.0964 38.195 57.8753L36.8895 56.6005C35.8953 57.235 34.7952 57.6886 33.6412 57.939V59.7505C33.601 60.4967 32.9613 61.0693 32.2121 61.0302H30.7879C30.044 61.0693 29.4064 60.5055 29.3588 59.7654V57.954C28.2038 57.6991 27.1037 57.2407 26.1104 56.6005L24.8249 57.885C24.5984 58.1065 24.292 58.2286 23.9746 58.2247C23.5755 58.2185 23.1954 58.0559 22.9164 57.7721L21.9275 56.7877C21.373 56.292 21.3222 55.4451 21.8136 54.8874L23.0943 53.5981C22.4573 52.608 22.0017 51.5129 21.7496 50.3646H19.9149C19.1702 50.3193 18.602 49.6834 18.6444 48.942V47.5243C18.602 46.783 19.1702 46.1471 19.9149 46.1018H21.7347C21.9908 44.9521 22.4512 43.857 23.0944 42.8683L21.789 41.5886C21.2976 41.0314 21.3484 40.1841 21.9029 39.6888L22.8918 38.7044C23.1708 38.4205 23.5509 38.2575 23.95 38.2513C24.2674 38.2474 24.5738 38.3696 24.8002 38.591L26.1105 39.8659C27.1034 39.2318 28.2018 38.7787 29.354 38.5274V36.701C29.399 35.9579 30.0409 35.3914 30.788 35.4363H32.2171C32.9623 35.3941 33.6011 35.9597 33.6462 36.701V38.5125C34.7993 38.7687 35.8977 39.2271 36.8896 39.866L38.1752 38.5863C38.4017 38.3648 38.708 38.2427 39.0255 38.2466C39.4254 38.2497 39.8069 38.4127 40.0837 38.6997L41.0726 39.6841C41.6297 40.178 41.6805 41.0274 41.1865 41.5839L39.9058 42.8684C40.5428 43.8567 40.9984 44.9501 41.2504 46.097H43.0702C43.4313 46.115 43.7708 46.2759 44.0123 46.544C44.2538 46.812 44.3774 47.1649 44.3558 47.5244V48.9469C44.3982 49.6887 43.83 50.3246 43.0852 50.3695H41.2655C41.0076 51.5173 40.5476 52.6107 39.9058 53.5981L41.2062 54.8778Z" fill="#FF5300"/>
<path d="M31.5008 42.3984C29.8805 42.3984 28.3271 43.0041 27.1813 44.0821C26.0359 45.1605 25.3924 46.6225 25.3924 48.1475C25.3924 49.6725 26.0359 51.1345 27.1813 52.2129C28.3271 53.2908 29.8805 53.8965 31.5008 53.8965C33.121 53.8965 34.6744 53.2908 35.8202 52.2129C36.9656 51.1345 37.6091 49.6725 37.6091 48.1475C37.6091 46.6225 36.9656 45.1605 35.8202 44.0821C34.6745 43.0041 33.121 42.3984 31.5008 42.3984ZM31.5008 51.9802C30.4209 51.9802 29.3851 51.5764 28.6211 50.8578C27.8576 50.1387 27.4285 49.1638 27.4285 48.1475C27.4285 47.1312 27.8576 46.1562 28.6211 45.4372C29.3851 44.7186 30.4209 44.3148 31.5008 44.3148C32.5806 44.3148 33.6165 44.7186 34.3804 45.4372C35.144 46.1563 35.573 47.1312 35.573 48.1475C35.573 49.1638 35.144 50.1387 34.3804 50.8578C33.6164 51.5764 32.5806 51.9802 31.5008 51.9802Z" fill="#FF5300"/>
</svg>
