<svg width="68" height="63" viewBox="0 0 68 63" fill="none" xmlns="http://www.w3.org/2000/svg">
<path d="M21.4825 58.9844H28.4431V52.8377H21.4825V58.9844ZM23.8024 54.8872H26.1222V56.9358H23.8024V54.8872ZM12.6657 52.8386H5.70516V58.9853H12.6657V52.8386ZM10.3459 56.9358H8.02603V54.8872H10.3459V56.9358ZM21.4825 49.5086H28.4431V43.3619H21.4825V49.5086ZM23.8024 45.4114H26.1222V47.46H23.8024V45.4114ZM12.6657 43.3628H5.70516V49.5095H12.6657V43.3628ZM10.3459 47.46H8.02603V45.4114H10.3459V47.46ZM28.1995 24.4112H21.2389V30.5579H28.1995V24.4112ZM25.8796 28.5084L23.5598 28.5092V26.4606H25.8796V28.5084ZM28.3969 14.9355H21.4363V21.0822H28.3969V14.9355ZM26.077 19.0327H23.7572V16.9841H26.077V19.0327ZM21.4374 40.0326H28.3979V33.8859H21.4374V40.0326ZM23.7572 35.9354H26.077V37.984H23.7572V35.9354ZM12.6206 33.8868H5.66V40.0335H12.6206V33.8868ZM10.3007 37.984H7.98088V35.9354H10.3007V37.984ZM67.9539 26.8284V36.1705L67.9531 36.1712C67.9531 36.4427 67.8309 36.7036 67.614 36.8958C67.3964 37.088 67.101 37.1959 66.7935 37.1959H61.8398C61.0719 40.2742 59.6762 43.2039 57.722 45.8413L61.283 48.986V48.9868C61.5031 49.179 61.6261 49.4405 61.6261 49.7135C61.6261 49.9871 61.5031 50.2487 61.283 50.4409L53.8015 57.1098C53.3484 57.5071 52.6177 57.5071 52.1654 57.1098L48.6043 53.9344C45.599 55.6401 42.271 56.8548 38.7785 57.5194V61.9761C38.7785 62.2476 38.6563 62.5077 38.4394 62.6999C38.2218 62.8921 37.9264 63 37.619 63H35.8088V60.9514H36.4586V56.6797C36.4497 56.1788 36.8518 55.7451 37.4102 55.655C41.2441 55.0377 44.8861 53.7072 48.0936 51.7521C48.5516 51.4727 49.1706 51.5199 49.5671 51.865L53.0474 54.887L58.8475 49.765L55.4368 46.7531C55.0363 46.4037 54.9772 45.8514 55.2976 45.4419C57.5211 42.6137 59.0288 39.396 59.7173 36.0077C59.8193 35.5146 60.3096 35.1595 60.8777 35.1673H65.715V27.8532H60.8429C60.2748 27.8618 59.7845 27.5066 59.6825 27.0136C58.9931 23.628 57.4857 20.4132 55.2628 17.5892C54.9424 17.1798 55.0015 16.6274 55.402 16.278L58.8127 13.2047L53.0126 8.08271L49.5323 11.1047C49.1358 11.4498 48.5168 11.4969 48.0588 11.2176C44.8544 9.2553 41.2115 7.92122 37.3754 7.30384C36.8171 7.21381 36.4149 6.78079 36.4238 6.27988V2.04897H35.774V0.000375421H37.5841C37.8916 0.000375421 38.187 0.108272 38.4046 0.300484C38.6215 0.492703 38.7437 0.752806 38.7437 1.02432V5.48096C42.2401 6.14122 45.5698 7.35962 48.5695 9.07584L52.1653 5.89035C52.3846 5.69885 52.6808 5.59167 52.9891 5.5931C53.2934 5.59453 53.5854 5.70099 53.8015 5.89035L61.2839 12.4978H61.283C61.5031 12.6901 61.6261 12.9516 61.6261 13.2253C61.6261 13.4982 61.5031 13.7598 61.283 13.952L57.722 17.1589C59.6777 19.7956 61.0728 22.726 61.8399 25.8043H66.8866C67.5088 25.8265 68 26.2788 68 26.829L67.9539 26.8284ZM37.9217 49.7949C42.5736 48.6723 46.6608 46.1963 49.5219 42.7679C50.0155 42.1848 50.4687 41.5753 50.8789 40.9444C51.5869 39.8982 52.1768 38.7935 52.6421 37.646C52.7926 37.2566 52.9318 36.8571 53.0483 36.4577C54.0379 33.2236 54.0379 29.8158 53.0483 26.5826C52.7821 25.7194 52.4487 24.8741 52.0506 24.0524C51.7059 23.3743 51.3191 22.7147 50.8902 22.0751C49.0138 19.179 46.2998 16.7752 43.0251 15.1089C41.4229 14.29 39.7074 13.6569 37.9216 13.2246C37.2718 13.0709 36.6221 12.9581 35.961 12.8559H35.8105V14.9045C36.3089 14.9866 36.8195 15.0681 37.3066 15.181C37.7938 15.2939 38.293 15.4475 38.7801 15.6012L38.7793 27.2377H36.7847V36.3953H40.4276V38.096H41.588H41.5872C41.5613 38.4182 41.4828 38.7362 41.3549 39.0385C40.9787 39.8867 40.2399 40.5698 39.2972 40.94C38.3545 41.3101 37.2856 41.3373 36.3203 41.0157C36.1487 40.9507 35.9821 40.8757 35.8219 40.7906V41.4359C36.2353 41.8946 36.7799 42.2483 37.3989 42.4606C38.3683 42.7943 39.4477 42.7728 40.3992 42.402C41.3508 42.0311 42.0953 41.3401 42.4683 40.4834C42.8041 39.7117 42.8041 38.8578 42.4683 38.0862H43.5008V36.3963H47.1437V27.2379H45.5197V19.2784C46.8467 20.3966 47.9876 21.6763 48.907 23.079C49.2808 23.6471 49.6142 24.2359 49.9047 24.8411C50.2575 25.5742 50.556 26.3267 50.798 27.0948C51.6792 29.9795 51.6792 33.0192 50.798 35.9038C50.6701 36.3239 50.5196 36.7334 50.357 37.1435C49.9734 38.1067 49.4879 39.0364 48.907 39.9196C47.2166 42.5135 44.7793 44.6657 41.8422 46.1583C40.4213 46.8879 38.8951 47.446 37.3067 47.8175C36.8083 47.9404 36.2977 48.0226 35.7984 48.1041V50.1527H35.949C36.6222 50.0712 37.2719 49.9385 37.9217 49.7949ZM41.1002 16.4821C41.3551 16.605 41.6107 16.7179 41.8656 16.8508C42.3293 17.0866 42.7703 17.3424 43.2113 17.609V27.2384H41.1003L41.1002 16.4821ZM44.8352 34.3475H39.1047V29.287H44.8352V34.3475ZM32.2608 0.0103094C32.154 0.0210277 32.0488 0.0417504 31.9476 0.0717613H31.8433C31.7316 0.123925 31.6264 0.185375 31.5293 0.256114L16.4488 12.8052H16.4496C16.2182 12.9996 16.0879 13.2704 16.0895 13.5527V30.4756H0V62.9999H33.4895V0H32.2603L32.2608 0.0103094ZM16.0209 60.9505H2.31996V32.5237H16.0548L16.0209 60.9505ZM31.1014 13.5725L31.1006 60.9505H18.3399V14.0133L31.1006 3.39079L31.1014 13.5725Z" fill="#FF5300"/>
</svg>
