<svg width="69" height="75" viewBox="0 0 69 75" fill="none" xmlns="http://www.w3.org/2000/svg">
<path d="M32.0772 37.814L37.0477 46.1726C37.7607 47.369 37.7591 48.8421 37.0446 50.0377C36.33 51.2333 35.0098 51.9707 33.5807 51.9729H23.3489C21.9261 51.9593 20.6175 51.2175 19.9109 50.0242C19.2042 48.8309 19.2065 47.3646 19.9156 46.1727L24.875 37.8684V28.1539H22.6313C22.0114 28.1539 21.509 27.6691 21.509 27.0702C21.509 26.4713 22.0114 25.9858 22.6313 25.9858H25.9974H25.9966C26.2948 25.9858 26.5796 26.0999 26.7902 26.3034C27.0007 26.5068 27.1188 26.7828 27.1188 27.0702V38.0952C27.1204 38.2857 27.0695 38.4725 26.9733 38.6374L21.8347 47.2562C21.5201 47.7833 21.5201 48.4321 21.8347 48.9585C22.1431 49.4848 22.723 49.8085 23.3491 49.8039H33.5809C34.2086 49.8032 34.7885 49.4795 35.1031 48.9547C35.4177 48.4299 35.4193 47.7825 35.1071 47.2562L30.0138 38.6374C29.9128 38.4733 29.8588 38.2865 29.8565 38.0952V27.0702C29.8565 26.4713 30.3589 25.9858 30.9779 25.9858H34.344C34.9639 25.9858 35.4663 26.4713 35.4663 27.0702C35.4663 27.6691 34.9639 28.1539 34.344 28.1539H32.1003L32.0772 37.814ZM29.6871 41.0666H26.8822V42.151H29.6871V41.0666ZM29.6871 43.9502H26.8822V45.0346H29.6871V43.9502ZM26.8822 47.9287H29.6871V46.8443H26.8822V47.9287ZM41.3676 27.0709V47.4312C41.3676 48.8521 42.1518 50.1657 43.4258 50.8766C44.6998 51.5875 46.2698 51.5874 47.544 50.8766C48.8174 50.1657 49.6022 48.8522 49.6022 47.4312V27.0709H47.3585V47.4312C47.3585 48.4309 46.5195 49.2416 45.4849 49.2416C44.4503 49.2416 43.6113 48.4309 43.6113 47.4312V42.5203H45.2939V41.4358H43.6113V40.0807H45.2939V38.9963H43.6113V37.6411H45.2939V36.5567H43.6113V35.2023H45.2939V34.1178H43.6113V32.7627H45.2939V31.6782H43.6113V27.0713L41.3676 27.0709ZM30.7085 23.8183C29.5932 23.8183 28.5226 23.3903 27.7337 22.6273C26.9448 21.865 26.501 20.8312 26.501 19.7528C26.501 18.6743 26.9448 17.6407 27.7337 16.8783C28.5225 16.1153 29.5931 15.6872 30.7085 15.6872C31.8245 15.6872 32.8951 16.1153 33.6841 16.8783C34.4729 17.6406 34.9159 18.6743 34.9159 19.7528C34.9135 20.8304 34.469 21.8626 33.6809 22.6242C32.892 23.3864 31.8237 23.8153 30.7085 23.8183ZM30.7085 21.6503C31.5028 21.6503 32.2189 21.1882 32.5226 20.4789C32.827 19.7703 32.6587 18.9535 32.0968 18.4113C31.5357 17.8683 30.6912 17.7065 29.9571 17.9999C29.2238 18.2933 28.7456 18.9852 28.7456 19.7528C28.7456 20.801 29.6245 21.6503 30.7085 21.6503ZM46.8428 2.94867C46.8428 1.85289 47.526 0.864437 48.5739 0.444725C49.6219 0.025013 50.8287 0.25718 51.6309 1.03232C52.4331 1.80746 52.6733 2.97272 52.239 3.98618C51.8046 4.99878 50.7818 5.65895 49.6477 5.65895C48.0981 5.65895 46.8428 4.44601 46.8428 2.94867ZM48.3353 2.94867H48.3345C48.3165 3.4682 48.6279 3.94613 49.121 4.15411C49.614 4.36206 50.1885 4.25846 50.5704 3.89244C50.9531 3.52643 51.065 2.97212 50.8545 2.49417C50.6432 2.01622 50.1517 1.71071 49.6141 1.72357C48.9058 1.72357 48.3251 2.26503 48.3008 2.94865L48.3353 2.94867ZM51.0839 9.20409C52.1975 9.21241 53.2627 9.648 54.0444 10.4141C54.827 11.1801 55.263 12.2146 55.2575 13.2907C55.2512 14.3675 54.8036 15.3975 54.0131 16.1553C53.2219 16.9138 52.1528 17.338 51.0383 17.335C49.9247 17.332 48.8571 16.9024 48.0708 16.1402C47.2842 15.3786 46.8428 14.3456 46.8428 13.2695C46.8428 12.1912 47.2858 11.1574 48.0747 10.3951C48.8635 9.63203 49.9341 9.20401 51.0503 9.20401L51.0839 9.20409ZM51.0839 11.3721C50.2895 11.3721 49.5734 11.8342 49.2697 12.5435C48.9653 13.2521 49.1336 14.0689 49.6955 14.6111C50.2566 15.1541 51.1011 15.3159 51.8352 15.0225C52.5685 14.7291 53.0467 14.0372 53.0467 13.2696C53.0475 12.7606 52.8354 12.2729 52.4598 11.9167C52.0849 11.5597 51.5762 11.3639 51.0503 11.3722L51.0839 11.3721ZM37.7552 10.895H37.7544C37.7544 9.79919 38.4384 8.81074 39.4863 8.39103C40.5343 7.97207 41.7411 8.20348 42.5433 8.97862C43.3454 9.75376 43.5849 10.9198 43.1514 11.9325C42.717 12.9451 41.6941 13.6053 40.5592 13.6053C39.811 13.6113 39.0903 13.3285 38.5581 12.8203C38.0251 12.3113 37.7238 11.6186 37.7207 10.8949L37.7552 10.895ZM39.2586 10.895H39.2578C39.2539 11.41 39.5716 11.8766 40.0631 12.0762C40.5546 12.2751 41.122 12.167 41.4992 11.8032C41.8757 11.4387 41.9876 10.8904 41.7817 10.4155C41.5751 9.94062 41.0923 9.63358 40.5593 9.63737C40.2087 9.62905 39.869 9.75761 39.6178 9.99432C39.3658 10.231 39.2242 10.5562 39.2242 10.895H39.2586ZM44.4873 16.9554H44.4865C45.6025 16.9554 46.6723 17.3842 47.4613 18.1465C48.251 18.9088 48.6939 19.9425 48.6939 21.021C48.6939 22.0994 48.251 23.1331 47.4613 23.8962C46.6724 24.6585 45.6026 25.0865 44.4865 25.0865C43.3705 25.0865 42.3007 24.6585 41.5117 23.8962C40.7221 23.1332 40.2791 22.0994 40.2791 21.021C40.2791 19.9486 40.7174 18.9195 41.4992 18.1579C42.281 17.3964 43.3431 16.9646 44.4528 16.9555L44.4873 16.9554ZM42.4893 21.0209C42.4893 21.7885 42.9675 22.4804 43.7016 22.7739C44.4349 23.0673 45.2801 22.9054 45.8413 22.3625C46.4032 21.8202 46.5707 21.0043 46.267 20.2949C45.9634 19.5863 45.2473 19.1235 44.4529 19.1235C43.3714 19.1295 42.4956 19.9758 42.4893 21.0209ZM21.5527 10.9714C21.5394 9.87644 22.2093 8.88121 23.251 8.44872C24.2927 8.01691 25.5003 8.23244 26.3134 8.99622C27.1257 9.75926 27.3824 10.9208 26.9645 11.9387C26.5466 12.9565 25.5362 13.6319 24.403 13.6492C23.6572 13.6606 22.9372 13.3846 22.4019 12.8824C21.8673 12.3795 21.5621 11.6921 21.5527 10.9714ZM23.1571 10.9714C23.1579 11.4365 23.4459 11.8562 23.8888 12.0385C24.3318 12.22 24.8444 12.1285 25.1911 11.8056C25.5378 11.4826 25.6513 10.9911 25.4791 10.5563C25.3077 10.1222 24.8835 9.82879 24.403 9.81139C24.0767 9.79929 23.7597 9.91651 23.5249 10.1351C23.2893 10.3544 23.1571 10.6561 23.1571 10.9714ZM27.3426 4.06555C27.3426 2.98718 27.7855 1.95344 28.5744 1.19029C29.3633 0.428017 30.4339 0 31.55 0C32.6652 0 33.7358 0.428017 34.5248 1.19029C35.3137 1.95333 35.7574 2.98708 35.7574 4.06555C35.7574 5.14403 35.3137 6.17767 34.5248 6.94004C33.7359 7.70241 32.6653 8.13109 31.55 8.13109C30.4348 8.12806 29.3666 7.69852 28.5776 6.937C27.7895 6.17548 27.3449 5.14242 27.3426 4.06555ZM29.5863 4.06555C29.5863 4.83236 30.0645 5.52433 30.7986 5.81849C31.5319 6.1119 32.3763 5.94932 32.9383 5.4071C33.4995 4.86413 33.6677 4.04817 33.3633 3.33952C33.0596 2.63017 32.3435 2.16812 31.5499 2.16812C30.4652 2.16812 29.5863 3.01742 29.5863 4.06555ZM67.8784 35.635H62.9973C62.271 32.3712 60.9405 29.2599 59.0708 26.4528L62.5487 23.1239C62.7608 22.9205 62.8805 22.6437 62.8805 22.3548C62.8805 22.0652 62.7607 21.7884 62.5487 21.585L58.5096 17.6821C58.1066 18.3279 57.4844 18.8187 56.7479 19.0698L60.114 22.3224L56.8271 25.5742C56.4428 25.947 56.3912 26.5316 56.7034 26.9619C58.8448 29.9603 60.3019 33.3633 60.9781 36.9471C61.0767 37.4689 61.5518 37.8447 62.1004 37.8356H66.7789V45.5227H62.0777C61.5291 45.5136 61.0541 45.8894 60.9554 46.4112C60.2847 49.998 58.8227 53.4033 56.6698 56.3964C56.3575 56.8267 56.4091 57.4113 56.7934 57.7841L60.1595 60.9716L54.5497 66.3923L51.1836 63.1397C50.7978 62.7684 50.1928 62.7185 49.7475 63.0202C46.6507 65.0899 43.1314 66.495 39.4255 67.1401C38.8855 67.2354 38.4965 67.6937 38.5051 68.2238V72.7446H30.5052V68.3109C30.5146 67.7808 30.1256 67.3217 29.5856 67.2265C25.8759 66.5822 22.3526 65.1771 19.2519 63.1074C18.8066 62.8049 18.2017 62.8555 17.8158 63.2261L14.5171 66.4136L8.90729 60.993L12.2734 57.8055C12.6576 57.4334 12.7093 56.8481 12.397 56.4178C10.2557 53.4202 8.79854 50.0164 8.12236 46.4333C8.02375 45.9116 7.54869 45.5357 7.00007 45.544H2.24337V37.8033H6.92194C7.47056 37.8124 7.94561 37.4366 8.04422 36.9148C8.71493 33.3281 10.1769 29.9227 12.3299 26.9296C12.6179 26.5016 12.5569 25.9367 12.1843 25.5744L8.87456 22.3226L14.4844 16.902L17.8504 20.1002H17.8496C18.2355 20.4707 18.8404 20.5214 19.2858 20.2189C20.4785 19.4241 21.7354 18.7246 23.0447 18.1271C22.4061 17.7029 21.9381 17.0782 21.7205 16.3598C20.7149 16.8272 19.7374 17.3482 18.7928 17.9207L15.3141 14.5926C15.1036 14.3876 14.8172 14.2719 14.5182 14.2719C14.2185 14.2719 13.932 14.3877 13.7215 14.5926L6.451 21.5854C6.24126 21.7896 6.12387 22.0671 6.12544 22.3552C6.13013 22.6419 6.24596 22.9171 6.451 23.1243L9.90623 26.4524V26.4532C8.02639 29.2564 6.69202 32.3684 5.96896 35.6353H1.1215C0.502455 35.6353 0 36.1208 0 36.7198V46.6066C0 46.894 0.118173 47.17 0.328693 47.3734C0.53922 47.5769 0.824098 47.691 1.12148 47.691H6.0026C6.73043 50.9549 8.06079 54.0653 9.92906 56.8732L6.45118 60.2021C6.23909 60.4055 6.11936 60.6823 6.11936 60.9712C6.11936 61.2608 6.23911 61.5376 6.45118 61.741L13.688 68.7338C13.8985 68.9388 14.185 69.0545 14.4847 69.0545C14.7837 69.0545 15.0701 68.9387 15.2807 68.7338L18.793 65.4057C21.6981 67.2124 24.9177 68.498 28.2956 69.1998V73.9163C28.2956 74.2037 28.4138 74.479 28.6243 74.6824C28.8348 74.8858 29.1205 75 29.4178 75H39.6497C39.9471 75 40.2328 74.8858 40.4433 74.6824C40.6538 74.479 40.772 74.2037 40.772 73.9163V69.1998C44.1294 68.4927 47.3264 67.2035 50.2072 65.3953L53.6625 68.734H53.6633C53.8738 68.9389 54.1602 69.0546 54.46 69.0546C54.7589 69.0546 55.0454 68.9389 55.2567 68.734L62.549 61.7412C62.7541 61.534 62.8699 61.2587 62.8746 60.9714C62.8761 60.6832 62.7588 60.4064 62.549 60.2023L59.0938 56.8742V56.8734C60.9619 54.0679 62.2854 50.956 62.9974 47.6913H67.8785C68.1759 47.6913 68.4608 47.5771 68.6713 47.3736C68.8818 47.1702 69 46.8942 69 46.6068V36.72C69 36.4326 68.8818 36.1566 68.6713 35.9532C68.4608 35.7497 68.1759 35.6356 67.8785 35.6356L67.8784 35.635ZM18.5122 32.7514H18.5114C19.2431 31.5134 20.1291 30.3671 21.148 29.3362C20.4444 28.9996 19.8849 28.4355 19.5663 27.7428C17.1417 30.1778 15.384 33.159 14.4504 36.4152C13.5074 39.8395 13.5074 43.4421 14.4504 46.8662C14.9372 48.5428 15.6423 50.1529 16.5479 51.6585C18.3784 54.7294 21.0189 57.2771 24.2002 59.0416C28.9561 61.6892 34.6066 62.4022 39.9073 61.0251C47.0181 59.1504 52.581 53.7955 54.5484 46.9313C55.9767 41.8093 55.2379 36.3494 52.4956 31.7539C52.361 31.5262 52.2155 31.3092 52.0691 31.0929V36.1014C52.181 36.4266 52.282 36.7518 52.372 37.0883V37.0875C53.225 40.1411 53.225 43.3582 52.372 46.411C51.9634 47.9008 51.3483 49.3308 50.543 50.661C48.9159 53.4046 46.5611 55.6801 43.7217 57.2523C42.3427 58.0259 40.8635 58.6203 39.3234 59.0196C36.1625 59.8325 32.8363 59.8325 29.6754 59.0196C28.1352 58.6203 26.6561 58.0259 25.2771 57.2523C22.4369 55.6771 20.079 53.4031 18.4442 50.661C17.6474 49.3278 17.0362 47.8992 16.6269 46.411C16.2004 44.8918 15.986 43.3242 15.9875 41.7497C15.9867 40.176 16.1981 38.609 16.6152 37.0875C17.0253 35.569 17.6443 34.1102 18.4559 32.7514L18.5122 32.7514Z" fill="#FF5300"/>
</svg>
