<svg width="88" height="77" viewBox="0 0 88 77" fill="none" xmlns="http://www.w3.org/2000/svg">
<path d="M86.8632 19.6921H82.9308V16.6473H85.212C85.465 16.6473 85.708 16.5467 85.8871 16.3676C86.0656 16.1885 86.1661 15.9462 86.1661 15.6925V12.1416C86.1661 11.8886 86.0656 11.6456 85.8871 11.4671C85.708 11.288 85.465 11.1875 85.212 11.1875H60.9668C60.4402 11.1875 60.0127 11.615 60.0127 12.1416V15.6925C60.0127 15.9462 60.1132 16.1886 60.2923 16.3677C60.4714 16.5467 60.7138 16.6473 60.9668 16.6473H62.5129V19.6921H54.1041V16.6473H56.0803H56.0797C56.3333 16.6473 56.5757 16.5468 56.7548 16.3677C56.9339 16.1885 57.0344 15.9462 57.0344 15.6925V12.1416C57.0344 11.8886 56.9339 11.6456 56.7548 11.4672C56.5757 11.2881 56.3333 11.1875 56.0797 11.1875H31.8345C31.3071 11.1875 30.8797 11.615 30.8797 12.1417V15.6925C30.8797 15.9462 30.9802 16.1886 31.1593 16.3677C31.3384 16.5468 31.5815 16.6473 31.8345 16.6473H33.6769V19.6921H25.2675V16.6473H26.9567C27.2097 16.6473 27.4527 16.5468 27.6318 16.3677C27.8109 16.1886 27.9115 15.9462 27.9115 15.6925V12.1417C27.9115 11.8886 27.8109 11.6456 27.6318 11.4672C27.4527 11.2881 27.2097 11.1875 26.9567 11.1875H2.70128C2.17462 11.1875 1.74714 11.615 1.74714 12.1417V15.6925C1.74714 15.9462 1.84768 16.1886 2.02678 16.3677C2.20589 16.5468 2.44826 16.6473 2.70126 16.6473H4.84931V19.6921H0.954807C0.427461 19.6921 0 20.1196 0 20.6469C0 21.1736 0.427461 21.6011 0.954807 21.6011H4.86857V29.3807C4.86857 29.908 5.29603 30.3355 5.82271 30.3355C6.35005 30.3355 6.77752 29.908 6.77752 29.3807V21.6011H23.3579V35.4324H12.5429C12.0156 35.4324 11.5881 35.8599 11.5881 36.3872C11.5881 36.9146 12.0156 37.3414 12.5429 37.3414H23.3579V66.4734C23.4338 68.7232 22.5936 70.9079 21.0289 72.5265C19.4642 74.1452 17.3096 75.0593 15.0578 75.0593C12.8066 75.0593 10.6519 74.1451 9.08732 72.5265C7.52261 70.9079 6.6824 68.7234 6.75825 66.4734V37.3414H9.62203C10.1494 37.3414 10.5768 36.9146 10.5768 36.3872C10.5768 35.8599 10.1494 35.4324 9.62203 35.4324H6.75825V32.4541C6.75825 31.9275 6.33079 31.5 5.80411 31.5C5.27677 31.5 4.84931 31.9274 4.84931 32.4541V66.4747C4.76475 69.2366 5.80278 71.9146 7.72637 73.8974C9.64993 75.881 12.2954 77.0002 15.0579 77.0002C17.8211 77.0002 20.4663 75.8809 22.3901 73.8974C24.3136 71.9146 25.3517 69.2366 25.2671 66.4747V21.6014H52.1952V35.4328H38.0011C37.4738 35.4328 37.0463 35.8602 37.0463 36.3876C37.0463 36.9149 37.4738 37.3417 38.0011 37.3417H52.1952V66.4738C52.1952 69.4407 50.6119 72.1819 48.0425 73.6653C45.4738 75.1488 42.3076 75.1488 39.7382 73.6653C37.1688 72.1819 35.5862 69.4407 35.5862 66.4738V25.0845C35.5862 24.5571 35.1587 24.1297 34.6313 24.1297C34.1047 24.1297 33.6772 24.5571 33.6772 25.0845V66.4738C33.6772 70.1225 35.6241 73.4944 38.7841 75.3187C41.9441 77.1431 45.8373 77.1431 48.9973 75.3187C52.1573 73.4944 54.1042 70.1226 54.1042 66.4738V21.6107H62.5137V66.4738C62.5137 70.1211 64.4592 73.491 67.6179 75.3146C70.7765 77.1383 74.6683 77.1383 77.8264 75.3146C80.9851 73.491 82.9313 70.1211 82.9313 66.4738V24.5782C82.9313 24.0509 82.5039 23.6241 81.9765 23.6241C81.4492 23.6241 81.0217 24.0509 81.0217 24.5782V66.4738C81.0197 68.6757 80.1435 70.7864 78.5868 72.3431C77.0301 73.8998 74.9193 74.7755 72.7174 74.778C70.5169 74.7754 68.4069 73.8998 66.8515 72.3424C65.2961 70.7851 64.4225 68.6743 64.4225 66.4738V37.3417H79.1607C79.688 37.3417 80.1149 36.9149 80.1149 36.3876C80.1149 35.8602 79.688 35.4328 79.1607 35.4328H64.4225V21.6014H86.8643C87.3917 21.6014 87.8191 21.174 87.8191 20.6473C87.8191 20.1199 87.3917 19.6925 86.8643 19.6925L86.8632 19.6921ZM3.65677 13.0964H25.9929V14.7383H3.65677V13.0964ZM6.74963 19.6921V16.6473H23.3587V19.6921H6.74963ZM32.7794 13.0964H55.1155V14.7383H32.7897V13.0964H32.7794ZM35.5759 19.6921L35.5765 16.6473H52.1856V19.6921H35.5759ZM61.9108 13.0964H84.2469V14.7383H61.921V13.0964H61.9108ZM64.4117 16.6473H81.0207V19.6921H64.4215V16.6473H64.4117Z" fill="#FF5300"/>
<path d="M14.0977 72.8696C14.0977 73.1226 14.1982 73.3657 14.3773 73.5448C14.5557 73.7239 14.7988 73.8244 15.0518 73.8244C17.0007 73.8218 18.8684 73.0467 20.2467 71.6685C21.6243 70.2909 22.3993 68.4226 22.402 66.4743C22.402 65.947 21.9746 65.5195 21.4472 65.5195C20.9206 65.5195 20.4931 65.947 20.4931 66.4743C20.4931 67.9172 19.9198 69.3015 18.8991 70.3215C17.879 71.3415 16.4948 71.9148 15.052 71.9148C14.5253 71.9148 14.0978 72.3422 14.0978 72.8696L14.0977 72.8696Z" fill="#FF5300"/>
<path d="M11.6565 46.3516C10.6437 46.3516 9.67222 46.7537 8.95649 47.4695C8.24006 48.1859 7.83789 49.1567 7.83789 50.1695C7.83789 51.1822 8.24006 52.153 8.95649 52.8694C9.67225 53.5852 10.6437 53.9874 11.6565 53.9874C12.6692 53.9874 13.64 53.5852 14.3557 52.8694C15.0722 52.153 15.4743 51.1822 15.4743 50.1695C15.4743 49.1567 15.0722 48.1859 14.3557 47.4695C13.64 46.7537 12.6692 46.3516 11.6565 46.3516ZM11.6565 52.0791V52.0784C10.8841 52.0784 10.1876 51.6137 9.89261 50.8999C9.59698 50.1868 9.76011 49.3658 10.3061 48.8199C10.8521 48.2739 11.673 48.1101 12.3868 48.4057C13.0999 48.7014 13.5653 49.3972 13.5653 50.1696C13.5547 51.2163 12.7031 52.0599 11.6564 52.0592L11.6565 52.0791Z" fill="#FF5300"/>
<path d="M12.5425 8.81543C13.3275 8.80811 14.0779 8.48983 14.6285 7.93054C15.1798 7.37125 15.4868 6.6162 15.4821 5.83125C15.4781 5.04623 15.1632 4.29518 14.6059 3.74116C14.0492 3.18786 13.2955 2.87758 12.5105 2.87891C11.7255 2.87958 10.9724 3.19118 10.4172 3.74581C9.8612 4.30045 9.54758 5.05218 9.54492 5.83778C9.54492 6.63077 9.86186 7.39116 10.4245 7.95054C10.9871 8.50916 11.7495 8.82077 12.5425 8.81543ZM12.5425 4.77775C12.968 4.78974 13.3455 5.05474 13.5006 5.45157C13.6558 5.8484 13.5579 6.29918 13.2529 6.59612C12.948 6.89308 12.4946 6.97897 12.1017 6.81318C11.7096 6.64805 11.4545 6.26319 11.4545 5.83773C11.4565 5.55208 11.5731 5.27977 11.7775 5.08068C11.9819 4.88159 12.2575 4.77308 12.5425 4.77775Z" fill="#FF5300"/>
<path d="M20.0445 29.3783C20.0445 28.5913 19.7316 27.8363 19.1749 27.2797C18.6183 26.7224 17.8632 26.4102 17.0763 26.4102C16.2886 26.4102 15.5336 26.7224 14.977 27.2797C14.4204 27.8364 14.1074 28.5914 14.1074 29.3783C14.1074 30.166 14.4204 30.9211 14.977 31.4776C15.5337 32.0342 16.2887 32.3472 17.0763 32.3472C17.8626 32.3446 18.6164 32.0309 19.1724 31.475C19.7283 30.9184 20.0418 30.1647 20.0445 29.3783ZM16.0068 29.3783C16.0068 28.9502 16.2651 28.5634 16.6606 28.3996C17.0568 28.2358 17.5122 28.3263 17.8152 28.6293C18.1181 28.9323 18.2094 29.3877 18.0449 29.7838C17.8811 30.18 17.4949 30.4377 17.0661 30.4377C16.4835 30.433 16.0121 29.9616 16.0068 29.3783Z" fill="#FF5300"/>
<path d="M18.5102 57.1386C18.5102 57.9296 17.869 58.5708 17.0787 58.5708C16.2877 58.5708 15.6465 57.9296 15.6465 57.1386C15.6465 56.3482 16.2877 55.707 17.0787 55.707C17.869 55.707 18.5102 56.3482 18.5102 57.1386Z" fill="#FF5300"/>
<path d="M18.5102 8.93544C18.5102 9.72644 17.869 10.3676 17.0787 10.3676C16.2877 10.3676 15.6465 9.72644 15.6465 8.93544C15.6465 8.1451 16.2877 7.50391 17.0787 7.50391C17.869 7.50391 18.5102 8.1451 18.5102 8.93544Z" fill="#FF5300"/>
<path d="M42.9551 72.8696C42.9551 73.1226 43.0556 73.3657 43.2347 73.5448C43.4138 73.7239 43.6569 73.8244 43.9099 73.8244C45.8581 73.8218 47.7265 73.0467 49.1041 71.6685C50.4823 70.2909 51.2574 68.4226 51.26 66.4743C51.26 65.947 50.8325 65.5195 50.3051 65.5195C49.7778 65.5195 49.351 65.947 49.351 66.4743C49.351 67.9172 48.7777 69.3015 47.757 70.3215C46.7369 71.3415 45.3528 71.9148 43.9099 71.9148C43.3825 71.9148 42.9551 72.3423 42.9551 72.8696Z" fill="#FF5300"/>
<path d="M47.8433 7.63644C48.856 7.63644 49.8275 7.23428 50.5432 6.51785C51.2597 5.80208 51.6618 4.83064 51.6618 3.81788C51.6618 2.80512 51.2597 1.83432 50.5432 1.11859C49.8275 0.402166 48.856 0 47.8433 0C46.8312 0 45.8597 0.402166 45.144 1.11859C44.4276 1.83436 44.0254 2.80514 44.0254 3.81788C44.0254 4.83062 44.4276 5.80212 45.144 6.51785C45.8597 7.23428 46.8312 7.63644 47.8433 7.63644ZM47.8433 1.9089C48.6156 1.9089 49.3121 2.37432 49.6071 3.08742C49.9027 3.80119 49.7396 4.62216 49.1936 5.16814C48.6476 5.71411 47.8267 5.87725 47.1129 5.58162C46.3998 5.28665 45.9344 4.5902 45.9344 3.81778C45.945 2.7711 46.7966 1.92814 47.8433 1.92814L47.8433 1.9089Z" fill="#FF5300"/>
<path d="M39.9181 29.5503C40.7051 29.5503 41.4602 29.2374 42.0167 28.6808C42.5732 28.1241 42.8863 27.3691 42.8863 26.5822C42.8863 25.7945 42.5734 25.0394 42.0167 24.4829C41.4601 23.9263 40.705 23.6133 39.9181 23.6133C39.1304 23.6133 38.3754 23.9262 37.8188 24.4829C37.2622 25.0395 36.9492 25.7945 36.9492 26.5822C36.9519 27.3685 37.2655 28.1222 37.8215 28.6782C38.3774 29.2342 39.131 29.5477 39.9181 29.5503ZM39.9181 25.5127C40.3462 25.5127 40.7324 25.771 40.8969 26.1665C41.0607 26.5627 40.9701 27.0181 40.6671 27.3217C40.3642 27.6247 39.9081 27.7152 39.5126 27.5514C39.1164 27.387 38.8581 27.0008 38.8581 26.572C38.8634 25.9894 39.3348 25.518 39.9181 25.5127Z" fill="#FF5300"/>
<path d="M41.934 41.8245C41.145 41.8145 40.384 42.1194 39.8194 42.6714C39.2554 43.224 38.9345 43.9778 38.9278 44.7675C38.9212 45.5571 39.2288 46.3168 39.7834 46.8789C40.3381 47.4402 41.0938 47.7584 41.8834 47.7617C42.6724 47.7651 43.4308 47.4541 43.9907 46.8968C44.55 46.3395 44.8649 45.5832 44.8649 44.7934C44.8623 44.0131 44.554 43.2654 44.006 42.71C43.458 42.1554 42.7143 41.8371 41.934 41.8245ZM41.934 45.8621C41.5032 45.8781 41.1064 45.6311 40.93 45.2376C40.7528 44.8441 40.8321 44.3833 41.1304 44.0717C41.428 43.7601 41.8848 43.6596 42.2856 43.818C42.6864 43.9765 42.9514 44.362 42.9554 44.7935C42.9561 45.3654 42.506 45.8368 41.934 45.8621Z" fill="#FF5300"/>
<path d="M43.3657 65.9009C43.3657 66.6913 42.7245 67.3325 41.9335 67.3325C41.1431 67.3325 40.502 66.6913 40.502 65.9009C40.502 65.1099 41.1431 64.4688 41.9335 64.4688C42.7245 64.4688 43.3657 65.1099 43.3657 65.9009Z" fill="#FF5300"/>
<path d="M49.2719 53.0175C49.2719 53.8085 48.6307 54.449 47.8397 54.449C47.0494 54.449 46.4082 53.8085 46.4082 53.0175C46.4082 52.2265 47.0494 51.5859 47.8397 51.5859C48.6307 51.5859 49.2719 52.2265 49.2719 53.0175Z" fill="#FF5300"/>
<path d="M72.7165 73.8244C74.6655 73.8218 76.5331 73.0467 77.9107 71.6685C79.289 70.2909 80.064 68.4226 80.0666 66.4743C80.0666 65.947 79.6391 65.5195 79.1118 65.5195C78.5844 65.5195 78.1576 65.947 78.1576 66.4743C78.1576 67.9172 77.5844 69.3015 76.5636 70.3215C75.5436 71.3415 74.1594 71.9148 72.7165 71.9148C72.1892 71.9148 71.7617 72.3422 71.7617 72.8696C71.7617 73.3969 72.1892 73.8244 72.7165 73.8244Z" fill="#FF5300"/>
<path d="M77.2317 51.1251C76.4433 51.1197 75.685 51.4287 75.1251 51.9827C74.5644 52.5373 74.2475 53.2923 74.2442 54.0808C74.2408 54.8692 74.5511 55.6261 75.1071 56.1855C75.6624 56.7448 76.4181 57.0604 77.2064 57.0617C77.9947 57.0637 78.7511 56.7515 79.3098 56.1948C79.8677 55.6382 80.1813 54.8818 80.1813 54.0935C80.1787 53.3105 79.8677 52.5594 79.3158 52.0041C78.7638 51.4481 78.0148 51.1324 77.2317 51.1251ZM77.2317 55.1628C76.8022 55.1701 76.4107 54.9184 76.2403 54.5242C76.0698 54.13 76.1537 53.672 76.4533 53.3643C76.753 53.0567 77.2084 52.9602 77.6072 53.12C78.0054 53.2798 78.2684 53.664 78.2724 54.0934C78.2724 54.6727 77.811 55.1468 77.2317 55.1628Z" fill="#FF5300"/>
<path d="M74.7309 59.9908C74.7309 60.7811 74.0897 61.4223 73.2994 61.4223C72.5084 61.4223 71.8672 60.7811 71.8672 59.9908C71.8672 59.1998 72.5084 58.5586 73.2994 58.5586C74.0897 58.5586 74.7309 59.1998 74.7309 59.9908Z" fill="#FF5300"/>
<path d="M72.2211 46.2284C72.2211 47.0194 71.58 47.6606 70.789 47.6606C69.9986 47.6606 69.3574 47.0194 69.3574 46.2284C69.3574 45.4381 69.9986 44.7969 70.789 44.7969C71.58 44.7969 72.2211 45.4381 72.2211 46.2284Z" fill="#FF5300"/>
<path d="M76.6977 26.5533C76.6977 27.3436 76.0565 27.9848 75.2662 27.9848C74.4752 27.9848 73.834 27.3436 73.834 26.5533C73.834 25.7623 74.4752 25.1211 75.2662 25.1211C76.0565 25.1211 76.6977 25.7623 76.6977 26.5533Z" fill="#FF5300"/>
</svg>
