<svg width="58" height="58" viewBox="0 0 58 58" fill="none" xmlns="http://www.w3.org/2000/svg">
<path d="M3.01385 57.9989H54.7573C56.8802 57.9989 58.2952 55.8897 57.5875 53.9565L53.2533 42.1812C53.0763 41.566 52.6341 41.1267 52.1919 40.7753C52.5455 40.248 52.8111 39.6327 52.8111 39.0179V2.98783C52.7226 1.31838 51.396 0 49.8038 0H7.87917C6.28704 0 4.9604 1.31838 4.9604 2.98783V39.1054C4.9604 39.8086 5.22555 40.4234 5.57964 40.8628C5.13744 41.2141 4.69524 41.6535 4.5182 42.2687L0.183962 53.9576C-0.523382 55.8908 0.891724 58 3.01456 58L3.01385 57.9989ZM24.5954 56.2411L25.8338 52.1108L31.4947 52.1112L32.9983 56.2415L24.5954 56.2411ZM6.72891 2.9873C6.72891 2.28453 7.25963 1.75727 7.87887 1.75727H49.8035C50.4228 1.75727 50.9535 2.28456 50.9535 2.9873V39.1048C50.9535 39.808 50.4228 40.3353 49.715 40.3353H7.87844C7.17068 40.3353 6.63998 39.808 6.63998 39.1048V2.9873H6.72891ZM1.77582 54.5711L6.10973 42.7959C6.55193 41.7413 7.61337 42.0052 7.87855 42.0052H49.8032C49.9802 42.0052 51.2183 41.7417 51.572 42.7959L55.9059 54.5711C56.1711 55.3619 55.6408 56.2409 54.756 56.2409L34.8553 56.2405L32.9095 50.968C32.821 50.6166 32.4673 50.3528 32.1136 50.3528H25.2147C24.861 50.3528 24.507 50.6162 24.3303 50.968L22.7382 56.2405H3.01368C2.12886 56.2405 1.51004 55.3618 1.77522 54.571L1.77582 54.5711Z" fill="#FF5300"/>
<path d="M28.8859 37.22C37.9759 37.22 45.2121 29.9035 45.2121 20.9122C45.2121 10.951 36.2988 3.98683 28.5323 4.60446C19.4423 4.7809 12.5586 12.1856 12.5586 20.9122C12.559 29.8155 19.7071 37.22 28.8859 37.22ZM16.9716 12.6261C18.0306 13.2433 19.2659 13.7722 20.6783 14.1247C20.2371 15.9758 19.9721 18.0033 19.8842 20.0308H14.4126C14.5005 17.298 15.3829 14.8297 16.9716 12.6261ZM23.855 7.24859C22.796 8.57077 21.8253 10.334 21.1191 12.3615C19.9717 12.009 19.0009 11.6561 18.0302 11.1272C19.7071 9.45257 21.5607 8.1304 23.855 7.24859ZM39.6519 11.2154C39.299 11.3919 38.8578 11.5679 38.5045 11.7444C37.975 10.9512 37.0042 10.4222 36.0334 10.4222H35.8568C35.2389 9.1879 34.6211 8.04224 33.827 7.16075C36.2101 8.1304 38.1516 9.45257 39.6519 11.2154ZM43.447 20.0308H37.9753C37.9753 18.7087 37.7987 17.3862 37.6224 16.064C38.5049 15.535 39.1227 14.5654 39.1227 13.5075C39.7406 13.2432 40.3584 12.9786 40.8876 12.6261C42.3879 14.8296 43.2702 17.298 43.447 20.0308ZM40.7993 29.2866C39.7402 28.6694 38.5049 28.1405 37.0925 27.788C37.5337 25.9369 37.7987 23.9095 37.8866 21.8819H43.3582C43.2703 24.5266 42.3879 27.083 40.7993 29.2866ZM33.9158 34.5759C34.9749 33.2538 35.9456 31.5788 36.6518 29.463C37.7992 29.8155 38.7699 30.1684 39.7406 30.6973C38.0637 32.4601 36.1222 33.7822 33.9158 34.5758V34.5759ZM21.7368 27.083C22.3546 27.083 22.7958 27.5237 22.9724 28.0527C23.0608 28.5816 22.7958 29.1988 22.1784 29.4631C21.4722 29.7273 20.5015 29.1988 20.5015 28.317C20.5015 27.612 21.031 27.083 21.7368 27.083ZM24.649 28.6698C25.7081 28.4934 26.8555 28.4055 28.0025 28.4055V35.3696C26.3256 34.9288 24.7373 33.2538 23.5016 30.6974C24.1199 30.2563 24.649 29.4631 24.649 28.6699V28.6698ZM29.7677 35.3691V28.4051C31.5326 28.4933 33.2978 28.6694 34.8865 29.0223C33.7391 32.4601 31.7976 34.8402 29.7677 35.3691ZM35.416 27.259C33.6511 26.8183 31.7975 26.6419 29.7677 26.5536V21.7054H36.1217C36.1222 23.7329 35.8572 25.5843 35.416 27.259ZM29.7677 20.0308V15.2708C31.0034 15.2708 32.2388 15.0944 33.3862 14.9183C33.9157 15.888 34.7982 16.4169 35.7689 16.5051C35.9455 17.6512 36.0334 18.8851 36.1217 20.0311L29.7677 20.0308ZM36.0339 12.2732C36.5634 12.2732 37.0929 12.6257 37.1813 13.1546C37.3579 13.86 36.9167 14.565 36.2988 14.7414C35.5927 14.9179 34.9752 14.4772 34.7986 13.7718C34.6219 13.0668 35.1511 12.2732 36.0339 12.2732ZM33.0333 13.1551C31.9742 13.3315 30.9151 13.4193 29.7682 13.4193L29.7678 6.45532C31.4446 6.89603 33.0329 8.48279 34.1803 11.0393C33.5628 11.6564 33.1216 12.2731 33.0333 13.1551ZM28.003 6.45534V13.4193C26.2381 13.3311 24.4729 13.1551 22.8843 12.8022C24.0316 9.36434 25.9731 6.98423 28.003 6.45534ZM22.3548 14.5654C24.1196 15.0061 26.0615 15.1826 28.003 15.2708V20.119H21.649C21.6486 18.0916 21.9136 16.2401 22.3548 14.5654ZM28.003 21.7936V26.6418C26.7673 26.6418 25.5319 26.8183 24.3845 26.9943C23.9433 26.1129 23.0609 25.584 22.0902 25.4075H21.9135C21.7369 24.2615 21.649 23.1158 21.5606 21.8815L28.0029 21.8819L28.003 21.7936ZM19.2659 30.0801C19.4426 30.1683 20.1483 31.4023 21.9136 31.3144C22.5314 32.5487 23.1493 33.6944 23.9433 34.5759C21.7369 33.7827 19.7954 32.4601 18.1188 30.609C18.4717 30.4326 18.8246 30.2561 19.2658 30.0801L19.2659 30.0801ZM19.8838 21.7936C19.8838 23.1158 20.0604 24.4383 20.2367 25.7605C19.3542 26.2894 18.6481 27.259 18.7364 28.4051C18.1185 28.6694 17.5007 28.9341 16.9715 29.1983C15.3829 26.9943 14.5004 24.4383 14.4121 21.7936L19.8838 21.7936Z" fill="#FF5300"/>
</svg>
