<svg width="85" height="85" viewBox="0 0 85 85" fill="none" xmlns="http://www.w3.org/2000/svg">
<path d="M45.8899 53.3325H54.2444C55.3982 53.3325 56.3331 52.4143 56.3331 51.2813V23.9313C56.3331 23.7499 56.2597 23.576 56.1292 23.4477C55.9987 23.3195 55.8215 23.2475 55.6369 23.2475H54.9407V8.88875C54.9407 8.70743 54.8673 8.53345 54.7368 8.40523C54.6062 8.27702 54.4291 8.205 54.2444 8.205H53.5482V4.78625C53.5482 4.60493 53.4749 4.43095 53.3443 4.30273C53.2138 4.17452 53.0366 4.1025 52.852 4.1025H50.7634V0H49.3709V4.1025H47.2823C46.8975 4.1025 46.5861 4.40835 46.5861 4.78625V8.205H45.8899C45.5051 8.205 45.1936 8.51085 45.1936 8.88875V23.2475H44.4974C44.1126 23.2475 43.8012 23.5534 43.8012 23.9313V49.2308H42.4088V32.1363C42.4535 31.4714 42.3112 30.8072 41.9979 30.2169C41.6846 29.626 41.2115 29.1308 40.6316 28.7859L40 30.0051C40.3475 30.2389 40.6247 30.56 40.8038 30.9349C40.9822 31.3097 41.0555 31.7242 41.0164 32.1363V49.9138C41.0164 50.0951 41.0897 50.2691 41.2202 50.3973C41.3508 50.5255 41.5279 50.5976 41.7126 50.5976H43.8012V51.2813C43.8012 52.4144 44.7361 53.3325 45.8899 53.3325ZM47.9785 5.47H52.1558V8.205H47.9785V5.47ZM46.5861 9.5725H53.5482V23.2475H46.5861V9.5725ZM45.1936 24.615H54.9407V51.2805C54.9407 51.4618 54.8673 51.6358 54.7368 51.764C54.6062 51.8922 54.4291 51.9642 54.2444 51.9642H45.8899C45.5051 51.9642 45.1936 51.6584 45.1936 51.2805V24.615Z" fill="#FF5300"/>
<path d="M63.709 1.33028L58.7508 10.1703C58.6951 10.2692 58.666 10.3803 58.666 10.4927V49.9326C58.6673 50.8342 59.0404 51.6981 59.7045 52.3356C60.3685 52.9731 61.2685 53.3313 62.2076 53.3326H66.4576C67.3967 53.3314 68.2966 52.9731 68.9607 52.3356C69.6248 51.6981 69.9979 50.8342 69.9992 49.9326V10.4927C69.9992 10.3803 69.9701 10.2692 69.9144 10.1703L64.9562 1.33028C64.8209 1.12507 64.5856 1 64.3326 1C64.0796 1 63.8444 1.12507 63.709 1.33028ZM68.5826 49.9327C68.5826 51.0595 67.6314 51.9727 66.4576 51.9727H62.2077C61.0339 51.9727 60.0827 51.0595 60.0827 49.9327V47.8927H68.5826V49.9327ZM68.5826 46.5327H60.0827V43.8127H68.5826V46.5327ZM68.5826 42.4527H60.0827V11.1728H68.5826V42.4527ZM68.1051 9.81278H60.5601L62.4675 6.41279H66.1976L68.1051 9.81278ZM63.2297 5.05279L64.3327 3.08693L65.4357 5.05279H63.2297Z" fill="#FF5300"/>
<path d="M0.687305 84.998H75.9811C76.1626 84.998 76.3367 84.9257 76.4651 84.7971C76.5935 84.6686 76.6656 84.4941 76.6656 84.3122V58.2555H75.2966V65.7982H46.548V58.2555H45.1791V83.6273H1.38587C1.68473 62.1722 15.9576 44.8517 37.1045 40.4131L36.8239 39.0704C18.7143 42.8718 5.50016 55.8424 1.36976 72.8055V38.3714H36.9632V37H0.684489C0.306182 37 0 37.3067 0 37.6857V84.3136C0 84.4954 0.0721156 84.6699 0.200449 84.7985C0.328782 84.9271 0.50297 84.9993 0.684489 84.9993L0.687305 84.998ZM57.4991 83.6167C50.2912 83.5212 46.8003 80.4625 46.57 74.0266H57.4991V83.6167ZM75.2958 83.6265H64.9246C69.6109 81.5976 73.3292 77.8256 75.2958 73.1059V83.6265ZM58.8681 67.1696H75.2958C75.2958 71.8765 70.5496 82.9777 58.8681 83.5968V67.1696ZM54.7611 67.1696H57.4991V72.6553H54.7611V67.1696ZM53.3922 72.6553H46.5944C46.8908 70.2186 48.8098 67.6643 53.3922 67.2383V72.6553ZM46.5473 67.1696H48.8691C47.9627 67.6784 47.1725 68.3702 46.5473 69.2017V67.1696ZM46.5473 79.6899C47.4664 81.4262 48.9313 82.8098 50.7154 83.6265H46.5473V79.6899Z" fill="#FF5300"/>
<path d="M83.594 0.899871C83.6637 0.691087 83.6282 0.462141 83.4997 0.28388C83.3707 0.105619 83.1639 0 82.9436 0C78.2887 0 72.666 5.18499 72.666 11.6239C72.6672 13.3619 73.4068 15.0176 74.7019 16.18L73.3512 48.4095C73.3512 51.1219 75.8104 53.3326 78.8326 53.3326C81.8547 53.3326 84.314 51.125 84.314 48.3832L82.9644 16.1787C84.2583 15.0169 84.9979 13.3613 84.9991 11.6237C84.9343 9.40584 84.6186 7.20187 84.0576 5.0548C83.6551 3.28625 83.307 1.7582 83.594 0.899871ZM82.1214 1.43589C82.1563 2.7625 82.3576 4.07933 82.7197 5.35651C82.8929 6.1178 83.074 6.92188 83.23 7.76005C80.5932 8.70998 77.3294 8.11475 75.5333 6.35651C77.1716 3.63743 79.8603 1.80715 82.1213 1.43597L82.1214 1.43589ZM78.8326 51.9651C76.5653 51.9651 74.7215 50.3711 74.7215 48.4413L75.7199 24.6153H81.9452L82.9436 48.4101C82.9436 50.3716 81.0999 51.9656 78.8326 51.9656V51.9651ZM75.7774 23.2473L76.035 17.1002C77.7901 18.0032 79.8751 18.0032 81.6302 17.1002L81.8884 23.2473H75.7774ZM78.8326 16.4098C77.5607 16.4086 76.3422 15.9037 75.4427 15.0062C74.5434 14.1088 74.0375 12.8928 74.0363 11.6234C74.0393 10.2431 74.3287 8.87868 74.8854 7.61541C76.4864 8.92005 78.4984 9.61839 80.5651 9.58666C81.5464 9.58727 82.5215 9.43342 83.4538 9.12939C83.567 9.95601 83.6257 10.7893 83.6288 11.6233C83.6275 12.8925 83.1216 14.1086 82.2223 15.0061C81.323 15.9035 80.1044 16.4084 78.8324 16.4096L78.8326 16.4098Z" fill="#FF5300"/>
</svg>
