<svg width="55" height="62" viewBox="0 0 55 62" fill="none" xmlns="http://www.w3.org/2000/svg">
<path d="M10.4593 37.8615C13.3037 43.9905 19.7756 48.283 27.2896 48.283C34.1094 48.283 40.0688 44.7462 43.2393 39.5118C43.2444 39.5011 43.2535 39.4925 43.2575 39.4818C44.7866 36.9458 45.6657 34.0152 45.6657 30.8924C45.6657 23.7968 41.1497 17.684 34.6966 14.9824C34.6745 14.9733 34.6552 14.962 34.6326 14.9551C32.3819 14.0223 29.899 13.501 27.2891 13.501C17.1567 13.501 8.91211 21.3029 8.91211 30.8925C8.91211 33.3427 9.45337 35.6747 10.4237 37.7912C10.4327 37.8169 10.4458 37.8384 10.4577 37.862L10.4593 37.8615ZM29.2179 46.6321C29.2366 44.4104 28.0861 42.0457 28.0521 41.9835C28.0339 41.9363 26.247 37.2362 28.5106 34.5024C30.7068 31.8496 33.4538 32.602 33.5649 32.6347C33.608 32.6476 33.6556 32.6572 33.6998 32.6631C33.9038 32.691 38.6346 33.4119 41.5596 39.1532C38.9304 43.206 34.4428 46.062 29.218 46.6322L29.2179 46.6321ZM42.9187 25.2339C41.6576 25.7295 39.0024 26.364 36.6055 24.2952C35.548 23.3813 34.4156 23.2611 33.5054 23.1646C32.2869 23.0353 31.5512 22.9576 30.8733 21.3216C29.9031 18.9798 33.2634 17.087 34.3606 16.5416C38.2746 18.2763 41.3606 21.3941 42.9185 25.234L42.9187 25.2339ZM32.4558 15.8197C30.6785 16.9273 28.1927 19.0631 29.3614 21.8833C30.3963 24.3816 32.0194 24.5543 33.3246 24.6922C34.1385 24.7785 34.8418 24.8536 35.5106 25.4313C37.0504 26.7604 38.7915 27.2576 40.4226 27.2576C41.5034 27.2576 42.5326 27.0367 43.4263 26.6982C43.8157 28.037 44.0407 29.439 44.0407 30.8926C44.0407 33.2569 43.4757 35.4935 42.4912 37.5107C39.3054 32.1579 34.6325 31.2492 33.9876 31.1495C33.4322 31.0031 29.959 30.2591 27.2314 33.553C24.4152 36.9551 26.4396 42.2881 26.553 42.5735C26.8902 43.2557 27.6411 45.1716 27.5896 46.7313C27.4892 46.7329 27.3912 46.7458 27.2897 46.7458C20.8922 46.7458 15.3255 43.3308 12.5051 38.3286C15.8932 38.2793 22.0646 37.3117 22.4925 28.6779C22.6331 25.8486 23.0218 25.1599 25.3785 22.1546C26.0574 21.2894 26.317 20.3223 26.1504 19.2818C25.8971 17.7059 24.6847 16.3018 23.7264 15.4088C24.8758 15.1717 26.066 15.0392 27.2896 15.0392C29.0937 15.0397 30.8274 15.3181 32.4561 15.8196L32.4558 15.8197ZM21.8853 15.9023C22.6102 16.4746 24.2951 17.9529 24.544 19.5163C24.6448 20.1438 24.4907 20.7081 24.0741 21.2391C21.5396 24.4696 21.0296 25.3836 20.8691 28.606C20.6792 32.4538 19.4233 36.8074 11.746 36.7716C10.9747 34.9512 10.5383 32.9703 10.5383 30.8926C10.5383 23.943 15.2956 18.037 21.8853 15.9026L21.8853 15.9023Z" fill="#FF5300"/>
<path d="M0.779974 0.940346C0.208684 1.53732 -0.0695966 2.34131 0.01486 3.148C0.145214 4.37573 1.16594 5.37652 2.45933 5.64263V56.9412C2.45989 59.4626 4.62769 61.5143 7.29211 61.5143H47.2904C49.9547 61.5143 52.1226 59.4628 52.1226 56.9412V5.66185C52.7653 5.54707 53.3581 5.23704 53.8024 4.77148C54.3737 4.17451 54.652 3.37052 54.5675 2.56438C54.4151 1.12634 53.0412 0 51.4396 0H3.0174C2.1667 0 1.35119 0.342201 0.77983 0.94025L0.779974 0.940346ZM52.9498 2.71781C52.99 3.09702 52.8648 3.46068 52.5973 3.73958C52.3332 4.01527 51.9568 4.1735 51.5641 4.1735H51.3096C50.8607 4.1735 50.4969 4.51731 50.4969 4.94265V56.9415C50.4974 58.6155 49.059 59.9767 47.2901 59.9767H7.29184C5.52305 59.9767 4.08463 58.6154 4.08463 56.9415V4.94265C4.08463 4.51785 3.72134 4.1735 3.2719 4.1735H3.14268C2.36565 4.1735 1.70199 3.65538 1.63172 2.99458C1.59148 2.61484 1.71673 2.25118 1.98424 1.97174C2.24892 1.69659 2.62468 1.53782 3.01744 1.53782H51.4382C52.2152 1.53782 52.8794 2.05594 52.9491 2.71782L52.9498 2.71781Z" fill="#FF5300"/>
</svg>
