<svg width="108" height="54" viewBox="0 0 108 54" fill="none" xmlns="http://www.w3.org/2000/svg">
<circle cx="80.8516" cy="27" r="26" stroke="#FF5300" strokeWidth="2"/>
<path d="M68.7873 5.17188C68.7873 7.46975 68.2128 10.9166 71.6596 12.0655C75.1064 13.2144 75.1064 13.7889 74.532 16.0868C73.9575 18.3846 70.5107 14.9378 70.5107 18.3846C70.5107 21.8314 72.2341 21.8314 68.7873 23.5549C65.3405 25.2783 63.0426 24.1293 61.8937 28.7251C60.7447 33.3208 62.4681 34.4697 59.0213 35.6187C56.2639 36.5378 57.1064 37.1506 57.8724 37.3421M67.064 48.257C67.0639 46.3421 68.5574 42.3974 74.532 41.9378C82.0002 41.3634 79.1279 43.0868 85.447 44.2357C91.7662 45.3846 86.0215 33.8953 92.9151 35.6187C98.43 36.9974 98.2768 42.8953 97.5108 46.5336M87.1704 12.0655C85.064 13.0229 81.3108 15.6272 83.1491 18.3846C85.447 21.8314 84.8725 18.3846 87.1704 23.5549C89.4683 28.7251 89.4683 28.7251 88.3194 31.0229C87.4002 32.8612 91.0002 29.491 92.9151 27.5761C94.2555 26.4272 96.8215 23.3251 96.3619 20.108C95.7874 16.0868 95.7874 12.0655 92.9151 13.2144C90.6172 14.1336 88.1279 12.8314 87.1704 12.0655Z" stroke="#FF5300"/>
<path d="M1 26.2681C0.447715 26.2681 0 26.7158 0 27.2681C0 27.8204 0.447715 28.2681 1 28.2681V26.2681ZM9.48445 27.2681V28.2681C9.8541 28.2681 10.1936 28.0642 10.3672 27.7378L9.48445 27.2681ZM14.5751 17.7014H15.5751C15.5751 17.2424 15.2626 16.8423 14.8172 16.7312C14.3718 16.62 13.908 16.8264 13.6923 17.2317L14.5751 17.7014ZM14.5751 35.7092H13.5751C13.5751 36.2129 13.9498 36.638 14.4495 36.7013C14.9492 36.7646 15.418 36.4463 15.5436 35.9585L14.5751 35.7092ZM20.5142 12.6367L21.51 12.5448C21.4653 12.0606 21.0788 11.6787 20.5941 11.6399C20.1094 11.6011 19.667 11.9165 19.5458 12.3874L20.5142 12.6367ZM23.0596 40.2112L22.0638 40.3031C22.1095 40.7986 22.5126 41.185 23.0095 41.2099C23.5065 41.2348 23.9462 40.8906 24.0412 40.4021L23.0596 40.2112ZM26.4534 22.7661L27.3239 22.2739C27.1177 21.9094 26.7062 21.7119 26.2928 21.7791C25.8794 21.8463 25.5517 22.164 25.4718 22.5752L26.4534 22.7661ZM28.9987 27.2681L28.1282 27.7602C28.3142 28.0892 28.6698 28.2852 29.0473 28.2669C29.4248 28.2485 29.7596 28.0189 29.9128 27.6734L28.9987 27.2681ZM33.2409 17.7014H34.2409C34.2409 17.229 33.9103 16.821 33.4481 16.7231C32.9859 16.6252 32.5183 16.8642 32.3268 17.296L33.2409 17.7014ZM33.2409 35.7092H32.2409C32.2409 36.1453 32.5234 36.531 32.9391 36.6626C33.3548 36.7942 33.8079 36.6413 34.0588 36.2847L33.2409 35.7092ZM39.18 27.2681V26.2681C38.8546 26.2681 38.5495 26.4265 38.3622 26.6926L39.18 27.2681ZM1 28.2681H9.48445V26.2681H1V28.2681ZM10.3672 27.7378L15.4579 18.1712L13.6923 17.2317L8.60166 26.7983L10.3672 27.7378ZM13.5751 17.7014V35.7092H15.5751V17.7014H13.5751ZM15.5436 35.9585L21.4827 12.886L19.5458 12.3874L13.6067 35.4599L15.5436 35.9585ZM19.5185 12.7286L22.0638 40.3031L24.0553 40.1193L21.51 12.5448L19.5185 12.7286ZM24.0412 40.4021L27.435 22.9571L25.4718 22.5752L22.078 40.0202L24.0412 40.4021ZM25.5829 23.2583L28.1282 27.7602L29.8692 26.7759L27.3239 22.2739L25.5829 23.2583ZM29.9128 27.6734L34.1551 18.1068L32.3268 17.296L28.0845 26.8627L29.9128 27.6734ZM32.2409 17.7014V35.7092H34.2409V17.7014H32.2409ZM34.0588 36.2847L39.9979 27.8435L38.3622 26.6926L32.4231 35.1338L34.0588 36.2847ZM39.18 28.2681H56.1489V26.2681H39.18V28.2681Z" fill="#FF5300"/>
</svg>
