<svg width="63" height="60" viewBox="0 0 63 60" fill="none" xmlns="http://www.w3.org/2000/svg">
<path d="M61.95 0H1.05C0.47016 0 0 0.444947 0 0.993692V58.6278C0 58.8914 0.110626 59.1442 0.3075 59.3305C0.504374 59.5168 0.771564 59.6215 1.05 59.6215H61.95C62.2284 59.6215 62.4956 59.5168 62.6925 59.3305C62.8894 59.1442 63 58.8914 63 58.6278V0.993692C63 0.730188 62.8894 0.477324 62.6925 0.29101C62.4956 0.104695 62.2284 0 61.95 0ZM60.9 12.918V57.6342H2.1V1.98738H60.9V12.918Z" fill="#FF5300"/>
<path d="M3.14977 21.86H11.5498C11.8099 21.8596 12.0607 21.7673 12.2534 21.6018L19.7295 15.2324V15.232C20.7771 15.8894 22.0803 16.0678 23.2821 15.7191C24.4835 15.37 25.4566 14.5302 25.9347 13.4301C26.4123 12.3299 26.3444 11.0847 25.7491 10.0373C25.1542 8.9895 24.0944 8.24913 22.8611 8.01927C21.6279 7.78948 20.351 8.09424 19.3807 8.85016C18.4103 9.60607 17.8483 10.7337 17.8497 11.9231C17.8548 12.5584 18.0245 13.1825 18.3433 13.7415L11.1507 19.8726H3.14961C2.56977 19.8726 2.09961 20.3176 2.09961 20.8663C2.09961 21.4151 2.56977 21.86 3.14961 21.86L3.14977 21.86ZM22.0498 9.9357C22.6066 9.9357 23.141 10.1451 23.5348 10.5177C23.9285 10.8903 24.1498 11.3961 24.1498 11.9231C24.1498 12.4501 23.9285 12.9558 23.5348 13.3284C23.141 13.7011 22.6066 13.9105 22.0498 13.9105C21.4929 13.9105 20.9585 13.7011 20.5648 13.3284C20.171 12.9558 19.9498 12.4501 19.9498 11.9231C19.9498 11.3961 20.171 10.8903 20.5648 10.5177C20.9585 10.1451 21.4929 9.9357 22.0498 9.9357Z" fill="#FF5300"/>
<path d="M3.1501 25.835H23.7193L28.6543 30.5152C28.8521 30.7015 29.1207 30.8048 29.3996 30.8035H37.9468C38.1353 31.4871 38.5126 32.1109 39.0404 32.6103C39.5683 33.1098 40.2273 33.467 40.9496 33.6453V38.7531C40.9496 39.0166 41.0603 39.2695 41.2571 39.4558C41.454 39.6421 41.7212 39.7468 41.9996 39.7468H50.5469C50.8905 41.0067 51.8641 42.0274 53.1527 42.4798C54.4417 42.9323 55.8832 42.7589 57.0119 42.0158C58.1406 41.2728 58.8133 40.0542 58.8133 38.7531C58.8133 37.452 58.1407 36.2333 57.0119 35.4904C55.8831 34.7474 54.4417 34.5739 53.1527 35.0264C51.8641 35.4789 50.8904 36.4996 50.5469 37.7594H43.0496V33.6453C44.0134 33.4146 44.859 32.8676 45.4366 32.102C46.0141 31.3363 46.2859 30.4016 46.2034 29.4642C46.1214 28.5264 45.6906 27.6471 44.988 26.9818C44.2848 26.3168 43.3557 25.9091 42.3649 25.8315C41.3744 25.7534 40.3868 26.0107 39.5776 26.5572C38.7686 27.1038 38.1906 27.904 37.9468 28.8161H29.8299L24.8949 24.136C24.6971 23.9497 24.4285 23.8463 24.1496 23.8477H3.14961C2.56977 23.8477 2.09961 24.2926 2.09961 24.8414C2.09961 25.3901 2.56977 25.8351 3.14961 25.8351L3.1501 25.835ZM54.6001 36.7657C55.157 36.7657 55.6914 36.975 56.0851 37.3477C56.4788 37.7203 56.7001 38.226 56.7001 38.753C56.7001 39.2801 56.4788 39.7858 56.0851 40.1584C55.6914 40.531 55.157 40.7404 54.6001 40.7404C54.0432 40.7404 53.5088 40.531 53.1151 40.1584C52.7214 39.7858 52.5001 39.2801 52.5001 38.753C52.5001 38.226 52.7214 37.7203 53.1151 37.3477C53.5088 36.975 54.0432 36.7657 54.6001 36.7657ZM42.0001 27.8224C42.557 27.8224 43.0914 28.0318 43.4851 28.4044C43.8788 28.7771 44.1001 29.2828 44.1001 29.8098C44.1001 30.3368 43.8788 30.8425 43.4851 31.2152C43.0914 31.5878 42.557 31.7972 42.0001 31.7972C41.4432 31.7972 40.9088 31.5878 40.5151 31.2152C40.1214 30.8425 39.9001 30.3368 39.9001 29.8098C39.9001 29.2828 40.1214 28.7771 40.5151 28.4044C40.9088 28.0318 41.4432 27.8224 42.0001 27.8224Z" fill="#FF5300"/>
<path d="M3.15009 29.8097H21.6193L26.5543 34.4898C26.7521 34.6761 27.0207 34.7795 27.2996 34.7781H34.6496V44.7151C34.6496 45.2638 35.1198 45.7087 35.6996 45.7087C36.2794 45.7087 36.7496 45.2638 36.7496 44.7151V33.7844C36.7496 33.5209 36.639 33.2681 36.4421 33.0818C36.2452 32.8954 35.978 32.7908 35.6996 32.7908H27.7299L22.7949 28.1106C22.5971 27.9243 22.3285 27.8209 22.0496 27.8223H3.14961C2.56977 27.8223 2.09961 28.2672 2.09961 28.816C2.09961 29.3647 2.56977 29.8097 3.14961 29.8097H3.15009Z" fill="#FF5300"/>
<path d="M59.8495 19.8753H43.4803L38.85 15.4933V2.98295C38.85 2.4342 38.3799 1.98926 37.8 1.98926C37.2202 1.98926 36.75 2.4342 36.75 2.98295V15.901C36.7486 16.1649 36.8578 16.4191 37.0547 16.6063L42.3047 21.5748C42.5025 21.7611 42.7711 21.8644 43.05 21.8631H59.85C60.4299 21.8631 60.9 21.4182 60.9 20.8694C60.9 20.3207 60.4299 19.8757 59.85 19.8757L59.8495 19.8753Z" fill="#FF5300"/>
<path d="M59.8488 15.901H45.5796L43.0492 13.5063V2.98295C43.0492 2.4342 42.5791 1.98926 41.9992 1.98926C41.4194 1.98926 40.9492 2.4342 40.9492 2.98295V13.9136C40.9478 14.1775 41.057 14.4317 41.2539 14.6189L44.4039 17.6C44.6017 17.7863 44.8703 17.8897 45.1492 17.8883H59.8492C60.4291 17.8883 60.8992 17.4434 60.8992 16.8946C60.8992 16.3459 60.4291 15.901 59.8492 15.901H59.8488Z" fill="#FF5300"/>
<path d="M3.14973 48.6898H9.44973C9.82051 48.6898 10.1636 48.5049 10.3525 48.2027L13.1983 43.7214H15.8969C16.2405 44.9813 17.2141 46.002 18.5027 46.4544C19.7917 46.9069 21.2332 46.7334 22.3619 45.9904C23.4906 45.2474 24.1633 44.0288 24.1633 42.7277C24.1633 41.4266 23.4907 40.2079 22.3619 39.465C21.2331 38.722 19.7917 38.5485 18.5027 39.001C17.2141 39.4534 16.2405 40.4742 15.8969 41.734H12.5997C12.2289 41.734 11.8858 41.919 11.6968 42.2211L8.85105 46.7025H3.14961C2.56977 46.7025 2.09961 47.1474 2.09961 47.6962C2.09961 48.2449 2.56977 48.6899 3.14961 48.6899L3.14973 48.6898ZM19.9497 40.7403C20.5066 40.7403 21.041 40.9497 21.4347 41.3223C21.8285 41.695 22.0497 42.2007 22.0497 42.7277C22.0497 43.2547 21.8285 43.7604 21.4347 44.1331C21.041 44.5057 20.5066 44.7151 19.9497 44.7151C19.3929 44.7151 18.8585 44.5057 18.4647 44.1331C18.071 43.7604 17.8497 43.2547 17.8497 42.7277C17.8497 42.2007 18.071 41.695 18.4647 41.3223C18.8585 40.9497 19.3929 40.7403 19.9497 40.7403Z" fill="#FF5300"/>
<path d="M3.14961 52.667H16.7996C17.3794 52.667 17.8496 52.2219 17.8496 51.6729C17.8496 51.1239 17.3794 50.6787 16.7996 50.6787H3.14961C2.56977 50.6787 2.09961 51.1239 2.09961 51.6729C2.09961 52.2219 2.56977 52.667 3.14961 52.667Z" fill="#FF5300"/>
<path d="M30.4508 2.98295V16.0406C29.1195 16.3658 28.041 17.2872 27.5629 18.5067C27.0848 19.7266 27.268 21.0907 28.0532 22.1589C28.8383 23.2271 30.126 23.8638 31.5008 23.8638C32.8756 23.8638 34.1634 23.2272 34.9484 22.1589C35.7334 21.0907 35.9168 19.7266 35.4387 18.5067C34.9606 17.2872 33.8819 16.3658 32.5508 16.0406V2.98295C32.5508 2.4342 32.0806 1.98926 31.5008 1.98926C30.9209 1.98926 30.4508 2.4342 30.4508 2.98295ZM33.6008 19.8757C33.6008 20.4027 33.3796 20.9085 32.9858 21.2811C32.5921 21.6537 32.0577 21.8631 31.5008 21.8631C30.9439 21.8631 30.4096 21.6537 30.0158 21.2811C29.6221 20.9085 29.4008 20.4027 29.4008 19.8757C29.4008 19.3487 29.6221 18.843 30.0158 18.4704C30.4096 18.0977 30.9439 17.8883 31.5008 17.8883C32.0577 17.8883 32.5921 18.0977 32.9858 18.4704C33.3796 18.843 33.6008 19.3487 33.6008 19.8757Z" fill="#FF5300"/>
<path d="M59.8496 45.7115H47.2496C46.9707 45.7102 46.7021 45.8136 46.5043 45.9999L41.5693 50.68H33.4524C33.264 49.9964 32.8866 49.3727 32.3588 48.8732C31.831 48.3737 31.1719 48.0166 30.4496 47.8383V37.762C30.4496 37.4985 30.339 37.2456 30.1421 37.0593C29.9452 36.873 29.678 36.7683 29.3996 36.7683H25.6299L20.6949 32.0882C20.4971 31.9019 20.2285 31.7985 19.9496 31.7998H3.14961C2.56977 31.7998 2.09961 32.2448 2.09961 32.7935C2.09961 33.3423 2.56977 33.7872 3.14961 33.7872H19.5188L24.4538 38.4673C24.6516 38.6536 24.9202 38.757 25.1991 38.7557H28.3491V47.8383C27.3854 48.0689 26.5398 48.6159 25.9622 49.3816C25.3847 50.1473 25.1128 51.082 25.1953 52.0194C25.2774 52.9572 25.7081 53.8364 26.4108 54.5018C27.1139 55.1668 28.043 55.5744 29.0339 55.6521C30.0244 55.7302 31.012 55.4729 31.8211 54.9263C32.6302 54.3798 33.2082 53.5796 33.4519 52.6674H41.9992C42.2781 52.6687 42.5467 52.5654 42.7445 52.3791L47.6795 47.6989H59.8487C60.4285 47.6989 60.8987 47.254 60.8987 46.7052C60.8987 46.1565 60.4285 45.7116 59.8487 45.7116L59.8496 45.7115ZM29.3996 53.6611C28.8428 53.6611 28.3084 53.4517 27.9146 53.0791C27.5209 52.7064 27.2996 52.2007 27.2996 51.6737C27.2996 51.1467 27.5209 50.641 27.9146 50.2683C28.3084 49.8957 28.8428 49.6863 29.3996 49.6863C29.9565 49.6863 30.4909 49.8957 30.8846 50.2683C31.2784 50.641 31.4996 51.1467 31.4996 51.6737C31.4996 52.2007 31.2784 52.7064 30.8846 53.0791C30.4909 53.4517 29.9565 53.6611 29.3996 53.6611Z" fill="#FF5300"/>
<path d="M59.8499 49.6846H49.3499C49.071 49.6833 48.8024 49.7866 48.6046 49.9729L44.4046 53.9477C44.2059 54.134 44.0938 54.3882 44.0938 54.653C44.0938 54.9179 44.2059 55.1721 44.4046 55.3584C44.6015 55.5465 44.8701 55.6525 45.1499 55.6525C45.4298 55.6525 45.6984 55.5465 45.8952 55.3584L49.7802 51.672H59.8499C60.4298 51.672 60.8999 51.227 60.8999 50.6783C60.8999 50.1295 60.4298 49.6846 59.8499 49.6846Z" fill="#FF5300"/>
<path d="M59.8499 11.9262H47.6807L47.2504 11.5189V2.98295C47.2504 2.4342 46.7802 1.98926 46.2004 1.98926C45.6206 1.98926 45.1504 2.4342 45.1504 2.98295V11.9262C45.149 12.1901 45.2582 12.4443 45.4551 12.6315L46.5051 13.6252C46.7029 13.8115 46.9715 13.9149 47.2504 13.9136H59.8504C60.4302 13.9136 60.9004 13.4686 60.9004 12.9199C60.9004 12.3711 60.4302 11.9262 59.8504 11.9262L59.8499 11.9262Z" fill="#FF5300"/>
<path d="M3.14961 8.9451H13.6496C13.928 8.9451 14.1952 8.84041 14.3921 8.65409C14.589 8.46778 14.6996 8.21492 14.6996 7.95141V2.98295C14.6996 2.4342 14.2295 1.98926 13.6496 1.98926C13.0698 1.98926 12.5996 2.4342 12.5996 2.98295V6.95772H3.14961C2.56977 6.95772 2.09961 7.40267 2.09961 7.95141C2.09961 8.50016 2.56977 8.9451 3.14961 8.9451Z" fill="#FF5300"/>
</svg>
