<svg width="70" height="67" viewBox="0 0 70 67" fill="none" xmlns="http://www.w3.org/2000/svg">
<path d="M50.5609 60.4416H18.6323C16.0209 60.4416 13.8926 58.4274 13.8926 55.9561V4.48553C13.8926 2.01422 16.0209 0 18.6323 0H50.5609C53.1723 0 55.3006 2.01422 55.3006 4.48553V55.9561C55.3006 58.4317 53.1723 60.4416 50.5609 60.4416ZM18.6323 2.07037C17.2241 2.07037 16.0803 3.15292 16.0803 4.48553V55.9561C16.0803 57.2888 17.2242 58.3713 18.6323 58.3713H50.5609C51.9691 58.3713 53.1129 57.2887 53.1129 55.9561V4.48553C53.1129 3.15284 51.969 2.07037 50.5609 2.07037H18.6323Z" fill="#FF5300"/>
<path d="M48.8266 22.5711H20.3613C19.7552 22.5711 19.2676 22.1096 19.2676 21.536V6.12593C19.2676 5.55231 19.7552 5.09082 20.3613 5.09082H48.8216C49.4277 5.09082 49.9153 5.55231 49.9153 6.12593V21.536C49.9199 22.1096 49.4277 22.5711 48.8261 22.5711H48.8266ZM21.4547 20.5009H47.7282V7.16103H21.4547V20.5009Z" fill="#FF5300"/>
<path d="M48.8266 27.0282H20.3613C19.7552 27.0282 19.2676 26.5665 19.2676 25.9926C19.2676 25.4187 19.7552 24.957 20.3613 24.957H48.8216C49.4277 24.957 49.9153 25.4187 49.9153 25.9926C49.9153 26.5665 49.4277 27.0282 48.8261 27.0282H48.8266Z" fill="#FF5300"/>
<path d="M34.5945 55.1274C31.0853 55.1274 27.7904 53.8335 25.3112 51.4873C22.832 49.1411 21.4648 46.0185 21.4648 42.7019C21.4648 39.3809 22.832 36.2627 25.3112 33.9165C27.7904 31.5702 31.0899 30.2764 34.5945 30.2764C38.099 30.2764 41.3985 31.5702 43.8777 33.9165C46.3569 36.2627 47.7241 39.3853 47.7241 42.7019C47.7241 46.0229 46.3569 49.1411 43.8777 51.4873C41.3985 53.8335 38.1035 55.1274 34.5945 55.1274ZM34.5945 32.3417C28.5606 32.3417 23.6524 36.9867 23.6524 42.697C23.6524 48.4073 28.5606 53.0523 34.5945 53.0523C40.6283 53.0523 45.5366 48.4073 45.5366 42.697C45.5366 36.9867 40.6283 32.3417 34.5945 32.3417Z" fill="#FF5300"/>
<path d="M26.0804 51.7884C25.8024 51.7884 25.5199 51.6892 25.3057 51.4865C24.8773 51.0811 24.8773 50.4255 25.3057 50.0244L42.3275 33.9154C42.7559 33.51 43.4486 33.51 43.8724 33.9154C44.3008 34.3208 44.3008 34.9764 43.8724 35.3775L26.8506 51.4865C26.641 51.6892 26.363 51.7884 26.0804 51.7884Z" fill="#FF5300"/>
<path d="M62.1213 66.2454H47.6062C45.0266 66.2454 42.9258 64.2573 42.9258 61.8161V59.4052C42.9258 58.8315 43.4134 58.3701 44.0195 58.3701C44.6257 58.3701 45.1133 58.8315 45.1133 59.4052V61.8161C45.1133 63.1186 46.2298 64.1752 47.6062 64.1752H62.1213C63.4976 64.1752 64.6141 63.1186 64.6141 61.8161V31.8583C64.6141 31.2847 65.1018 30.8232 65.7079 30.8232C66.314 30.8232 66.8017 31.2847 66.8017 31.8583V61.8161C66.8017 64.2573 64.7008 66.2454 62.1213 66.2454Z" fill="#FF5300"/>
<path d="M68.0964 32.895H63.3203C62.7142 32.895 62.2266 32.4335 62.2266 31.8599V16.5576C62.2266 15.9839 62.7142 15.5225 63.3203 15.5225H68.0964C68.7025 15.5225 69.1901 15.9839 69.1901 16.5576V31.8599C69.1901 32.4292 68.6979 32.895 68.0964 32.895ZM64.414 30.8248H67.0025V17.5927H64.414V30.8248Z" fill="#FF5300"/>
<path d="M65.709 17.5929C65.1029 17.5929 64.6152 17.1314 64.6152 16.5578V10.1142C64.6152 9.54059 65.1029 9.0791 65.709 9.0791C66.3151 9.0791 66.8028 9.54059 66.8028 10.1142V16.5578C66.8028 17.1314 66.3106 17.5929 65.709 17.5929Z" fill="#FF5300"/>
<path d="M21.5822 66.2454H7.06709C4.48757 66.2454 2.38672 64.2573 2.38672 61.8161V31.8583C2.38672 31.2847 2.87436 30.8232 3.48048 30.8232C4.0866 30.8232 4.57424 31.2847 4.57424 31.8583V61.8161C4.57424 63.1186 5.69078 64.1752 7.06709 64.1752H21.5822C22.9585 64.1752 24.0751 63.1186 24.0751 61.8161V59.4052C24.0751 58.8315 24.5627 58.3701 25.1688 58.3701C25.775 58.3701 26.2626 58.8315 26.2626 59.4052V61.8161C26.2626 64.2573 24.1662 66.2454 21.5822 66.2454Z" fill="#FF5300"/>
<path d="M5.8698 32.895H1.09376C0.487638 32.895 0 32.4335 0 31.8599V16.5576C0 15.9839 0.487638 15.5225 1.09376 15.5225H5.8698C6.47592 15.5225 6.96356 15.9839 6.96356 16.5576V31.8599C6.96356 32.4292 6.47592 32.895 5.8698 32.895ZM2.18743 30.8248H4.77596V17.5927H2.18743V30.8248Z" fill="#FF5300"/>
<path d="M3.48048 17.5929C2.87436 17.5929 2.38672 17.1314 2.38672 16.5578V10.1142C2.38672 9.54059 2.87436 9.0791 3.48048 9.0791C4.0866 9.0791 4.57424 9.54059 4.57424 10.1142V16.5578C4.57424 17.1314 4.0866 17.5929 3.48048 17.5929Z" fill="#FF5300"/>
</svg>
