<svg width="74" height="71" viewBox="0 0 74 71" fill="none" xmlns="http://www.w3.org/2000/svg">
<path d="M6.89799 10.9423C7.81255 10.9423 8.69021 10.5965 9.33675 9.98095C9.98329 9.36543 10.3468 8.53004 10.3468 7.65964C10.3468 6.78924 9.98341 5.95374 9.33675 5.33833C8.69009 4.72292 7.81243 4.37695 6.89799 4.37695C5.98356 4.37695 5.10578 4.72281 4.45924 5.33833C3.81269 5.95385 3.44922 6.78924 3.44922 7.65964C3.44922 8.53004 3.81258 9.36555 4.45924 9.98095C5.1059 10.5964 5.98356 10.9423 6.89799 10.9423ZM6.89799 6.56533C7.36298 6.56533 7.78228 6.83205 7.95984 7.24092C8.13793 7.6498 8.03991 8.12023 7.71094 8.43337C7.38196 8.74651 6.88773 8.83981 6.45816 8.67029C6.0286 8.50126 5.74838 8.10216 5.74838 7.65958C5.74838 7.0553 6.26314 6.56533 6.89799 6.56533Z" fill="#FF5300"/>
<path d="M2.29923 1.09425C2.29923 1.69853 1.78446 2.1885 1.14961 2.1885C0.514764 2.1885 0 1.69853 0 1.09425C0 0.489974 0.514764 0 1.14961 0C1.78446 0 2.29923 0.489974 2.29923 1.09425Z" fill="#FF5300"/>
<path d="M66.6773 10.9423C67.5918 10.9423 68.4695 10.5965 69.1161 9.98095C69.7626 9.36543 70.1261 8.53004 70.1261 7.65964C70.1261 6.78924 69.7627 5.95374 69.1161 5.33833C68.4694 4.72292 67.5917 4.37695 66.6773 4.37695C65.7629 4.37695 64.8851 4.72281 64.2385 5.33833C63.592 5.95385 63.2285 6.78924 63.2285 7.65964C63.2285 8.53004 63.5919 9.36555 64.2385 9.98095C64.8852 10.5964 65.7629 10.9423 66.6773 10.9423ZM66.6773 6.56533C67.1423 6.56533 67.5616 6.83205 67.7391 7.24092C67.9172 7.6498 67.8192 8.12023 67.4902 8.43337C67.1613 8.74651 66.667 8.83981 66.2375 8.67029C65.8079 8.50126 65.5277 8.10216 65.5277 7.65958C65.5277 7.0553 66.0424 6.56533 66.6773 6.56533Z" fill="#FF5300"/>
<path d="M73.5766 1.09425C73.5766 1.69853 73.0618 2.1885 72.427 2.1885C71.7921 2.1885 71.2773 1.69853 71.2773 1.09425C71.2773 0.489974 71.7921 0 72.427 0C73.0618 0 73.5766 0.489974 73.5766 1.09425Z" fill="#FF5300"/>
<path d="M6.89799 59.0889C5.98344 59.0889 5.10578 59.4347 4.45924 60.0502C3.81269 60.6658 3.44922 61.5012 3.44922 62.3716C3.44922 63.242 3.81258 64.0775 4.45924 64.6929C5.1059 65.3083 5.98356 65.6542 6.89799 65.6542C7.81243 65.6542 8.69021 65.3084 9.33675 64.6929C9.98329 64.0773 10.3468 63.242 10.3468 62.3716C10.3468 61.5012 9.98341 60.6657 9.33675 60.0502C8.69009 59.4348 7.81243 59.0889 6.89799 59.0889ZM6.89799 63.4659C6.43301 63.4659 6.01371 63.1991 5.83614 62.7903C5.65805 62.3814 5.75608 61.911 6.08505 61.5978C6.41402 61.2847 6.90826 61.1914 7.33783 61.3609C7.76739 61.5299 8.04761 61.929 8.04761 62.3716C8.04761 62.6618 7.92649 62.9402 7.71094 63.1454C7.49538 63.3506 7.20285 63.4659 6.89799 63.4659Z" fill="#FF5300"/>
<path d="M2.29923 68.937C2.29923 69.5413 1.78446 70.0313 1.14961 70.0313C0.514764 70.0313 0 69.5413 0 68.937C0 68.3327 0.514764 67.8428 1.14961 67.8428C1.78446 67.8428 2.29923 68.3327 2.29923 68.937Z" fill="#FF5300"/>
<path d="M66.6773 59.0889C65.7627 59.0889 64.8851 59.4347 64.2385 60.0502C63.592 60.6658 63.2285 61.5012 63.2285 62.3716C63.2285 63.242 63.5919 64.0775 64.2385 64.6929C64.8852 65.3083 65.7629 65.6542 66.6773 65.6542C67.5917 65.6542 68.4695 65.3084 69.1161 64.6929C69.7626 64.0773 70.1261 63.242 70.1261 62.3716C70.1261 61.5012 69.7627 60.6657 69.1161 60.0502C68.4694 59.4348 67.5917 59.0889 66.6773 59.0889ZM66.6773 63.4659C66.2123 63.4659 65.793 63.1991 65.6154 62.7903C65.4374 62.3814 65.5354 61.911 65.8644 61.5978C66.1933 61.2847 66.6876 61.1914 67.1171 61.3609C67.5467 61.5299 67.8269 61.929 67.8269 62.3716C67.8269 62.6618 67.7058 62.9402 67.4902 63.1454C67.2747 63.3506 66.9821 63.4659 66.6773 63.4659Z" fill="#FF5300"/>
<path d="M73.5766 68.937C73.5766 69.5413 73.0618 70.0313 72.427 70.0313C71.7921 70.0313 71.2773 69.5413 71.2773 68.937C71.2773 68.3327 71.7921 67.8428 72.427 67.8428C73.0618 67.8428 73.5766 68.3327 73.5766 68.937Z" fill="#FF5300"/>
<path d="M28.9529 25.0381C28.472 25.7269 27.8916 26.3473 27.2285 26.8822C28.9663 27.145 30.487 28.1402 31.3671 29.5905C31.9866 29.1581 32.661 28.8015 33.3734 28.5289C32.3916 26.8954 30.8211 25.6555 28.9529 25.0381Z" fill="#FF5300"/>
<path d="M8.04606 32.4242V40.0019C8.04452 40.5652 8.27803 41.1055 8.69528 41.5046C9.11253 41.9037 9.67913 42.1289 10.2703 42.1304H23.9908C24.8504 41.232 25.8748 40.4905 27.0142 39.9419H10.3442V32.4243C10.34 31.0917 10.8353 29.801 11.7417 28.7854C12.648 27.7693 13.9055 27.0943 15.2875 26.8822C14.6244 26.3473 14.044 25.7269 13.5631 25.0381C11.9501 25.5701 10.552 26.5672 9.56255 27.8909C8.57358 29.2152 8.04296 30.8 8.04493 32.4242L8.04606 32.4242Z" fill="#FF5300"/>
<path d="M64.9544 40.0006V32.4229C64.9564 30.7956 64.4237 29.208 63.4311 27.8827C62.4385 26.5573 61.036 25.5604 59.4187 25.0312C58.9379 25.72 58.3574 26.3405 57.6943 26.8748C59.0811 27.0839 60.343 27.7581 61.253 28.7756C62.1624 29.7931 62.6603 31.0866 62.6551 32.4228V39.9403H46.5605C47.6917 40.4913 48.7079 41.2329 49.5608 42.1288H62.7072C63.3025 42.1332 63.8753 41.9109 64.2972 41.5109C64.7196 41.1113 64.9562 40.5676 64.9546 40.0004L64.9544 40.0006Z" fill="#FF5300"/>
<path d="M39.707 28.3648C40.442 28.5988 41.1431 28.9203 41.7933 29.3223C42.6935 28.0141 44.1315 27.1279 45.7539 26.8822C45.0908 26.3473 44.5103 25.7269 44.0294 25.0381C42.225 25.6331 40.696 26.8099 39.707 28.3648Z" fill="#FF5300"/>
<path d="M73.0636 32.4659C72.5365 32.1313 71.8246 32.2661 71.4716 32.7669L71.2186 33.1279C70.7192 25.0074 67.0661 17.3531 60.97 11.653C54.8735 5.95269 46.7687 2.61279 38.23 2.28201C29.6911 1.9513 21.3274 4.65372 14.7648 9.8636C8.20172 15.074 3.90808 22.4206 2.71694 30.4755C1.52627 38.5305 3.52372 46.7192 8.32075 53.451C13.1184 60.1831 20.3732 64.9773 28.6761 66.9022C36.9795 68.8274 45.7377 67.7458 53.2503 63.8685C60.7629 59.9908 66.4925 53.5938 69.3278 45.9203C69.4412 45.6438 69.4325 45.3356 69.3027 45.0659C69.1728 44.7963 68.9336 44.5882 68.6396 44.4895C68.346 44.3908 68.0227 44.4099 67.7435 44.5427C67.4648 44.6751 67.2544 44.9096 67.161 45.1925C64.5282 52.3647 59.1928 58.3522 52.1884 61.9951C45.1835 65.6379 37.0083 66.677 29.2447 64.911C21.4812 63.1455 14.6821 58.7006 10.1651 52.437C5.64718 46.1734 3.73186 38.5369 4.79016 31.0072C5.84843 23.4769 9.80432 16.5881 15.8927 11.6746C21.981 6.76127 29.7682 4.17321 37.7458 4.41157C45.7239 4.64995 53.3254 7.6972 59.0774 12.9644C64.8301 18.2309 68.3247 25.3421 68.885 32.921L68.7757 32.7622V32.7627C68.4231 32.2595 67.7092 32.1232 67.1805 32.4589C66.6519 32.7945 66.5093 33.474 66.8613 33.9772L69.1606 37.2599C69.3741 37.5647 69.7333 37.7479 70.1177 37.7479C70.5026 37.7479 70.8619 37.5647 71.0749 37.2599L73.3741 33.9772C73.7226 33.4779 73.5845 32.8048 73.0636 32.4672L73.0636 32.4659Z" fill="#FF5300"/>
<path d="M70.3793 41.1714C70.3793 41.7757 69.8645 42.2656 69.2297 42.2656C68.5948 42.2656 68.0801 41.7757 68.0801 41.1714C68.0801 40.5671 68.5948 40.0771 69.2297 40.0771C69.8645 40.0771 70.3793 40.5671 70.3793 41.1714Z" fill="#FF5300"/>
<path d="M21.2688 13.6777C19.4391 13.6777 17.685 14.3695 16.3911 15.6005C15.0978 16.832 14.3711 18.5017 14.3711 20.2432C14.3711 21.9848 15.0978 23.6544 16.3911 24.886C17.685 26.117 19.4391 26.8087 21.2688 26.8087C23.0984 26.8087 24.8525 26.117 26.1464 24.886C27.4397 23.6545 28.1665 21.9848 28.1665 20.2432C28.1665 18.5017 27.4397 16.8321 26.1464 15.6005C24.8526 14.3695 23.0984 13.6777 21.2688 13.6777ZM21.2688 24.6202C20.0494 24.6202 18.8797 24.1591 18.017 23.3384C17.1548 22.5172 16.6703 21.4039 16.6703 20.2432C16.6703 19.0826 17.1548 17.9692 18.017 17.1481C18.8797 16.3274 20.0494 15.8662 21.2688 15.8662C22.4882 15.8662 23.6579 16.3274 24.5205 17.1481C25.3828 17.9692 25.8672 19.0826 25.8672 20.2432C25.8672 21.4039 25.3828 22.5173 24.5205 23.3384C23.6578 24.1591 22.4882 24.6202 21.2688 24.6202Z" fill="#FF5300"/>
<path d="M51.7317 26.8087C53.5613 26.8087 55.3154 26.117 56.6093 24.886C57.9026 23.6545 58.6293 21.9848 58.6293 20.2432C58.6293 18.5017 57.9026 16.8321 56.6093 15.6005C55.3155 14.3695 53.5613 13.6777 51.7317 13.6777C49.902 13.6777 48.1479 14.3695 46.854 15.6005C45.5607 16.832 44.834 18.5017 44.834 20.2432C44.834 21.9848 45.5607 23.6544 46.854 24.886C48.1479 26.117 49.902 26.8087 51.7317 26.8087ZM51.7317 15.8662C52.9511 15.8662 54.1208 16.3274 54.9834 17.1481C55.8456 17.9692 56.3301 19.0826 56.3301 20.2432C56.3301 21.4039 55.8456 22.5173 54.9834 23.3384C54.1207 24.1591 52.951 24.6202 51.7317 24.6202C50.5123 24.6202 49.3426 24.1591 48.4799 23.3384C47.6177 22.5172 47.1332 21.4039 47.1332 20.2432C47.1332 19.0826 47.6177 17.9692 48.4799 17.1481C49.3426 16.3274 50.5123 15.8662 51.7317 15.8662Z" fill="#FF5300"/>
<path d="M25.7908 58.5421H47.7833C48.3745 58.5407 48.9411 58.3155 49.3583 57.9164C49.7756 57.5173 50.0091 56.977 50.0075 56.4137V48.836C50.0096 47.2087 49.4769 45.6211 48.4843 44.2958C47.4917 42.9704 46.0891 41.9735 44.4719 41.4443C43.991 42.1331 43.4106 42.7536 42.7475 43.2879C44.1343 43.497 45.3962 44.1711 46.3062 45.1887C47.2156 46.2062 47.7134 47.4997 47.7083 48.8358V56.3534H25.8656V48.8358C25.8615 47.5032 26.3568 46.2125 27.2632 45.1969C28.1695 44.1808 29.4269 43.5058 30.809 43.2937C30.1459 42.7588 29.5655 42.1384 29.0846 41.4496C27.4716 41.9816 26.0735 42.9787 25.084 44.3024C24.0951 45.6267 23.5644 47.2115 23.5664 48.8357V56.4134C23.5649 56.9767 23.7984 57.517 24.2156 57.9161C24.6329 58.3152 25.1995 58.5404 25.7907 58.5419L25.7908 58.5421Z" fill="#FF5300"/>
<path d="M29.8906 36.6573C29.8906 38.3988 30.6173 40.0685 31.9107 41.3C33.2045 42.5311 34.9586 43.2228 36.7883 43.2228C38.618 43.2228 40.3721 42.5311 41.666 41.3C42.9593 40.0685 43.686 38.3988 43.686 36.6573C43.686 34.9158 42.9593 33.2461 41.666 32.0146C40.3721 30.7835 38.618 30.0918 36.7883 30.0918C34.9586 30.0918 33.2045 30.7835 31.9107 32.0146C30.6173 33.2461 29.8906 34.9158 29.8906 36.6573ZM41.3868 36.6573C41.3868 37.818 40.9023 38.9313 40.0401 39.7525C39.1774 40.5731 38.0077 41.0343 36.7883 41.0343C35.5689 41.0343 34.3992 40.5731 33.5365 39.7525C32.6743 38.9313 32.1899 37.818 32.1899 36.6573C32.1899 35.4966 32.6743 34.3833 33.5365 33.5621C34.3993 32.7414 35.5689 32.2803 36.7883 32.2803C38.0077 32.2803 39.1774 32.7414 40.0401 33.5621C40.9023 34.3833 41.3868 35.4966 41.3868 36.6573Z" fill="#FF5300"/>
</svg>
