<svg width="59" height="65" viewBox="0 0 59 65" fill="none" xmlns="http://www.w3.org/2000/svg">
<path d="M30.0234 24.8292C29.8631 24.6592 29.6343 24.5615 29.3944 24.5615C29.1545 24.5615 28.9257 24.6586 28.7654 24.8286C28.5532 25.0542 23.5665 30.3888 23.5489 34.2403C23.5353 37.2867 26.1286 39.7763 29.3291 39.7899H29.3544C32.5437 39.7899 35.1457 37.3266 35.1599 34.288C35.1776 30.3472 30.2338 25.0526 30.0234 24.8292ZM29.3543 38.181H29.3366C27.0676 38.1715 25.2301 36.4072 25.2396 34.2475C25.2502 31.9166 27.8399 28.4158 29.3938 26.6068C30.9307 28.4041 33.4803 31.8897 33.4697 34.2813C33.4597 36.4354 31.6152 38.181 29.3543 38.181Z" fill="#FF5300"/>
<path d="M53.7096 34.0255C52.8914 34.0255 52.1203 34.2174 51.4376 34.5507C50.5887 33.6983 49.682 32.8454 48.7282 31.9959C50.6972 30.2436 52.4469 28.4866 53.9159 26.7675C58.3018 21.6332 59.7361 17.3418 57.9535 14.6838C56.1725 12.0263 51.4806 11.4567 44.7395 13.0795C42.9781 13.5037 41.1188 14.0749 39.2017 14.7573C38.8975 13.4342 38.5592 12.1694 38.1842 10.9742C39.7023 10.1331 40.6796 8.56255 40.6796 6.85904C40.6796 4.23577 38.4378 2.1019 35.6818 2.1019C35.0451 2.1019 34.4385 2.22029 33.8785 2.42734C32.4442 0.816919 30.889 0 29.2573 0C25.0441 0 21.4157 5.76267 19.3406 14.6189C17.5544 13.9949 15.8229 13.4765 14.1742 13.0792C7.43495 11.4547 2.74121 12.0254 0.960268 14.6834C-1.48032 18.324 2.35505 25.0136 10.1802 31.9928C9.15508 32.9063 8.19602 33.8238 7.29219 34.7407C6.60423 34.4006 5.82489 34.2053 4.99783 34.2053C2.24183 34.2053 0 36.3392 0 38.9625C0 40.2738 0.560029 41.4628 1.46493 42.3241C0.00412009 45.187 -0.182155 47.5964 0.960298 49.3005C2.07682 50.9659 4.3358 51.8114 7.52629 51.8114C9.42691 51.8114 11.6588 51.5106 14.1748 50.9046C15.7996 50.5135 17.5032 50.0057 19.2623 49.394C21.3232 58.4438 24.99 64.3534 29.2574 64.3534C33.5461 64.3534 37.2293 58.3847 39.2849 49.2576C41.1725 49.9264 43.0036 50.4864 44.7402 50.9045C47.2574 51.5105 49.4881 51.8113 51.3887 51.8113C54.578 51.8107 56.8375 50.9657 57.9541 49.3003C59.1319 47.5445 58.8996 45.0459 57.3162 42.067C58.1763 41.2124 58.7081 40.0559 58.7081 38.7816C58.7075 36.1589 56.4656 34.0251 53.7096 34.0251L53.7096 34.0255ZM57.0173 38.7826C57.0173 40.5187 55.5336 41.9311 53.7096 41.9311C51.8857 41.9311 50.4019 40.5187 50.4019 38.7826C50.4019 37.0471 51.8857 35.6347 53.7096 35.6347C55.5336 35.6342 57.0173 37.0465 57.0173 38.7826ZM45.1547 14.6385C51.0445 13.2189 55.1899 13.551 56.5299 15.5486C57.8687 17.5456 56.4385 21.2642 52.6049 25.7514C51.1577 27.4454 49.428 29.1787 47.4762 30.9092C45.4354 29.1742 43.1999 27.4611 40.7995 25.7997C40.5619 22.4734 40.1351 19.2946 39.5432 16.3549C41.4887 15.6535 43.375 15.0672 45.1547 14.6385ZM34.8808 40.0826C33.0751 41.179 31.2606 42.2031 29.4572 43.1486C27.6539 42.2026 25.8393 41.1791 24.0336 40.0826C22.3677 39.0709 20.793 38.0486 19.3017 37.0251C19.2186 35.4612 19.1744 33.8446 19.1744 32.1765C19.1744 30.3747 19.2268 28.6336 19.3229 26.9542C20.8426 25.9066 22.4173 24.8837 24.0337 23.9017C25.8394 22.8053 27.6539 21.7812 29.4573 20.8357C31.2606 21.7817 33.0752 22.8052 34.8808 23.9017C36.3564 24.7978 37.7847 25.7191 39.1655 26.6574C39.2781 28.4648 39.3399 30.3086 39.3399 32.1766C39.3399 33.9447 39.2898 35.6544 39.1979 37.3046C37.8072 38.2507 36.367 39.1799 34.881 40.0828L34.8808 40.0826ZM39.0544 39.3666C38.831 42.1374 38.4844 44.7157 38.0369 47.0703C35.8245 46.2129 33.5401 45.1928 31.2239 44.0402C32.746 43.2204 34.271 42.3612 35.7903 41.4389C36.9039 40.7616 37.991 40.0692 39.0544 39.3666ZM27.6904 44.0396C25.2421 45.2578 22.8323 46.3217 20.5031 47.2087C20.028 44.7382 19.6631 42.0178 19.4367 39.0854C20.6257 39.8793 21.8525 40.6655 23.1241 41.4376C24.6426 42.3606 26.1684 43.2202 27.6905 44.0395L27.6904 44.0396ZM17.5568 35.7979C15.7935 34.5269 14.1683 33.2593 12.6874 32.0103C14.2101 30.7243 15.8424 29.4444 17.5733 28.1913C17.5167 29.4959 17.4843 30.8235 17.4843 32.1764C17.4843 33.4036 17.5103 34.6099 17.5568 35.7979ZM19.468 24.8836C19.7067 21.9618 20.0834 19.2544 20.5704 16.8002C22.8783 17.6822 25.2658 18.7377 27.6905 19.9442C26.1684 20.764 24.6434 21.6231 23.1242 22.5455C21.8685 23.308 20.656 24.0914 19.468 24.8836ZM31.2239 19.944C33.5065 18.8083 35.7591 17.7988 37.9414 16.9493C38.4131 19.3503 38.7703 21.9136 39.0037 24.5896C37.955 23.8977 36.8891 23.2126 35.7903 22.5455C34.2712 21.623 32.7455 20.764 31.224 19.9442L31.2239 19.944ZM40.9167 27.8828C42.8044 29.23 44.5758 30.6071 46.22 31.998C44.59 33.375 42.822 34.7441 40.9445 36.0857C40.9987 34.8053 41.03 33.503 41.03 32.1764C41.03 30.7281 40.984 29.299 40.9168 27.8827L40.9167 27.8828ZM38.9896 6.85867C38.9896 8.15541 38.1348 9.3383 36.862 9.80113C36.4858 9.93804 36.0885 10.0076 35.6818 10.0076C33.8578 10.0076 32.374 8.59529 32.374 6.85917C32.374 5.12363 33.8578 3.7113 35.6818 3.7113C37.5057 3.71074 38.9896 5.12314 38.9896 6.85867ZM29.2574 1.60881C30.3085 1.60881 31.3667 2.17386 32.4059 3.27425C31.353 4.14679 30.6834 5.42838 30.6834 6.85867C30.6834 9.48194 32.9252 11.6158 35.6812 11.6158C35.9901 11.6158 36.2949 11.5889 36.5944 11.5361C36.9687 12.7392 37.3088 14.0096 37.6101 15.3461C34.9685 16.36 32.2291 17.5929 29.4566 19.0129C26.5456 17.522 23.6742 16.2427 20.9117 15.2013C22.85 6.70142 26.1235 1.60881 29.2574 1.60881ZM2.38403 15.5493C3.72339 13.5517 7.86947 13.2206 13.7592 14.6392C15.4233 15.0398 17.1783 15.574 18.9899 16.2142C18.3721 19.2264 17.927 22.5509 17.6883 26.0994C15.4416 27.6716 13.3442 29.2867 11.4229 30.9205C3.87189 24.2342 0.574713 18.2487 2.38388 15.5489L2.38403 15.5493ZM4.99726 35.8135C6.82121 35.8135 8.30501 37.2259 8.30501 38.962C8.30501 40.6981 6.82121 42.1104 4.99726 42.1104C3.17331 42.1104 1.68952 40.6981 1.68952 38.962C1.68952 37.2259 3.17331 35.8135 4.99726 35.8135ZM13.7592 49.3455C7.86886 50.764 3.72339 50.4329 2.38403 48.4348C1.42312 47.0011 2.04035 44.9272 2.85917 43.2556C3.50822 43.5496 4.23155 43.7191 4.99672 43.7191C7.75272 43.7191 9.99455 41.5852 9.99455 38.962C9.99455 37.709 9.47932 36.5715 8.64517 35.721C9.51352 34.8462 10.4361 33.9652 11.4336 33.0821C13.317 34.6834 15.4028 36.2923 17.6635 37.8757C17.8869 41.4304 18.3149 44.769 18.918 47.7968C17.1324 48.4258 15.4022 48.9499 13.7592 49.3455ZM29.2581 62.7444C26.0824 62.7444 22.7617 57.5175 20.8353 48.8118C23.6213 47.7648 26.5199 46.4764 29.4581 44.971C32.2665 46.4098 35.0395 47.6538 37.7124 48.6755C35.7906 57.4644 32.4504 62.7444 29.2581 62.7444ZM56.5299 48.4348C55.1911 50.4317 51.0457 50.7634 45.1553 49.3454C43.4003 48.9229 41.5423 48.3472 39.6251 47.6593C40.1975 44.7511 40.6078 41.5572 40.8324 38.1651C43.2229 36.5093 45.4541 34.8029 47.4791 33.0831C48.3946 33.8956 49.2612 34.7103 50.0777 35.5251C49.2341 36.3774 48.7124 37.5215 48.7124 38.7824C48.7124 41.4057 50.9542 43.5395 53.7102 43.5395C54.5137 43.5395 55.2707 43.3538 55.9439 43.0323C56.8358 44.7763 57.5267 46.9496 56.5299 48.4348Z" fill="#FF5300"/>
</svg>
