<svg width="73" height="57" viewBox="0 0 73 57" fill="none" xmlns="http://www.w3.org/2000/svg">
<path d="M36.1512 39.2631C36.6863 39.2631 37.1271 38.8502 37.1271 38.3342C37.1271 37.8249 36.6934 37.4053 36.1512 37.4053C30.5915 37.4053 26.0651 33.0973 26.0651 27.8049C26.0651 27.2955 25.6313 26.876 25.0892 26.876C24.5541 26.876 24.1133 27.2888 24.1133 27.8049C24.1133 34.1222 29.5142 39.2631 36.1512 39.2631Z" fill="#FF5300"/>
<path d="M53.0411 28.9726C53.0698 28.5871 53.0915 28.1949 53.0915 27.8027C53.0915 19.1796 37.5686 1.1081 36.9102 0.343717C36.715 0.123851 36.4402 0 36.1512 0C35.8622 0 35.5798 0.12385 35.3992 0.336994C34.741 1.10074 19.2179 19.1726 19.2179 27.796C19.2179 28.1882 19.2396 28.5804 19.2683 28.9658C7.36054 31.4846 0 36.4603 0 42.0415C0 50.307 15.8844 56.7824 36.1572 56.7824C56.43 56.7824 72.3143 50.3066 72.3143 42.0415C72.3073 36.4605 64.9471 31.4915 53.0395 28.9732L53.0411 28.9726ZM36.1509 43.9199C42.9908 43.9199 48.8976 40.0382 51.5653 34.464C57.6385 36.0467 61.3766 38.4762 61.3766 40.8918C61.3766 42.8874 58.8101 44.9247 54.3417 46.4801C49.4975 48.1732 43.0335 49.1021 36.1515 49.1021C29.2613 49.1021 22.8041 48.1732 17.9612 46.4801C13.4928 44.918 10.9263 42.8807 10.9263 40.8918C10.9263 38.4829 14.6644 36.0467 20.7376 34.464C23.4055 40.0387 29.3052 43.9199 36.152 43.9199H36.1509ZM36.1509 2.41561C39.289 6.18016 51.1393 20.8592 51.1393 27.8039C51.1393 35.6699 44.4155 42.0704 36.1509 42.0704C27.8869 42.0704 21.1626 35.6704 21.1626 27.8039C21.1626 20.8595 33.0129 6.17979 36.1509 2.41561ZM36.1509 54.9322C17.6121 54.9322 1.94463 49.0344 1.94463 42.0495C1.94463 37.4799 8.80616 33.1235 19.5139 30.825C19.644 31.4788 19.8104 32.1121 20.0273 32.7313C12.9924 34.5963 8.97989 37.5419 8.97989 40.8931C8.97989 43.7488 11.9298 46.3575 17.2943 48.2225C22.3483 49.9842 29.0504 50.9544 36.1585 50.9544C43.2656 50.9544 49.9681 49.9842 55.0227 48.2225C60.3874 46.3508 63.3371 43.7494 63.3371 40.8931C63.3371 37.5414 59.3247 34.5963 52.2897 32.7313C52.4995 32.1121 52.673 31.4722 52.7961 30.825C63.5042 33.1235 70.3653 37.4799 70.3653 42.0495C70.3583 49.0274 54.6901 54.9322 36.1526 54.9322H36.1509Z" fill="#FF5300"/>
</svg>
