<svg width="71" height="68" viewBox="0 0 71 68" fill="none" xmlns="http://www.w3.org/2000/svg">
<path d="M5.91646 30.7863V25.207C5.91911 24.4776 6.17109 23.7682 6.63543 23.1857C7.09925 22.6033 7.7506 22.1788 8.49127 21.9764L11.7639 21.0915C12.2219 19.6737 12.8209 18.3003 13.5526 16.9895L11.9034 14.1798C11.5315 13.5409 11.3884 12.8056 11.4951 12.0831C11.6018 11.3612 11.9525 10.6907 12.4951 10.1728L16.6657 6.22732C17.2125 5.71338 17.9209 5.38092 18.6843 5.27944C19.4476 5.17846 20.2248 5.31394 20.8998 5.66589L23.8687 7.22665C25.2538 6.53423 26.705 5.96732 28.2031 5.53381L29.1382 2.43673C29.3521 1.73582 29.8006 1.1194 30.416 0.680413C31.0315 0.240968 31.7811 0.00249568 32.5518 0H38.4478H38.4473C39.218 0.00249965 39.9676 0.240968 40.5831 0.680413C41.1985 1.11936 41.647 1.73578 41.861 2.43673L42.796 5.53381C44.2941 5.96725 45.7454 6.53418 47.1304 7.22665L50.0993 5.66589C50.7744 5.31443 51.5514 5.17895 52.3148 5.27994C53.0777 5.38093 53.7861 5.71289 54.3334 6.22582L58.5024 10.1728C59.0455 10.6903 59.3973 11.3607 59.504 12.0831C59.6107 12.8055 59.4676 13.541 59.0957 14.1799L57.4465 16.9895C58.1781 18.3003 58.7772 19.6737 59.2352 21.0915L62.5078 21.9764C63.2484 22.1789 63.8998 22.6033 64.3636 23.1857C64.828 23.7682 65.08 24.4776 65.0826 25.207V30.7868V30.7863C65.0805 31.5162 64.828 32.2251 64.3642 32.8076C63.8998 33.39 63.2485 33.8145 62.5078 34.0169L59.5242 34.8238V34.8243C59.418 34.8523 59.3087 34.8668 59.1983 34.8668C58.6082 34.8663 58.1085 34.4544 58.0271 33.9014C57.9458 33.348 58.3071 32.8226 58.875 32.6696L61.8585 31.8627C62.3651 31.7242 62.7149 31.2858 62.7159 30.7863V25.207C62.7149 24.7076 62.3651 24.2691 61.8585 24.1306L57.9573 23.0753C57.5611 22.9678 57.252 22.6733 57.1411 22.2979C56.6577 20.637 55.9599 19.0382 55.0649 17.5384C54.8616 17.199 54.86 16.7835 55.0602 16.4425L57.0269 13.093C57.2815 12.655 57.2007 12.1106 56.8283 11.7567L52.6598 7.81068C52.2852 7.45923 51.7105 7.38324 51.2478 7.62371L47.7084 9.48498C47.3481 9.67546 46.9091 9.67396 46.5504 9.48048C44.9656 8.63359 43.2762 7.97322 41.5213 7.51529C41.1245 7.4108 40.8134 7.11834 40.6998 6.74339L39.5846 3.05132C39.4383 2.57188 38.975 2.24093 38.4473 2.23993H32.5518C32.0241 2.24093 31.5608 2.57189 31.4144 3.05132L30.2993 6.74339C30.1857 7.11835 29.8746 7.4108 29.4778 7.5158C27.7229 7.97324 26.0335 8.63366 24.4487 9.48061C24.09 9.67408 23.651 9.67558 23.2907 9.48511L19.7513 7.62384C19.2891 7.38137 18.7127 7.45786 18.3393 7.81182L14.1697 11.7568C13.7978 12.1112 13.7175 12.6552 13.9722 13.0931L15.9389 16.4427C16.1391 16.7836 16.1375 17.1991 15.9341 17.5385C15.0393 19.0384 14.3415 20.6371 13.8576 22.298C13.7472 22.6734 13.4381 22.9679 13.042 23.0754L9.14068 24.1307C8.63407 24.2692 8.28436 24.7077 8.28331 25.2071V30.7869V30.7864C8.28436 31.2859 8.63408 31.7243 9.14068 31.8628L12.1243 32.6697C12.7529 32.8397 13.1174 33.4596 12.9378 34.0545C12.7587 34.6494 12.1036 34.9939 11.4751 34.8244L8.49149 34.017C7.75086 33.8145 7.0995 33.3901 6.63511 32.8077C6.17129 32.2252 5.91877 31.5163 5.91666 30.7864L5.91646 30.7863ZM7.09978 58.2324C6.78599 58.2324 6.48487 58.3504 6.26301 58.5603C6.04114 58.7703 5.91646 59.0553 5.91646 59.3522V66.0714C5.91646 66.6898 6.44632 67.1912 7.09978 67.1912C7.75324 67.1912 8.28309 66.6898 8.28309 66.0714V59.3522C8.28309 59.0553 8.15842 58.7703 7.93655 58.5603C7.71468 58.3504 7.41357 58.2324 7.09978 58.2324ZM63.8989 58.2324C63.5851 58.2324 63.284 58.3504 63.0621 58.5603C62.8402 58.7703 62.7156 59.0553 62.7156 59.3522V66.0714C62.7156 66.6898 63.2454 67.1912 63.8989 67.1912C64.5523 67.1912 65.0822 66.6898 65.0822 66.0714V59.3522C65.0822 59.0553 64.9575 58.7703 64.7356 58.5603C64.5138 58.3504 64.2127 58.2324 63.8989 58.2324ZM46.7442 36.2665C47.2915 36.604 48.0247 36.458 48.3823 35.9406C50.4114 32.998 51.2471 29.4604 50.7351 25.9799C50.2238 22.4999 48.3996 19.3122 45.5993 17.0055C42.799 14.6984 39.2116 13.4275 35.4988 13.4275C31.786 13.4275 28.1988 14.6983 25.3983 17.0055C22.598 19.3122 20.7739 22.4999 20.2624 25.9799C19.7505 29.4604 20.5863 32.998 22.6153 35.9406C22.9724 36.459 23.7061 36.6045 24.2534 36.2665C24.8012 35.9281 24.9554 35.2342 24.5978 34.7158C22.881 32.2261 22.1736 29.2324 22.6062 26.2874C23.0388 23.3424 24.5819 20.6451 26.9517 18.6928C29.3211 16.7406 32.357 15.6653 35.4985 15.6653C38.64 15.6653 41.6761 16.7406 44.0453 18.6928C46.415 20.6451 47.9582 23.3422 48.3908 26.2874C48.8234 29.2326 48.1161 32.2261 46.3992 34.7158C46.0426 35.2342 46.1963 35.9276 46.7436 36.2665H46.7442ZM70.9988 57.1125V66.0714C70.9988 66.6898 70.4689 67.1912 69.8154 67.1912C69.162 67.1912 68.6321 66.6898 68.6321 66.0714V57.1125C68.6305 55.6282 68.0061 54.2049 66.8973 53.155C65.788 52.1057 64.284 51.5148 62.7156 51.5132H52.0657C51.8708 51.5217 51.6759 51.5397 51.4831 51.5667C52.6357 53.2106 53.25 55.1398 53.2491 57.1125V66.0714C53.2491 66.6898 52.7192 67.1912 52.0658 67.1912C51.4123 67.1912 50.8825 66.6898 50.8825 66.0714V57.1125C50.8798 55.0343 50.0061 53.042 48.4535 51.5722C46.9004 50.103 44.7952 49.2761 42.5993 49.2735H28.3995C26.2035 49.276 24.0983 50.1029 22.5453 51.5722C20.9928 53.042 20.119 55.0343 20.1163 57.1125V66.0714C20.1163 66.6898 19.5864 67.1912 18.933 67.1912C18.2795 67.1912 17.7497 66.6898 17.7497 66.0714V57.1125C17.7486 55.1398 18.363 53.2106 19.5157 51.5667C19.3229 51.5397 19.128 51.5217 18.933 51.5132H8.2832C6.71473 51.5147 5.21078 52.1057 4.10143 53.155C2.99261 54.2049 2.36825 55.6282 2.36663 57.1125V66.0714C2.36663 66.6898 1.83677 67.1912 1.18331 67.1912C0.529854 67.1912 0 66.6898 0 66.0714V57.1125C0.00316966 55.0682 0.849985 53.1065 2.35919 51.6442C3.86842 50.1818 5.92076 49.3344 8.08035 49.283C6.672 47.9056 5.89494 46.0585 5.91711 44.1416C5.9393 42.2253 6.75917 40.3947 8.19922 39.0467C9.63921 37.6989 11.5828 36.9429 13.6076 36.9426C15.633 36.9426 17.5765 37.6985 19.0165 39.0463C20.4565 40.3941 21.2769 42.225 21.2991 44.1413C21.3218 46.0576 20.5448 47.9053 19.1364 49.2826C19.8749 49.2976 20.6082 49.4071 21.316 49.6076C23.2606 47.9513 25.7835 47.0349 28.3995 47.034H29.259C27.3172 45.4226 26.155 43.131 26.0419 40.6893C25.9289 38.2476 26.875 35.8679 28.661 34.1026C30.4465 32.3368 32.9168 31.3384 35.4994 31.3384C38.082 31.3384 40.5522 32.3368 42.3377 34.1026C44.1238 35.8679 45.0699 38.2476 44.9568 40.6893C44.8438 43.131 43.6816 45.4226 41.7397 47.034H42.5992C45.2152 47.035 47.7382 47.9513 49.6827 49.6076C50.3906 49.4071 51.1238 49.2976 51.8623 49.2826C50.454 47.9053 49.6769 46.0576 49.6996 44.1413C49.7218 42.2244 50.5422 40.3938 51.9823 39.0463C53.4223 37.6986 55.3659 36.9426 57.3912 36.9426C59.416 36.9431 61.3595 37.699 62.7995 39.0467C64.2395 40.3945 65.0594 42.2253 65.0816 44.1416C65.1038 46.0585 64.3267 47.9056 62.9184 49.283C65.078 49.3345 67.1303 50.1814 68.6395 51.6442C70.1488 53.1065 70.9957 55.0682 70.9988 57.1125ZM8.28309 44.2348C8.28309 45.5711 8.84411 46.853 9.8425 47.7984C10.8414 48.7433 12.1959 49.2742 13.608 49.2742C15.0201 49.2742 16.3745 48.7432 17.3735 47.7984C18.3719 46.853 18.9329 45.5712 18.9329 44.2348C18.9329 42.8984 18.3719 41.6166 17.3735 40.6712C16.3746 39.7264 15.0201 39.1954 13.608 39.1954C12.1964 39.197 10.8426 39.7284 9.84466 40.6733C8.84624 41.6177 8.28472 42.899 8.28309 44.2348ZM35.4993 47.0345C37.3826 47.0345 39.1882 46.3265 40.52 45.0667C41.8512 43.8064 42.5992 42.0976 42.5992 40.3153C42.5992 38.533 41.8512 36.8243 40.52 35.5639C39.1882 34.3041 37.3826 33.5962 35.4993 33.5962C33.616 33.5962 31.8105 34.3041 30.4787 35.5639C29.1475 36.8243 28.3994 38.533 28.3994 40.3153C28.4016 42.0966 29.1501 43.8049 30.4814 45.0641C31.8121 46.324 33.6172 47.0324 35.4993 47.0345ZM52.0657 44.2348C52.0657 45.5711 52.6267 46.853 53.6251 47.7984C54.6241 48.7433 55.9785 49.2742 57.3906 49.2742C58.8028 49.2742 60.1572 48.7432 61.1562 47.7984C62.1546 46.853 62.7156 45.5712 62.7156 44.2348C62.7156 42.8984 62.1545 41.6166 61.1562 40.6712C60.1572 39.7264 58.8028 39.1954 57.3906 39.1954C55.979 39.197 54.6252 39.7284 53.6273 40.6733C52.6289 41.6177 52.0674 42.899 52.0657 44.2348ZM24.8495 58.2337C24.5357 58.2337 24.2346 58.3517 24.0127 58.5616C23.7909 58.7716 23.6662 59.0566 23.6662 59.3535V66.0727C23.6662 66.6911 24.196 67.1925 24.8495 67.1925C25.503 67.1925 26.0328 66.6911 26.0328 66.0727V59.3535C26.0328 59.0566 25.9081 58.7716 25.6863 58.5616C25.4644 58.3517 25.1633 58.2337 24.8495 58.2337ZM46.1492 58.2337C45.8354 58.2337 45.5343 58.3517 45.3124 58.5616C45.0905 58.7716 44.9658 59.0566 44.9658 59.3535V66.0727C44.9658 66.6911 45.4957 67.1925 46.1492 67.1925C46.8026 67.1925 47.3325 66.6911 47.3325 66.0727V59.3535C47.3325 59.0566 47.2078 58.7716 46.9859 58.5616C46.7641 58.3517 46.4629 58.2337 46.1492 58.2337Z" fill="#FF5300"/>
</svg>
