<svg width="75" height="75" viewBox="0 0 75 75" fill="none" xmlns="http://www.w3.org/2000/svg">
<path d="M7.66032 0C3.43752 0 0 3.40882 0 7.63182V67.3396C0 71.5624 3.43752 75 7.66032 75H67.3397C71.5625 75 75 71.5624 75 67.3396V7.63182C75 3.40898 71.5625 0 67.3397 0H7.66032ZM7.66032 1.82976H67.3397C70.5814 1.82976 73.1703 4.39074 73.1703 7.63166V67.3394C73.1703 70.5812 70.5812 73.1701 67.3397 73.1701H7.66032C4.41862 73.1701 1.82974 70.581 1.82974 67.3394V7.63166C1.82974 4.39058 4.41879 1.82976 7.66032 1.82976ZM21.351 12.6336C20.9248 12.7286 20.6262 13.1121 20.6364 13.5485V21.4367H12.7189C12.6908 21.4354 12.6621 21.4354 12.6334 21.4367C12.1281 21.461 11.7376 21.8891 11.7619 22.3944C11.7855 22.8997 12.2142 23.2901 12.7189 23.2665H20.6364V31.1547C20.6332 31.3997 20.7277 31.6358 20.8999 31.81C21.0715 31.9848 21.3063 32.0824 21.5513 32.0824C21.7957 32.0824 22.0304 31.9848 22.2027 31.81C22.3743 31.6358 22.4694 31.3997 22.4656 31.1547V23.2665H30.3544C30.5994 23.2697 30.8354 23.1746 31.0096 23.003C31.1838 22.8314 31.282 22.5966 31.282 22.3516C31.282 22.1066 31.1838 21.8718 31.0096 21.7002C30.8354 21.5286 30.5994 21.4335 30.3544 21.4367H22.4656V13.5485C22.4726 13.2665 22.3494 12.9979 22.1313 12.8192C21.9137 12.6406 21.6259 12.5717 21.351 12.6336ZM44.5596 21.4366C44.0543 21.4609 43.6639 21.889 43.6875 22.3943C43.7111 22.8996 44.1398 23.29 44.6451 23.2664H62.2811C62.5254 23.2696 62.7615 23.1745 62.9356 23.0029C63.1104 22.8313 63.2087 22.5965 63.2087 22.3515C63.2087 22.1065 63.1105 21.8717 62.9356 21.7001C62.7615 21.5285 62.5254 21.4334 62.2811 21.4366H44.6451C44.6164 21.4353 44.5877 21.4353 44.5596 21.4366ZM47.0459 45.4752C46.7046 45.5371 46.4277 45.7866 46.3307 46.1196C46.2344 46.4526 46.3339 46.8118 46.5885 47.0472L52.162 52.6208L46.5885 58.1944C46.4143 58.3654 46.3148 58.5976 46.3122 58.8419C46.309 59.0857 46.4035 59.3211 46.5744 59.4953C46.7448 59.6694 46.9777 59.769 47.2214 59.7715C47.4657 59.7741 47.7005 59.6796 47.8747 59.5093L53.4482 53.907L59.0504 59.5093C59.2246 59.6796 59.46 59.7741 59.7037 59.7715C59.9474 59.769 60.181 59.6694 60.3513 59.4953C60.5216 59.3211 60.6161 59.0857 60.6135 58.8419C60.611 58.5976 60.5114 58.3653 60.3366 58.1944L54.7631 52.6208L60.3366 47.0472C60.6244 46.7755 60.7041 46.3499 60.535 45.992C60.3659 45.6341 59.9863 45.4261 59.5934 45.4752C59.3886 45.4975 59.1972 45.5881 59.0504 45.7323L53.4482 51.3346L47.8747 45.7323C47.6597 45.5129 47.3483 45.4165 47.0459 45.4752ZM12.6331 47.7618C12.1278 47.7854 11.7374 48.2141 11.7616 48.7195C11.7852 49.2248 12.214 49.6152 12.7186 49.591H30.3546C30.5996 49.5948 30.8356 49.4997 31.0098 49.3281C31.184 49.1558 31.2822 48.9217 31.2822 48.6767C31.2822 48.4317 31.184 48.1969 31.0098 48.0253C30.8356 47.853 30.5996 47.7586 30.3546 47.7618H12.7186C12.6905 47.7605 12.6618 47.7605 12.6331 47.7618ZM12.5476 55.6507C12.0423 55.6979 11.671 56.1458 11.7182 56.6511C11.7661 57.1564 12.214 57.5271 12.7186 57.4799H30.3546C30.5995 57.4837 30.8356 57.3886 31.0098 57.217C31.1839 57.0447 31.2822 56.8099 31.2822 56.5656C31.2822 56.3206 31.1839 56.0858 31.0098 55.9142C30.8356 55.7419 30.5995 55.6475 30.3546 55.6507H12.7186C12.6618 55.6456 12.6044 55.6456 12.5476 55.6507Z" fill="#FF5300"/>
</svg>
