<svg width="75" height="69" viewBox="0 0 75 69" fill="none" xmlns="http://www.w3.org/2000/svg">
<path d="M52.5181 63.2366C52.2535 63.2366 52.037 63.0317 52.037 62.7813C52.037 62.5292 52.2535 62.326 52.5181 62.326H66.3219C67.3883 62.3244 68.3953 61.9281 69.1571 61.2088C69.9189 60.4879 70.3375 59.535 70.3375 58.5256V25.1497C70.3375 24.8977 70.5541 24.6944 70.8187 24.6944C71.0833 24.6944 71.2998 24.8977 71.2998 25.1497V58.5256C71.2981 61.121 69.0655 63.234 66.3219 63.2351L52.5181 63.2366ZM49.3106 63.235C49.046 63.235 48.8295 63.0317 48.8295 62.7813C48.8295 62.5292 49.046 62.326 49.3106 62.326C49.5769 62.326 49.7917 62.5292 49.7917 62.7813C49.7917 63.0312 49.5763 63.235 49.3106 63.235ZM46.1031 63.235H28.9035C26.1611 63.2334 23.9284 61.1205 23.9256 58.5256L23.925 28.3649C23.925 28.1128 24.1416 27.9095 24.4062 27.9095C24.6725 27.9095 24.8873 28.1128 24.8873 28.3649V58.5256C24.8873 59.5349 25.3077 60.4878 26.0678 61.2087C26.8295 61.928 27.8364 62.3243 28.903 62.3259H46.1025C46.3689 62.3259 46.5836 62.5292 46.5836 62.7812C46.5836 62.7921 46.5836 62.804 46.5819 62.8159C46.5647 63.0512 46.3528 63.235 46.1031 63.235ZM24.4049 25.7849C24.1403 25.7849 23.9238 25.58 23.9238 25.3296C23.9238 25.0776 24.1403 24.8743 24.4049 24.8743C24.6713 24.8743 24.8861 25.0776 24.8861 25.3296C24.8861 25.58 24.6713 25.7849 24.4049 25.7849ZM24.4049 22.7494C24.1403 22.7494 23.9238 22.5445 23.9238 22.2941V8.05122C23.9273 5.45589 26.1593 3.34291 28.9017 3.3418H66.3214C69.0655 3.34342 71.2977 5.45575 71.2993 8.05122V19.0793C71.2993 19.3298 71.0845 19.5347 70.8182 19.5347C70.5536 19.5347 70.337 19.3298 70.337 19.0793V8.05122C70.337 7.04193 69.9184 6.08894 69.1566 5.36916C68.3948 4.64823 67.3879 4.25199 66.3214 4.25199H28.9032C27.8367 4.25199 26.8297 4.64823 26.068 5.36916C25.3079 6.09009 24.8875 7.04198 24.8875 8.05122V22.2913V22.293C24.8869 22.5434 24.6721 22.7483 24.4058 22.7483L24.4049 22.7494ZM70.8173 22.57C70.5527 22.57 70.3362 22.3651 70.3362 22.1147C70.3362 21.8626 70.5527 21.6594 70.8173 21.6594C71.082 21.6594 71.2985 21.8626 71.2985 22.1147C71.2985 22.3651 71.082 22.57 70.8173 22.57Z" fill="#FF5300"/>
<path d="M36.0231 30.3585H28.2975C28.171 30.3585 28.0472 30.3097 27.9573 30.2251C27.8674 30.14 27.8164 30.0235 27.8164 29.9031V24.9797C27.8164 24.8599 27.868 24.7429 27.9573 24.6578C28.0472 24.5727 28.1704 24.5244 28.2975 24.5244H36.0231C36.1497 24.5244 36.2751 24.5732 36.3633 24.6578C36.4533 24.7429 36.5042 24.861 36.5042 24.9797V29.9031C36.5042 30.0229 36.4527 30.14 36.3633 30.2251C36.2746 30.3102 36.1497 30.3585 36.0231 30.3585ZM28.7788 29.4462H35.542V25.435H28.7788V29.4462Z" fill="#FF5300"/>
<path d="M43.7507 30.3531H36.0241C35.8975 30.3531 35.7738 30.3043 35.6839 30.2208C35.5939 30.1357 35.543 30.0175 35.543 29.8988V24.9758C35.543 24.856 35.5945 24.739 35.6839 24.6539C35.7738 24.5688 35.8969 24.5205 36.0241 24.5205H43.7507C43.8756 24.5205 44.001 24.5693 44.0909 24.6539C44.1808 24.739 44.2318 24.8555 44.2318 24.9758V29.8992C44.2318 30.019 44.1803 30.1345 44.0909 30.2212C43.9993 30.3063 43.879 30.3531 43.7507 30.3531ZM36.5052 29.444H43.2696V25.4312H36.5052V29.444Z" fill="#FF5300"/>
<path d="M51.4762 30.3585H43.7507C43.6224 30.3585 43.4986 30.3086 43.4104 30.2251C43.3205 30.14 43.2695 30.0235 43.2695 29.9031V24.9797C43.2695 24.8599 43.3211 24.7429 43.4093 24.6578C43.4992 24.5727 43.6241 24.5244 43.7507 24.5244H51.4762C51.6028 24.5244 51.7265 24.5732 51.8165 24.6578C51.9064 24.7429 51.9574 24.8594 51.9574 24.9797V29.9031C51.9574 30.0246 51.9075 30.1384 51.8165 30.2251C51.7248 30.3102 51.6045 30.3585 51.4762 30.3585ZM44.2301 29.4462H50.9946L50.9951 25.435H44.2307L44.2301 29.4462Z" fill="#FF5300"/>
<path d="M66.927 30.3585H51.4753C51.3487 30.3585 51.2232 30.3086 51.135 30.2251C51.0451 30.14 50.9941 30.0219 50.9941 29.9031V24.9797C50.9941 24.8599 51.0457 24.7429 51.135 24.6578C51.2232 24.5727 51.3481 24.5244 51.4753 24.5244H66.927C67.0519 24.5244 67.1773 24.5732 67.2672 24.6578C67.3554 24.7429 67.407 24.8594 67.407 24.9797V29.9031C67.407 30.0246 67.3571 30.1384 67.2672 30.2251C67.1762 30.3102 67.0559 30.3585 66.927 30.3585ZM51.9562 29.4478H66.4445V25.435H51.9562V29.4478Z" fill="#FF5300"/>
<path d="M36.0231 35.2709H28.2975C28.171 35.2709 28.0472 35.2221 27.9573 35.1387C27.8674 35.0536 27.8164 34.9354 27.8164 34.8167V29.8997C27.8164 29.7799 27.868 29.6611 27.9573 29.5766C28.0472 29.4931 28.1704 29.4443 28.2975 29.4443H36.0231C36.1497 29.4443 36.2751 29.4931 36.3633 29.5766C36.4533 29.6617 36.5042 29.7799 36.5042 29.8997V34.8172C36.5042 34.9386 36.4544 35.0525 36.3633 35.1392C36.2728 35.2243 36.1514 35.2709 36.0231 35.2709ZM28.7788 34.3619H35.542V30.3534H28.7788V34.3619Z" fill="#FF5300"/>
<path d="M43.7507 35.2726H36.0241C35.8975 35.2726 35.7738 35.2243 35.6839 35.1392C35.5939 35.0541 35.543 34.9359 35.543 34.8172V29.8997C35.543 29.7799 35.5945 29.6611 35.6839 29.5766C35.7738 29.4931 35.8969 29.4443 36.0241 29.4443H43.7507C43.8773 29.4443 44.001 29.4931 44.0909 29.5766C44.1808 29.6617 44.2318 29.7799 44.2318 29.8997V34.8172C44.2318 34.9387 44.1803 35.0525 44.0909 35.1392C43.9993 35.2243 43.8773 35.2726 43.7507 35.2726ZM36.5052 34.3619H43.2696L43.2679 30.3534H36.5046L36.5052 34.3619Z" fill="#FF5300"/>
<path d="M51.4762 35.272H43.7507C43.6241 35.272 43.4986 35.2232 43.4104 35.1397C43.3205 35.0546 43.2695 34.9381 43.2695 34.8178V29.9007C43.2695 29.7793 43.3211 29.6622 43.4093 29.5777C43.4992 29.4926 43.6241 29.4443 43.7507 29.4443H51.4762C51.6028 29.4443 51.7265 29.4931 51.8165 29.5777C51.9064 29.6628 51.9574 29.7809 51.9574 29.9007V34.8183C51.9574 34.9397 51.9075 35.0536 51.8165 35.1403C51.7248 35.2254 51.6045 35.272 51.4762 35.272ZM44.2301 30.3561V34.3629L50.9946 34.3613V30.3561L44.2301 30.3561Z" fill="#FF5300"/>
<path d="M59.1989 35.2726H51.4733C51.3467 35.2726 51.2213 35.2227 51.1331 35.1392C51.0432 35.0541 50.9922 34.9359 50.9922 34.8172L50.9928 29.8997C50.9928 29.7799 51.0443 29.6611 51.1337 29.5766C51.2219 29.4931 51.3467 29.4443 51.4739 29.4443H59.1995C59.326 29.4443 59.4515 29.4931 59.5397 29.5766C59.6296 29.6617 59.6806 29.7799 59.6806 29.8997V34.8172C59.6806 34.9387 59.6308 35.0525 59.5397 35.1392C59.4492 35.2243 59.3272 35.2726 59.1989 35.2726ZM51.9551 34.3619H58.7184L58.7178 30.355H51.9546L51.9551 34.3619Z" fill="#FF5300"/>
<path d="M66.9265 35.2726H59.1999C59.0733 35.2726 58.9496 35.2227 58.8597 35.1392C58.7697 35.0541 58.7188 34.9376 58.7188 34.8172V29.8997C58.7188 29.7799 58.7703 29.6611 58.8597 29.5766C58.9496 29.4931 59.0727 29.4443 59.1999 29.4443H66.9265C67.0513 29.4443 67.1768 29.4931 67.2667 29.5766C67.3549 29.6617 67.4065 29.7782 67.4065 29.8997V34.8172C67.4065 34.9387 67.3566 35.0525 67.2667 35.1392C67.1756 35.2243 67.0553 35.2726 66.9265 35.2726ZM59.681 34.3619H66.4442V30.355H59.681V34.3619Z" fill="#FF5300"/>
<path d="M36.0231 40.1918H28.2975C28.171 40.1918 28.0472 40.143 27.9573 40.0595C27.8674 39.9744 27.8164 39.8563 27.8164 39.7365V34.8206C27.8164 34.7008 27.868 34.5826 27.9573 34.4975C28.0472 34.4124 28.1704 34.3652 28.2975 34.3652H36.0231C36.1497 34.3652 36.2751 34.414 36.3645 34.4975C36.4527 34.5826 36.5042 34.6991 36.5042 34.8206V39.7365C36.5042 39.8595 36.4544 39.9733 36.3633 40.0595C36.2728 40.1452 36.1514 40.1918 36.0231 40.1918ZM28.7788 39.2811H35.542V35.2743H28.7788V39.2811Z" fill="#FF5300"/>
<path d="M43.7507 40.1918H36.0241C35.8975 40.1918 35.7738 40.143 35.6839 40.0584C35.5939 39.9733 35.543 39.8568 35.543 39.7365V34.8206C35.543 34.7008 35.5945 34.5826 35.6839 34.4975C35.7738 34.414 35.8969 34.3652 36.0241 34.3652H43.7507C43.8773 34.3652 44.001 34.414 44.0909 34.4975C44.1808 34.5826 44.2318 34.7008 44.2318 34.8206V39.7365C44.2318 39.8579 44.1803 39.9733 44.0909 40.0584C43.9993 40.1452 43.879 40.1918 43.7507 40.1918ZM36.5052 39.2811H43.2696V35.2759H36.5052V39.2811Z" fill="#FF5300"/>
<path d="M51.4762 40.1918H43.7507C43.6241 40.1918 43.4986 40.143 43.4104 40.0584C43.3205 39.975 43.2695 39.8579 43.2695 39.7365V34.8206C43.2695 34.7008 43.3211 34.5826 43.4093 34.4975C43.4992 34.414 43.6241 34.3652 43.7507 34.3652H51.4762C51.6028 34.3652 51.7265 34.414 51.8165 34.4975C51.9064 34.5826 51.9574 34.7008 51.9574 34.8206V39.7365C51.9574 39.8579 51.9075 39.9733 51.8165 40.0584C51.7248 40.1452 51.6045 40.1918 51.4762 40.1918ZM44.2301 39.2811H50.9946V35.2743H44.2301V39.2811Z" fill="#FF5300"/>
<path d="M59.1989 40.1918H51.4733C51.3467 40.1918 51.2213 40.143 51.1331 40.0584C51.0432 39.975 50.9922 39.8568 50.9922 39.7365V34.8206C50.9922 34.7008 51.0437 34.5826 51.1331 34.4975C51.2213 34.4124 51.3462 34.3652 51.4733 34.3652H59.1989C59.3255 34.3652 59.4509 34.4124 59.5391 34.4975C59.629 34.5826 59.68 34.7008 59.68 34.8206V39.7365C59.68 39.8595 59.6302 39.9733 59.5391 40.0584C59.4492 40.1452 59.3272 40.1918 59.1989 40.1918ZM51.9551 39.2811H58.7184V35.2759H51.9551V39.2811Z" fill="#FF5300"/>
<path d="M66.9265 40.1918H59.1999C59.0733 40.1918 58.9496 40.143 58.8597 40.0584C58.7697 39.975 58.7188 39.8568 58.7188 39.7365V34.8206C58.7188 34.7008 58.7703 34.5826 58.8597 34.4975C58.9496 34.414 59.0727 34.3652 59.1999 34.3652H66.9265C67.0513 34.3652 67.1768 34.414 67.2667 34.4975C67.3549 34.5826 67.4065 34.6991 67.4065 34.8206V39.7365C67.4065 39.8595 67.3566 39.9733 67.2667 40.0584C67.1756 40.1452 67.0553 40.1918 66.9265 40.1918ZM59.681 39.2811H66.4442V35.2759H59.681V39.2811Z" fill="#FF5300"/>
<path d="M36.0231 45.1104H28.2975C28.171 45.1104 28.0472 45.0622 27.9573 44.9771C27.8674 44.8936 27.8164 44.7755 27.8164 44.6551V39.7375C27.8164 39.6178 27.868 39.5007 27.9573 39.4156C28.0472 39.3305 28.1704 39.2822 28.2975 39.2822H36.0231C36.1497 39.2822 36.2751 39.3305 36.3645 39.4156C36.4527 39.5007 36.5042 39.6172 36.5042 39.7375V44.6551C36.5042 44.7782 36.4544 44.892 36.3633 44.9771C36.2728 45.0638 36.1525 45.1104 36.0231 45.1104ZM28.7788 44.1998H35.542V40.1929H28.7788V44.1998Z" fill="#FF5300"/>
<path d="M43.7507 45.1104H36.0241C35.8975 45.1104 35.7738 45.0622 35.6839 44.9771C35.5939 44.8936 35.543 44.7755 35.543 44.6551V39.7375C35.543 39.6178 35.5945 39.5007 35.6839 39.4156C35.7738 39.3305 35.8969 39.2822 36.0241 39.2822H43.7507C43.8773 39.2822 44.001 39.3305 44.0909 39.4156C44.1808 39.5007 44.2318 39.6188 44.2318 39.7375V44.6551C44.2318 44.7765 44.1803 44.892 44.0909 44.9771C43.9993 45.0638 43.879 45.1104 43.7507 45.1104ZM36.5052 44.1998H43.2696V40.1929H36.5052V44.1998Z" fill="#FF5300"/>
<path d="M51.4762 45.1104H43.7507C43.6241 45.1104 43.4986 45.0622 43.4104 44.9782C43.3205 44.8931 43.2695 44.7749 43.2695 44.6551V39.7376C43.2695 39.6178 43.3211 39.5007 43.4093 39.4156C43.4992 39.3305 43.6241 39.2822 43.7507 39.2822H51.4762C51.6028 39.2822 51.7265 39.3305 51.8165 39.4156C51.9064 39.5007 51.9574 39.6172 51.9574 39.7376V44.6551C51.9574 44.7765 51.9075 44.892 51.8165 44.9782C51.7248 45.0638 51.6045 45.1104 51.4762 45.1104ZM44.2301 40.1929V44.1997H50.9946L50.9951 40.1929H44.2301Z" fill="#FF5300"/>
<path d="M59.1989 45.1104H51.4733C51.3467 45.1104 51.2213 45.0622 51.1331 44.9782C51.0432 44.8931 50.9922 44.7749 50.9922 44.6551L50.9928 39.7376C50.9928 39.6194 51.0443 39.5007 51.1337 39.4156C51.2219 39.3305 51.3467 39.2822 51.4739 39.2822H59.1995C59.326 39.2822 59.4498 39.3305 59.5397 39.4156C59.6296 39.5007 59.6806 39.6172 59.6806 39.7376V44.6551C59.6806 44.7782 59.6308 44.892 59.5397 44.9782C59.4492 45.0638 59.3272 45.1104 59.1989 45.1104ZM51.9551 44.1998H58.7184L58.7178 40.1929H51.9546L51.9551 44.1998Z" fill="#FF5300"/>
<path d="M66.9265 45.1104H59.1999C59.0733 45.1104 58.9496 45.0622 58.8597 44.9782C58.7697 44.8931 58.7188 44.7749 58.7188 44.6551V39.7376C58.7188 39.6178 58.7703 39.5007 58.8597 39.4156C58.9496 39.3305 59.0727 39.2822 59.1999 39.2822H66.9265C67.0513 39.2822 67.1768 39.3305 67.2667 39.4156C67.3549 39.5007 67.4065 39.6172 67.4065 39.7376V44.6551C67.4065 44.7765 67.3566 44.892 67.2667 44.9782C67.1756 45.0638 67.0553 45.1104 66.9265 45.1104ZM59.681 40.1929V44.1997H66.4442V40.1929H59.681Z" fill="#FF5300"/>
<path d="M36.0231 50.0235H28.2975C28.171 50.0235 28.0472 49.9748 27.9573 49.8902C27.8674 49.8067 27.8164 49.6885 27.8164 49.5682V44.6506C27.8164 44.5308 27.868 44.4138 27.9573 44.3287C28.0472 44.2436 28.1704 44.1953 28.2975 44.1953H36.0231C36.1514 44.1953 36.2751 44.2441 36.3633 44.3287C36.4533 44.4138 36.5042 44.5303 36.5042 44.6506V49.5682C36.5042 49.6896 36.4544 49.8051 36.3633 49.8902C36.2728 49.9764 36.1514 50.0235 36.0231 50.0235ZM28.7788 49.1129H35.542V45.106H28.7788V49.1129Z" fill="#FF5300"/>
<path d="M43.7507 50.0235H36.0241C35.8975 50.0235 35.7738 49.9748 35.6839 49.8902C35.5939 49.8067 35.543 49.6885 35.543 49.5682V44.6506C35.543 44.5308 35.5945 44.4138 35.6839 44.3287C35.7738 44.2436 35.8969 44.1953 36.0241 44.1953H43.7507C43.8773 44.1953 44.001 44.2441 44.0909 44.3287C44.1808 44.4138 44.2307 44.5303 44.2307 44.6506V49.5682C44.2307 49.6896 44.1808 49.8051 44.0909 49.8902C43.9993 49.9764 43.879 50.0235 43.7507 50.0235ZM36.5052 49.1129H43.2696V45.106H36.5052V49.1129Z" fill="#FF5300"/>
<path d="M51.4762 50.0235H43.7507C43.6241 50.0235 43.4986 49.9748 43.4104 49.8902C43.3205 49.8067 43.2695 49.6885 43.2695 49.5682V44.6506C43.2695 44.5325 43.3211 44.4138 43.4093 44.3287C43.4992 44.2436 43.6241 44.1953 43.7507 44.1953H51.4762C51.6028 44.1953 51.7265 44.2441 51.8165 44.3287C51.9064 44.4138 51.9574 44.5319 51.9574 44.6506V49.5682C51.9574 49.6896 51.9075 49.8051 51.8165 49.8902C51.7248 49.9764 51.6045 50.0235 51.4762 50.0235ZM44.2301 49.1129H50.9946V45.106H44.2301V49.1129Z" fill="#FF5300"/>
<path d="M59.1989 50.0235H51.4733C51.3467 50.0235 51.2213 49.9748 51.1331 49.8902C51.0432 49.8051 50.9922 49.6885 50.9922 49.5682V44.6506C50.9922 44.5325 51.0437 44.4138 51.1331 44.3287C51.2213 44.2436 51.3462 44.1953 51.4733 44.1953H59.1989C59.3255 44.1953 59.4509 44.2441 59.5391 44.3287C59.629 44.4138 59.68 44.5319 59.68 44.6506V49.5682C59.68 49.6896 59.6302 49.8051 59.5391 49.8902C59.4492 49.9764 59.3272 50.0235 59.1989 50.0235ZM51.9551 49.1129H58.7184V45.106H51.9551V49.1129Z" fill="#FF5300"/>
<path d="M66.9265 50.0235H59.1999C59.0733 50.0235 58.9496 49.9748 58.8597 49.8902C58.7697 49.8067 58.7188 49.6885 58.7188 49.5682V44.6506C58.7188 44.5308 58.7703 44.4138 58.8597 44.3287C58.9496 44.2436 59.0727 44.1953 59.1999 44.1953H66.9265C67.0531 44.1953 67.1768 44.2452 67.2667 44.3287C67.3549 44.4138 67.4065 44.5303 67.4065 44.6506V49.5682C67.4065 49.6913 67.3566 49.8051 67.2667 49.8902C67.1756 49.9764 67.0553 50.0235 66.9265 50.0235ZM59.681 49.1129H66.4442V45.106H59.681V49.1129Z" fill="#FF5300"/>
<path d="M36.0231 54.9435H28.2975C28.171 54.9435 28.0472 54.8947 27.9573 54.8096C27.8674 54.7245 27.8164 54.6079 27.8164 54.4881V49.5706C27.8164 49.4508 27.868 49.3337 27.9573 49.2486C28.0472 49.1635 28.1704 49.1152 28.2975 49.1152H36.0231C36.1497 49.1152 36.2751 49.164 36.3633 49.2486C36.4533 49.3337 36.5042 49.4502 36.5042 49.5706V54.4881C36.5042 54.6096 36.4544 54.725 36.3633 54.8096C36.2728 54.8968 36.1514 54.9435 36.0231 54.9435ZM28.7788 54.0328H35.542V50.026H28.7788V54.0328Z" fill="#FF5300"/>
<path d="M43.7507 54.9435H36.0241C35.8975 54.9435 35.7738 54.8947 35.6839 54.8096C35.5939 54.7245 35.543 54.6079 35.543 54.4881V49.5706C35.543 49.4508 35.5945 49.3337 35.6839 49.2486C35.7738 49.1635 35.8969 49.1152 36.0241 49.1152H43.7507C43.8773 49.1152 44.001 49.164 44.0909 49.2486C44.1808 49.3337 44.2318 49.4502 44.2318 49.5706V54.4881C44.2318 54.6096 44.1803 54.725 44.0909 54.8096C43.9993 54.8968 43.879 54.9435 43.7507 54.9435ZM36.5052 54.0328H43.2696V50.026H36.5052V54.0328Z" fill="#FF5300"/>
<path d="M51.4762 54.9435H43.7507C43.6241 54.9435 43.4986 54.8947 43.4104 54.8096C43.3205 54.7261 43.2695 54.6079 43.2695 54.4881V49.5706C43.2695 49.4508 43.3194 49.3337 43.4093 49.2486C43.4992 49.1635 43.6241 49.1152 43.7507 49.1152H51.4762C51.6028 49.1152 51.7265 49.164 51.8165 49.2486C51.9064 49.3337 51.9574 49.4502 51.9574 49.5706V54.4881C51.9574 54.6112 51.9058 54.725 51.8165 54.8096C51.7248 54.8968 51.6045 54.9435 51.4762 54.9435ZM44.2319 54.0328H50.9951V50.026H44.2319V54.0328Z" fill="#FF5300"/>
<path d="M59.1989 54.9435H51.4733C51.3467 54.9435 51.2213 54.8947 51.1331 54.8096C51.0432 54.7261 50.9922 54.6079 50.9922 54.4881V49.5706C50.9922 49.4508 51.0437 49.3337 51.1331 49.2486C51.223 49.1635 51.3462 49.1152 51.4733 49.1152H59.1989C59.3255 49.1152 59.4492 49.164 59.5391 49.2486C59.629 49.3337 59.68 49.4502 59.68 49.5706V54.4881C59.68 54.6096 59.6302 54.725 59.5391 54.8096C59.4492 54.8968 59.3272 54.9435 59.1989 54.9435ZM51.9551 54.0328H58.7184V50.026H51.9551V54.0328Z" fill="#FF5300"/>
<path d="M43.7493 59.8604H28.2975C28.1709 59.8604 28.0472 59.8117 27.9573 59.7271C27.8674 59.642 27.8164 59.5255 27.8164 59.4051V54.4875C27.8164 54.3678 27.868 54.2507 27.9573 54.1656C28.0472 54.0805 28.1704 54.0322 28.2975 54.0322H43.7493C43.8741 54.0322 43.9996 54.0805 44.0895 54.1656C44.1794 54.2507 44.2304 54.3672 44.2304 54.4875V59.4051C44.2304 59.5265 44.1788 59.6404 44.0895 59.7271C43.9978 59.8138 43.8776 59.8604 43.7493 59.8604ZM28.7785 58.9498H43.2683V54.9429H28.7785V58.9498Z" fill="#FF5300"/>
<path d="M51.4762 59.8604H43.7507C43.6241 59.8604 43.4986 59.8117 43.4093 59.7271C43.3211 59.642 43.2695 59.5255 43.2695 59.4051V54.4875C43.2695 54.3678 43.3211 54.2507 43.4093 54.1656C43.4992 54.0805 43.6241 54.0322 43.7507 54.0322H51.4762C51.6028 54.0322 51.7265 54.0805 51.8165 54.1656C51.9064 54.2507 51.9574 54.3672 51.9574 54.4875V59.4051C51.9574 59.5265 51.9058 59.6404 51.8165 59.7271C51.7248 59.8138 51.6045 59.8604 51.4762 59.8604ZM44.2319 58.9498H50.9951V54.9429H44.2319V58.9498Z" fill="#FF5300"/>
<path d="M59.1989 59.8604H51.4733C51.3467 59.8604 51.2213 59.8117 51.1331 59.7271C51.0432 59.642 50.9922 59.5255 50.9922 59.4051L50.9928 54.4875C50.9928 54.3678 51.0443 54.2507 51.1337 54.1656C51.2219 54.0805 51.3467 54.0322 51.4739 54.0322H59.1995C59.326 54.0322 59.4498 54.0805 59.5397 54.1656C59.6296 54.2507 59.6806 54.3672 59.6806 54.4875V59.4051C59.6806 59.5265 59.6308 59.6404 59.5397 59.7271C59.4492 59.8138 59.3272 59.8604 59.1989 59.8604ZM51.9551 58.9498H58.7184L58.7178 54.9429H51.9546L51.9551 58.9498Z" fill="#FF5300"/>
<path d="M66.9265 59.8609H59.1999C59.0733 59.8609 58.9496 59.8121 58.8597 59.7275C58.7697 59.6441 58.7188 59.5259 58.7188 59.4056V49.5706C58.7188 49.4508 58.7703 49.3337 58.8597 49.2486C58.9496 49.1635 59.0727 49.1152 59.1999 49.1152H66.9265C67.0531 49.1152 67.1768 49.164 67.2667 49.2486C67.3549 49.3337 67.4065 49.4502 67.4065 49.5706V59.4056C67.4065 59.527 67.3566 59.6424 67.2667 59.7275C67.1756 59.8143 67.0553 59.8609 66.9265 59.8609ZM59.681 58.9502H66.4454L66.4437 50.026H59.6804L59.681 58.9502Z" fill="#FF5300"/>
<path d="M65.7849 18.945H56.6115C56.3469 18.945 56.1321 18.7418 56.1321 18.4897C56.1321 18.2393 56.3469 18.0344 56.6115 18.0344H65.3038V8.90682H29.9135V18.0344H50.1981C50.4627 18.0344 50.6775 18.2393 50.6775 18.4897C50.6775 18.7418 50.4627 18.945 50.1981 18.945H29.434C29.3074 18.945 29.182 18.8963 29.0926 18.8117C29.0027 18.7266 28.9517 18.6101 28.9517 18.4897L28.9512 8.45142C28.9512 8.33162 29.0027 8.21291 29.0921 8.12944C29.182 8.04434 29.3051 7.99609 29.4334 7.99609H65.7842C65.9108 7.99609 66.0345 8.04488 66.1238 8.12944C66.2138 8.21454 66.2653 8.33108 66.2653 8.45142V18.4897C66.2653 18.6111 66.2155 18.7266 66.1238 18.8117C66.0328 18.8979 65.9125 18.945 65.7842 18.945H65.7849ZM53.4039 18.945C53.1392 18.945 52.9227 18.7418 52.9227 18.4897C52.9227 18.2393 53.1393 18.0344 53.4039 18.0344C53.6702 18.0344 53.885 18.2393 53.885 18.4897C53.885 18.7418 53.6702 18.945 53.4039 18.945Z" fill="#FF5300"/>
<path d="M21.7819 6.52043C21.5173 6.52043 21.3008 6.31553 21.3008 6.06512C21.3025 3.20585 23.7625 0.878752 26.784 0.875977C26.784 0.875977 26.7857 0.875977 26.7857 0.877603C27.0503 0.877603 27.2651 1.0825 27.2651 1.33292C27.2651 1.58335 27.0486 1.78824 26.784 1.78824C25.5829 1.78824 24.4488 2.23434 23.5908 3.04472C22.7345 3.85508 22.2632 4.92832 22.2632 6.06509C22.2632 6.31552 22.0465 6.52043 21.7819 6.52043Z" fill="#FF5300"/>
<path d="M74.2521 26.7118C73.9875 26.7118 73.7727 26.5086 73.7727 26.2565V5.18911C73.771 4.05243 73.2996 2.97913 72.4416 2.16874C71.5819 1.35838 70.4478 0.910635 69.2467 0.910635C68.9804 0.910635 68.7656 0.707372 68.7656 0.455318C68.7656 0.204887 68.9804 0 69.2467 0C72.2698 0.00325239 74.7315 2.32973 74.7333 5.18914L74.735 26.2565C74.735 26.5086 74.5185 26.7118 74.2521 26.7118Z" fill="#FF5300"/>
<path d="M17.4523 56.0197C15.7862 56.0197 14.1388 55.7617 12.5562 55.2516C10.9989 54.7507 9.54288 54.019 8.22953 53.078C6.90299 52.1277 5.7581 50.9894 4.82613 49.6933C3.86216 48.3534 3.14562 46.8719 2.69766 45.2903C2.63008 45.0475 2.78243 44.7986 3.03903 44.7331L16.8777 41.2227L13.1696 28.1245C13.1358 28.0063 13.1519 27.8833 13.216 27.7787C13.2802 27.674 13.3844 27.5982 13.5093 27.5662C14.8049 27.2382 16.136 27.0713 17.4671 27.0713C19.9466 27.0713 22.4227 27.6556 24.6296 28.7635C24.7865 28.8427 24.8845 28.9972 24.8845 29.1657V33.939C24.8845 34.191 24.6697 34.3943 24.4034 34.3943C24.1387 34.3943 23.9222 34.191 23.9222 33.939V29.4433C21.9221 28.4871 19.6901 27.9803 17.4672 27.9803C16.3812 27.9803 15.2906 28.1001 14.2242 28.3353L17.9323 41.4259C17.9644 41.543 17.9483 41.6655 17.8842 41.7717C17.82 41.8763 17.7158 41.9522 17.5921 41.9826L3.75795 45.4918C5.57189 51.1547 11.2011 55.1084 17.4506 55.1084C18.6998 55.1084 19.9507 54.9523 21.1713 54.6428C22.1221 54.4032 23.0477 54.0704 23.9217 53.6546L23.9235 40.0101C23.9235 39.7597 24.1382 39.5548 24.4029 39.5548C24.6692 39.5548 24.884 39.7597 24.884 40.0101V53.9324C24.884 54.101 24.786 54.256 24.6274 54.3346C23.6124 54.8414 22.5328 55.2409 21.4199 55.5217C20.1214 55.8529 18.7851 56.0199 17.4523 56.0199L17.4523 56.0197ZM24.4046 37.4306C24.14 37.4306 23.9235 37.2274 23.9235 36.9753C23.9235 36.7249 24.14 36.52 24.4046 36.52C24.6709 36.52 24.8857 36.7249 24.8857 36.9753C24.8857 37.2274 24.6709 37.4306 24.4046 37.4306Z" fill="#FF5300"/>
<path d="M1.09227 42.2758C1.01666 42.2758 0.941638 42.259 0.872326 42.2276C0.758346 42.1712 0.673571 42.0758 0.633483 41.9603C0.548714 41.705 0.466809 41.4383 0.384903 41.1391L0.383184 41.1359C0.130015 40.1688 0 39.1812 0 38.1957C0 36.8541 0.235984 35.5304 0.699346 34.2588C1.15642 33.0083 1.82025 31.8423 2.67546 30.794C3.53805 29.7348 4.57137 28.8251 5.74499 28.0908C6.95925 27.3303 8.29662 26.7747 9.72229 26.4381C9.97718 26.3774 10.2418 26.5308 10.3059 26.7704L13.2872 38.0971C13.3479 38.328 13.2087 38.566 12.9699 38.6403L1.24193 42.2541C1.19325 42.2688 1.14227 42.2758 1.09244 42.2758L1.09227 42.2758ZM1.31679 40.9098C1.34886 41.028 1.37922 41.1375 1.41129 41.2437L12.2447 37.9063L9.49083 27.4398C4.46997 28.8274 0.962317 33.2483 0.962317 38.1963C0.962317 39.107 1.08252 40.0192 1.31679 40.9098Z" fill="#FF5300"/>
<path d="M54.3246 65.896H15.4284C15.162 65.896 14.9473 65.6911 14.9473 65.4407C14.9473 65.1902 15.162 64.9854 15.4284 64.9854H54.3246C54.5909 64.9854 54.8057 65.1903 54.8057 65.4407C54.8057 65.6911 54.5909 65.896 54.3246 65.896Z" fill="#FF5300"/>
<path d="M65.1165 68.1362H38.2057C37.9411 68.1362 37.7246 67.9313 37.7246 67.6809C37.7246 67.4288 37.9411 67.2256 38.2057 67.2256H65.1165C65.3828 67.2256 65.5976 67.4288 65.5976 67.6809C65.5976 67.9313 65.3828 68.1362 65.1165 68.1362Z" fill="#FF5300"/>
<path d="M71.2381 68.1362H67.8737C67.6074 68.1362 67.3926 67.9313 67.3926 67.6809C67.3926 67.4288 67.6074 67.2256 67.8737 67.2256H71.2381C71.5044 67.2256 71.7192 67.4288 71.7192 67.6809C71.7192 67.9313 71.5044 68.1362 71.2381 68.1362Z" fill="#FF5300"/>
<path d="M26.6534 68.0698H13.8991C13.6345 68.0698 13.418 67.8649 13.418 67.6145C13.418 67.3625 13.6345 67.1592 13.8991 67.1592H26.6534C26.9181 67.1592 27.1346 67.3625 27.1346 67.6145C27.1346 67.8649 26.918 68.0698 26.6534 68.0698Z" fill="#FF5300"/>
<path d="M33.0046 12.8855C32.7399 12.8855 32.5234 12.6823 32.5234 12.4302V10.3997C32.5234 10.1492 32.7399 9.94434 33.0046 9.94434C33.2692 9.94434 33.4857 10.1492 33.4857 10.3997V12.4302C33.4857 12.6823 33.2692 12.8855 33.0046 12.8855Z" fill="#FF5300"/>
<path d="M33.0046 16.9874C32.7399 16.9874 32.5234 16.7842 32.5234 16.5321V14.5015C32.5234 14.2511 32.7399 14.0479 33.0046 14.0479C33.2692 14.0479 33.4857 14.2511 33.4857 14.5015V16.5321C33.4857 16.7842 33.2692 16.9874 33.0046 16.9874Z" fill="#FF5300"/>
<path d="M36.3503 12.8855C36.0839 12.8855 35.8691 12.6823 35.8691 12.4302V10.3997C35.8691 10.1492 36.0839 9.94434 36.3503 9.94434C36.6149 9.94434 36.8314 10.1492 36.8314 10.3997V12.4302C36.8314 12.6823 36.6149 12.8855 36.3503 12.8855Z" fill="#FF5300"/>
<path d="M36.3503 16.9874C36.0839 16.9874 35.8691 16.7842 35.8691 16.5321V14.5015C35.8691 14.2511 36.0839 14.0479 36.3503 14.0479C36.6149 14.0479 36.8314 14.2511 36.8314 14.5015V16.5321C36.8314 16.7842 36.6149 16.9874 36.3503 16.9874Z" fill="#FF5300"/>
<path d="M39.694 12.8855C39.4294 12.8855 39.2129 12.6823 39.2129 12.4302V10.3997C39.2129 10.1492 39.4294 9.94434 39.694 9.94434C39.9586 9.94434 40.1751 10.1492 40.1751 10.3997V12.4302C40.1751 12.6823 39.9586 12.8855 39.694 12.8855Z" fill="#FF5300"/>
<path d="M39.694 16.9851C39.4294 16.9851 39.2129 16.7819 39.2129 16.5298V14.4993C39.2129 14.2488 39.4294 14.0439 39.694 14.0439C39.9586 14.0439 40.1751 14.2488 40.1751 14.4993V16.5298C40.1751 16.7819 39.9586 16.9851 39.694 16.9851Z" fill="#FF5300"/>
<path d="M43.0395 12.8855C42.7732 12.8855 42.5584 12.6823 42.5584 12.4302V10.3997C42.5584 10.1492 42.7732 9.94434 43.0395 9.94434C43.3041 9.94434 43.5206 10.1492 43.5206 10.3997V12.4302C43.5206 12.6823 43.3041 12.8855 43.0395 12.8855Z" fill="#FF5300"/>
<path d="M43.0397 16.9851C42.7734 16.9851 42.5586 16.7819 42.5586 16.5298V14.4993C42.5586 14.2488 42.7734 14.0439 43.0397 14.0439C43.3043 14.0439 43.5208 14.2488 43.5208 14.4993V16.5298C43.5208 16.7819 43.3043 16.9851 43.0397 16.9851Z" fill="#FF5300"/>
<path d="M46.3913 12.8855C46.1249 12.8855 45.9102 12.6823 45.9102 12.4302V10.3997C45.9102 10.1492 46.1249 9.94434 46.3913 9.94434C46.6559 9.94434 46.8724 10.1492 46.8724 10.3997V12.4302C46.8724 12.6823 46.6559 12.8855 46.3913 12.8855Z" fill="#FF5300"/>
<path d="M46.3913 16.9851C46.1249 16.9851 45.9102 16.7819 45.9102 16.5298V14.4993C45.9102 14.2488 46.1249 14.0439 46.3913 14.0439C46.6559 14.0439 46.8724 14.2488 46.8724 14.4993V16.5298C46.8724 16.7819 46.6559 16.9851 46.3913 16.9851Z" fill="#FF5300"/>
<path d="M49.7333 12.8855C49.4686 12.8855 49.2521 12.6823 49.2521 12.4302V10.3997C49.2521 10.1492 49.4686 9.94434 49.7333 9.94434C49.9996 9.94434 50.2144 10.1492 50.2144 10.3997V12.4302C50.2144 12.6823 49.9996 12.8855 49.7333 12.8855Z" fill="#FF5300"/>
<path d="M49.7333 16.9874C49.4686 16.9874 49.2521 16.7842 49.2521 16.5321V14.5015C49.2521 14.2511 49.4686 14.0479 49.7333 14.0479C49.9996 14.0479 50.2144 14.2511 50.2144 14.5015V16.5321C50.2144 16.7842 49.9996 16.9874 49.7333 16.9874Z" fill="#FF5300"/>
</svg>
