<svg width="75" height="68" viewBox="0 0 75 68" fill="none" xmlns="http://www.w3.org/2000/svg">
<path d="M25.1622 57.2385C25.1459 61.3905 27.6891 65.155 31.7998 67.0636C31.935 67.1268 32.0833 67.1578 32.2303 67.1578C32.3988 67.1578 32.5667 67.1174 32.715 67.0366C32.9946 66.8851 33.1658 66.6141 33.1671 66.322L33.1991 58.0585C33.2037 56.8991 34.2581 55.9526 35.5504 55.9486L39.5375 55.9363H39.546C40.1653 55.9363 40.7461 56.1511 41.1812 56.5421C41.6202 56.9354 41.8606 57.4604 41.8586 58.0199L41.826 66.2834C41.8253 66.5778 41.9952 66.8505 42.2761 67.0033C42.557 67.1566 42.9072 67.1666 43.1972 67.0296C47.3176 65.0976 49.887 61.3208 49.9034 57.173C49.9223 52.1905 46.1737 47.8119 40.8853 46.5086L41.1544 18.7897C42.5949 18.3069 43.9211 17.5577 45.0428 16.5515C49.2678 12.7618 49.2893 6.6153 45.0925 2.84959C43.0673 1.03348 40.3705 0.0332031 37.4973 0.0332031C34.5979 0.0332031 31.8685 1.04866 29.8119 2.89349C25.587 6.68318 25.5654 12.8297 29.7636 16.5948C30.7893 17.5149 31.9888 18.2237 33.2946 18.7007L34.2425 46.5304C28.9555 47.869 25.1813 52.2633 25.1624 57.2381L25.1622 57.2385ZM31.1373 4.07977C32.8392 2.55284 35.0983 1.71168 37.4964 1.71168C39.8679 1.71168 42.0949 2.53692 43.7654 4.03527C47.2344 7.14727 47.2128 12.2297 43.717 15.3657C42.0138 16.8926 39.7549 17.7338 37.3566 17.7338C34.9851 17.7338 32.7587 16.9079 31.0876 15.4096C27.6187 12.2982 27.6409 7.21559 31.1373 4.07977ZM37.3568 19.412C38.0074 19.412 38.6477 19.3535 39.2762 19.2528L39.0051 47.159C39.0012 47.5593 39.3135 47.9064 39.7512 47.9877C44.5646 48.8838 48.0468 52.7437 48.0291 57.1661C48.0173 60.202 46.3939 63.0043 43.705 64.7724L43.7318 58.0242C43.7357 57.0146 43.2999 56.0659 42.5062 55.3536C41.7157 54.646 40.6652 54.2568 39.5455 54.2568H39.5298L35.5427 54.2691C33.226 54.2767 31.3335 55.9728 31.3256 58.0511L31.2989 64.8181C28.6236 63.0693 27.0231 60.2787 27.0348 57.2434C27.0524 52.8163 30.5692 48.9289 35.397 48.0006C35.8386 47.9157 36.1509 47.5598 36.1372 47.1548L35.186 19.2127C35.8929 19.3433 36.6187 19.4112 37.3568 19.4112L37.3568 19.412Z" fill="#FF5300"/>
<path d="M37.4117 14.8395C38.9371 14.8348 40.3724 14.2981 41.4543 13.3283C43.6867 11.3255 43.6977 8.07596 41.4772 6.08485C40.4064 5.12381 38.9795 4.59473 37.4595 4.59473C35.9275 4.59473 34.485 5.13142 33.3993 6.10593C31.1657 8.10813 31.1545 11.3577 33.3745 13.3494C34.4465 14.311 35.8714 14.8395 37.3917 14.8395H37.4119H37.4117ZM34.7241 7.29174H34.7247C35.4564 6.63506 36.4286 6.27277 37.4595 6.27277C38.4786 6.27277 39.435 6.62686 40.1525 7.27007C41.6439 8.60744 41.6335 10.7929 40.1296 12.142C39.3999 12.7963 38.4329 13.158 37.406 13.1616H37.3923C36.3732 13.1616 35.4173 12.8075 34.7007 12.1642C33.2092 10.8257 33.2202 8.64082 34.7241 7.29174Z" fill="#FF5300"/>
<path d="M0.936569 37.3135H5.53912V57.9872C4.34685 58.6819 3.55243 59.8806 3.55243 61.2467V66.3182C3.55243 66.7817 3.97119 67.1575 4.48926 67.1575H14.3809C14.8983 67.1575 15.3177 66.7817 15.3177 66.3182V61.2467C15.3177 59.88 14.524 58.6814 13.331 57.9866L13.3304 37.3129H17.9329C18.4504 37.3129 18.8698 36.9371 18.8698 36.4736V32.9286C18.8698 31.8639 17.9042 30.9983 16.7158 30.9983C15.8332 30.9983 15.1153 30.3551 15.1153 29.5643V28.8796C15.1153 28.1421 15.7849 27.5416 16.608 27.5416H17.9336C18.451 27.5416 18.8704 27.1659 18.8704 26.7023L18.8691 8.4858C18.8691 3.82529 14.637 0.0332031 9.43489 0.0332031C4.23277 0.0332031 0 3.82469 0 8.4858V26.7038C0 27.1674 0.418761 27.5431 0.936832 27.5431H2.26237C3.08553 27.5431 3.75516 28.143 3.75516 28.8811V29.5658C3.75516 30.3565 3.03718 31.0004 2.15459 31.0004C0.966235 31.0004 0.00065202 31.866 0.00065202 32.9306V36.4757C-1.23415e-06 36.938 0.418761 37.3138 0.936832 37.3138L0.936569 37.3135ZM13.4439 65.4803H5.42539V61.2476C5.42539 60.0273 6.53403 59.0346 7.89675 59.0346H10.9737C12.3358 59.0346 13.4439 60.0272 13.4439 61.2476V65.4803ZM11.4572 57.4005C11.2965 57.3841 11.1391 57.3566 10.9731 57.3566H7.89617C7.73023 57.3566 7.57278 57.3841 7.41143 57.4005L7.41208 37.3141H11.4574L11.4572 57.4005ZM16.9958 35.636H1.87263V32.9297C1.87263 32.791 1.99872 32.678 2.15355 32.678H16.7116C16.7129 32.678 16.7149 32.6786 16.7162 32.6786C16.8122 32.6786 16.8763 32.7184 16.9135 32.7518C16.9507 32.7851 16.9958 32.8437 16.9958 32.9297L16.9958 35.636ZM16.9958 8.48648V25.8654H10.3715V1.76953C14.0992 2.18507 16.9958 5.036 16.9958 8.48617V8.48648ZM1.87263 25.8654V8.48797C1.87263 5.0372 4.76929 2.18621 8.49833 1.77072V25.8666L1.87263 25.8654ZM5.26266 27.5434H13.6066C13.3806 27.9484 13.2414 28.3985 13.2414 28.8814V29.5661C13.2414 30.0859 13.3982 30.5687 13.6504 31.0001H5.21763C5.47045 30.5687 5.62659 30.0858 5.62659 29.5655V28.8808C5.62724 28.3985 5.48805 27.9484 5.26266 27.5434Z" fill="#FF5300"/>
<path d="M54.8578 16.0425L64.1868 20.8681C64.3312 20.943 64.4932 20.9805 64.6552 20.9805C64.8172 20.9805 64.9792 20.943 65.1236 20.8681L74.452 16.0425C74.742 15.8927 74.9204 15.6158 74.9204 15.3156V5.66492C74.9204 5.36526 74.742 5.08783 74.452 4.938L65.1229 0.112374C64.8342 -0.0374579 64.4755 -0.0374579 64.1861 0.112374L54.8571 4.938C54.567 5.08783 54.3887 5.36467 54.3887 5.66492V15.3156C54.3893 15.6158 54.5677 15.8927 54.8578 16.0425ZM56.2623 6.14957L64.6546 1.8085L73.0476 6.14957V14.8316L64.6553 19.1726L56.263 14.8316L56.2623 6.14957Z" fill="#FF5300"/>
<path d="M69.9722 10.4872C69.9722 7.80715 67.5386 5.62695 64.5466 5.62695C61.5552 5.62695 59.1211 7.80715 59.1211 10.4872C59.1211 13.1672 61.5547 15.3479 64.5466 15.3479C67.5386 15.3479 69.9722 13.1671 69.9722 10.4872ZM64.5466 13.6693C62.5874 13.6693 60.9941 12.2418 60.9941 10.4866C60.9941 8.73191 62.5874 7.30447 64.5466 7.30447C66.5059 7.30447 68.0992 8.73196 68.0992 10.4866C68.0992 12.2419 66.5059 13.6693 64.5466 13.6693Z" fill="#FF5300"/>
<path d="M54.8578 39.147L64.1868 43.9726C64.3312 44.0475 64.4932 44.085 64.6552 44.085C64.8172 44.085 64.9792 44.0475 65.1236 43.9726L74.452 39.147C74.742 38.9972 74.9204 38.7203 74.9204 38.4201V28.7694C74.9204 28.4698 74.742 28.1923 74.452 28.0425L65.1229 23.2169C64.8342 23.067 64.4755 23.067 64.1861 23.2169L54.8571 28.0425C54.567 28.1923 54.3887 28.4692 54.3887 28.7694V38.4201C54.3893 38.7203 54.5677 38.9972 54.8578 39.147ZM56.2623 29.2541L64.6546 24.913L73.0476 29.2541V37.936L64.6553 42.2771L56.263 37.936L56.2623 29.2541Z" fill="#FF5300"/>
<path d="M69.9722 33.5956C69.9722 30.9156 67.5386 28.7354 64.5466 28.7354C61.5552 28.7354 59.1211 30.9156 59.1211 33.5956C59.1211 36.2756 61.5547 38.4558 64.5466 38.4558C67.5386 38.4558 69.9722 36.2756 69.9722 33.5956ZM64.5466 36.7777C62.5874 36.7777 60.9941 35.3502 60.9941 33.5956C60.9941 31.841 62.5874 30.4135 64.5466 30.4135C66.5059 30.4135 68.0992 31.841 68.0992 33.5956C68.0992 35.3502 66.5059 36.7777 64.5466 36.7777Z" fill="#FF5300"/>
<path d="M54.8578 62.2554L64.1868 67.081C64.3312 67.1559 64.4932 67.1934 64.6552 67.1934C64.8172 67.1934 64.9792 67.1559 65.1236 67.081L74.452 62.2554C74.742 62.1056 74.9204 61.8287 74.9204 61.5285V51.8778C74.9204 51.5781 74.742 51.3007 74.452 51.1509L65.1229 46.3253C64.8342 46.1754 64.4755 46.1754 64.1861 46.3253L54.8571 51.1509C54.567 51.3007 54.3887 51.5776 54.3887 51.8778V61.5285C54.3893 61.8281 54.5677 62.105 54.8578 62.2554ZM56.2623 52.3619L64.6546 48.0208L73.0476 52.3619V61.0438L64.6553 65.3849L56.263 61.0438L56.2623 52.3619Z" fill="#FF5300"/>
<path d="M69.9722 56.7001C69.9722 54.02 67.5386 51.8398 64.5466 51.8398C61.5552 51.8398 59.1211 54.02 59.1211 56.7001C59.1211 59.3801 61.5547 61.5603 64.5466 61.5603C67.5386 61.5603 69.9722 59.3801 69.9722 56.7001ZM64.5466 59.8822C62.5874 59.8822 60.9941 58.4547 60.9941 56.7001C60.9941 54.9454 62.5874 53.518 64.5466 53.518C66.5059 53.518 68.0992 54.9454 68.0992 56.7001C68.0992 58.4548 66.5059 59.8822 64.5466 59.8822Z" fill="#FF5300"/>
</svg>
