<svg width="63" height="67" viewBox="0 0 63 67" fill="none" xmlns="http://www.w3.org/2000/svg">
<path d="M1.0586 15.6182L7.50229 15.0564L7.46539 9.76039C7.46377 9.15346 7.98193 8.65795 8.6227 8.65642L19.682 8.58761L21.1134 0.913644C21.2235 0.313899 21.8279 -0.088156 22.4622 0.0165971L61.1638 6.4895C61.7975 6.59373 62.2223 7.16575 62.1117 7.766L52.9144 57.0232C52.8043 57.623 52.1999 58.025 51.5656 57.9203L49.4251 57.5629L49.4387 59.526C49.4403 60.1329 48.9222 60.6284 48.2814 60.63L46.0758 60.6449L46.3064 63.0115C46.3634 63.6159 45.8919 64.1525 45.2538 64.2064L21.9062 66.2417C21.681 66.2607 21.4662 66.2176 21.2779 66.1277L4.57803 58.1663C4.18846 57.9804 3.95677 57.6133 3.93941 57.2282L0.00466453 16.8123C-0.0523065 16.2079 0.419198 15.6714 1.05726 15.6175L1.0586 15.6182ZM17.7724 61.9914C16.997 61.0178 16.2402 60.035 15.5039 59.0429C14.2966 57.4146 13.1355 55.7531 12.0228 54.0616C11.5844 54.8426 11.0114 55.5404 10.3343 56.1298C9.71903 56.6654 9.01585 57.1121 8.24859 57.4495L17.7718 61.9907L17.7724 61.9914ZM6.13788 55.8209C7.13079 55.6012 8.02927 55.1411 8.75794 54.508C9.69226 53.6962 10.3482 52.5968 10.5696 51.3521C10.6103 51.0209 10.8078 50.7113 11.1339 50.529C11.6868 50.2194 12.4019 50.3934 12.7284 50.9167C14.1945 53.2581 15.7566 55.5473 17.4092 57.7758C18.9968 59.9154 20.6588 61.9909 22.3879 63.9914L43.8854 62.1167L39.2485 14.4973L2.42767 17.7081L6.13788 55.8209ZM22.053 8.57226L47.9258 8.41051C48.5671 8.40897 49.0907 8.89935 49.0923 9.50576L49.4103 55.319L50.8215 55.5547L59.6134 8.46901L23.2079 2.37968L22.053 8.57226ZM9.82608 14.8531L40.1951 12.2046C40.8337 12.1507 41.4007 12.5969 41.4576 13.2008L45.8628 58.4462L47.1086 58.4385L46.776 10.6167L9.79817 10.8477L9.82638 14.8524L9.82608 14.8531Z" fill="#FF5300"/>
<path d="M16.7583 20.4363C16.8198 20.2491 16.8441 20.0473 16.8195 19.8386C16.725 19.0352 15.966 18.4478 15.1277 18.5291C14.2895 18.6105 13.6844 19.3304 13.779 20.1338C13.8735 20.9372 14.6325 21.5247 15.4708 21.4433C15.6507 21.4258 15.8168 21.374 15.9702 21.3034L29.0363 32.1416L23.9587 45.3482C23.9298 45.3497 23.9015 45.3453 23.8724 45.3481C23.0342 45.4295 22.4291 46.1494 22.5237 46.9528C22.6182 47.7562 23.3772 48.3437 24.2155 48.2623C25.0537 48.1809 25.6588 47.461 25.5642 46.6576C25.5222 46.3005 25.3441 45.9916 25.0914 45.7593L30.3135 32.1759C30.4 31.9506 30.3307 31.6953 30.1395 31.5365L16.7583 20.4363Z" fill="#FF5300"/>
<path d="M26.5905 32.5608C26.6797 32.3283 26.603 32.0658 26.4001 31.9086L12.1007 20.8545C12.1511 20.6809 12.1703 20.4957 12.1478 20.3048C12.053 19.5009 11.2926 18.913 10.4527 18.9945C9.61287 19.0759 9.00663 19.7963 9.10139 20.6002C9.19615 21.4042 9.95659 21.9921 10.7965 21.9106C10.9959 21.8913 11.1799 21.8338 11.3467 21.7502L19.1902 27.8136C19.1774 27.8259 19.1609 27.8323 19.1492 27.8458L13.5135 34.5434L9.94103 31.7817C9.99107 31.6081 10.0106 31.4229 9.9881 31.232C9.89334 30.4281 9.13289 29.8402 8.29371 29.9216C7.45386 30.003 6.8476 30.7234 6.94237 31.5274C7.03713 32.3313 7.79757 32.9192 8.63744 32.8377C8.83651 32.8184 9.02091 32.761 9.18766 32.6773L12.7608 35.439L9.73916 39.0296C9.7017 39.0741 9.68126 39.1251 9.66009 39.1755C9.53474 39.2941 9.45917 39.4582 9.48065 39.6404L9.80687 42.408C9.63968 42.4936 9.48771 42.6076 9.36554 42.7532C8.83935 43.3792 8.94837 44.3041 9.60857 44.815C9.92893 45.0626 10.3292 45.1773 10.7361 45.1378C11.143 45.0984 11.5075 44.9096 11.7625 44.6061C12.0179 44.3026 12.1333 43.9212 12.0874 43.532C12.0416 43.1429 11.8399 42.7919 11.5195 42.5442C11.3662 42.4257 11.1917 42.343 11.008 42.2914L10.7065 39.7333L20.0961 28.5758C20.1077 28.562 20.1104 28.5452 20.1202 28.5306L21.5815 29.6605L12.5467 40.3966C12.5434 40.4005 12.543 40.4057 12.5394 40.41C12.4955 40.4655 12.46 40.5273 12.4393 40.5959C12.4174 40.669 12.4098 40.7454 12.4187 40.8208L12.9905 45.672C12.8233 45.7577 12.6714 45.8717 12.5492 46.0172C12.0223 46.6426 12.1314 47.5682 12.7922 48.079C13.1126 48.3267 13.5128 48.4407 13.9197 48.4012C14.3265 48.3618 14.6911 48.1733 14.9462 47.8701C15.4731 47.2441 15.364 46.3192 14.7032 45.8083C14.5499 45.6898 14.3754 45.6072 14.1917 45.5555L13.6482 40.9413L22.527 30.3906L25.3066 32.5394L20.2243 45.7413C20.195 45.7428 20.1667 45.7384 20.1372 45.7413C19.2973 45.8228 18.6911 46.5431 18.7858 47.3471C18.8806 48.1511 19.641 48.7389 20.4809 48.6575C21.3208 48.576 21.927 47.8556 21.8323 47.0517C21.7901 46.6943 21.6117 46.3852 21.3585 46.1527L26.5905 32.5608Z" fill="#FF5300"/>
<path d="M37.6582 43.0933C37.535 43.1052 37.419 43.1346 37.3073 43.1724L35.2271 41.0388L34.1064 31.5213C34.0895 31.3774 34.0166 31.2447 33.9027 31.1484L29.4791 27.4146L32.0819 24.3193C32.2639 24.3694 32.4576 24.3902 32.6568 24.3708C33.4956 24.2894 34.1005 23.5694 34.0058 22.7659C33.9112 21.9623 33.1517 21.3747 32.3135 21.456C31.4746 21.5374 30.8691 22.2575 30.9638 23.0611C30.9862 23.2519 31.0483 23.4284 31.1376 23.5888L28.5671 26.6453L26.9149 25.2505L31.5434 19.7464C31.7253 19.7962 31.919 19.817 32.1182 19.7976C32.9571 19.7162 33.5619 18.9962 33.4672 18.1926C33.3726 17.3891 32.6131 16.8015 31.7749 16.8828C30.936 16.9642 30.3305 17.6843 30.4252 18.4879C30.4476 18.6787 30.5098 18.8559 30.5991 19.0159L26.0039 24.4811L22.6976 21.6901L22.5696 20.6034C23.0842 20.3274 23.4041 19.7751 23.3335 19.1758C23.2389 18.3722 22.4794 17.7846 21.6405 17.866C20.8017 17.9474 20.1961 18.6675 20.2908 19.4711C20.3614 20.0704 20.802 20.5488 21.3699 20.7198L21.5243 22.03C21.5275 22.0579 21.5428 22.0811 21.5503 22.1076C21.5622 22.1505 21.5706 22.1935 21.5929 22.2332C21.6133 22.2711 21.6435 22.3009 21.672 22.3329C21.6916 22.3556 21.7036 22.3827 21.7276 22.4027L32.9328 31.8614L34.0504 41.3468C34.0651 41.4715 34.1211 41.5884 34.2108 41.6799L36.4309 43.9575C36.3278 44.1832 36.2776 44.4349 36.3086 44.6984C36.4033 45.502 37.1628 46.0896 38.0016 46.0082C38.8405 45.9268 39.446 45.2067 39.3514 44.4031C39.2564 43.5996 38.4965 43.0124 37.658 43.0937L37.6582 43.0933Z" fill="#FF5300"/>
</svg>
