<svg width="105" height="70" viewBox="0 0 105 70" fill="none" xmlns="http://www.w3.org/2000/svg">
<path d="M34.2749 15.649C35.0199 15.6857 36.1083 15.629 37.1767 15.8357C37.6217 15.9223 37.9267 15.8123 38.0351 15.3356C38.0781 15.1748 38.1473 15.0222 38.2401 14.884C39.0384 13.5906 39.3451 12.4772 38.4301 10.8988C37.185 8.75034 38.1951 5.97354 40.2502 4.5168C41.2263 3.81668 42.4107 3.46742 43.6105 3.52583C44.8104 3.58423 45.9552 4.04687 46.8588 4.83848C47.2188 5.1535 47.5088 5.30017 48.0055 5.20517C50.9173 4.65181 53.3391 5.72853 55.4759 7.59195C57.821 9.63871 59.3894 12.2488 60.6028 15.069C60.9161 15.7957 61.2795 15.8823 61.9712 15.8107C64.743 15.5223 67.5081 15.5223 70.2199 16.3107C75.8768 17.9474 78.347 22.3927 76.7452 28.0546C75.9718 30.7814 74.5784 33.1965 72.9017 35.4466C72.6 35.85 72.53 36.1333 72.9017 36.495C73.0282 36.6419 73.143 36.7985 73.245 36.9633C74.0017 38.0284 74.4934 39.0251 76.3069 39.0218C79.0136 39.0218 80.7671 41.1569 81.0938 43.882C81.3688 46.1804 79.8754 48.4055 77.3986 49.3939C77.1769 49.4823 76.9386 49.5156 76.8402 49.8206C75.7552 53.2258 73.1367 54.8392 69.8982 55.7042C67.1764 56.4309 64.4113 56.4576 61.6428 56.0992C61.0611 56.0226 60.8845 56.2092 60.6845 56.6693C59.4144 59.5527 57.826 62.2295 55.4142 64.3413C51.5957 67.6865 46.9605 67.6481 43.187 64.2446C40.8769 62.1612 39.3134 59.5611 38.0851 56.7443C37.8384 56.1792 37.6317 55.9326 36.955 56.0776C36.2178 56.2151 35.4677 56.271 34.7182 56.2443C34.1999 56.2443 33.9649 56.4376 33.7365 56.9009C33.2012 57.9934 32.3085 58.87 31.2065 59.3854C30.1045 59.9007 28.8595 60.0239 27.6779 59.7344C25.1644 59.096 23.3444 56.8359 23.5677 54.3058C23.6594 53.2524 23.401 52.5307 22.8343 51.689C21.1142 49.1106 21.2493 46.3004 22.1026 43.4653C22.871 40.9169 24.1911 38.6484 25.7828 36.5383C26.1295 36.0783 26.1295 35.8083 25.7828 35.3516C24.0977 33.1032 22.716 30.6847 21.9743 27.9479C20.4125 22.1593 23.091 17.6074 28.913 16.1724C30.5647 15.7707 32.2464 15.6173 34.2749 15.649Z" fill="#FF5300"/>
<path d="M62.3322 35.9438C62.3789 38.2223 62.1555 40.4024 61.9988 42.5875C61.9885 42.7928 61.9295 42.9927 61.8266 43.1706C61.7237 43.3486 61.5799 43.4995 61.4071 43.6109C57.857 46.1666 54.0601 48.3609 50.0733 50.1612C49.5599 50.3945 49.1399 50.3278 48.6632 50.1112C44.7541 48.3439 41.0287 46.1956 37.541 43.6975C37.086 43.3642 36.841 43.0308 36.7793 42.4425C36.3207 38.0539 36.3263 33.6292 36.796 29.2418C36.8023 29.0663 36.8495 28.8947 36.934 28.7407C37.0186 28.5867 37.138 28.4547 37.2827 28.3551C40.9192 25.7335 44.8154 23.4922 48.9099 21.6665C49.0817 21.5842 49.2704 21.5434 49.4608 21.5471C49.6513 21.5509 49.8382 21.5992 50.0066 21.6882C54.0256 23.4851 57.8487 25.6913 61.4155 28.2718C61.5867 28.3849 61.7285 28.5371 61.8291 28.716C61.9297 28.8949 61.9862 29.0951 61.9938 29.3002C62.1605 31.5386 62.3905 33.7754 62.3322 35.9438Z" fill="#FFEEE5"/>
<path d="M75.0591 25.2784C75.0707 26.0801 74.8224 27.1868 74.4457 28.2619C73.749 30.262 72.6939 32.0754 71.4622 33.7905C71.2955 34.0305 71.1705 34.3322 70.8122 33.9155C68.837 31.6594 66.6434 29.6043 64.2635 27.7802C63.9485 27.5335 63.9219 27.2135 63.8785 26.9052C63.4917 24.0563 62.8445 21.2488 61.9451 18.5181C61.7784 18.0181 61.9451 17.9531 62.3401 17.9214C65.2869 17.6931 68.2171 17.6647 71.0072 18.8514C73.7023 19.9965 75.1157 22.1416 75.0591 25.2784Z" fill="#FFEEE5"/>
<path d="M36.9827 17.9983C35.969 20.9762 35.2511 24.0467 34.8393 27.1654C34.7959 27.5171 34.5642 27.6871 34.3242 27.8754C32.0789 29.6479 29.9833 31.6024 28.0589 33.719C27.8539 33.944 27.7106 34.3174 27.3556 33.804C25.6605 31.3506 24.1887 28.8038 23.7521 25.787C23.3537 23.0769 24.4488 20.7034 26.8322 19.3183C28.4739 18.3633 30.2874 17.9749 32.1458 17.8616C33.7459 17.7683 35.3559 17.7216 36.9827 17.9983Z" fill="#FFEEE5"/>
<path d="M58.6853 55.7286C57.4152 58.4954 56.0185 61.0622 53.665 62.9623C50.8549 65.2307 47.9148 65.2407 45.118 62.9723C42.8445 61.1305 41.4345 58.6554 40.2277 56.0469C40.0727 55.7136 40.2044 55.5852 40.4961 55.5286C43.4595 54.9552 46.3147 54.0285 49.1098 52.8985C49.1981 52.8635 49.2928 52.8477 49.3877 52.8523C49.4826 52.8569 49.5753 52.8818 49.6598 52.9251C52.5015 54.0724 55.437 54.9719 58.4336 55.6136C58.5209 55.644 58.6051 55.6825 58.6853 55.7286Z" fill="#FFEEE5"/>
<path d="M64.8797 54.1121C64.003 54.0671 63.1713 54.0204 62.3412 53.9821C61.9129 53.9637 61.7862 53.8604 61.9445 53.3737C62.8443 50.6433 63.4871 47.8349 63.8646 44.985C63.881 44.7931 63.9376 44.6069 64.0306 44.4384C64.1237 44.2698 64.2511 44.1227 64.4046 44.0066C66.7135 42.2278 68.8486 40.2343 70.7816 38.053C71.13 37.6596 71.2816 37.7613 71.4817 38.118C71.5367 38.2147 71.6033 38.3047 71.6667 38.3947C72.56 39.678 72.56 39.6781 71.5783 40.8248C69.1432 43.6716 70.3633 48.0868 73.9768 49.3652C74.5868 49.5802 74.5935 49.7819 74.3101 50.2552C73.1434 52.2053 71.2983 53.122 69.2032 53.652C67.7731 54.0121 66.3047 54.0854 64.8797 54.1121Z" fill="#FFEEE5"/>
<path d="M40.0801 16.2649C40.2718 15.5049 40.6851 14.8782 41.0035 14.2098C41.2101 13.7748 41.4851 14.0265 41.7618 14.1065C44.7336 14.9682 47.6504 13.3798 48.5521 10.4196C48.8352 9.57726 48.8705 8.67135 48.6538 7.80951C48.5421 7.39949 48.6788 7.29115 49.0622 7.27282C50.1177 7.22125 51.1684 7.4477 52.109 7.92951C53.194 8.49511 54.1635 9.25887 54.9675 10.1813C56.5892 11.9597 57.7326 14.0281 58.6993 16.2682C55.6759 16.878 52.7145 17.7628 49.8522 18.9117C49.6872 18.9775 49.5103 19.0084 49.3327 19.0024C49.1551 18.9963 48.9807 18.9535 48.8205 18.8767C45.9944 17.7366 43.0683 16.8623 40.0801 16.2649Z" fill="#FFEEE5"/>
<path d="M24.8997 50.8439C23.4247 48.7071 23.5413 46.457 24.1997 44.1769C24.8464 41.9468 26.0331 39.985 27.3515 38.0916C27.5615 37.7916 27.7099 37.7482 27.9682 38.0483C29.92 40.2984 32.1351 42.2735 34.4685 44.1219C34.5769 44.2064 34.6664 44.3126 34.7313 44.4337C34.7961 44.5549 34.835 44.6882 34.8452 44.8253C35.2086 47.6763 35.8443 50.4859 36.7436 53.2157C36.9586 53.8823 36.7703 53.994 36.1953 53.9924C35.6202 53.9907 35.0285 54.1874 34.5502 53.9924C34.0718 53.7973 34.2168 53.0823 34.0502 52.6106C33.7493 51.7903 33.2547 51.0548 32.6085 50.4667C31.9623 49.8786 31.1836 49.4552 30.3387 49.2327C29.4938 49.0101 28.6076 48.9949 27.7555 49.1884C26.9035 49.3818 26.1107 49.7782 25.4448 50.3438C25.2748 50.4839 25.1181 50.6405 24.8997 50.8439Z" fill="#FFEEE5"/>
<path d="M46.5183 8.91927C46.5183 10.716 45.0783 12.1728 43.3298 12.1378C41.5314 12.1028 40.0614 10.671 40.0547 8.94927C40.0613 8.08024 40.4106 7.24891 41.0266 6.63596C41.6427 6.02301 42.4758 5.67795 43.3448 5.67578C45.1283 5.67578 46.5167 7.10085 46.5183 8.91927Z" fill="#FFEEE5"/>
<path d="M28.9393 51.3164C30.6743 51.3164 32.1811 52.7481 32.1327 54.4516C32.0727 56.6183 30.6593 57.715 28.9243 57.755C27.1592 57.7967 25.6791 56.2683 25.7074 54.5232C25.7183 53.6718 26.0631 52.8587 26.6676 52.2589C27.272 51.6592 28.0878 51.3207 28.9393 51.3164Z" fill="#FFEEE5"/>
<path d="M75.7012 47.4928C74.0078 47.4761 72.5344 46.0077 72.5177 44.306C72.501 42.6042 74.0611 41.0441 75.7495 41.0508C77.5029 41.0591 79.0114 42.5742 78.978 44.291C78.9489 45.1438 78.592 45.9526 77.9817 46.549C77.3713 47.1453 76.5545 47.4834 75.7012 47.4928Z" fill="#FFEEE5"/>
<path d="M64.3143 41.3057C64.5443 37.6389 64.626 34.1654 64.2793 30.6819C64.506 30.6102 64.636 30.8319 64.791 30.9636C66.4408 32.3634 67.9861 33.882 69.4146 35.5071C69.6196 35.7405 69.8129 35.9121 69.5079 36.2605C67.9092 38.0734 66.1728 39.7602 64.3143 41.3057Z" fill="#FFEEE5"/>
<path d="M46.5406 20.3235C43.3256 21.8657 40.2351 23.655 37.2969 25.6754C37.7013 23.2878 38.2977 20.9368 39.0803 18.6451C39.1853 18.3367 39.3753 18.3001 39.6537 18.3601C41.9962 18.8374 44.2986 19.4938 46.5406 20.3235Z" fill="#FFEEE5"/>
<path d="M61.2785 25.5474C58.4082 23.5951 55.3932 21.8645 52.2598 20.3705C53.8582 19.6871 55.4266 19.2904 56.975 18.8621C57.665 18.6721 58.3767 18.5587 59.0734 18.3854C59.3684 18.3121 59.5484 18.3621 59.6468 18.6638C60.3585 20.8422 60.9952 23.039 61.3419 25.3091C61.3316 25.391 61.3103 25.4712 61.2785 25.5474Z" fill="#FFEEE5"/>
<path d="M34.3924 30.8837C34.1217 34.3301 34.1317 37.7928 34.4224 41.2375C32.5423 39.6923 30.798 37.9887 29.2088 36.1456C29.0421 35.9473 29.1221 35.8273 29.2621 35.6656C30.7455 33.9411 32.3695 32.3428 34.1174 30.887C34.1474 30.862 34.2174 30.8837 34.3924 30.8837Z" fill="#FFEEE5"/>
<path d="M52.2598 51.5473C55.3834 50.0429 58.3883 48.3033 61.2485 46.3438C61.4452 46.5221 61.3519 46.7521 61.3152 46.9254C60.9081 48.9791 60.3771 51.0062 59.7251 52.9957C59.5734 53.4424 59.3818 53.5658 58.9567 53.4724C56.6815 52.9907 54.4435 52.3473 52.2598 51.5473Z" fill="#FFEEE5"/>
<path d="M37.2773 46.2148C40.182 48.2192 43.2412 49.9899 46.4261 51.5101C45.3011 52.0901 40.7592 53.3785 39.6591 53.5102C39.1591 53.5719 39.1174 53.2485 39.0224 52.9518C38.7307 52.0334 38.4274 51.1184 38.1891 50.185C37.869 48.9333 37.6074 47.6666 37.2773 46.2148Z" fill="#FFEEE5"/>
<path d="M56.4804 35.7879C56.4554 39.7181 53.1302 42.9883 49.2234 42.9283C47.3168 42.9157 45.4933 42.1462 44.1541 40.7892C42.8149 39.4321 42.0696 37.5987 42.0822 35.6921C42.0948 33.7856 42.8642 31.9621 44.2213 30.6229C45.5783 29.2836 47.4118 28.5383 49.3184 28.5509C51.224 28.5729 53.0443 29.3447 54.3849 30.6993C55.7254 32.0539 56.4783 33.8822 56.4804 35.7879Z" fill="#FF5300"/>
<path d="M44.3164 35.8043C44.3164 32.9424 46.5348 30.7757 49.4833 30.7773C52.0584 30.7773 54.2719 33.0591 54.2985 35.7426C54.2955 37.0743 53.7663 38.351 52.8264 39.2944C51.8864 40.2378 50.6117 40.7716 49.28 40.7795C47.9622 40.7773 46.6992 40.252 45.7685 39.3191C44.8378 38.3862 44.3155 37.122 44.3164 35.8043Z" fill="#FFEEE5"/>
</svg>
