<svg width="61" height="58" viewBox="0 0 61 58" fill="none" xmlns="http://www.w3.org/2000/svg">
<path d="M51.3455 26.9998L55.8506 20.2986C56.238 20.4179 56.6465 20.4849 57.0646 20.4849C59.2349 20.4849 61.0001 18.8143 61.0001 16.7604C61.0001 14.7066 59.2349 13.036 57.0646 13.036C54.8944 13.036 53.1291 14.7066 53.1291 16.7604C53.1291 17.726 53.5148 18.6292 54.1868 19.306L49.6373 26.0715H36.9403L28.7399 13.999L33.9799 7.18034C34.4314 7.35036 34.9146 7.44886 35.4193 7.44886C37.5895 7.44886 39.3548 5.7783 39.3548 3.72443C39.3548 1.67057 37.5895 0 35.4193 0C33.249 0 31.4838 1.67057 31.4838 3.72443C31.4838 4.60441 31.8154 5.4432 32.3842 6.09211L27.0476 13.0355H17.57C17.1303 11.433 15.6031 10.2422 13.7741 10.2422C11.6039 10.2422 9.83866 11.9128 9.83866 13.9666C9.83866 14.9218 10.2195 15.8184 10.8867 16.4956L6.69031 22.6734C6.12766 22.466 5.53115 22.3467 4.91935 22.3467C2.20668 22.3467 0 24.435 0 27.0022C0 29.5694 2.20668 31.6577 4.91935 31.6577C5.53251 31.6577 6.12945 31.5385 6.69121 31.3319L12.5826 40.0053L7.34259 46.824C6.89107 46.654 6.40791 46.5555 5.90322 46.5555C3.73297 46.5555 1.96774 48.2261 1.96774 50.2799C1.96774 52.3338 3.73297 54.0044 5.90322 54.0044C8.07346 54.0044 9.8387 52.3338 9.8387 50.2799C9.8387 49.3999 9.50708 48.5611 8.93828 47.9122L14.2749 40.9688H27.0112L34.0854 51.3822C33.6936 51.8644 33.4516 52.4538 33.4516 53.0732C33.4516 54.6133 34.7759 55.8666 36.4032 55.8666C37.6841 55.8666 38.7663 55.0855 39.1739 54.0044H45.3573C45.815 56.1263 47.8012 57.7288 50.1774 57.7288C52.8901 57.7288 55.0967 55.6404 55.0967 53.0732C55.0967 51.7976 54.5468 50.6125 53.6051 49.7483L60.201 40.0377L51.3455 26.9998ZM57.0646 14.8985C58.15 14.8985 59.0324 15.7336 59.0324 16.7608C59.0324 17.7879 58.15 18.623 57.0646 18.623C56.6829 18.623 56.321 18.5245 56.0061 18.3295C55.4373 17.9891 55.0969 17.4021 55.0969 16.7608C55.0969 15.7337 55.9793 14.8985 57.0646 14.8985ZM35.4195 1.86302C36.5048 1.86302 37.3872 2.69812 37.3872 3.72524C37.3872 4.75236 36.5048 5.58746 35.4195 5.58746C34.9965 5.58746 34.6039 5.46567 34.2555 5.21876C33.7526 4.88082 33.4517 4.32298 33.4517 3.72526C33.4517 2.69814 34.3342 1.86302 35.4195 1.86302ZM17.5704 14.8985H27.0116L35.234 27.0029L27.0116 39.1073H14.3113L8.347 30.3271C9.28958 29.462 9.83866 28.2765 9.83866 27.0029C9.83866 25.7273 9.28875 24.5422 8.347 23.678L12.546 17.4952C12.9427 17.6212 13.3551 17.6918 13.7741 17.6918C15.6031 17.6918 17.1303 16.501 17.57 14.8985L17.5704 14.8985ZM13.7746 12.1052C14.8599 12.1052 15.7423 12.9403 15.7423 13.9674C15.7423 14.9946 14.8599 15.8296 13.7746 15.8296C13.3977 15.8296 13.0406 15.7291 12.7099 15.5287C12.1442 15.187 11.8069 14.6042 11.8069 13.9674C11.8069 12.9403 12.6893 12.1052 13.7746 12.1052ZM1.96816 27.0029C1.96816 25.4628 3.29239 24.2096 4.91976 24.2096C5.48548 24.2096 6.0354 24.3634 6.51464 24.6573C7.36367 25.1723 7.87137 26.0494 7.87137 27.0029C7.87137 27.9565 7.36363 28.8336 6.50891 29.3503C6.03543 29.6425 5.48551 29.7963 4.91976 29.7963C3.29239 29.7963 1.96816 28.543 1.96816 27.0029ZM5.90363 52.1429C4.81831 52.1429 3.93589 51.3078 3.93589 50.2806C3.93589 49.2535 4.81831 48.4184 5.90363 48.4184C6.32661 48.4184 6.71928 48.5402 7.06764 48.7871C7.57056 49.1251 7.87142 49.6829 7.87142 50.2806C7.87142 51.3077 6.98896 52.1429 5.90363 52.1429ZM36.4036 54.0051C35.8607 54.0051 35.4197 53.5877 35.4197 53.074C35.4197 52.7601 35.5919 52.4621 35.8919 52.2809C36.0355 52.1894 36.2077 52.1429 36.4036 52.1429C36.9465 52.1429 37.3875 52.5602 37.3875 53.074C37.3875 53.5877 36.9465 54.0051 36.4036 54.0051ZM45.3577 52.1429H39.1743C38.7671 51.0617 37.6849 50.2806 36.4036 50.2806C36.1712 50.2806 35.9472 50.3122 35.7285 50.3596L28.7184 40.0385L36.9407 27.9341H49.6411L57.8634 40.0385L51.9492 48.7451C51.3865 48.5377 50.79 48.4184 50.1782 48.4184C47.8033 48.4184 45.8158 50.0209 45.3582 52.1428L45.3577 52.1429ZM50.1778 55.8673C48.5504 55.8673 47.2262 54.6141 47.2262 53.074C47.2262 51.5339 48.5504 50.2806 50.1778 50.2806C50.7435 50.2806 51.2934 50.4344 51.7726 50.7283C52.6217 51.2433 53.1294 52.1204 53.1294 53.074C53.1294 54.6141 51.8051 55.8673 50.1778 55.8673Z" fill="#FF5300"/>
<path d="M13.7734 22.3467H21.6444V24.2098H13.7734V22.3467Z" fill="#FF5300"/>
<path d="M23.6133 22.3467H27.5488V24.2098H23.6133V22.3467Z" fill="#FF5300"/>
<path d="M13.7734 26.0693H27.5476V27.9324H13.7734V26.0693Z" fill="#FF5300"/>
<path d="M25.5801 29.7959H27.5478V31.659H25.5801V29.7959Z" fill="#FF5300"/>
<path d="M21.6445 29.7959H23.6123V31.659H21.6445V29.7959Z" fill="#FF5300"/>
<path d="M13.7734 29.7959H19.6767V31.659H13.7734V29.7959Z" fill="#FF5300"/>
<path d="M36.4023 35.3818H44.2733V37.2449H36.4023V35.3818Z" fill="#FF5300"/>
<path d="M46.2422 35.3818H50.1777V37.2449H46.2422V35.3818Z" fill="#FF5300"/>
<path d="M36.4023 39.1084H50.1765V40.9715H36.4023V39.1084Z" fill="#FF5300"/>
<path d="M48.209 42.8311H50.1768V44.6941H48.209V42.8311Z" fill="#FF5300"/>
<path d="M44.2734 42.8311H46.2412V44.6941H44.2734V42.8311Z" fill="#FF5300"/>
<path d="M36.4023 42.8311H42.3056V44.6941H36.4023V42.8311Z" fill="#FF5300"/>
</svg>
