<svg width="64" height="60" viewBox="0 0 64 60" fill="none" xmlns="http://www.w3.org/2000/svg">
<path d="M60.7678 38.3122H60.8801C61.3389 38.3122 61.7126 37.9586 61.7126 37.5244V34.5825C61.7126 34.255 61.4998 33.9744 61.199 33.8554L61.1985 29.4806C61.1985 25.1495 57.4749 21.6252 52.898 21.6252H48.6448C48.2511 20.5969 47.2188 19.8554 45.9983 19.8554H45.0778L44.2643 17.0306C44.1668 16.6887 43.8379 16.4505 43.4623 16.4505H42.9445V12.4842H44.0958C44.5547 12.4842 44.9283 12.1306 44.9283 11.6964V11.5964H46.193C46.8712 12.3419 47.856 12.7783 48.9117 12.7783C50.8913 12.7783 52.5034 11.2545 52.5034 9.38106C52.5034 7.50765 50.8914 5.98376 48.9117 5.98376C47.856 5.98376 46.8712 6.41979 46.193 7.16574H44.9283V6.99683C44.9283 6.5626 44.5547 6.209 44.0958 6.209H36.9976C36.5388 6.209 36.1652 6.5626 36.1652 6.99683V7.16574H34.8253C34.147 6.42025 33.1604 5.98376 32.1066 5.98376C30.127 5.98376 28.5168 7.50765 28.5168 9.38106C28.5168 11.2545 30.127 12.7783 32.1066 12.7783C33.1604 12.7783 34.1471 12.3423 34.8253 11.5964H36.1652V11.6964C36.1652 12.1306 36.5388 12.4842 36.9976 12.4842H38.0757V16.4505H37.556C37.1804 16.4505 36.8515 16.6887 36.7539 17.0306L35.9405 19.8554H35.3731C34.1527 19.8554 33.1209 20.5968 32.7267 21.6252H27.3434C26.1858 17.9721 23.3361 13.8568 20.4127 9.87696C17.4603 5.85131 14.8696 0.513497 14.8453 0.46126C14.7092 0.182428 14.4169 0.00179891 14.0919 0H14.0876C13.7649 0 13.4726 0.177031 13.3341 0.453603C13.3079 0.505405 10.6582 5.81667 7.65483 9.80945C3.79465 14.9455 0.0264587 20.3225 0.000261133 24.632C-0.0221092 28.6172 1.39349 32.3798 3.98607 35.2216C6.60534 38.0924 10.1118 39.6851 13.8601 39.7068H13.9272C19.9416 39.7068 25.0784 35.5775 27.0382 29.8145H32.7166C33.1017 30.8578 34.1408 31.6132 35.3731 31.6132H45.9982C47.2305 31.6132 48.2696 30.8582 48.6546 29.8145H51.8075C52.2159 29.8145 52.5467 30.1276 52.5467 30.5123V33.855C52.2459 33.9735 52.0331 34.2546 52.0331 34.582V37.524C52.0331 37.9582 52.4067 38.3118 52.8656 38.3118H52.976L50.0416 58.7283C50.0093 58.9531 50.0821 59.1796 50.2387 59.3508C50.3972 59.522 50.6266 59.6215 50.866 59.6215H62.8801C63.1195 59.6215 63.349 59.5215 63.5074 59.3508C63.6636 59.1796 63.7369 58.9531 63.7045 58.7283L60.7678 38.3122ZM13.9277 38.1316H13.8691C10.6102 38.114 7.5482 36.7154 5.24586 34.1924C2.91501 31.6388 1.64375 28.2469 1.66605 24.6402C1.68842 20.7915 5.46909 15.4379 9.01222 10.7228C11.146 7.88273 13.0627 4.48948 14.078 2.59082C15.0728 4.50066 16.9472 7.91375 19.0486 10.7768C22.537 15.525 26.2544 20.9146 26.2324 24.7714C26.1896 32.152 20.675 38.1318 13.9281 38.1318L13.9277 38.1316ZM32.5487 28.2397H27.4852C27.738 27.1271 27.8893 25.9722 27.897 24.7789C27.8998 24.2685 27.8422 23.7402 27.7465 23.2014H32.5481L32.5487 28.2397ZM37.8301 10.9091V10.8091C37.8301 10.3748 37.4565 10.0212 36.9976 10.0212H34.4126C34.1323 10.0212 33.8705 10.1555 33.7182 10.3766C33.3588 10.8955 32.7558 11.2028 32.1061 11.2028C31.0442 11.2028 30.1812 10.3861 30.1812 9.38113C30.1812 8.37618 31.0442 7.55949 32.1061 7.55949C32.7558 7.55949 33.3588 7.86716 33.7182 8.38562C33.8705 8.6068 34.1323 8.74102 34.4126 8.74102H36.9976C37.4565 8.74102 37.8301 8.38742 37.8301 7.95319V7.78428H43.2634V7.95365C43.2634 8.38788 43.637 8.74148 44.0959 8.74148H46.6075C46.8879 8.74148 47.1497 8.60725 47.3039 8.38382C47.6613 7.86716 48.262 7.55951 48.9122 7.55951C49.9764 7.55951 50.8388 8.37617 50.8388 9.38114C50.8388 10.3861 49.9759 11.2028 48.9122 11.2028C48.2625 11.2028 47.6613 10.8951 47.3039 10.3784C47.1497 10.1555 46.8874 10.0208 46.6075 10.0208L44.0959 10.0212C43.637 10.0212 43.2634 10.3748 43.2634 10.8091V10.9091L37.8301 10.9091ZM41.2799 12.4847V16.451H39.7406V12.4847H41.2799ZM38.1913 18.0262H42.8268L43.3546 19.8554H37.6634L38.1913 18.0262ZM47.1577 28.9405C47.1577 29.5459 46.6379 30.0378 45.9982 30.0378H35.3731C34.7334 30.0378 34.2136 29.5459 34.2136 28.9405V22.5302C34.2136 21.923 34.7334 21.4311 35.3731 21.4311H45.9982C46.6379 21.4311 47.1577 21.923 47.1577 22.5302V28.9405ZM51.8074 28.2396H48.8226V23.2014H52.8979C56.5566 23.2014 59.5334 26.0185 59.5334 29.4811V33.795H54.2115V30.513C54.2115 29.2599 53.1334 28.2396 51.8074 28.2396ZM60.047 35.3702V36.7365H53.6981V35.3702H60.047ZM51.8179 58.0458L54.6547 38.3188H55.9069L56.0497 46.3585C56.0578 46.7887 56.4296 47.1328 56.8822 47.1328H56.8965C57.3553 47.1251 57.7209 46.7657 57.7147 46.3314L57.5728 38.3189H59.0897L61.9285 58.0458L51.8179 58.0458Z" fill="#FF5300"/>
<path d="M55.612 48.5829C55.1613 48.5405 54.7491 48.8594 54.7043 49.2919L54.0037 56.1999C53.9609 56.6324 54.2959 57.0166 54.7529 57.0589C54.779 57.0607 54.8057 57.063 54.8319 57.063C55.2564 57.063 55.6177 56.7576 55.6601 56.3499L56.3607 49.4419C56.404 49.0094 56.0689 48.6252 55.612 48.5829Z" fill="#FF5300"/>
<path d="M58.3177 48.7732C57.8608 48.8173 57.5257 49.2015 57.5704 49.634L58.2996 56.6479C58.3424 57.0551 58.7037 57.3587 59.1278 57.3587C59.154 57.3587 59.1806 57.3569 59.2092 57.3546C59.6661 57.3105 60.0012 56.9263 59.9565 56.4938L59.2273 49.4799C59.183 49.0479 58.8174 48.7461 58.3177 48.7732Z" fill="#FF5300"/>
<path d="M17.5979 17.9716C17.3095 17.8392 17.0129 17.7238 16.7107 17.6238L16.5155 16.3383C16.428 15.7446 15.8863 15.2969 15.2509 15.2969L12.6216 15.3009C11.9943 15.3009 11.4521 15.7469 11.3589 16.3406L11.168 17.6298C10.8677 17.7298 10.5731 17.8469 10.2827 17.9793L9.17798 17.1974C8.6744 16.8397 7.95996 16.8861 7.51108 17.3127L5.6491 19.0766C5.20835 19.5014 5.1598 20.1775 5.53725 20.6505L6.36544 21.696C6.22741 21.9689 6.10556 22.2473 5.9999 22.5338L4.62909 22.7203C4.00986 22.8086 3.54102 23.3216 3.54102 23.9153L3.5453 26.4031C3.5453 27.0026 4.01842 27.5157 4.64384 27.5981L6.00612 27.7787C6.11179 28.0652 6.23554 28.3436 6.37547 28.6166L5.54919 29.6638C5.17365 30.1404 5.22409 30.8165 5.67103 31.2395L7.53118 32.9976C7.97813 33.4165 8.69255 33.4665 9.19808 33.1071L10.3028 32.3233C10.5913 32.4539 10.8878 32.571 11.1881 32.6692L11.3833 33.9584C11.4728 34.5503 12.0149 34.9963 12.648 34.9963L15.2772 34.9922C15.9026 34.9922 16.4448 34.5485 16.5399 33.9544L16.7308 32.663C17.0311 32.563 17.3258 32.4459 17.6161 32.3134L18.7208 33.0954C19.2201 33.449 19.9413 33.4049 20.3877 32.9819L22.2455 31.2198C22.69 30.799 22.7409 30.1207 22.3635 29.6441C22.3635 29.6441 22.3635 29.6423 22.3616 29.6423L21.5334 28.5968C21.6714 28.3238 21.7952 28.0432 21.8989 27.759L23.2612 27.5743C23.8866 27.4896 24.3579 26.9765 24.3579 26.3774L24.3536 23.8892C24.3536 23.2914 23.8824 22.7806 23.2593 22.6959L21.8928 22.5135C21.7871 22.2292 21.6634 21.9486 21.5234 21.6756L22.3497 20.6301C22.7252 20.1554 22.6748 19.4792 22.2298 19.0526L20.364 17.2914C19.9171 16.8766 19.2007 16.8243 18.701 17.1878L17.5979 17.9716ZM20.816 19.9432L19.8759 21.1324C19.677 21.3824 19.6546 21.7202 19.8193 21.9932C20.0953 22.4504 20.3086 22.9364 20.4547 23.4341C20.5442 23.7359 20.8121 23.9589 21.1391 24.0031L22.6903 24.2107L22.6922 26.0612L21.141 26.2742C20.814 26.3184 20.5461 26.5432 20.459 26.845C20.3147 27.3427 20.1015 27.8269 19.8273 28.2859C19.665 28.5589 19.6893 28.8972 19.8883 29.1467L20.8302 30.3323L19.4475 31.6449L18.191 30.7553C17.9268 30.5688 17.5717 30.544 17.2814 30.7017C16.7959 30.9629 16.2823 31.1665 15.7607 31.303C15.4399 31.3877 15.2043 31.6413 15.1577 31.9526L14.9406 33.4188L12.9835 33.4206L12.7583 31.9527C12.7117 31.6432 12.4742 31.3896 12.1553 31.3072C11.6293 31.1707 11.1177 30.9689 10.6326 30.7094C10.5046 30.6423 10.3623 30.6076 10.2224 30.6076C10.0458 30.6076 9.86919 30.6612 9.72306 30.7671L8.47032 31.6585L7.08575 30.3499L8.02389 29.1608C8.22285 28.9108 8.24522 28.5729 8.08053 28.3C7.80447 27.8428 7.59124 27.3585 7.44511 26.8609C7.35563 26.5573 7.08766 26.3343 6.75876 26.2901L5.20945 26.0847L5.20755 24.2325L6.75869 24.0195C7.08568 23.9753 7.35365 23.7524 7.44076 23.4506C7.58498 22.9492 7.79822 22.465 8.07238 22.0073C8.23468 21.7343 8.21041 21.396 8.01146 21.1465L7.0695 19.9609L8.45225 18.6483L9.70876 19.5379C9.97292 19.7244 10.3261 19.7456 10.6183 19.5915C11.1057 19.3285 11.6174 19.1267 12.1372 18.992C12.458 18.9091 12.6955 18.6537 12.7421 18.3424L12.9592 16.8745L14.9163 16.8727L15.1415 18.3406C15.1881 18.6501 15.4256 18.9037 15.7445 18.9861C16.2724 19.1226 16.784 19.3244 17.2652 19.5839C17.5574 19.7415 17.913 19.7204 18.1767 19.5285L19.4314 18.637L20.816 19.9432Z" fill="#FF5300"/>
<path d="M10.9821 22.3504C9.35144 23.8991 9.3557 26.4162 10.9902 27.9612C11.8065 28.7319 12.8784 29.1179 13.9508 29.1179C15.0251 29.1179 16.1012 28.7296 16.9194 27.9534C18.5501 26.4047 18.5477 23.8877 16.9113 22.3427C15.2768 20.7999 12.6166 20.7999 10.9821 22.3504ZM15.7415 26.8432C14.7548 27.777 13.1507 27.777 12.1641 26.8472C11.1793 25.9153 11.1774 24.3973 12.1598 23.4617C12.6534 22.9946 13.3031 22.7604 13.9509 22.7604C14.5986 22.7604 15.244 22.9928 15.7377 23.4581C16.7244 24.3892 16.7262 25.9095 15.7415 26.8432Z" fill="#FF5300"/>
</svg>
