<svg width="40" height="58" viewBox="0 0 40 58" fill="none" xmlns="http://www.w3.org/2000/svg">
<path d="M34.4125 5.95832C30.5755 2.14215 25.3839 0 19.9722 0C14.5606 0 9.36898 2.14215 5.53197 5.95832C3.68004 7.78963 2.23256 9.98882 1.2829 12.414C0.333251 14.8392 -0.0974849 17.4365 0.0184827 20.0384C0.169283 25.0194 2.10068 30.2464 5.45599 34.7519L8.64675 39.0371C11.7237 43.1695 5.71988 47.9428 5.71988 53.0949C5.71988 56.318 12.8893 58 19.9705 58C27.0517 58 34.2223 56.318 34.2223 53.0949C34.2223 47.9418 28.2197 43.1682 31.2975 39.0352L34.4873 34.7519C37.689 30.5686 39.5774 25.5293 39.9132 20.2721C40.0665 17.6324 39.6551 14.9902 38.7066 12.522C37.758 10.0537 36.2941 7.81611 34.4125 5.95832ZM32.6331 53.0949C32.6334 53.0949 32.6336 53.0952 32.6336 53.0955C32.6329 53.65 31.5888 54.5284 29.2551 55.2409C26.2311 56.068 23.1051 56.4619 19.9705 56.4108C16.8374 56.4614 13.713 56.0676 10.6905 55.2409C8.35657 54.5281 7.31199 53.6494 7.31199 53.0949C7.31199 52.3293 9.07374 51.2237 12.4396 50.5032C15.0833 49.9373 17.7185 51.22 19.3325 53.389C19.4064 53.4886 19.5026 53.5695 19.6134 53.6252C19.7242 53.6809 19.8465 53.7099 19.9705 53.7099C20.0945 53.7099 20.2168 53.6809 20.3276 53.6252C20.4384 53.5695 20.5346 53.4886 20.6085 53.389L21.0175 52.8397C22.3798 51.0106 24.5963 49.9474 26.838 50.3672C30.6369 51.0787 32.6316 52.2769 32.6325 53.0944C32.6325 53.0947 32.6327 53.0949 32.6331 53.0949ZM33.2131 33.8024C33.2133 33.8024 33.2134 33.8027 33.2133 33.8029L25.3036 44.4232C22.6446 47.9935 17.2966 47.9933 14.6379 44.4229L6.72966 33.803C1.03696 26.1574 -1.19372 14.9303 6.65427 7.08236C10.1933 3.56406 14.9808 1.58923 19.9711 1.58923C24.9614 1.58923 29.7489 3.56406 33.2879 7.08236C41.1351 14.9296 38.9047 26.1575 33.2128 33.8019C33.2127 33.8021 33.2128 33.8024 33.2131 33.8024ZM19.9705 5.7095C17.1617 5.70984 14.4162 6.54307 12.081 8.10382C9.74576 9.66456 7.92581 11.8827 6.85127 14.4778C5.77672 17.0729 5.49584 19.9283 6.04414 22.6831C6.59244 25.4378 7.94529 27.968 9.93162 29.9539C11.918 31.9397 14.4485 33.292 17.2034 33.8396C19.9583 34.3872 22.8136 34.1056 25.4084 33.0304C28.0033 31.9553 30.221 30.1348 31.7811 27.7992C33.3413 25.4636 34.1739 22.7178 34.1735 19.9091C34.1689 16.1439 32.671 12.5344 30.0083 9.87231C27.3456 7.21028 23.7356 5.71318 19.9705 5.7095ZM19.9705 32.5217C17.4763 32.5213 15.0383 31.7813 12.9647 30.3953C10.891 29.0093 9.27494 27.0395 8.32073 24.7351C7.36651 22.4307 7.11702 19.8951 7.60381 17.4488C8.0906 15.0026 9.29179 12.7557 11.0555 10.9921C12.8193 9.22855 15.0663 8.02756 17.5126 7.541C19.9588 7.05444 22.4944 7.30416 24.7988 8.25858C27.1031 9.21301 29.0727 10.8293 30.4585 12.903C31.8443 14.9768 32.5841 17.4149 32.5843 19.9091C32.5805 23.2532 31.2503 26.4592 28.8855 28.8237C26.5208 31.1883 23.3146 32.5182 19.9705 32.5217ZM19.7176 12.4271L9.8576 15.7331C9.69926 15.7857 9.56152 15.8869 9.4639 16.0222C9.36628 16.1576 9.31375 16.3202 9.31375 16.4871C9.31375 16.6539 9.36628 16.8166 9.4639 16.9519C9.56152 17.0872 9.69926 17.1884 9.8576 17.2411C11.6941 17.8575 12.9316 19.5782 12.9316 21.5154V25.3535C12.9315 25.5365 12.9946 25.7139 13.1102 25.8558C13.2258 25.9976 13.3869 26.0951 13.5661 26.1319L19.8075 27.4183C19.8611 27.4292 19.9158 27.4345 19.9705 27.434C20.0245 27.4341 20.0783 27.4286 20.1311 27.4177L26.372 26.1313C26.5512 26.0946 26.7123 25.997 26.8279 25.8552C26.9435 25.7133 27.0066 25.5359 27.0065 25.3529V21.516C27.0065 19.5788 28.2439 17.8581 30.0805 17.2416C30.2388 17.189 30.3766 17.0878 30.4742 16.9525C30.5718 16.8171 30.6243 16.6545 30.6243 16.4876C30.6243 16.3208 30.5718 16.1581 30.4742 16.0228C30.3766 15.8875 30.2388 15.7863 30.0805 15.7336L20.2205 12.4276C20.0575 12.3731 19.8807 12.3729 19.7176 12.4271ZM25.4181 22.5298C25.4179 23.7979 24.5265 24.8914 23.2843 25.1469L21.068 25.6028C20.3439 25.7517 19.5971 25.7517 18.873 25.6027L16.659 25.1472C15.4162 24.8915 14.5243 23.7974 14.5243 22.5286V19.0862C14.5243 18.9488 14.6591 18.8519 14.7893 18.8958L19.7194 20.5465C19.8831 20.6014 20.0602 20.6014 20.2239 20.5465L20.2956 20.5225C21.1975 20.2206 22.1298 20.8917 22.1298 21.8428C22.127 21.949 22.1454 22.0547 22.1841 22.1536C22.2227 22.2526 22.2808 22.3428 22.3549 22.4189C22.429 22.495 22.5176 22.5555 22.6155 22.5968C22.7133 22.6382 22.8185 22.6594 22.9247 22.6594C23.031 22.6594 23.1361 22.6382 23.234 22.5968C23.3318 22.5555 23.4204 22.495 23.4945 22.4189C23.5686 22.3428 23.6267 22.2526 23.6654 22.1536C23.704 22.0547 23.7225 21.949 23.7196 21.8428V20.8886C23.7196 19.9851 24.2972 19.1827 25.154 18.8958C25.2838 18.8519 25.4184 18.9486 25.4184 19.0856L25.4181 22.5298ZM23.9473 17.6222C23.8351 17.6598 23.719 17.5763 23.719 17.458C23.719 17.2942 23.6684 17.1345 23.5741 17.0006C23.4798 16.8666 23.3465 16.7651 23.1924 16.7098L19.5204 15.3943C19.322 15.3232 19.1034 15.3338 18.9128 15.4238C18.7222 15.5138 18.5751 15.6759 18.504 15.8743C18.4328 16.0727 18.4434 16.2913 18.5334 16.4819C18.6234 16.6725 18.7855 16.8196 18.9839 16.8907L22.0286 17.9811C22.089 18.0027 22.1293 18.0599 22.1293 18.124C22.1293 18.1894 22.0875 18.2474 22.0255 18.2681L20.6551 18.7258C20.2108 18.8741 19.7247 18.872 19.2806 18.7232C17.1524 18.0101 17.0983 14.9823 19.2262 14.2683C19.7091 14.1063 20.2318 14.1063 20.7148 14.2683L24.8675 15.6617C25.6598 15.9276 25.6596 17.0483 24.8672 17.3139L23.9473 17.6222Z" fill="#FF5300"/>
</svg>
