<svg width="56" height="70" viewBox="0 0 56 70" fill="none" xmlns="http://www.w3.org/2000/svg">
<path d="M53.8874 55.205C52.6532 53.9706 51.2246 52.7271 50.5442 51.1195C49.5981 48.8843 48.1886 46.3602 46.3856 43.6658C43.7189 39.6808 43.7241 34.4312 46.3931 30.4476C50.8636 23.7751 53.6339 17.073 50.6624 14.1013C48.7236 12.1622 45.3357 12.7239 41.9327 14.142C38.8584 15.4232 35.0372 13.5174 33.7089 10.4632C33.058 8.96646 33.384 7.61365 33.4791 5.98429C33.4846 5.88979 33.4875 5.79515 33.4875 5.70051C33.4875 2.55023 30.9375 0 27.7875 0C24.6375 0 22.0875 2.55023 22.0875 5.70051C22.0875 5.77504 22.0888 5.84913 22.0915 5.92281C22.1517 7.58891 22.496 9.00462 21.8342 10.5348C20.5323 13.5455 16.7815 15.4198 13.7659 14.1294C10.2545 12.6268 6.73999 11.9736 4.76249 13.9513C1.79613 16.9179 4.59365 23.6857 9.10308 30.3893C11.8029 34.4028 11.8062 39.7075 9.10755 43.7217C7.2975 46.4141 5.87754 48.9492 4.93137 51.1872C4.26138 52.7719 2.90406 53.9883 1.6875 55.205C-0.562499 57.4552 -0.562499 61.0555 1.6875 63.2307C2.7375 64.2808 4.1625 64.8808 5.73749 64.8808C7.31249 64.8808 8.66249 64.2808 9.78749 63.2307C9.82707 63.1911 9.86588 63.1512 9.90394 63.1111C11.017 61.9376 11.7783 60.7952 13.2794 60.1926C16.4139 58.9341 20.4778 60.291 21.7687 63.4123C23.1945 66.8595 25.2097 69.6813 27.9375 69.6813C30.7215 69.6813 32.7304 66.8104 34.1418 63.3244C35.4052 60.204 39.4596 58.832 42.5956 60.0561C44.0973 60.6423 44.8664 61.7601 45.892 63.0038C45.9549 63.0802 46.0201 63.1558 46.0875 63.2307C47.2125 64.3558 48.6374 64.8808 50.1374 64.8808C51.6374 64.8808 53.0624 64.3558 54.1874 63.2307C56.1374 61.0555 56.1374 57.4552 53.8874 55.205ZM33.7125 52.6547C33.3187 52.3922 32.9249 52.0722 32.5312 51.7953C32.4199 51.7171 32.3105 51.6327 32.1974 51.5571C32.1028 51.4938 32.0157 51.4217 31.9241 51.3541C31.5594 51.0851 31.1914 50.7831 30.7952 50.4733C30.5424 50.2755 30.3246 50.0231 30.0375 49.8795C29.8697 49.7676 29.7436 49.614 29.597 49.4809C29.519 49.4101 29.5126 49.2793 29.5871 49.2048C29.5911 49.2008 29.5896 49.2027 29.5939 49.1991C30.4164 48.5254 31.1644 47.7775 31.9125 47.1042C32.1884 46.8283 32.5098 46.597 32.7946 46.3302C33.4555 45.7111 34.0836 45.0829 34.7625 44.404C34.9099 44.2566 35.0251 44.1413 35.1503 44.0161C35.2286 43.9378 35.3625 43.9932 35.3625 44.104C35.2875 44.704 35.2875 45.3041 35.2125 45.9041C35.2125 46.0541 35.2125 46.1291 35.2125 46.2791C35.1375 46.9542 35.0625 47.7043 34.9875 48.3793C34.9875 48.7825 34.8843 49.1798 34.8232 49.5784C34.8115 49.6548 34.7998 49.7308 34.788 49.807C34.7193 50.2545 34.6125 50.7018 34.6125 51.1546C34.5379 51.7511 34.4634 52.2735 34.3151 52.8691C34.3134 52.8761 34.3125 52.8834 34.3125 52.8907C34.3125 52.9697 34.1971 53.0361 34.1318 52.9915C34.1212 52.9843 34.1106 52.9761 34.0999 52.9665C34.0915 52.959 34.085 52.9495 34.0795 52.9396C34.0022 52.7996 33.8573 52.7272 33.7125 52.6547ZM25.144 50.035C25.0324 50.103 24.9616 50.2237 24.8611 50.3073C24.3866 50.7023 23.912 51.0478 23.4375 51.4546C23.3625 51.5296 23.2125 51.6046 23.1375 51.6796C22.8134 51.9497 22.4894 52.1809 22.1654 52.4291C21.9107 52.6243 21.6393 52.8029 21.4125 53.0298C21.3416 53.1007 21.1718 53.0081 21.1302 52.9168C21.1273 52.9105 21.1243 52.9041 21.1212 52.8975C21.1155 52.8857 21.1115 52.8732 21.1097 52.8603C21.0513 52.4497 20.9928 51.9948 20.9344 51.5663C20.9038 51.342 20.8872 51.1154 20.85 50.8921C20.8128 50.6688 20.7965 50.442 20.7643 50.2179C20.7367 50.0262 20.7091 49.8366 20.6816 49.6529C20.6217 49.2541 20.5125 48.8576 20.5125 48.4543C20.4375 47.7793 20.3625 47.0292 20.2875 46.3542C20.2875 46.2041 20.2875 46.1291 20.2875 45.9791C20.2125 45.3791 20.2125 44.779 20.1375 44.179C20.1375 44.0683 20.2713 44.0128 20.3496 44.0911C20.4289 44.1704 20.5082 44.2497 20.5875 44.329C21.4125 45.154 22.2375 45.9041 23.0625 46.7292C23.3384 47.0052 23.6594 47.2369 23.9451 47.5028C24.6058 48.1179 25.2337 48.724 25.9125 49.2794C25.9711 49.338 25.9797 49.542 25.9162 49.5953C25.8128 49.6821 25.7156 49.7768 25.6005 49.8915C25.5601 49.9318 25.5053 49.9536 25.4484 49.9569C25.3153 49.9647 25.2168 49.9907 25.144 50.035ZM21.7125 21.5269C22.117 21.7967 22.5216 22.127 22.9807 22.4635C23.0846 22.5397 23.1621 22.6126 23.2631 22.6925C23.3589 22.7683 23.4877 22.8374 23.5859 22.91C23.9474 23.1771 24.3122 23.4764 24.7047 23.7834C24.9576 23.9812 25.1753 24.2336 25.4625 24.3772C25.6274 24.4871 25.752 24.6373 25.8953 24.7688C25.977 24.8437 25.9912 25.0003 25.8884 25.0416C25.8508 25.0567 25.8203 25.0662 25.7891 25.092C24.983 25.7567 24.2463 26.4921 23.4375 27.2274C23.1615 27.5034 22.8402 27.7346 22.5555 28.0016C21.8745 28.6405 21.1935 29.3216 20.5125 30.0027C20.4332 30.082 20.3539 30.1613 20.2746 30.2406C20.1963 30.3189 20.0625 30.2634 20.0625 30.1527C20.1375 29.5527 20.1375 28.8776 20.2125 28.2775C20.2125 28.2025 20.2125 28.0525 20.2125 27.9775C20.2875 27.2274 20.3625 26.5524 20.4375 25.8773C20.4375 25.4739 20.5407 25.0768 20.6018 24.678C20.6306 24.4904 20.6593 24.3051 20.6881 24.1135C20.7217 23.8897 20.7378 23.6629 20.775 23.4396C20.8122 23.2163 20.8288 22.9896 20.8594 22.7653C20.9178 22.3374 20.9761 21.8829 21.0345 21.4727C21.0365 21.4588 21.0374 21.4449 21.0375 21.4309C21.0376 21.4126 21.038 21.3915 21.0395 21.369C21.0475 21.2401 21.2032 21.1963 21.3061 21.2745C21.3261 21.2897 21.3491 21.3075 21.3712 21.3194C21.4996 21.3886 21.5741 21.4578 21.7125 21.5269ZM30.3023 24.1784C30.4199 24.1021 30.541 24.0306 30.6489 23.941C31.1201 23.5495 31.5913 23.206 32.0625 22.802C32.1375 22.727 32.2875 22.652 32.3625 22.577C32.8125 22.202 33.2625 21.902 33.7125 21.6019C33.8625 21.5269 33.9375 21.4519 34.0875 21.3019C34.0993 21.2901 34.1111 21.2801 34.1229 21.2715C34.1898 21.2223 34.3125 21.2939 34.3125 21.3769C34.3715 21.8493 34.4305 22.2752 34.5262 22.7278C34.5789 22.9774 34.6188 23.2269 34.6647 23.4778C34.6913 23.6231 34.6979 23.7755 34.7188 23.9216C34.7583 24.1982 34.7978 24.4748 34.8373 24.7514C34.8874 25.1015 34.9875 25.4486 34.9875 25.8023C35.0625 26.4774 35.1375 27.2274 35.2125 27.9775C35.2125 28.0525 35.2125 28.1275 35.2125 28.2025C35.2875 28.8776 35.2875 29.5527 35.3625 30.2277C35.3625 30.3107 35.2621 30.3523 35.2034 30.2936C35.0566 30.1468 34.9304 30.0206 34.7625 29.8527C34.0125 29.1026 33.1875 28.3525 32.4375 27.6025C32.2875 27.4525 32.1375 27.3025 31.9875 27.1524C31.2375 26.4024 30.4125 25.7273 29.6625 25.0522C29.5649 24.9547 29.583 24.8582 29.6906 24.7718C29.789 24.6927 29.8792 24.6081 29.9807 24.5083C30.0684 24.422 30.1342 24.313 30.2279 24.2332C30.2512 24.2134 30.2762 24.1953 30.3023 24.1784ZM34.4625 41.4787C34.0125 41.9288 33.6375 42.3038 33.2625 42.7538C32.4968 43.5196 31.7311 44.2854 30.9654 44.9911C30.8477 45.0997 30.7132 45.1909 30.6 45.3041C30.4868 45.4173 30.3522 45.5086 30.2344 45.6169C29.4785 46.3123 28.7778 47.0031 28.0125 47.6293C27.8882 47.7535 27.6867 47.7535 27.5625 47.6293C26.7375 46.8792 25.9125 46.1291 25.0875 45.3791C25.0125 45.3041 24.8625 45.154 24.7875 45.079C23.8875 44.254 23.0625 43.4289 22.2375 42.6038C21.8625 42.2288 21.4875 41.8538 21.1125 41.4037C20.9625 41.2537 20.8125 41.1037 20.6625 40.9537C20.2783 40.5695 20.0625 40.0484 20.0625 39.5051C20.0625 39.4638 20.0625 39.4217 20.0625 39.3785C20.0625 39.2285 20.0625 39.0035 20.0625 38.8535C20.0625 38.2534 20.0625 37.7284 20.0625 37.2033C20.0625 36.6033 20.0625 36.0032 20.0625 35.4782C20.0625 35.2532 20.0625 35.1031 20.0625 34.8781C20.0625 34.8714 20.0625 34.8646 20.0625 34.8577C20.0625 34.2465 20.3053 33.6602 20.7375 33.228C20.9874 32.978 21.2397 32.7253 21.4817 32.4676C21.7398 32.1926 22.0091 31.9057 22.3125 31.6528C23.1375 30.8278 24.0375 30.0027 24.8625 29.1776C25.0125 29.0276 25.0875 28.9526 25.2375 28.8026C26.0625 28.0525 26.8875 27.3025 27.7125 26.5524C27.8367 26.4281 28.0382 26.4281 28.1625 26.5524C28.9875 27.2274 29.8125 27.9775 30.5625 28.7276C30.6375 28.8026 30.7875 28.9526 30.8625 29.0276C31.6875 29.8527 32.5125 30.6027 33.3375 31.4278C33.7125 31.8029 34.1625 32.2529 34.5375 32.7029C34.6875 32.8529 34.7625 32.928 34.9125 33.078C34.9149 33.0804 34.9174 33.0829 34.9199 33.0854C35.3953 33.5609 35.6625 34.2058 35.6625 34.8781C35.6625 35.0281 35.6625 35.2532 35.6625 35.4032C35.6625 36.0032 35.6625 36.6033 35.6625 37.2033C35.6625 37.7284 35.6625 38.3284 35.6625 38.8535C35.6625 39.0785 35.6625 39.3035 35.6625 39.4535C35.6625 39.4967 35.6625 39.54 35.6625 39.5832C35.6625 40.0765 35.4665 40.5496 35.1177 40.8984C35.0311 40.9851 34.9348 41.0612 34.838 41.1362C34.6908 41.2504 34.5766 41.3646 34.4625 41.4787ZM17.5875 37.2033C17.5875 37.4248 17.3173 37.5369 17.1825 37.3613C17.1436 37.3107 17.1066 37.2582 17.0721 37.2034C17.0173 37.1163 17.0391 37.0025 17.108 36.9261C17.2663 36.7503 17.5875 36.8564 17.5875 37.0929C17.5875 37.1297 17.5875 37.1665 17.5875 37.2033ZM37.8375 37.2033C37.8375 37.1514 37.8375 37.1017 37.8375 37.0535C37.8375 36.8043 38.153 36.6891 38.3103 36.8824C38.3944 36.9856 38.3692 37.1207 38.2815 37.2209C38.2483 37.2588 38.2162 37.2967 38.1844 37.3346C38.06 37.4831 37.8375 37.3971 37.8375 37.2033ZM49.0874 15.6764C51.0151 17.6042 48.1789 25.2491 40.2167 34.9883C40.0867 35.1473 39.7718 35.167 39.6609 34.9942C39.6444 34.9685 39.6264 34.9422 39.605 34.9204C39.0938 34.4033 38.6516 33.8172 38.1375 33.303C37.9062 33.0717 37.7755 32.7205 37.7469 32.3947C37.7404 32.3215 37.7314 32.2482 37.7186 32.175C37.7013 32.0766 37.6875 31.9774 37.6875 31.8774C37.6875 31.7026 37.6875 31.5277 37.6875 31.3528C37.6875 30.9028 37.6125 30.4527 37.6125 30.0027C37.6125 29.8527 37.6125 29.7027 37.6125 29.4776C37.5375 28.8776 37.4625 28.2775 37.4625 27.6775C37.4625 27.3225 37.3514 26.9757 37.3188 26.6223C37.3084 26.5095 37.2987 26.396 37.2865 26.285C37.262 26.0626 37.2402 25.8658 37.206 25.6448C37.1636 25.3702 37.1273 25.0657 37.0959 24.7897C37.0886 24.7262 37.0818 24.6623 37.0744 24.599C37.0451 24.3502 37.0104 24.1002 36.975 23.8521C36.9395 23.6041 36.9044 23.3542 36.8724 23.1058C36.8497 22.9295 36.8315 22.7533 36.7875 22.577C36.7125 22.352 36.7125 22.052 36.6375 21.827C36.5625 21.5269 36.5625 21.2269 36.4875 21.0019C36.4233 20.8093 36.414 20.5618 36.3657 20.3534C36.3499 20.2853 36.3395 20.2168 36.3273 20.148C36.289 19.9318 36.3758 19.7275 36.5604 19.6085C43.5109 15.1307 47.8303 14.4192 49.0874 15.6764ZM27.7125 2.2502C29.5875 2.2502 31.1625 3.82534 31.1625 5.70051C31.1625 6.45058 30.9375 7.12564 30.4875 7.72569C29.8125 8.62577 28.8375 9.15082 27.7125 9.15082C27.4125 9.15082 27.1875 9.15082 26.8875 9.07581C26.6826 9.00753 26.4156 8.93924 26.1997 8.81436C26.1583 8.79047 26.1058 8.77988 26.0713 8.74696C26.0249 8.70273 25.9632 8.67257 25.9068 8.64211C25.8687 8.62151 25.8305 8.6064 25.7924 8.57704C25.7714 8.56087 25.7518 8.54285 25.7308 8.52672C25.5868 8.4162 25.4427 8.28902 25.2987 8.15345C25.0025 7.87461 24.7232 7.57094 24.5394 7.208C24.3048 6.74461 24.1875 6.24212 24.1875 5.70051C24.2625 3.82534 25.8375 2.2502 27.7125 2.2502ZM24.2155 10.3705C24.2386 10.3237 24.3006 10.314 24.3375 10.3509C24.464 10.4774 24.6437 10.5506 24.7869 10.6603C24.8378 10.6993 24.8999 10.7279 24.9463 10.7721C24.9808 10.8051 25.0334 10.8155 25.0742 10.8403C25.2724 10.9605 25.4758 11.0282 25.7354 11.0942C25.7534 11.0987 25.7765 11.1008 25.7951 11.1012C25.8926 11.1033 25.9748 11.1973 26.0677 11.2271C26.2375 11.2817 26.3972 11.326 26.5125 11.326C26.6729 11.326 26.8191 11.4257 26.9779 11.4484C27.171 11.476 27.3475 11.476 27.5625 11.476C27.8346 11.476 28.045 11.476 28.3056 11.4201C28.3602 11.4083 28.4092 11.4045 28.4646 11.398C28.5698 11.3856 28.6645 11.3067 28.768 11.2841C28.8867 11.2581 29.0004 11.2438 29.0975 11.2178C29.1754 11.197 29.2468 11.1862 29.325 11.1666C29.4032 11.1471 29.4775 11.0883 29.5526 11.0591C29.7295 10.9903 29.9326 10.8952 30.1059 10.83C30.1596 10.8098 30.2219 10.8041 30.2625 10.7635C30.3031 10.7229 30.3658 10.7179 30.4182 10.6946C30.5991 10.6144 30.7377 10.4849 30.9316 10.3549C30.9355 10.3523 30.9391 10.3493 30.9425 10.3459C30.9769 10.3115 31.0348 10.3205 31.0563 10.3642C31.9954 12.2651 32.8718 14.7667 33.5234 17.7611C33.6408 18.3009 33.3987 18.8797 32.9628 19.2191C32.917 19.2548 32.8677 19.2985 32.822 19.3345C32.7803 19.3674 32.7352 19.397 32.689 19.4255C32.4637 19.5644 32.2476 19.7204 32.0302 19.8713C31.5846 20.1807 31.1669 20.5263 30.7081 20.8737C30.6623 20.9083 30.6019 20.9249 30.5614 20.9655C30.5223 21.0045 30.4633 21.0191 30.4186 21.0515C29.9165 21.4163 29.4145 21.8466 28.9125 22.277C28.7121 22.4106 28.5712 22.5442 28.3838 22.6778C28.3369 22.7113 28.2928 22.7477 28.2499 22.7861C27.8901 23.1087 27.2348 23.1087 26.875 22.7861C26.8321 22.7477 26.788 22.7113 26.7412 22.6778C26.5538 22.5433 26.4129 22.4024 26.2125 22.202C25.6875 21.752 25.1625 21.3769 24.6375 20.9269C24.5376 20.827 24.4306 20.7346 24.3184 20.6487C23.8977 20.3267 23.5083 20.0084 23.0948 19.7213C22.8774 19.5704 22.6612 19.4144 22.4359 19.2754C22.3924 19.2486 22.3499 19.2208 22.3102 19.1902C22.2593 19.1509 22.2059 19.1029 22.1541 19.0647C21.7058 18.7334 21.5081 18.1732 21.6585 17.6364C22.4642 14.7615 23.2808 12.2681 24.2155 10.3705ZM6.18749 15.6014C6.56249 15.2264 7.16249 15.0013 7.98749 15.0013C10.1136 15.0013 13.7446 16.2914 18.6704 19.5021C18.8838 19.6412 18.9858 19.8853 18.9477 20.1372C18.9355 20.2179 18.9229 20.291 18.9041 20.3704C18.8602 20.5559 18.8493 20.7414 18.7875 20.9269C18.7414 21.1113 18.7236 21.3242 18.6993 21.5305C18.6701 21.7791 18.6346 22.0291 18.5939 22.2761C18.5611 22.475 18.54 22.6763 18.514 22.8762C18.4941 23.0291 18.4808 23.1754 18.4609 23.3283C18.4349 23.528 18.411 23.7572 18.375 23.9553C18.339 24.1534 18.315 24.3263 18.2909 24.5263C18.2672 24.7235 18.2529 24.926 18.2272 25.1443C18.205 25.3332 18.1828 25.5246 18.1457 25.7112C18.1138 25.8714 18.0997 26.0334 18.082 26.1958C18.0463 26.5234 18.0322 26.8293 17.9987 27.1546C17.9783 27.3533 17.9625 27.5527 17.9625 27.7525C17.8875 28.3525 17.8875 28.9526 17.8125 29.5527C17.8125 29.7027 17.8125 29.7777 17.8125 29.9277C17.8125 30.3777 17.7375 30.9028 17.7375 31.3528C17.7375 31.5778 17.7375 31.8029 17.7375 31.9529C17.7375 32.0751 17.7375 32.2098 17.7324 32.3468C17.7182 32.7302 17.5588 33.1067 17.2875 33.378C16.7733 33.8922 16.3311 34.4784 15.8199 34.9956C15.7985 35.0172 15.7806 35.0435 15.7641 35.0691C15.6534 35.2418 15.3385 35.2216 15.2091 35.0624C7.17016 25.1746 4.25959 17.4553 6.18749 15.6014ZM5.51249 62.7056C4.61249 62.7056 3.7125 62.3306 3.0375 61.7305C1.6875 60.3804 1.6875 58.2052 3.0375 56.8551C3.4369 56.4557 3.87971 56.1865 4.39895 56.0145C4.73426 55.9034 5.08427 55.805 5.43749 55.805C5.51249 55.805 5.51249 55.805 5.58749 55.805C5.81249 55.805 5.96249 55.805 6.18749 55.88C6.40265 55.9517 6.54922 55.9549 6.75837 56.0206C6.77767 56.0267 6.79781 56.03 6.81805 56.03C6.84728 56.03 6.87602 56.0369 6.9025 56.0493C7.0504 56.1184 7.25031 56.1929 7.38749 56.3301L7.46249 56.4051C7.61249 56.5551 7.76249 56.6301 7.91249 56.7801C8.13749 57.0051 8.28749 57.2301 8.43749 57.4552C8.81249 58.0552 8.96249 58.7303 8.96249 59.4053C8.96249 59.7115 8.86144 60.0089 8.76577 60.2997C8.59445 60.8205 8.32188 61.3211 7.91249 61.7305C7.31249 62.3306 6.48749 62.7056 5.51249 62.7056ZM11.3551 58.4602C11.2842 58.483 11.2125 58.4297 11.2125 58.3552C11.2125 58.1508 11.1506 57.9464 11.083 57.742C11.0695 57.701 11.0694 57.662 11.0587 57.6202C11.0407 57.5497 10.9785 57.4928 10.9596 57.4225C10.9021 57.2088 10.8392 57.0326 10.7386 56.8617C10.7068 56.8076 10.6797 56.7179 10.6431 56.667C10.6142 56.6269 10.6052 56.6053 10.5858 56.5599C10.5341 56.4386 10.4628 56.3398 10.4008 56.2488C10.3378 56.1564 10.2759 56.0641 10.2236 55.9653C10.1916 55.9047 10.1439 55.8509 10.1032 55.7958C10.0407 55.7114 9.97036 55.6269 9.89999 55.5425C9.71786 55.3239 9.54115 55.0969 9.31434 54.9251C9.27201 54.8931 9.22967 54.8624 9.18734 54.8326C9.03951 54.7286 8.8653 54.6577 8.73749 54.5299C8.62083 54.4132 8.4588 54.3419 8.32198 54.2807C8.2495 54.2483 8.1414 54.2212 8.0802 54.1706C8.05425 54.1492 8.04856 54.1451 8.01972 54.1277C7.82345 54.0094 7.58087 53.9406 7.38079 53.877C7.33545 53.8626 7.29333 53.8643 7.24803 53.8498C7.1826 53.8288 7.1288 53.7674 7.06212 53.7508C6.87551 53.7044 6.68889 53.6942 6.50228 53.6346C6.49248 53.6315 6.47673 53.6298 6.46643 53.6298C6.40062 53.6298 6.35953 53.5662 6.38149 53.5041C7.72998 49.6953 10.9026 44.5605 15.2852 39.1915C15.4151 39.0324 15.7282 39.0147 15.8391 39.1875C15.8556 39.2132 15.8735 39.2395 15.895 39.2612C16.4061 39.7783 16.8483 40.3645 17.3625 40.8787C17.6279 41.1442 17.7237 41.5404 17.7535 41.9147C17.758 41.9715 17.7638 42.0279 17.7712 42.0831C17.7912 42.231 17.8125 42.3792 17.8125 42.5284C17.8125 42.6786 17.8125 42.8287 17.8125 42.9789C17.8125 43.4289 17.8875 43.9539 17.8875 44.404C17.8875 44.554 17.8875 44.629 17.8875 44.779C17.9625 45.3791 17.9625 45.9791 18.0375 46.5792C18.0375 46.729 18.0491 46.8786 18.0657 47.0275C18.1049 47.3783 18.1184 47.7036 18.1562 48.0531C18.1743 48.2207 18.1838 48.3926 18.2158 48.5581C18.2604 48.7883 18.2884 49.02 18.3151 49.253C18.3333 49.412 18.3463 49.571 18.3657 49.73C18.3901 49.9302 18.4111 50.1315 18.4439 50.3304C18.4846 50.5774 18.5201 50.8275 18.5493 51.0761C18.5584 51.153 18.5665 51.2308 18.5756 51.3077C18.6048 51.5566 18.6369 51.7789 18.675 52.0265C18.7131 52.2742 18.7455 52.5526 18.7776 52.8011C18.8003 52.9774 18.8184 53.1536 18.8625 53.3298C18.9306 53.5341 18.9368 53.7384 18.9936 53.9989C19.0053 54.0528 19.0109 54.107 19.019 54.1616C19.0533 54.392 18.9675 54.6051 18.7695 54.7277C15.9614 56.4651 13.4271 57.7931 11.3551 58.4602ZM27.7125 67.5061C25.9084 67.5061 23.4793 64.0339 21.7616 56.4214C21.6402 55.8835 21.8778 55.3006 22.313 54.9619C22.3583 54.9266 22.407 54.8834 22.4521 54.8478C22.4941 54.8146 22.5394 54.7849 22.5859 54.7562C22.8112 54.6172 23.0273 54.4613 23.2448 54.3103C23.7062 53.99 24.1377 53.6307 24.616 53.2709C24.6303 53.2602 24.6507 53.2417 24.6646 53.2305C24.7598 53.1545 24.8465 53.063 24.9444 52.9906C25.4171 52.6408 25.8898 52.2423 26.3625 51.9047C26.5579 51.7744 26.6968 51.6441 26.8773 51.5138C26.9332 51.4734 26.9873 51.4291 27.0376 51.382C27.4019 51.0409 27.9668 51.1119 28.3768 51.3963C28.4063 51.4168 28.4349 51.4363 28.4625 51.4546C28.6875 51.6046 28.8375 51.7546 29.0625 51.9047C29.5721 52.3415 30.1523 52.7783 30.6661 53.1466C30.6969 53.1687 30.726 53.1933 30.7528 53.2201C30.7759 53.2432 30.8006 53.2646 30.8267 53.2843C31.3248 53.6599 31.773 54.0343 32.2584 54.3641C32.4252 54.4773 32.5788 54.6113 32.7509 54.7163C32.7777 54.7327 32.8045 54.7479 32.8312 54.7624C32.9175 54.8093 33.0115 54.8673 33.0923 54.9232C33.5414 55.2339 33.7251 55.7532 33.611 56.2873C31.9598 64.0136 29.5219 67.5061 27.7125 67.5061ZM36.4647 53.9837C36.4783 53.9456 36.4943 53.9107 36.5053 53.8717C36.563 53.6661 36.5689 53.4604 36.6375 53.2548C36.6846 53.0662 36.7021 52.8777 36.7272 52.6892C36.757 52.4653 36.7878 52.2399 36.825 52.0172C36.8621 51.7944 36.8925 51.5689 36.9199 51.3447C36.9308 51.2558 36.9401 51.1653 36.9506 51.0761C36.9799 50.8275 37.0154 50.5774 37.056 50.3304C37.0888 50.1315 37.1098 49.9302 37.1342 49.73C37.1545 49.5635 37.1679 49.397 37.1875 49.2305C37.2131 49.0125 37.2373 48.7945 37.28 48.5792C37.3156 48.3991 37.3294 48.2135 37.3492 48.031C37.3794 47.7518 37.3938 47.4567 37.4232 47.1766C37.444 46.978 37.4625 46.7789 37.4625 46.5792C37.5375 45.9791 37.5375 45.3791 37.6125 44.779C37.6125 44.629 37.6125 44.479 37.6125 44.404C37.6125 43.9539 37.6875 43.5039 37.6875 42.9789C37.6875 42.7538 37.6875 42.5288 37.6875 42.3038C37.6875 42.1747 37.6875 42.0455 37.6934 41.9104C37.7104 41.5284 37.8671 41.149 38.1375 40.8787C38.6516 40.3645 39.0938 39.7783 39.605 39.2612C39.6264 39.2395 39.6444 39.2132 39.6609 39.1875C39.7717 39.0147 40.0849 39.0324 40.2147 39.1915C44.5914 44.5533 47.7599 49.6815 49.0407 53.4887C49.0642 53.5589 49.0114 53.6298 48.9375 53.6298C48.7328 53.6298 48.5282 53.6918 48.38 53.7595C48.3518 53.7724 48.314 53.7789 48.2831 53.7809C48.1972 53.7865 48.1323 53.873 48.0502 53.8987C47.8904 53.9488 47.7114 54.0048 47.5534 54.0868C47.4756 54.1272 47.3897 54.1606 47.311 54.1993C47.2492 54.2298 47.1801 54.2456 47.1201 54.2796C47.0307 54.3302 46.9288 54.3934 46.8351 54.4482C46.7387 54.5048 46.6465 54.5665 46.5477 54.6188C46.4872 54.6508 46.4336 54.6989 46.3769 54.7372C46.2939 54.7933 46.2123 54.8506 46.1358 54.9131C45.9291 55.0819 45.7649 55.2983 45.5953 55.5044C45.5012 55.6189 45.4193 55.7231 45.3375 55.805C45.2625 55.88 45.2625 55.955 45.1875 56.03C45.0589 56.1586 44.9855 56.3422 44.9199 56.4865C44.8992 56.5319 44.8916 56.5872 44.8569 56.6231C44.8127 56.6687 44.7927 56.7328 44.762 56.7883C44.6577 56.9768 44.5939 57.2003 44.5346 57.3869C44.5202 57.4322 44.5219 57.4743 44.5074 57.5196C44.4864 57.5851 44.4251 57.6389 44.4085 57.7056C44.362 57.8922 44.3518 58.0788 44.2923 58.2654C44.2892 58.2752 44.2875 58.291 44.2875 58.3013C44.2875 58.3672 44.223 58.408 44.1609 58.3861C42.1069 57.6627 39.5971 56.4151 36.8157 54.7049C36.5645 54.5504 36.3656 54.2614 36.4647 53.9837ZM52.3124 61.6555C50.9624 63.0056 48.7875 63.0056 47.4375 61.6555C46.9991 61.2171 46.7176 60.6741 46.5493 60.0701C46.4823 59.8299 46.4625 59.5797 46.4625 59.3303C46.4625 58.3552 46.7625 57.4552 47.4375 56.7801C47.572 56.6456 47.7065 56.511 47.841 56.4306C47.8712 56.4126 47.9001 56.3924 47.925 56.3676C47.9498 56.3427 47.9787 56.3224 48.0089 56.3046C48.1389 56.228 48.2746 56.1072 48.4641 56.0382C48.4795 56.0326 48.4961 56.0307 48.5118 56.0259C48.5337 56.0192 48.5625 56.0015 48.5625 55.955C48.7124 55.88 48.9374 55.805 49.1624 55.805H49.2374C49.3874 55.805 49.6124 55.73 49.8374 55.73C49.9124 55.73 49.9124 55.73 49.9874 55.73C50.1374 55.73 50.2874 55.73 50.4374 55.73C51.1874 55.805 51.8624 56.18 52.3874 56.7051C53.6624 58.1302 53.6624 60.3804 52.3124 61.6555Z" fill="#FF5300"/>
<path d="M31.7624 33.1564C29.5124 30.9062 25.9124 30.9062 23.7374 33.1564C21.5624 35.4066 21.4874 39.0069 23.7374 41.1821C24.8624 42.3072 26.2874 42.8323 27.7874 42.8323C29.2874 42.8323 30.7124 42.3072 31.8374 41.1821C33.9374 39.0069 33.9374 35.3316 31.7624 33.1564ZM30.1874 39.607C28.8374 40.9571 26.6624 40.9571 25.3124 39.607C23.9624 38.2569 23.9624 36.0817 25.3124 34.7315C25.6374 34.4064 26.0258 34.1399 26.4473 33.9561C26.8506 33.7803 27.265 33.6814 27.7124 33.6814C28.1624 33.6814 28.6124 33.7565 28.9874 33.9065C29.3624 34.0565 29.8124 34.3565 30.1124 34.6565C31.4624 36.0817 31.4624 38.2569 30.1874 39.607Z" fill="#FF5300"/>
</svg>
