<svg width="68" height="72" viewBox="0 0 68 72" fill="none" xmlns="http://www.w3.org/2000/svg">
<path d="M44.5611 66.0831C44.5607 66.0831 44.5605 66.0826 44.5607 66.0823C45.9997 64.041 47.9981 62.297 50.0738 60.6077C50.3772 60.3608 50.4269 59.9186 50.1224 59.6729C49.8629 59.4634 49.4751 59.5095 49.2535 59.7588C49.2496 59.7632 49.2456 59.7676 49.2417 59.7721C47.4674 61.7651 45.669 63.7848 44.5616 66.0828C44.5615 66.083 44.5613 66.0831 44.5611 66.0831ZM9.97518 23.0662C9.96915 23.1369 10.0214 23.1992 10.0921 23.2055L10.268 23.2206L10.4452 23.2346L10.6249 23.2472L10.8059 23.2599C10.9065 23.2662 10.993 23.1895 10.9989 23.089L11.0372 22.4374C11.043 22.3393 10.9685 22.255 10.8705 22.2487L10.6945 22.2374L10.5211 22.2247L10.349 22.2108L10.1782 22.1969C10.1076 22.1906 10.0454 22.2428 10.0394 22.3133L9.97518 23.0662ZM7.58616 7.38908C7.58616 7.38919 7.58611 7.38928 7.58602 7.38933L7.51022 7.43101L7.39125 7.49682L7.27355 7.56262L7.15711 7.62843L7.04068 7.6955L6.9255 7.76257L6.8116 7.82964C6.74336 7.87003 6.72129 7.9584 6.76254 8.02613L7.14496 8.65393C7.1832 8.71671 7.26494 8.73686 7.32797 8.69904L7.43808 8.6345L7.54819 8.56996L7.65957 8.50669L7.77094 8.44341L7.88358 8.38014L7.99749 8.31686C8.03944 8.29379 8.05475 8.2411 8.0317 8.19914L7.58669 7.38895C7.58655 7.38869 7.58616 7.38879 7.58616 7.38908ZM4.14746 9.69354C4.14746 9.69366 4.1474 9.69377 4.14731 9.69384L4.12847 9.70891L4.03735 9.78484L3.94622 9.86203L3.85636 9.93923L3.76777 10.0164L3.68044 10.0936L3.59311 10.1708L3.50705 10.2493L3.42225 10.3277C3.39022 10.357 3.38827 10.4068 3.41793 10.4384L4.00674 11.067C4.03416 11.0963 4.08009 11.0979 4.10949 11.0706L4.18922 10.9972L4.27022 10.9238L4.35249 10.8504L4.43475 10.777L4.51828 10.7036L4.60308 10.6315L4.68914 10.5593L4.77521 10.4872C4.78564 10.4788 4.7872 10.4636 4.77867 10.4533L4.14814 9.69329C4.14791 9.69301 4.14746 9.69317 4.14746 9.69354ZM1.30821 12.7739C1.3084 12.7739 1.30852 12.7742 1.30841 12.7743L1.26183 12.8461L1.20867 12.9296L1.15678 13.0131L1.10489 13.0967L1.05427 13.1802L1.00491 13.2637L0.956813 13.3472L0.909985 13.4307L0.864422 13.5155L0.820126 13.6003C0.793012 13.6525 0.813939 13.7167 0.866561 13.7429L1.60042 14.1077C1.64288 14.1288 1.69442 14.1119 1.71619 14.0698L1.75542 13.9952L1.79592 13.9205L1.83769 13.8458L1.88072 13.7712L1.92502 13.6965L1.97058 13.6218L2.01614 13.5472L2.06297 13.4712L2.11106 13.3953C2.13691 13.3555 2.12552 13.3023 2.08565 13.2765L1.30808 12.7744C1.30788 12.7743 1.30797 12.7739 1.30821 12.7739ZM0 16.8653C0.000706177 16.8653 0.0012856 16.8659 0.0013108 16.8666L0.00253125 16.9007L0.00759375 16.9843L0.0139219 17.0678L0.0215156 17.15L0.030375 17.2323L0.0405 17.3146L0.0518907 17.3968L0.0658125 17.4791L0.0810001 17.5613L0.0974532 17.6423L0.115172 17.7233L0.134156 17.8043L0.154406 17.8853L0.175922 17.9663C0.178706 17.976 0.188925 17.9816 0.198626 17.9787L1.08754 17.7106C1.12249 17.7001 1.14258 17.6635 1.13274 17.6284L1.11628 17.5651L1.10109 17.5019L1.08717 17.4373L1.07452 17.3728L1.06313 17.3082L1.053 17.2437L1.04414 17.1792L1.03528 17.1133L1.02769 17.0475L1.02136 16.9817L1.0163 16.9159L1.0125 16.8501C1.0118 16.8306 0.995298 16.8155 0.975823 16.8165L0 16.8653ZM2.07056 20.6795L2.08702 20.6922L2.16549 20.7529L2.24522 20.8137L2.32622 20.8731L2.40849 20.9326L2.49202 20.9908L2.57808 21.049L2.66541 21.106L2.754 21.1629C2.79985 21.1916 2.83424 21.2352 2.85247 21.2861C3.1853 22.2152 3.78889 23.144 4.71446 24.0597C6.23447 25.5606 8.42527 26.7046 10.9704 27.6031C13.4751 28.4864 16.3354 29.1369 19.2362 29.6582C19.5109 29.7076 19.7729 29.5254 19.8222 29.2507C19.8716 28.9761 19.6893 28.7142 19.4147 28.6648C16.5696 28.1536 13.7637 27.5157 11.3071 26.6501C8.89102 25.7972 6.82679 24.7266 5.42321 23.3409C4.42083 22.3512 3.85763 21.3642 3.64374 20.3986C3.42478 19.4077 3.5716 18.4206 3.98925 17.4601C4.4221 16.4654 5.14224 15.4973 6.04969 14.5798C9.48713 11.101 15.4989 8.4181 18.792 7.68917C19.0641 7.62969 19.2362 7.36014 19.1755 7.08806C19.116 6.81598 18.8464 6.64387 18.5743 6.70461C15.1546 7.46138 8.90747 10.2518 5.32955 13.8711C4.3411 14.8721 3.54881 15.9415 3.06408 17.0551C2.67066 17.9609 2.47895 18.894 2.54711 19.8433C2.5569 19.9796 2.51927 20.1158 2.43471 20.2231L2.07531 20.6792C2.07413 20.6807 2.07191 20.6809 2.07056 20.6795ZM5.88769 22.487C5.88769 22.4883 5.88854 22.4894 5.88976 22.4898L5.95224 22.5069L6.08513 22.5423L6.21929 22.5778L6.35471 22.6119L6.49266 22.6461L6.63188 22.679L6.77236 22.7106C6.84147 22.726 6.90989 22.6822 6.92493 22.6131L7.08718 21.8668C7.10137 21.8015 7.06027 21.737 6.99511 21.7223L6.86222 21.6919L6.7306 21.6603L6.60024 21.6286L6.47241 21.5957L6.34585 21.5628L6.22055 21.5287C6.1849 21.5189 6.14806 21.5398 6.13826 21.5755L5.88779 22.4863C5.88773 22.4865 5.88769 22.4868 5.88769 22.487ZM43.3862 0.597012C43.4131 0.319117 43.2065 0.0700368 42.9284 0.044808C42.6501 0.0195516 42.4009 0.227444 42.3774 0.505958C42.3542 0.782728 42.5595 1.0271 42.8361 1.05224C43.1129 1.0774 43.3594 0.873658 43.3862 0.597012ZM66.3112 8.16702C66.3112 8.16654 66.311 8.1661 66.3106 8.16581L66.2011 8.08274L66.115 8.01694L66.029 7.9524L65.9429 7.88786L65.8568 7.82332L65.7695 7.75878L65.6822 7.6955L65.5949 7.63223C65.5341 7.58825 65.4492 7.60205 65.4055 7.66298L64.9705 8.26974C64.9287 8.32798 64.9419 8.40902 65 8.451L65.0848 8.51301L65.1696 8.57502L65.2531 8.63703L65.3367 8.69904L65.4202 8.76232L65.5037 8.82559L65.5873 8.88887C65.6467 8.93432 65.7317 8.92304 65.7773 8.86367L66.3109 8.16794C66.3111 8.16768 66.3112 8.16735 66.3112 8.16702ZM62.9033 5.86775C62.9036 5.86824 62.903 5.86874 62.9026 5.86847L62.8041 5.81117L62.7118 5.75676L62.6194 5.70234L62.5257 5.64919L62.4321 5.59604L62.3384 5.54289L62.2447 5.48974L62.1511 5.43785C62.0737 5.39461 61.9758 5.42269 61.9331 5.50042L61.5978 6.11096C61.5566 6.18585 61.5839 6.27991 61.6588 6.32117L61.7499 6.37179L61.841 6.42241L61.9321 6.47429L62.0233 6.52618L62.1131 6.57806L62.203 6.62995L62.2928 6.68184C62.3459 6.71327 62.4145 6.69564 62.4458 6.64248L62.9024 5.86772C62.9026 5.86735 62.9031 5.86736 62.9033 5.86775ZM59.2528 3.99234C59.2528 3.99176 59.2525 3.99123 59.2519 3.991L59.1642 3.95215L59.0655 3.90913L58.9668 3.8661L58.8681 3.82307L58.7693 3.78005L58.6693 3.73702L58.5694 3.69526L58.4694 3.6535C58.382 3.61717 58.2818 3.65861 58.2456 3.746L57.9873 4.3698C57.9523 4.45433 57.9925 4.55123 58.077 4.58617L58.1745 4.62667L58.2719 4.66843L58.3694 4.71019L58.4656 4.75195L58.5618 4.79371L58.658 4.83547L58.7541 4.8785C58.8031 4.90017 58.8603 4.87808 58.882 4.82915L59.2527 3.99293C59.2528 3.99275 59.2528 3.99254 59.2528 3.99234ZM55.4293 2.51685C55.4293 2.51623 55.429 2.51568 55.4284 2.51549L55.3041 2.47532L55.2003 2.44115L55.0952 2.40698L54.9902 2.37408L54.8851 2.34117L54.675 2.27537L54.57 2.24246C54.5044 2.22223 54.4348 2.25921 54.4149 2.32492L54.2231 2.95829C54.1868 3.0779 54.2546 3.20458 54.3738 3.24221L54.5788 3.30675L54.7839 3.37256L54.8864 3.40546L54.9889 3.43836C55.0567 3.46073 55.1298 3.42391 55.1522 3.35611L55.4293 2.5173C55.4293 2.51715 55.4293 2.517 55.4293 2.51685ZM51.4911 1.40513C51.4909 1.40485 51.4905 1.40466 51.4901 1.40457L51.3604 1.37433C51.2365 1.34555 51.1127 1.317 50.9888 1.28888C50.7162 1.22696 50.4463 1.40339 50.3872 1.67672C50.3287 1.94731 50.5 2.21632 50.77 2.27733C51.0404 2.33842 51.3109 2.17177 51.3746 1.90205L51.4917 1.40712C51.4919 1.40641 51.4917 1.40565 51.4911 1.40513ZM47.4016 1.11572C47.4461 0.838989 47.2544 0.576176 46.9773 0.533917C46.7008 0.491745 46.4412 0.685568 46.4014 0.962422C46.3618 1.23717 46.5523 1.49387 46.8267 1.53562C47.1007 1.5773 47.3576 1.38929 47.4016 1.11572ZM28.5791 5.77068C28.3007 5.79346 28.0564 5.58591 28.0336 5.3075C28.0108 5.02909 28.2184 4.78485 28.4968 4.76207C36.1653 4.1154 43.6527 4.11793 50.3213 5.61755C57.0342 7.12729 62.9079 10.1531 67.2921 15.5555C67.468 15.7719 67.4351 16.0896 67.2187 16.2655C67.0022 16.4414 66.6846 16.4085 66.5086 16.1921C62.284 10.9858 56.6026 8.06503 50.0998 6.60211C43.5527 5.12907 36.1627 5.13033 28.5791 5.77068ZM47.1199 8.51491C47.1203 8.51451 47.1208 8.51431 47.1214 8.51436C47.3981 8.54012 47.6027 8.78539 47.5774 9.06224C47.5521 9.33938 47.3066 9.54439 47.0294 9.51908C37.1335 8.61299 28.1513 9.22549 21.322 11.0364C14.6167 12.8144 10.025 15.7276 8.76319 19.4634C8.6746 19.7279 8.38857 19.8696 8.12405 19.7823C7.85954 19.6937 7.71779 19.4077 7.80511 19.1432C9.18338 15.0632 14.0282 11.9261 21.0638 10.0607C27.998 8.222 37.1025 7.59809 47.1184 8.51546C47.1189 8.51551 47.1195 8.51531 47.1199 8.51491ZM27.0236 12.6246C26.7477 12.6613 26.4933 12.4677 26.4566 12.1918C26.4199 11.9159 26.6136 11.6616 26.8895 11.6249C34.2162 10.6163 41.6821 10.677 48.2115 11.7527C54.5561 12.7993 60.0299 14.8076 63.6597 17.7309C65.6885 19.3647 66.8592 20.8959 67.3642 22.2968C67.8742 23.7129 67.716 24.9898 67.0756 26.111C66.4593 27.1905 65.3924 28.1067 64.0521 28.8445C61.4487 30.2771 57.767 31.0591 54.3637 31.0591C54.084 31.0591 53.8574 30.8326 53.8574 30.5529C53.8574 30.2733 54.084 30.0467 54.3637 30.0467C57.6138 30.0467 61.112 29.309 63.5661 27.9587C64.7494 27.3069 65.6784 26.5185 66.1986 25.6086C66.6947 24.7405 66.8149 23.7458 66.4162 22.6372C65.9733 21.4059 64.9038 20.0291 63.0282 18.518C59.5376 15.7074 54.2295 13.7674 48.0508 12.7486C41.6176 11.6882 34.2554 11.6287 27.0262 12.6246H27.0236ZM13.6764 21.7552C13.565 22.0108 13.2676 22.1273 13.0119 22.0159C12.7562 21.9045 12.6398 21.6071 12.7512 21.3515C13.3359 20.0202 14.4294 18.8926 15.9077 17.9587C19.9285 15.4176 26.8958 14.271 34.1187 14.3229C41.3202 14.3748 48.8025 15.6125 53.8815 17.8423C56.4735 18.98 58.4593 20.3834 59.5034 22.0349C59.6515 22.2703 59.5806 22.5828 59.3452 22.7309C59.1098 22.879 58.7972 22.8081 58.6491 22.5727C57.7201 21.1035 55.89 19.8266 53.479 18.7674C48.5203 16.592 41.1873 15.3821 34.1149 15.3315C27.0641 15.2809 20.2981 16.3781 16.4455 18.8129C15.1344 19.6418 14.1737 20.62 13.6764 21.7552ZM19.1755 23.3839C18.9338 23.2447 18.8515 22.9346 18.992 22.6942C19.1312 22.4525 19.4413 22.3702 19.6817 22.5107C20.2614 22.8461 20.8373 23.165 21.4081 23.4649C21.9776 23.7648 22.5433 24.047 23.1027 24.3128C23.3546 24.4317 23.4634 24.7329 23.3445 24.9848C23.2255 25.2366 22.9243 25.3454 22.6724 25.2265C22.0991 24.9544 21.5207 24.6658 20.9372 24.3583C20.3563 24.0521 19.7678 23.7268 19.1755 23.3839ZM27.2711 27.0747C27.2712 27.0749 27.2711 27.0751 27.2709 27.0751C27.0069 26.9849 26.8655 26.6992 26.9553 26.435C27.0452 26.1705 27.3312 26.0288 27.5957 26.1186C27.8817 26.2148 28.0728 26.2781 28.2412 26.3287C28.4551 26.3945 28.6424 26.4489 28.8904 26.5198C29.1575 26.5957 29.3132 26.8754 29.236 27.1424C29.16 27.4094 28.8803 27.5651 28.6133 27.4879C28.3361 27.4082 28.1298 27.3487 27.9475 27.293C27.72 27.2235 27.5164 27.1578 27.2713 27.0744C27.2711 27.0743 27.2709 27.0746 27.2711 27.0747ZM37.8144 28.8787C37.5359 28.8673 37.3195 28.6332 37.3296 28.3548C37.341 28.0764 37.5752 27.86 37.8536 27.8701L38.0194 27.8764C38.2535 27.8853 38.3459 27.8891 38.3978 27.8891C38.4219 27.8891 38.4598 27.8878 38.5219 27.8853C38.6041 27.8815 38.7307 27.8764 39.0256 27.8688C39.304 27.8625 39.5356 28.0827 39.5419 28.3611C39.5483 28.6395 39.3281 28.8711 39.0496 28.8774C38.7978 28.8838 38.656 28.8901 38.5649 28.8939C38.5029 28.8964 38.4662 28.8977 38.3978 28.8977C38.3067 28.8977 38.2143 28.8939 37.9789 28.885L37.8131 28.8787H37.8144ZM46.0979 28.2763C45.822 28.3155 45.5651 28.1232 45.5258 27.8473C45.4866 27.5714 45.679 27.3145 45.9549 27.2753L46.3902 27.212C46.4396 27.2044 46.4105 27.2082 46.5383 27.1855C46.5598 27.1817 46.5928 27.1766 46.8484 27.1323C47.123 27.0855 47.385 27.2702 47.4319 27.5461C47.4787 27.8207 47.2939 28.0827 47.018 28.1295L46.7117 28.1827C46.6902 28.1865 46.6801 28.1877 46.5472 28.2092C46.4472 28.2257 46.4105 28.2308 46.3346 28.2421L46.0979 28.2761C46.0978 28.2761 46.0978 28.2763 46.0979 28.2763ZM50.5099 27.474C50.2365 27.5297 49.9707 27.3538 49.915 27.0804C49.8593 26.8071 50.0353 26.5413 50.3086 26.4856C51.1174 26.3186 51.9413 26.1376 52.7804 25.9465C53.6208 25.7554 54.4637 25.5555 55.3154 25.3492C55.5863 25.2834 55.8584 25.4505 55.9242 25.7213C55.99 25.9921 55.823 26.2642 55.5521 26.33C54.6852 26.54 53.8347 26.7413 53.0006 26.9311C52.1653 27.1209 51.3363 27.3031 50.5099 27.474ZM48.6931 23.0333C48.6928 23.0333 48.6926 23.033 48.6928 23.0328C48.7929 22.8903 48.9888 22.8563 49.1316 22.9549C49.2746 23.0549 49.3088 23.251 49.2101 23.394C48.3127 24.6772 48.0913 25.7605 48.3026 26.721C48.5178 27.6967 49.1772 28.5724 50.0315 29.4178C50.1555 29.5405 50.1555 29.7405 50.0327 29.8645C49.91 29.9885 49.71 29.9885 49.586 29.8658C48.6532 28.9432 47.9292 27.9713 47.685 26.8577C47.437 25.7303 47.6799 24.4826 48.6933 23.0339C48.6935 23.0337 48.6933 23.0333 48.6931 23.0333ZM43.1996 50.3764C43.1996 50.3759 43.1998 50.3756 43.2 50.3753C43.3178 50.2479 43.5174 50.2392 43.6464 50.3567C43.7742 50.4744 43.7831 50.6744 43.6654 50.8035C42.9845 51.545 42.6402 52.7928 42.6199 54.0355C42.5997 55.2947 42.9148 56.5298 43.554 57.2031C43.6742 57.3296 43.6692 57.5296 43.5426 57.6498C43.416 57.77 43.2161 57.765 43.0958 57.6384C42.339 56.8424 41.9669 55.4377 41.9884 54.0267C42.0099 52.6437 42.4097 51.238 43.1992 50.3775C43.1995 50.3772 43.1996 50.3768 43.1996 50.3764ZM54.1327 59.7025C54.1323 59.7025 54.132 59.7022 54.1318 59.7019C54.055 59.5451 54.1196 59.3569 54.2751 59.2798C54.432 59.2026 54.6206 59.2671 54.6978 59.4228C54.8016 59.6354 54.8965 59.8467 54.9801 60.0568C55.747 61.9816 55.5141 63.5103 54.7991 64.705C54.0928 65.8819 52.9209 66.7146 51.7831 67.2739C51.5198 67.403 51.2553 67.5194 50.9946 67.6232C50.8326 67.6878 50.6491 67.608 50.5858 67.446C50.5213 67.2841 50.601 67.1006 50.763 67.0373C51.0009 66.9424 51.249 66.8335 51.5046 66.7083C52.5513 66.1932 53.6258 65.4352 54.2586 64.381C54.8813 63.3433 55.0775 62.0006 54.3953 60.2896C54.3207 60.1025 54.2335 59.9066 54.1336 59.703C54.1335 59.7027 54.1331 59.7025 54.1327 59.7025ZM39.89 22.6847C39.8908 22.6843 39.8914 22.6836 39.8917 22.6827C39.9479 22.5178 40.1271 22.4311 40.2912 22.4867C40.457 22.5423 40.5443 22.722 40.4886 22.8866C40.0571 24.1584 40.0343 25.6466 40.3861 27.0387C40.724 28.3712 41.4062 29.6101 42.4048 30.4757C42.5364 30.5896 42.5503 30.7883 42.4364 30.9212C42.3225 31.0528 42.1238 31.0667 41.9909 30.9528C40.8898 29.9987 40.1393 28.6433 39.7723 27.193C39.3915 25.6889 39.4192 24.0734 39.8883 22.6867C39.8886 22.6858 39.8892 22.6851 39.89 22.6847ZM29.7745 23.3611C29.7749 23.3603 29.7751 23.3594 29.7752 23.3584C29.7835 23.1845 29.9313 23.0511 30.1054 23.0599C30.2801 23.0675 30.4143 23.2156 30.4054 23.3902C30.3446 24.638 30.3877 25.844 30.6902 26.9855C30.9888 28.1118 31.5457 29.1811 32.5127 30.1746C32.6342 30.2998 32.6316 30.4998 32.5063 30.6213C32.381 30.7428 32.1811 30.7402 32.0596 30.615C31.0091 29.5368 30.4041 28.3738 30.0789 27.1475C29.7562 25.9356 29.7106 24.6693 29.7738 23.3638C29.7738 23.3629 29.7741 23.362 29.7745 23.3611ZM51.4186 59.5215C51.4193 59.5222 51.4204 59.5223 51.4212 59.5216C56.3706 55.5445 61.1573 51.5861 58.7276 44.4519C58.3548 43.3569 57.8421 42.3733 57.2298 41.4745C57.1184 41.311 56.9319 41.2141 56.7342 41.2211C55.9735 41.2419 55.1488 41.3005 54.2888 41.3847C53.3029 41.4814 52.8096 42.6292 53.2816 43.5003C54.084 44.9818 54.5598 46.3447 54.7768 47.6137C54.7908 47.6957 54.8628 47.7552 54.9459 47.7523C55.2699 47.7422 55.5901 47.7321 55.928 47.7232C56.2064 47.7156 56.4381 47.9346 56.4456 48.2143C56.4532 48.4927 56.2343 48.7242 55.9546 48.7318C55.6483 48.7407 55.3142 48.7508 54.9763 48.7609C54.9373 48.7623 54.9071 48.7958 54.9088 48.8348C55.0552 52.1735 53.3851 54.8666 51.2619 57.4418C50.7657 58.0436 50.9018 58.9373 51.4186 59.5215ZM45.3834 50.9648C45.3847 50.9644 45.3857 50.9635 45.3862 50.9624C45.5058 50.7118 45.8061 50.6038 46.0574 50.7225C46.3092 50.8414 46.4181 51.1426 46.2991 51.3945C46.1042 51.8057 45.9561 52.2107 45.8498 52.6055C45.5486 53.728 45.598 54.7531 45.9194 55.5871C46.0944 56.0411 46.6829 56.012 46.917 55.5855C48.3481 52.9782 49.1314 50.6031 47.318 47.927C46.1462 46.1983 44.5935 44.8259 42.8484 43.6065C42.8169 43.5845 42.774 43.6037 42.7706 43.642C42.6718 44.6557 42.9022 45.5554 43.3882 46.2666C43.8729 46.9753 44.6171 47.5018 45.5461 47.7688C45.8372 47.8523 46.1397 47.9105 46.4523 47.9409C46.7294 47.9675 46.9332 48.213 46.9066 48.4901C46.88 48.7673 46.6345 48.971 46.3573 48.9444C45.9713 48.9065 45.6081 48.8381 45.2689 48.7407C44.1071 48.4079 43.1705 47.7384 42.5529 46.8349C41.9365 45.9326 41.6429 44.8037 41.7644 43.5458C41.7877 43.3146 41.5998 43.1112 41.3682 43.1304C37.3737 43.4616 33.6842 43.5053 32.9734 40.1771C32.9151 39.9037 33.0898 39.6354 33.3632 39.5785C33.6365 39.5203 33.9049 39.6949 33.9618 39.9683C34.3055 41.5781 35.7699 42.1316 37.7143 42.2433C38.6159 42.2951 38.8912 41.1599 38.1067 40.7124C37.309 40.2567 36.5058 39.7984 35.7094 39.3232C34.0678 38.3438 32.2091 37.8006 30.3275 37.4633C30.2687 37.4528 30.2103 37.442 30.1523 37.4309C27.1565 36.8615 25.0328 35.6099 23.6647 33.9938C22.2826 32.3613 21.6789 30.3669 21.7283 28.3282C21.7409 27.7866 21.8004 27.2449 21.9017 26.7096C21.9535 26.435 22.2168 26.2553 22.4914 26.3059C22.7661 26.3578 22.9458 26.621 22.8952 26.8957C22.8028 27.3841 22.7496 27.8714 22.737 28.3522C22.6939 30.1518 23.2242 31.9083 24.4367 33.3408C25.6631 34.7886 27.5919 35.9161 30.3396 36.4375C30.73 36.5122 30.9414 36.0186 30.6424 35.7566C26.7539 32.3486 23.8897 27.4926 24.0709 18.8635C24.076 18.5851 24.3063 18.3637 24.5848 18.3687C24.8632 18.3738 25.0847 18.6041 25.0796 18.8825C24.805 31.9564 31.8963 36.0035 38.6067 39.8341C39.8515 40.5448 41.084 41.2482 42.2586 41.9984C42.2968 42.0228 42.342 42.0339 42.3871 42.0298C42.4137 42.0247 42.4415 42.0222 42.4693 42.0222C43.6325 41.9159 45.2967 41.6514 47.1522 41.3565C48.4238 41.1546 48.9236 39.6391 47.912 38.8424C46.8168 37.9797 45.659 37.2188 44.5049 36.4977C44.0163 36.1924 43.4273 36.0968 42.8642 36.2186C42.0542 36.3958 41.21 36.578 40.3393 36.759C40.0659 36.8159 39.7989 36.64 39.7419 36.3679C39.685 36.0946 39.8609 35.8275 40.133 35.7706C40.9948 35.591 41.1908 34.4493 40.4626 33.9547C36.2604 31.1004 33.2916 27.7087 35.3515 20.024C35.4236 19.7544 35.7008 19.5937 35.9704 19.6659C36.2399 19.738 36.4007 20.0151 36.3285 20.2847C34.0251 28.8762 38.6193 31.697 43.8008 34.8772C43.8771 34.9242 43.9687 34.9397 44.0562 34.9202C44.5417 34.812 45.0048 34.7072 45.4436 34.6076C45.7157 34.5469 45.9852 34.7177 46.0473 34.9898C46.108 35.2619 45.9372 35.5314 45.665 35.5934C45.4746 35.6362 45.4313 35.8904 45.5959 35.9953C47.3669 37.1235 49.1269 38.3669 50.6587 39.9506C51.11 40.4171 51.7956 40.6582 52.4396 40.5772C54.0152 40.3789 54.6996 38.5317 53.4772 37.518C52.5701 36.7657 51.6276 36.0618 50.7035 35.372C45.5815 31.5464 41.0063 28.1295 45.1968 19.5115C45.3183 19.2609 45.6195 19.1546 45.8713 19.2761C46.1219 19.3976 46.2282 19.6988 46.1067 19.9506C43.5499 25.2087 44.604 28.3734 47.008 30.9573C48.7102 32.787 51.4868 32.7761 53.8701 33.5281C54.4523 33.7116 54.932 33.9989 55.3041 34.3786C55.6812 34.7645 55.9407 35.2391 56.0736 35.7934C56.1595 36.1521 56.1918 36.5427 56.1681 36.9618C56.1189 37.8285 56.3061 38.716 56.8775 39.3695C57.3341 39.8918 57.9772 40.2158 58.6614 40.3307C59.6591 40.4983 60.4041 40.827 60.9437 41.2565C61.5752 41.7589 61.9271 42.3917 62.0714 43.0675C62.2106 43.723 62.1498 44.4114 61.9574 45.053C61.4429 46.7745 60.5728 48.5329 60.1876 50.2879C59.3775 53.9789 56.4735 56.6995 53.2764 59.3172C52.5416 59.9188 52.4068 60.9625 52.4577 61.9108C52.4994 62.7004 52.2691 63.5103 51.7084 64.281C50.9516 65.3213 49.5822 66.2919 47.4508 67.031C47.1876 67.1221 46.9003 66.9816 46.8104 66.7184C46.7193 66.4552 46.8598 66.1679 47.123 66.078C49.0392 65.4137 50.2466 64.5734 50.8908 63.6888C51.3085 63.1155 51.4806 62.527 51.4502 61.9626C51.4227 61.4509 50.8142 61.305 50.418 61.63C47.0776 64.3703 44.0218 67.278 43.4768 71.3172L43.4763 71.3198C43.4758 71.3231 43.4755 71.3265 43.4755 71.3299C43.4755 71.3324 43.4753 71.3349 43.475 71.3374L43.4743 71.3419C43.4743 71.3423 43.4742 71.3427 43.4742 71.3431C43.4742 71.3436 43.4742 71.344 43.4742 71.3444C43.4589 71.4467 43.4134 71.5388 43.3452 71.6121L43.3439 71.6133C43.3419 71.6153 43.3399 71.6174 43.3385 71.6194C43.3378 71.6204 43.3371 71.6214 43.3363 71.6222L43.33 71.6285L43.3274 71.6311L43.3259 71.6326C43.3244 71.6341 43.3228 71.6355 43.3211 71.6367C43.3194 71.638 43.3178 71.6394 43.3163 71.6409C43.3146 71.6427 43.3128 71.6444 43.311 71.6462C43.3086 71.6486 43.3063 71.651 43.3029 71.6533C43.3024 71.6537 43.3019 71.654 43.3015 71.6545C43.3011 71.6549 43.3006 71.6553 43.3001 71.6556L43.2971 71.6576L43.292 71.6614L43.2869 71.6652L43.2819 71.669L43.2781 71.6715L43.273 71.6753L43.2679 71.6791L43.2629 71.6829L43.2591 71.6855L43.253 71.6895C43.252 71.6902 43.2511 71.6909 43.2502 71.6918C43.2479 71.6941 43.2444 71.6954 43.2419 71.6976C43.2416 71.6979 43.2411 71.6981 43.2406 71.6981C43.2403 71.6981 43.24 71.6982 43.2397 71.6984C43.1727 71.74 43.0956 71.7665 43.0123 71.7728C43.0047 71.7728 42.997 71.7743 42.9894 71.7746C42.9717 71.7753 42.954 71.7751 42.9364 71.774C42.9359 71.774 42.9355 71.774 42.9351 71.774C42.9275 71.774 42.9199 71.7715 42.9123 71.7715C42.8047 71.7589 42.7073 71.7108 42.6301 71.6412L42.6288 71.6399C42.6263 71.6374 42.6237 71.6348 42.6212 71.6323L42.6199 71.6311L42.6136 71.6247L42.6111 71.6222L42.606 71.6171L42.6022 71.6133L42.5972 71.6083L42.5934 71.6045L42.5896 71.6007L42.5845 71.5956C42.5828 71.5939 42.5815 71.5919 42.5798 71.5903C42.5787 71.5892 42.5776 71.5882 42.5769 71.5868L42.5744 71.583L42.5693 71.5766L42.5655 71.5716L42.5617 71.5665L42.5579 71.5602C42.5563 71.5577 42.5543 71.5553 42.5527 71.5527C42.5525 71.5525 42.5524 71.5522 42.5522 71.552C42.5504 71.5488 42.548 71.546 42.5462 71.5429C42.5451 71.5412 42.5441 71.5395 42.5427 71.5374C42.5098 71.4843 42.4858 71.4248 42.4744 71.3602C41.1999 65.2618 43.7059 61.0363 45.8675 57.3942C45.8691 57.3911 45.8685 57.3875 45.8662 57.385C45.4858 56.9809 45.1847 56.4964 44.974 55.9515C44.5779 54.9239 44.5108 53.6812 44.869 52.3461C44.989 51.8974 45.1584 51.4361 45.3807 50.9673C45.3812 50.9661 45.3822 50.9652 45.3834 50.9648ZM47.1756 57.1702C47.176 57.1702 47.1764 57.1703 47.1767 57.1705C47.2955 57.2488 47.4206 57.3183 47.5521 57.3803C47.728 57.4638 47.9166 57.5334 48.1153 57.5865C48.9037 57.7972 49.7831 57.6375 50.3048 57.0101C52.0517 54.9094 53.4947 52.7383 53.8036 50.1916C53.897 49.4216 53.2346 48.8146 52.4589 48.823C52.1805 48.8255 51.9527 48.6015 51.9501 48.3231C51.9476 48.0447 52.1716 47.8169 52.4501 47.8144C53.1394 47.8083 53.6575 47.1836 53.4622 46.5225C53.2236 45.7155 52.8718 44.8699 52.3893 43.9799C51.6155 42.5511 49.9514 41.9402 48.3462 42.1924C47.9949 42.2476 47.6482 42.3024 47.3078 42.3563C45.9941 42.5647 45.5383 44.3624 46.4677 45.314C47.0806 45.9414 47.6448 46.6189 48.1482 47.3613C50.5547 50.9126 49.1324 53.8289 47.1741 57.1674C47.1733 57.1686 47.1742 57.1702 47.1756 57.1702ZM48.4823 59.1013C48.5918 58.9789 48.5473 58.7854 48.3926 58.7304C48.2184 58.6685 48.0385 58.6125 47.8533 58.5622C47.5977 58.4939 47.3534 58.4041 47.1205 58.2927C46.8609 58.1691 46.5399 58.2435 46.3939 58.4913C46.2998 58.6512 46.2054 58.8123 46.1111 58.9747C45.4897 60.0455 47.0012 60.7746 47.8208 59.8467C48.0408 59.5975 48.2618 59.3492 48.4823 59.1013ZM58.3289 41.2983C58.3283 41.2983 58.328 41.2989 58.3283 41.2994C58.8722 42.1583 59.334 43.0945 59.6856 44.128C59.7407 44.2897 59.7924 44.4499 59.8409 44.6086C60.0316 45.2333 60.8045 45.3903 60.9918 44.7645C61.1386 44.2735 61.1867 43.7559 61.0854 43.2775C60.988 42.8194 60.7488 42.3904 60.3185 42.0475C59.873 41.6931 59.2262 41.4249 58.3289 41.2983ZM51.0655 34.3786C51.0663 34.3786 51.0671 34.3788 51.0677 34.3793L51.311 34.562C52.1721 35.2054 53.049 35.86 53.9017 36.5551C54.4306 36.9862 55.2526 36.6911 55.094 36.0275C55.0054 35.6567 54.8332 35.3403 54.5852 35.0872C54.3308 34.8278 53.9903 34.6279 53.5663 34.4937C52.9108 34.2862 52.0716 34.2406 51.0655 34.3786Z" fill="#FF5300"/>
</svg>
