<svg width="44" height="71" viewBox="0 0 44 71" fill="none" xmlns="http://www.w3.org/2000/svg">
<path d="M38.8083 31.639V16.6421C38.8083 16.0205 38.3035 15.5156 37.6819 15.5156H7.73236C7.11076 15.5156 6.60596 16.0205 6.60596 16.6421V31.639C6.60596 32.2606 7.11076 32.7654 7.73236 32.7654H37.6819C38.3035 32.7662 38.8083 32.2614 38.8083 31.639ZM36.5555 24.1409C36.5555 27.6598 33.7029 30.5125 30.1839 30.5125H15.2311C11.7122 30.5125 8.85955 27.6598 8.85955 24.1409C8.85955 20.622 11.7122 17.7694 15.2311 17.7694H30.1839C33.7029 17.7694 36.5555 20.622 36.5555 24.1409Z" fill="#FF5300"/>
<path d="M31.8697 43.625C29.7801 43.625 28.0801 45.3251 28.0801 47.4148C28.0801 49.5045 29.7801 51.2038 31.8697 51.2038C33.9593 51.2038 35.6585 49.5045 35.6585 47.4148C35.6585 45.3251 33.9601 43.625 31.8697 43.625ZM31.8697 48.9517C31.0217 48.9517 30.3329 48.2621 30.3329 47.4148C30.3329 46.5668 31.0217 45.8779 31.8697 45.8779C32.7169 45.8779 33.4065 46.5668 33.4065 47.4148C33.4065 48.2621 32.7169 48.9517 31.8697 48.9517Z" fill="#FF5300"/>
<path d="M13.5442 43.625C11.4546 43.625 9.75537 45.3251 9.75537 47.4148C9.75537 49.5045 11.4554 51.2038 13.5442 51.2038C15.633 51.2038 17.333 49.5045 17.333 47.4148C17.333 45.3251 15.6338 43.625 13.5442 43.625ZM13.5442 48.9517C12.697 48.9517 12.0082 48.2621 12.0082 47.4148C12.0082 46.5668 12.6978 45.8779 13.5442 45.8779C14.3914 45.8779 15.081 46.5668 15.081 47.4148C15.081 48.2621 14.3914 48.9517 13.5442 48.9517Z" fill="#FF5300"/>
<path d="M25.4135 6.05155C27.0815 6.05155 28.4391 4.69387 28.4391 3.02577C28.4391 1.35768 27.0815 0 25.4135 0C23.7455 0 22.3879 1.35768 22.3879 3.02577C22.3879 4.69387 23.7455 6.05155 25.4135 6.05155ZM25.4135 2.25293C25.8391 2.25293 26.1863 2.60015 26.1863 3.02577C26.1863 3.4514 25.8391 3.79862 25.4135 3.79862C24.9879 3.79862 24.6407 3.4514 24.6407 3.02577C24.6407 2.60015 24.9879 2.25293 25.4135 2.25293Z" fill="#FF5300"/>
<path d="M18.5417 6.05155C20.2097 6.05155 21.5673 4.69387 21.5673 3.02577C21.5673 1.35768 20.2097 0 18.5417 0C16.8737 0 15.5161 1.35768 15.5161 3.02577C15.5161 4.69387 16.8737 6.05155 18.5417 6.05155ZM18.5417 2.25293C18.9673 2.25293 19.3145 2.60015 19.3145 3.02577C19.3145 3.4514 18.9673 3.79862 18.5417 3.79862C18.1161 3.79862 17.7689 3.4514 17.7689 3.02577C17.7689 2.60015 18.1161 2.25293 18.5417 2.25293Z" fill="#FF5300"/>
<path d="M16.2065 15.0207H29.2065C29.8281 15.0207 30.3329 14.5167 30.3329 13.8942V10.6108C30.3329 9.9892 29.8281 9.48438 29.2065 9.48438H16.2065C15.5849 9.48438 15.0801 9.9892 15.0801 10.6108V13.8942C15.0801 14.5167 15.5849 15.0207 16.2065 15.0207ZM17.3329 12.2525C17.3329 11.968 17.5636 11.7373 17.8481 11.7373H27.5648C27.8494 11.7373 28.0801 11.968 28.0801 12.2525C28.0801 12.5371 27.8494 12.7678 27.5648 12.7678H17.8481C17.5636 12.7678 17.3329 12.5371 17.3329 12.2525Z" fill="#FF5300"/>
<path d="M43.7841 69.1107L35.7276 56.2129C35.5244 55.8877 35.7583 55.4659 36.1418 55.4659C39.7946 55.4659 42.7665 52.4937 42.7665 48.8423V13.2963C42.7665 9.64405 39.7946 6.67188 36.1418 6.67188H9.27221C5.62021 6.67188 2.64822 9.64405 2.64822 13.2963V48.8431C2.64822 53.3381 5.87919 59.975 3.49745 63.7872L0.171422 69.1107C-0.158177 69.6379 0.00262246 70.3324 0.529822 70.662C0.715421 70.7788 0.92182 70.834 1.12582 70.834C1.50182 70.834 1.86902 70.6468 2.08262 70.3044C2.71414 69.2936 3.82191 68.6795 5.01378 68.6795H38.9422C40.1344 68.6795 41.2425 69.2935 41.8745 70.3044C42.0882 70.6468 42.4553 70.834 42.8305 70.834C43.0337 70.834 43.2401 70.7788 43.4257 70.662C43.9537 70.3332 44.1137 69.6379 43.7841 69.1107ZM9.19509 58.9182C9.40779 58.5777 9.7809 58.3709 10.1823 58.3709H33.7732C34.1747 58.3709 34.5478 58.5777 34.7605 58.9182C35.2448 59.6935 34.6874 60.699 33.7732 60.699H10.1823C9.26816 60.699 8.71074 59.6935 9.19509 58.9182ZM32.699 55.6197C32.8346 55.8366 32.6787 56.1179 32.4229 56.1179H11.5318C11.2761 56.1179 11.1201 55.8366 11.2557 55.6197C11.3153 55.5245 11.4196 55.4667 11.5318 55.4667H32.4229C32.5352 55.4667 32.6395 55.5245 32.699 55.6197ZM4.90101 48.8423V13.2963C4.90101 10.8857 6.86181 8.9248 9.27221 8.9248H36.141C38.5522 8.9248 40.513 10.8857 40.513 13.2963V48.8431C40.513 51.2529 38.5522 53.2146 36.141 53.2146H9.27221C6.86181 53.2138 4.90101 51.252 4.90101 48.8423ZM7.63825 66.4265C6.27415 66.4265 5.44243 64.9262 6.16523 63.7693C6.4826 63.2613 7.0393 62.9527 7.63826 62.9527H36.3173C36.9163 62.9527 37.473 63.2613 37.7903 63.7693C38.5131 64.9262 37.6814 66.4265 36.3173 66.4265H7.63825Z" fill="#FF5300"/>
</svg>
