<svg width="91" height="42" viewBox="0 0 91 42" fill="none" xmlns="http://www.w3.org/2000/svg">
<path d="M89.1057 39.6H58.6676C57.4847 39.6 56.293 39.4227 55.2483 38.8681C45.1578 33.5117 41.7254 15.7565 41.4168 14.0432C41.4078 13.993 41.4057 13.9551 41.4057 13.9041C41.4057 13.2748 42.0463 12.8605 42.5805 13.1931C44.5014 14.3894 47.2431 17.0071 49.5624 22.7197C50.2462 24.6682 51.06 26.9394 51.9139 29.0118L51.9148 29.0145C53.6155 33.141 55.2072 35.8365 57.0758 37.7535C57.2425 37.9242 57.4701 38.0217 57.7087 38.0246C57.9473 38.0275 58.1774 37.9356 58.3482 37.7691C58.5191 37.6025 58.6168 37.3749 58.62 37.1363C58.6232 36.8978 58.5315 36.6677 58.3651 36.4966C56.664 34.752 55.1879 32.2331 53.5795 28.3289L53.5781 28.3263C52.7406 26.2934 51.9368 24.0504 51.246 22.0834C48.1505 14.4579 44.256 11.8001 42.0304 10.8783C41.6633 10.7262 41.4057 10.3783 41.4057 9.98101C41.4057 9.37886 41.9751 8.94257 42.5335 9.16783C45.1116 10.2078 49.5844 13.1532 52.9312 21.4479C55.9947 30.1808 58.3541 36.0044 63.0562 37.3377C63.6692 37.5131 64.3035 37.6031 64.9411 37.6049C66.0875 37.6367 67.2162 37.3158 68.1744 36.6855C69.1326 36.0552 69.8742 35.1459 70.2989 34.0805C70.7044 33.0341 70.6777 31.8696 70.2247 30.8429C69.7717 29.8162 68.9295 29.0115 67.8832 28.6058C67.4875 28.4523 67.0655 28.3783 66.6412 28.3879C66.2169 28.3976 65.7986 28.4907 65.4104 28.662C65.0221 28.8334 64.6713 29.0795 64.3782 29.3864C64.085 29.6933 63.8552 30.0549 63.7018 30.4506C63.4591 31.0767 63.4749 31.7736 63.7459 32.388C64.0168 33.0025 64.5207 33.4841 65.1467 33.7272C65.3968 33.8243 65.6637 33.8712 65.9319 33.8651C66.2002 33.8591 66.4646 33.8002 66.7101 33.6919C66.9556 33.5836 67.1773 33.4279 67.3626 33.2339C67.5479 33.0398 67.6932 32.8111 67.79 32.5609C67.8754 32.3384 67.8691 32.0912 67.7725 31.8734C67.676 31.6556 67.497 31.485 67.2748 31.3989C67.0527 31.3129 66.8055 31.3184 66.5874 31.4143C66.3693 31.5101 66.1981 31.6886 66.1113 31.9105C66.1 31.9402 66.0828 31.9674 66.0609 31.9905C66.0389 32.0136 66.0126 32.0321 65.9835 32.0449C65.9543 32.0578 65.9229 32.0647 65.8911 32.0653C65.8592 32.0659 65.8276 32.0602 65.798 32.0485C65.7082 32.0138 65.6262 31.9618 65.5565 31.8954C65.4869 31.829 65.4311 31.7495 65.3923 31.6615C65.3534 31.5735 65.3324 31.4787 65.3303 31.3825C65.3282 31.2863 65.3451 31.1906 65.3801 31.101C65.448 30.9257 65.5499 30.7656 65.6798 30.6297C65.8096 30.4938 65.965 30.3848 66.137 30.309C66.3091 30.2331 66.4943 30.192 66.6823 30.1878C66.8702 30.1836 67.0571 30.2164 67.2324 30.2845C67.5301 30.3998 67.8022 30.5727 68.0331 30.7932C68.264 31.0138 68.4492 31.2776 68.5781 31.5697C68.707 31.8618 68.7771 32.1765 68.7844 32.4957C68.7917 32.8149 68.736 33.1324 68.6206 33.4301C68.2062 34.3666 67.4527 35.1116 66.5116 35.5153C65.5704 35.919 64.5113 35.9515 63.5471 35.6063C60.0135 34.6043 57.8562 30.0498 54.6152 20.8134C52.2447 14.9372 49.3368 11.5261 46.7804 9.54607C44.0064 7.39764 41.4057 4.40861 41.4057 0.9C41.4057 0.781802 41.3825 0.664755 41.3372 0.555548C41.292 0.446341 41.2257 0.347113 41.1422 0.263535C41.0586 0.179956 40.9593 0.113663 40.8501 0.0684449C40.7409 0.0232265 40.6239 -3.07131e-05 40.5057 3.04399e-08H29.7057C29.5875 -3.07131e-05 29.4704 0.0232265 29.3612 0.0684449C29.252 0.113663 29.1528 0.179956 29.0692 0.263535C28.9856 0.347113 28.9193 0.446341 28.8741 0.555548C28.8289 0.664755 28.8057 0.781802 28.8057 0.9C28.8057 3.88234 26.388 6.3 23.4057 6.3H0.905665C0.66697 6.3 0.438052 6.39482 0.269269 6.5636C0.100486 6.73239 0.00566462 6.96131 0.00566462 7.2C0.00566462 7.43869 0.100486 7.66761 0.269269 7.8364C0.438052 8.00518 0.66697 8.1 0.905665 8.1C1.93057 8.1 2.44385 9.33916 1.71913 10.0639L0.269311 11.5137C0.184886 11.5971 0.117782 11.6963 0.0718607 11.8057C0.0259395 11.9151 0.00210782 12.0325 0.001737 12.1512C0.00136618 12.2698 0.024463 12.3874 0.0696995 12.4971C0.114936 12.6068 0.181418 12.7064 0.265321 12.7903C0.349223 12.8742 0.448889 12.9407 0.558583 12.986C0.668276 13.0312 0.785831 13.0543 0.904484 13.0539C1.02314 13.0535 1.14054 13.0297 1.24995 12.9838C1.35935 12.9378 1.4586 12.8707 1.54197 12.7863L5.83951 8.48881C6.08846 8.23986 6.42611 8.1 6.77818 8.1C7.96085 8.1 8.55313 9.52989 7.71686 10.3662L0.269365 17.8137C0.184559 17.897 0.117092 17.9962 0.0708599 18.1057C0.0246283 18.2152 0.000547506 18.3328 9.22828e-06 18.4517C-0.000529049 18.5706 0.0224857 18.6883 0.0677237 18.7983C0.112962 18.9082 0.179527 19.008 0.263576 19.0921C0.347624 19.1761 0.44749 19.2427 0.557408 19.2879C0.667325 19.3332 0.785115 19.3562 0.903977 19.3557C1.02284 19.3551 1.14042 19.331 1.24992 19.2848C1.35942 19.2386 1.45868 19.1711 1.54197 19.0863L12.1395 8.48881C12.3885 8.23986 12.7261 8.1 13.0782 8.1C14.2609 8.1 14.8531 9.52989 14.0169 10.3662L0.269365 24.1137C0.184559 24.197 0.117092 24.2962 0.0708599 24.4057C0.0246283 24.5152 0.000547506 24.6328 9.22828e-06 24.7517C-0.000529049 24.8706 0.0224857 24.9883 0.0677237 25.0983C0.112962 25.2082 0.179527 25.308 0.263576 25.3921C0.347624 25.4761 0.44749 25.5427 0.557408 25.5879C0.667325 25.6332 0.785115 25.6562 0.903977 25.6557C1.02284 25.6551 1.14042 25.631 1.24992 25.5848C1.35942 25.5386 1.45868 25.4711 1.54197 25.3863L18.4395 8.48881C18.6885 8.23986 19.0261 8.1 19.3782 8.1C20.5609 8.1 21.1531 9.52989 20.3169 10.3662L0.269365 30.4137C0.184559 30.497 0.117092 30.5962 0.0708599 30.7057C0.0246283 30.8152 0.000547506 30.9328 9.22828e-06 31.0517C-0.000529049 31.1706 0.0224857 31.2883 0.0677237 31.3983C0.112962 31.5082 0.179527 31.608 0.263576 31.6921C0.347624 31.7761 0.44749 31.8427 0.557408 31.8879C0.667325 31.9332 0.785115 31.9562 0.903977 31.9557C1.02284 31.9551 1.14042 31.931 1.24992 31.8848C1.35942 31.8386 1.45868 31.7711 1.54197 31.6863L24.3667 8.8616C24.8544 8.37396 25.5158 8.1 26.2054 8.1H28.751C28.7812 8.1 28.8057 8.12449 28.8057 8.15469C28.8057 8.1692 28.7999 8.18311 28.7897 8.19336L0.269365 36.7137C0.184559 36.797 0.117092 36.8962 0.0708599 37.0057C0.0246283 37.1152 0.000547506 37.2328 9.22828e-06 37.3517C-0.000529049 37.4706 0.0224857 37.5883 0.0677237 37.6983C0.112962 37.8082 0.179527 37.908 0.263576 37.9921C0.347624 38.0761 0.44749 38.1427 0.557408 38.1879C0.667325 38.2332 0.785115 38.2562 0.903977 38.2557C1.02284 38.2551 1.14042 38.231 1.24992 38.1848C1.35942 38.1386 1.45868 38.0711 1.54197 37.9863L26.5395 12.9888C27.3758 12.1525 28.8057 12.7448 28.8057 13.9275C28.8057 14.2796 28.6658 14.6172 28.4169 14.8662L5.64689 37.6361C4.38944 38.8936 2.68397 39.6 0.905665 39.6C0.66697 39.6 0.438052 39.6948 0.269269 39.8636C0.100486 40.0324 0.00566462 40.2613 0.00566462 40.5C0.00566462 40.7387 0.100486 40.9676 0.269269 41.1364C0.438052 41.3052 0.66697 41.4 0.905665 41.4H89.1057C89.3444 41.4 89.5733 41.3052 89.7421 41.1364C89.9109 40.9676 90.0057 40.7387 90.0057 40.5C90.0057 40.2613 89.9109 40.0324 89.7421 39.8636C89.5733 39.6948 89.3444 39.6 89.1057 39.6ZM22.0332 39.6C20.8505 39.6 20.2582 38.1701 21.0945 37.3338L26.5395 31.8888C27.3758 31.0525 28.8057 31.6448 28.8057 32.8275C28.8057 33.1796 28.6658 33.5172 28.4169 33.7662L22.9718 39.2112C22.7229 39.4601 22.3852 39.6 22.0332 39.6ZM15.7332 39.6C14.5505 39.6 13.9582 38.1701 14.7945 37.3338L26.5395 25.5888C27.3758 24.7525 28.8057 25.3448 28.8057 26.5275C28.8057 26.8796 28.6658 27.2172 28.4169 27.4662L16.6718 39.2112C16.4229 39.4601 16.0852 39.6 15.7332 39.6ZM26.967 37.7613C27.6455 37.0828 28.8057 37.5634 28.8057 38.5229C28.8057 39.1178 28.3235 39.6 27.7286 39.6C26.769 39.6 26.2885 38.4398 26.967 37.7613ZM26.5395 19.2888C27.3758 18.4525 28.8057 19.0448 28.8057 20.2275C28.8057 20.5796 28.6658 20.9172 28.4169 21.1662L10.3718 39.2112C10.1229 39.4601 9.78522 39.6 9.43315 39.6C8.25049 39.6 7.65821 38.1701 8.49448 37.3338L26.5395 19.2888ZM35.8089 39.6C32.9352 39.6 30.6057 37.2705 30.6057 34.3968V6.29999C30.6057 3.81471 32.6204 1.8 35.1057 1.8C37.591 1.8 39.6057 3.81472 39.6057 6.3V14.0581C39.6057 14.107 39.6096 14.1558 39.6175 14.204C39.6909 14.6508 40.6035 20.0096 43.0186 25.9222C44.9641 30.6849 40.9535 39.6 35.8089 39.6Z" fill="#FF5300"/>
<path d="M81.4688 29.9014C81.9829 30.1124 82.5336 30.2201 83.0893 30.2183C83.6451 30.2165 84.195 30.1052 84.7077 29.8907C85.2205 29.6763 85.6859 29.363 86.0775 28.9687C86.4692 28.5743 86.7792 28.1067 86.9901 27.5925C87.3152 26.7995 87.312 25.9098 86.9812 25.1191C86.6504 24.3284 86.0191 23.7016 85.2261 23.3764C84.6047 23.122 83.9078 23.1247 83.2883 23.3837C82.6689 23.6428 82.1776 24.137 81.9223 24.758C81.7175 25.2592 81.7198 25.8212 81.9287 26.3208C82.1376 26.8203 82.5361 27.2166 83.0367 27.4229C83.2574 27.513 83.5048 27.512 83.7247 27.4199C83.9445 27.3279 84.1189 27.1523 84.2095 26.9318C84.3 26.7113 84.2994 26.4639 84.2077 26.2439C84.1161 26.0238 83.9408 25.8492 83.7205 25.7582C83.661 25.7338 83.6136 25.6868 83.5887 25.6274C83.5639 25.5681 83.5635 25.5014 83.5878 25.4418C83.662 25.2625 83.804 25.1198 83.983 25.0447C84.1619 24.9696 84.3633 24.9683 84.5432 25.041C84.7172 25.1124 84.8754 25.2173 85.0089 25.3498C85.1423 25.4824 85.2484 25.6399 85.3209 25.8134C85.3935 25.987 85.4311 26.1731 85.4318 26.3611C85.4324 26.5492 85.3959 26.7356 85.3245 26.9096C85.2034 27.2051 85.0253 27.4739 84.8003 27.7005C84.5754 27.9272 84.3079 28.1073 84.0133 28.2305C83.7187 28.3538 83.4027 28.4178 83.0833 28.4188C82.764 28.4199 82.4475 28.358 82.1521 28.2367C81.398 27.929 80.7613 27.3894 80.3341 26.696C80.2722 26.5951 80.191 26.5073 80.0951 26.4378C79.9992 26.3683 79.8906 26.3185 79.7754 26.291C79.6602 26.2636 79.5407 26.2592 79.4238 26.278C79.3069 26.2969 79.1949 26.3386 79.0942 26.4008C78.9934 26.4631 78.906 26.5446 78.8368 26.6407C78.7676 26.7367 78.7181 26.8456 78.691 26.9608C78.664 27.0761 78.66 27.1956 78.6792 27.3124C78.6984 27.4293 78.7405 27.5412 78.803 27.6417C79.4287 28.6592 80.3625 29.4508 81.4688 29.9014Z" fill="#FF5300"/>
<path d="M73.3452 29.3477C73.3917 29.3495 73.4379 29.3512 73.484 29.3512C74.2471 29.3499 74.9805 29.0553 75.5325 28.5283C76.0844 28.0014 76.4127 27.2825 76.4495 26.5203C76.4786 25.8981 76.2594 25.2899 75.8401 24.8294C75.4207 24.3689 74.8357 24.0938 74.2135 24.0646C73.7065 24.0408 73.2108 24.2194 72.8354 24.5611C72.46 24.9028 72.2357 25.3795 72.2118 25.8866C72.2007 26.125 72.2847 26.3581 72.4454 26.5346C72.6061 26.7112 72.8303 26.8166 73.0687 26.8279C73.1871 26.8347 73.3057 26.8179 73.4174 26.7783C73.5292 26.7387 73.6319 26.6772 73.7196 26.5974C73.8073 26.5176 73.8782 26.421 73.928 26.3135C73.9779 26.2059 74.0058 26.0894 74.01 25.971C74.0157 25.8569 74.1912 25.8574 74.298 25.8979C74.3779 25.9282 74.4504 25.9771 74.509 26.0414C74.6068 26.1489 74.6579 26.2907 74.6512 26.4359C74.6315 26.7435 74.4932 27.0315 74.2654 27.2392C74.0376 27.447 73.7381 27.5582 73.43 27.5495C72.9504 27.5293 72.4935 27.34 72.1402 27.0151C72.053 26.9353 71.951 26.8734 71.84 26.833C71.7289 26.7926 71.611 26.7745 71.4929 26.7797C71.3749 26.7849 71.259 26.8133 71.1519 26.8632C71.0448 26.9132 70.9486 26.9838 70.8688 27.0709C70.789 27.158 70.7271 27.26 70.6868 27.3711C70.6464 27.4821 70.6283 27.6001 70.6334 27.7181C70.6386 27.8362 70.667 27.9521 70.717 28.0591C70.7669 28.1662 70.8375 28.2624 70.9246 28.3422C71.5896 28.9493 72.4458 29.3049 73.3452 29.3477Z" fill="#FF5300"/>
<path d="M73.989 31.6662C73.6594 32.2391 73.5703 32.9192 73.7413 33.5577C73.9123 34.1961 74.3295 34.7406 74.9013 35.072C75.1305 35.2045 75.3836 35.2905 75.646 35.3252C75.9084 35.3599 76.1752 35.3426 76.4309 35.2742C76.6866 35.2058 76.9264 35.0877 77.1365 34.9266C77.3466 34.7656 77.5229 34.5647 77.6554 34.3355C77.7145 34.2331 77.753 34.1201 77.7684 34.0028C77.7839 33.8856 77.7761 33.7665 77.7455 33.6522C77.7149 33.538 77.6622 33.4309 77.5902 33.3371C77.5182 33.2433 77.4284 33.1646 77.326 33.1055C77.2236 33.0464 77.1106 33.008 76.9933 32.9926C76.8761 32.9772 76.757 32.985 76.6427 33.0157C76.5285 33.0463 76.4215 33.0992 76.3277 33.1712C76.2339 33.2432 76.1553 33.333 76.0962 33.4355C76.0824 33.4601 76.0636 33.4817 76.0412 33.4989C76.0188 33.5162 75.9931 33.5287 75.9657 33.5357C75.9384 33.5432 75.9098 33.5451 75.8817 33.5413C75.8536 33.5375 75.8266 33.5281 75.8022 33.5137C75.643 33.4216 75.5269 33.2701 75.4792 33.0925C75.4316 32.9149 75.4564 32.7256 75.5482 32.5662C75.731 32.2502 76.0318 32.0197 76.3845 31.9254C76.7373 31.8311 77.113 31.8808 77.4291 32.0635C77.6966 32.2179 77.9311 32.4235 78.1192 32.6686C78.3073 32.9137 78.4452 33.1935 78.5251 33.4919C78.605 33.7903 78.6253 34.1015 78.5849 34.4078C78.5445 34.714 78.4441 35.0093 78.2895 35.2768C77.7921 36.1367 76.9737 36.7639 76.0141 37.0208C75.0545 37.2778 74.0322 37.1433 73.1716 36.647C72.741 36.3985 72.3442 36.0954 71.9913 35.7452C71.9075 35.6619 71.8081 35.5959 71.6988 35.5509C71.5895 35.506 71.4724 35.4831 71.3542 35.4834C71.236 35.4837 71.1191 35.5073 71.01 35.5528C70.901 35.5984 70.8019 35.6649 70.7186 35.7487C70.6353 35.8325 70.5693 35.9319 70.5243 36.0412C70.4794 36.1505 70.4565 36.2676 70.4568 36.3858C70.4571 36.504 70.4807 36.6209 70.5262 36.73C70.5718 36.839 70.6383 36.9381 70.7221 37.0214C71.1852 37.4817 71.7061 37.88 72.2716 38.2062C73.5457 38.9407 75.0591 39.1395 76.4796 38.759C77.9001 38.3785 79.1116 37.4498 79.8478 36.1768C80.1207 35.7046 80.2978 35.1834 80.3691 34.6428C80.4405 34.1022 80.4046 33.5528 80.2636 33.0261C80.1226 32.4993 79.8793 32.0055 79.5474 31.5728C79.2156 31.1401 78.8017 30.7771 78.3296 30.5043C77.9683 30.2956 77.5694 30.16 77.1557 30.1054C76.7421 30.0508 76.3217 30.0783 75.9186 30.1862C75.5156 30.2941 75.1377 30.4803 74.8066 30.7343C74.4756 30.9882 74.1977 31.3049 73.989 31.6662Z" fill="#FF5300"/>
<path d="M84.8034 31.8541C84.3278 32.2675 84.0359 32.8528 83.9917 33.4814C83.9475 34.11 84.1548 34.7304 84.5678 35.2062C84.905 35.5919 85.3811 35.8285 85.8921 35.8642C86.4031 35.9 86.9075 35.732 87.2951 35.397C87.4747 35.2401 87.5847 35.0185 87.6011 34.7806C87.6175 34.5428 87.5388 34.3081 87.3824 34.1282C87.226 33.9483 87.0046 33.8377 86.7667 33.8209C86.5289 33.804 86.2941 33.8821 86.1138 34.0382C86.0858 34.0575 86.0521 34.0669 86.0181 34.0646C85.9841 34.0624 85.9519 34.0487 85.9266 34.0259C85.8265 33.9104 85.7764 33.7599 85.7872 33.6074C85.798 33.455 85.8689 33.3131 85.9842 33.2129C86.2262 33.0029 86.5415 32.8977 86.8611 32.9203C87.1806 32.9428 87.478 33.0914 87.688 33.3333C87.8699 33.5425 88.0087 33.7855 88.0966 34.0484C88.1846 34.3113 88.2198 34.589 88.2004 34.8655C88.181 35.142 88.1072 35.412 87.9834 35.66C87.8596 35.9081 87.6882 36.1293 87.4788 36.311C87.1415 36.6043 86.7498 36.8281 86.3259 36.9699C85.9021 37.1116 85.4544 37.1685 85.0086 37.1371C84.5627 37.1058 84.1275 36.9869 83.7276 36.7872C83.3278 36.5876 82.9712 36.3111 82.6782 35.9735C82.596 35.8795 82.5183 35.7828 82.4444 35.6852C82.3736 35.5907 82.2848 35.5111 82.1831 35.4508C82.0815 35.3906 81.969 35.351 81.852 35.3343C81.6158 35.3005 81.3759 35.3619 81.185 35.5051C80.994 35.6482 80.8678 35.8613 80.834 36.0975C80.8002 36.3337 80.8617 36.5736 81.0048 36.7645C81.105 36.899 81.2109 37.0291 81.3207 37.1557C81.7675 37.6728 82.3125 38.0961 82.924 38.4011C83.5356 38.7062 84.2015 38.8869 84.8834 38.9328C85.0078 38.9416 85.1317 38.946 85.2552 38.946C86.5072 38.9473 87.717 38.4938 88.6596 37.6698C89.0473 37.3329 89.3649 36.923 89.5942 36.4633C89.8235 36.0037 89.96 35.5035 89.996 34.9911C90.0319 34.4787 89.9666 33.9643 89.8037 33.4771C89.6409 32.99 89.3837 32.5397 89.0468 32.152C88.5235 31.55 87.7825 31.1805 86.9868 31.1246C86.1911 31.0687 85.4057 31.3311 84.8034 31.8541Z" fill="#FF5300"/>
</svg>
