<svg width="104" height="75" viewBox="0 0 104 75" fill="none" xmlns="http://www.w3.org/2000/svg">
<path d="M103.297 20.7156L97.3584 14.7768C96.4213 13.8397 96.4213 12.3203 97.3584 11.3832C97.584 11.1576 97.71 10.8528 97.71 10.5348C97.71 10.2168 97.584 9.9108 97.3584 9.6864L93.9636 6.2916C93.5136 5.8416 92.7168 5.8416 92.2668 6.2916C91.3298 7.22924 89.81 7.22939 88.8729 6.29193L82.9344 0.351599C82.7088 0.125999 82.4052 0 82.086 0C81.7668 0 81.462 0.125999 81.2376 0.351599L77.8428 3.7464C77.3736 4.2156 77.3736 4.974 77.8428 5.4432L84.1466 11.747C84.8828 12.4832 84.7434 14.0406 85.4796 14.7768C85.9482 15.2454 85.9482 16.005 85.4796 16.4736L84.7243 17.2289C84.0573 17.8959 83.0383 18.0147 82.0951 18.0079C81.1594 18.0011 80.2223 18.3361 79.5384 19.02C78.1368 20.424 78.1368 22.7076 79.5396 24.1104C80.2188 24.7908 81.1236 25.1652 82.0848 25.1652C83.0472 25.1652 83.952 24.7908 84.6312 24.1104C85.3366 23.405 85.6815 22.4791 85.6732 21.5537C85.6647 20.6062 85.7697 19.5783 86.4397 18.9083L87.1764 18.1716C87.645 17.703 88.4046 17.703 88.8732 18.1716C89.1072 18.4056 89.4144 18.5232 89.7216 18.5232C90.2421 18.5232 90.8684 18.47 91.2364 18.838L98.2068 25.8084C98.4324 26.034 98.736 26.16 99.0552 26.16C99.3744 26.16 99.6792 26.034 99.9036 25.8084L103.297 22.4136C103.766 21.9432 103.766 21.1836 103.297 20.7156ZM82.9332 22.4124C82.4796 22.8648 81.6912 22.866 81.2352 22.4124C80.7672 21.9444 80.7672 21.1836 81.2352 20.7156C81.462 20.4888 81.7632 20.364 82.0836 20.364C82.4052 20.364 82.7064 20.4888 82.932 20.7144C83.4012 21.1836 83.4012 21.9444 82.9332 22.4124ZM81.2357 5.44252C80.7669 4.97368 80.7669 4.21352 81.2357 3.74467C81.7046 3.27577 82.4649 3.27584 82.9337 3.74483L88.0238 8.83673C88.4923 9.30535 88.4922 10.065 88.0237 10.5335C87.5551 11.0021 86.7953 11.0021 86.3267 10.5335L81.2357 5.44252ZM88.778 14.7764C88.3005 14.3062 88.2913 13.539 88.7573 13.0575L91.1992 10.5344C91.1997 10.5339 91.2 10.5332 91.2 10.5324C91.2 10.5316 91.2003 10.5309 91.2009 10.5304L92.1447 9.64362C92.6262 9.19133 93.378 9.19704 93.8525 9.65659C94.3498 10.1383 94.355 10.9343 93.8641 11.4225L90.4954 14.7722C90.0209 15.2441 89.2549 15.246 88.778 14.7764ZM99.9039 22.4115C99.4352 22.8805 98.675 22.8806 98.2062 22.4118L92.8326 17.0382C92.5202 16.7258 92.5205 16.2193 92.8332 15.9072C93.4582 15.2822 94.4714 15.2822 95.0964 15.9072L99.9036 20.7144C100.372 21.183 100.372 21.9427 99.9039 22.4115Z" fill="#FF5300"/>
<path d="M90.9371 71.8516C83.2556 71.8516 78 61.533 78 53.8516C78 50.7699 79.3701 47.738 82.0163 46.1586C89.0473 41.9621 93.9666 37.8296 92.8392 35.002C91.8335 32.4764 86.6591 32.2504 77.4459 34.3124C73.674 35.1566 69.783 33.8574 66.6647 31.5734C63.0054 28.8932 58.6651 27.0921 53.9541 26.4837C52.6437 26.3144 51.6 25.2397 51.6 23.9185C51.6 22.556 52.7045 21.4516 54.0669 21.4516H63.6C64.2636 21.4516 64.8 20.914 64.8 20.2516V13.0516C64.8 12.3892 64.2636 11.8516 63.6 11.8516H50.4C49.7376 11.8516 49.2 12.3892 49.2 13.0516V20.2516C49.2 23.623 46.5064 26.3209 43.2502 27.1947C31.4862 30.3518 22.8 41.1038 22.8 53.8516C22.8 55.0132 22.2226 56.1172 21.2252 56.7127C8.85507 64.0987 9.9751 66.9366 10.3596 67.9036C10.9392 69.3568 12.9168 69.9616 15.7884 69.9616C18.4852 69.9616 21.9729 69.4269 25.8298 68.5628C26.4621 68.4212 27.1104 68.6881 27.4725 69.2255C28.1946 70.2971 27.4717 71.8516 26.1795 71.8516H1.2C0.537258 71.8516 0 72.3888 0 73.0516C0 73.7143 0.537259 74.2516 1.2 74.2516H32.2908H68.5092H99.6C100.263 74.2516 100.8 73.7143 100.8 73.0516C100.8 72.3888 100.263 71.8516 99.6 71.8516H90.9371ZM90.6108 35.8912C91.0131 36.8975 87.7116 39.9683 80.7298 44.1391C78.8137 45.2838 76.3543 44.2216 75.409 42.1997C74.3835 40.0061 75.4027 37.2404 77.7659 36.7121C87.5098 34.534 90.4334 35.4476 90.6108 35.8912ZM62.4 16.6516C62.4 17.977 61.3255 19.0516 60 19.0516H54C52.6745 19.0516 51.6 17.977 51.6 16.6516C51.6 15.3261 52.6745 14.2516 54 14.2516H60C61.3255 14.2516 62.4 15.3261 62.4 16.6516ZM50.4 28.6516C59.2855 28.6516 67.0961 33.2815 71.5765 40.2522C74.0885 44.1602 71.8579 49.0382 67.6584 51.0248C63.587 52.9508 58.9763 54.9683 53.8236 57.0244C46.9997 59.7463 40.9091 61.8638 35.6376 63.4683C31.2353 64.8083 26.3555 62.7168 25.5703 58.1826C25.3254 56.7686 25.2 55.3214 25.2 53.8516C25.2 39.9568 36.504 28.6516 50.4 28.6516ZM12.5892 67.0144C12.4405 66.6417 13.4073 64.6308 19.4334 60.6649C21.1978 59.5037 23.5472 60.6169 24.2147 62.6208C24.8304 64.4691 23.837 66.5666 21.9205 66.9161C16.1742 67.9641 12.9271 67.8611 12.5892 67.0144ZM33.9833 71.8516C33.2076 71.8516 32.447 71.5435 31.9202 70.9741C30.5353 69.4774 31.4188 67.1754 33.3784 66.6112C40.975 64.4239 48.9381 61.5573 54.7116 59.254C59.5291 57.3322 65.7225 54.6456 71.7179 51.6922C73.4695 50.8294 75.6 51.899 75.6 53.8516C75.6 59.3208 73.886 64.4883 70.7038 68.7831C69.148 70.8831 66.5622 71.8516 63.9487 71.8516H33.9833Z" fill="#FF5300"/>
<path d="M11.0664 33.1789C9.78356 33.1789 8.57876 32.6797 7.67156 31.7737C6.76556 30.8677 6.26636 29.6629 6.26636 28.3801C6.26636 27.0973 6.76556 25.8925 7.67156 24.9854C9.48356 23.1721 12.6456 23.171 14.46 24.9854C15.366 25.8925 15.8652 27.0973 15.8652 28.3801C15.8652 29.6629 15.366 30.8677 14.46 31.7737C13.554 32.6797 12.3492 33.1789 11.0664 33.1789ZM11.0664 25.9789C10.4244 25.9789 9.82196 26.2285 9.36836 26.6809C8.91596 27.1345 8.66636 27.7369 8.66636 28.3789C8.66636 29.0197 8.91596 29.6234 9.36836 30.0758C10.2732 30.9818 11.856 30.9818 12.7632 30.0758C13.2156 29.6234 13.4652 29.0197 13.4652 28.3789C13.4652 27.7369 13.2156 27.1345 12.7632 26.6809C12.3108 26.2285 11.7072 25.9789 11.0664 25.9789Z" fill="#FF5300"/>
<path d="M17.0063 24.1457L34.8252 6.32681C35.2938 5.85819 35.2938 5.09839 34.8252 4.62977C34.3566 4.16115 33.5968 4.16115 33.1282 4.62977L15.3092 22.4487C14.8406 22.9173 14.8406 23.6771 15.3092 24.1457C15.7779 24.6144 16.5377 24.6144 17.0063 24.1457Z" fill="#FF5300"/>
<path d="M19.5531 26.6822L35.6741 10.5612C36.1428 10.0926 36.1428 9.33277 35.6741 8.86414C35.2055 8.39552 34.4457 8.39552 33.9771 8.86415L17.8561 24.9852C17.3874 25.4538 17.3874 26.2136 17.8561 26.6822C18.3247 27.1508 19.0845 27.1508 19.5531 26.6822Z" fill="#FF5300"/>
<path d="M14.4602 21.6002L29.7335 6.32681C30.2022 5.85819 30.2022 5.09839 29.7335 4.62977C29.2649 4.16115 28.5051 4.16115 28.0365 4.62977L12.7631 19.9031C12.2945 20.3718 12.2945 21.1315 12.7631 21.6002C13.2318 22.0688 13.9915 22.0688 14.4602 21.6002Z" fill="#FF5300"/>
<path d="M11.0664 36.7848C8.91599 36.7848 6.76439 35.9664 5.12639 34.3308C1.85159 31.0548 1.85159 25.7256 5.12639 22.4496L22.9464 4.62965C23.4149 4.16109 24.1746 4.16109 24.6432 4.62965C25.1117 5.09821 25.1117 5.85789 24.6432 6.32645L6.82319 24.1465C4.48439 26.4865 4.48439 30.294 6.82319 32.6328C9.16319 34.9716 12.9708 34.9704 15.3084 32.6328L33.1284 14.8129C33.5969 14.3443 34.3566 14.3443 34.8252 14.8129C35.2938 15.2814 35.2938 16.0411 34.8252 16.5097L17.0052 34.3308C15.3684 35.9676 13.2168 36.7848 11.0664 36.7848Z" fill="#FF5300"/>
<path d="M40.8 53.8484C35.5068 53.8484 31.2 49.5416 31.2 44.2484C31.2 38.9552 35.5068 34.6484 40.8 34.6484C46.0932 34.6484 50.4 38.9552 50.4 44.2484C50.4 49.5416 46.0932 53.8484 40.8 53.8484ZM40.8 37.0484C36.8292 37.0484 33.6 40.2776 33.6 44.2484C33.6 48.2192 36.8292 51.4484 40.8 51.4484C44.7708 51.4484 48 48.2192 48 44.2484C48 40.2776 44.7708 37.0484 40.8 37.0484Z" fill="#FF5300"/>
<path d="M57.6 68.2469C55.6152 68.2469 54 66.6317 54 64.6469C54 62.6621 55.6152 61.0469 57.6 61.0469C59.5848 61.0469 61.2 62.6621 61.2 64.6469C61.2 66.6317 59.5848 68.2469 57.6 68.2469ZM57.6 63.4469C56.9376 63.4469 56.4 63.9845 56.4 64.6469C56.4 65.3093 56.9376 65.8469 57.6 65.8469C58.2624 65.8469 58.8 65.3093 58.8 64.6469C58.8 63.9845 58.2624 63.4469 57.6 63.4469Z" fill="#FF5300"/>
<path d="M63.6 46.6531C61.6152 46.6531 60 45.0379 60 43.0531C60 41.0683 61.6152 39.4531 63.6 39.4531C65.5848 39.4531 67.2 41.0683 67.2 43.0531C67.2 45.0379 65.5848 46.6531 63.6 46.6531ZM63.6 41.8531C62.9376 41.8531 62.4 42.3907 62.4 43.0531C62.4 43.7155 62.9376 44.2531 63.6 44.2531C64.2624 44.2531 64.8 43.7155 64.8 43.0531C64.8 42.3907 64.2624 41.8531 63.6 41.8531Z" fill="#FF5300"/>
<path d="M90 56.2484C87.3528 56.2484 85.2 54.0956 85.2 51.4484C85.2 48.8012 87.3528 46.6484 90 46.6484C92.6472 46.6484 94.8 48.8012 94.8 51.4484C94.8 54.0956 92.6472 56.2484 90 56.2484ZM90 49.0484C88.6764 49.0484 87.6 50.1248 87.6 51.4484C87.6 52.772 88.6764 53.8484 90 53.8484C91.3236 53.8484 92.4 52.772 92.4 51.4484C92.4 50.1248 91.3236 49.0484 90 49.0484Z" fill="#FF5300"/>
<path d="M13.2 46.65H9.60002C8.93762 46.65 8.40002 46.1136 8.40002 45.45C8.40002 44.7864 8.93762 44.25 9.60002 44.25H13.2C13.8624 44.25 14.4 44.7864 14.4 45.45C14.4 46.1136 13.8624 46.65 13.2 46.65Z" fill="#FF5300"/>
<path d="M99.6 40.65H97.2C96.5364 40.65 96 40.1136 96 39.45C96 38.7864 96.5364 38.25 97.2 38.25H99.6C100.264 38.25 100.8 38.7864 100.8 39.45C100.8 40.1136 100.264 40.65 99.6 40.65Z" fill="#FF5300"/>
<path d="M84 64.65H81.6C80.9364 64.65 80.4 64.1136 80.4 63.45C80.4 62.7864 80.9364 62.25 81.6 62.25H84C84.6636 62.25 85.2 62.7864 85.2 63.45C85.2 64.1136 84.6636 64.65 84 64.65Z" fill="#FF5300"/>
<path d="M48 9.44688H44.4C43.7376 9.44688 43.2 8.90928 43.2 8.24688C43.2 7.58448 43.7376 7.04688 44.4 7.04688H48C48.6624 7.04688 49.2 7.58448 49.2 8.24688C49.2 8.90928 48.6624 9.44688 48 9.44688Z" fill="#FF5300"/>
</svg>
