<svg width="48" height="71" viewBox="0 0 48 71" fill="none" xmlns="http://www.w3.org/2000/svg">
<path d="M0.0022583 46.6055C0.0022583 40.1795 2.54626 34.1496 7.00826 29.6876C16.3823 20.3137 31.5302 20.3737 40.8442 29.6876C50.2142 39.0575 50.1602 54.2074 40.8442 63.5233C38.6482 65.7193 36.0882 67.4452 33.2402 68.6492C17.4962 75.3052 0.0022583 63.7033 0.0022583 46.6055ZM23.9262 25.0997C12.0683 25.0997 2.42226 34.7456 2.42226 46.6035C2.42226 58.4613 12.0683 68.1072 23.9262 68.1072C35.7842 68.1072 45.4302 58.4613 45.4302 46.6035C45.4302 34.7476 35.7842 25.0997 23.9262 25.0997Z" fill="#FF5300"/>
<path d="M43.5983 58.3392C42.9723 58.1072 42.6523 57.4113 42.8843 56.7833C43.4223 55.3293 43.4343 54.0993 42.9203 53.1253C42.0583 51.4933 39.8903 50.7413 38.6763 50.4393C38.2443 50.3313 37.7903 50.3253 37.3263 50.4193C33.2203 51.2493 30.3783 49.0753 29.1423 45.0734C28.6183 43.3794 29.0663 41.5234 30.3123 40.2254C30.7303 39.7894 30.6763 39.5194 30.6523 39.4054C30.5963 39.1274 30.2803 38.3594 28.5743 37.2415C28.4247 37.1435 28.2742 37.0498 28.1262 36.9613C27.0767 36.3335 25.8733 35.9086 24.881 35.1937C23.6966 34.3404 22.9479 33.2716 22.6483 32.0015C22.0803 29.5975 23.1923 26.6716 25.9543 23.3096C26.3783 22.7936 27.1403 22.7176 27.6583 23.1416C28.1743 23.5656 28.2503 24.3276 27.8263 24.8456C25.6323 27.5176 24.6323 29.8615 25.0063 31.4455C25.2443 32.4575 26.0523 33.2575 27.4723 33.8915C27.5923 33.9435 28.7163 34.4395 29.9023 35.2175C31.7183 36.4075 32.7683 37.6555 33.0263 38.9274C33.1763 39.6694 33.1303 40.7874 32.0583 41.9034C31.4223 42.5654 31.1923 43.5054 31.4563 44.3574C32.8483 48.8553 35.8603 48.2453 36.8503 48.0453C37.6703 47.8793 38.4823 47.8934 39.2663 48.0893C44.2643 49.3393 46.9723 52.7293 45.1603 57.6232C44.9163 58.2652 44.2063 58.5692 43.5983 58.3392Z" fill="#FF5300"/>
<path d="M0.280322 48.7699C-0.147678 48.2559 -0.0776785 47.494 0.436321 47.066C0.950321 46.638 1.71232 46.708 2.14032 47.222C7.55232 53.7299 14.6323 47.678 14.4703 45.3C14.4603 45.15 14.4403 44.87 13.7543 44.696C10.0643 43.758 8.83832 40.93 10.1923 37.2901C10.6143 36.1541 11.1503 35.3261 11.1723 35.2921C11.4103 34.9261 13.1083 33.6601 12.8023 31.5181C12.6503 30.4601 12.0463 29.3181 11.0023 28.1242C10.5623 27.6202 10.6143 26.8562 11.1163 26.4162C11.6203 25.9762 12.3843 26.0282 12.8243 26.5302C15.514 29.6026 16.1248 32.9118 13.9108 35.8269C13.4384 36.4488 12.9131 37.0408 12.6076 37.7595C12.2164 38.6799 11.8865 39.8859 12.2023 40.802C12.5103 41.692 13.4303 42.122 14.3423 42.348C15.8623 42.73 16.7883 43.746 16.8823 45.136C17.1983 49.8719 7.19432 57.0699 0.280322 48.7699Z" fill="#FF5300"/>
<path d="M14.8044 68.5984C9.45439 62.9244 13.2284 56.7165 18.6204 53.9465C20.7104 52.8725 22.6904 52.5245 24.0484 52.9925C25.3424 53.4385 26.0344 54.5865 25.9004 56.0645C25.8164 56.9765 25.9104 57.9685 26.6064 58.5585C27.5044 59.3185 29.2684 59.3385 30.6184 59.1045C30.7464 59.0825 30.8664 59.0465 30.9724 58.9985C34.8844 57.2165 38.1444 58.8685 40.3304 62.7324C40.6604 63.3144 40.4544 64.0524 39.8724 64.3824C39.2904 64.7124 38.5524 64.5064 38.2224 63.9244C36.3304 60.5885 34.2124 60.1825 31.9744 61.2005C31.6804 61.3345 31.3644 61.4305 31.0304 61.4885C26.5124 62.2664 23.0724 60.4465 23.4904 55.8445C23.5324 55.3745 23.4064 55.3305 23.2604 55.2805C22.6824 55.0805 21.3664 55.2565 19.7284 56.0985C18.0304 56.9705 16.5384 58.2765 15.6304 59.6805C14.0364 62.1484 14.3524 64.5904 16.5664 66.9404C17.0244 67.4264 17.0024 68.1924 16.5164 68.6504C16.0404 69.0984 15.2724 69.0944 14.8044 68.5984Z" fill="#FF5300"/>
<path d="M24.5882 16.9309C21.6682 13.327 22.2362 8.06504 25.8242 5.14907C28.7842 2.7491 40.0542 0.659118 43.7882 0.0171252C44.7082 -0.136873 45.4601 0.775117 45.1141 1.65311C43.6561 5.19307 39.4022 15.707 36.3702 18.1629C32.7962 21.0589 27.5202 20.5489 24.5882 16.9309ZM34.8462 16.281C39.9692 12.1272 32.4732 2.87581 27.3482 7.02705C24.7962 9.10103 24.3942 12.843 26.4682 15.403C28.5402 17.9589 32.2842 18.3549 34.8462 16.281Z" fill="#FF5300"/>
<path d="M11.4821 18.1632C8.45014 15.7073 4.17414 5.14336 2.73814 1.6534C2.39414 0.781409 3.13614 -0.138581 4.06414 0.0174171C4.10014 0.0234171 7.72614 0.629411 11.6821 1.5354C17.2041 2.79939 20.5881 3.98138 22.0281 5.14736C25.6121 8.04933 26.1901 13.3193 23.2641 16.9292C20.3801 20.4892 15.1161 21.1032 11.4821 18.1632ZM13.0061 16.2812C15.5581 18.3492 19.3061 17.9652 21.3841 15.4033C23.4581 12.8453 23.0621 9.09732 20.5061 7.02534C19.1299 5.90815 14.8582 4.74288 11.1544 3.89563C8.87231 3.37361 7.02223 5.65512 8.00614 7.77934C10.8741 13.9773 12.3701 15.7673 13.0061 16.2812Z" fill="#FF5300"/>
<path d="M23.9323 25.0808C23.2643 25.0808 22.7223 24.5389 22.7223 23.8709V11.335C22.7223 10.667 23.2643 10.125 23.9323 10.125C24.6003 10.125 25.1423 10.667 25.1423 11.335V23.8709C25.1423 24.5389 24.6003 25.0808 23.9323 25.0808Z" fill="#FF5300"/>
</svg>
